<?xml version="1.0" encoding="UTF-8"?>
<svg id="Layer_35" data-name="Layer 35" xmlns="http://www.w3.org/2000/svg" viewBox="0 0 498 200">
  <defs>
    <style>
      .cls-1 {
        fill: #fff;
      }
    </style>
  </defs>
  <path class="cls-1" d="M50.07,75.03c4.45,0,7.25.84,8.42,2.53,1.31,1.63,1.96,4.18,1.96,7.65v.32c0,3.02-.37,5.56-1.12,7.63-.78,1.48-1.74,2.22-2.87,2.22-.25,0-1.34-.07-3.26-.2-5.49,0-10.02,1.65-13.58,4.96-1.14,1.5-1.7,2.83-1.7,3.98v.2s-.02.06-.06.06l.06.14v.2c0,1.83,1.07,3.42,3.2,4.77,1.66.78,3.18,1.18,4.57,1.18,0,.04.02.06.08.06,1.22,0,2.76-.52,4.63-1.57.74-.4,2.01-1.51,3.79-3.32.45-.09.73-.14.84-.14,2.61,0,4.95,1.98,7.05,5.94.17.49.26.93.26,1.3v.33c-.29,1.62-1.46,3.66-3.52,6.13-5.1,4.92-10.78,7.38-17.03,7.38-4.28,0-8.78-2.26-13.52-6.79-4.44-5.9-6.65-11.82-6.65-17.74,0-4.6,1.26-9.1,3.79-13.52,4.15-6.23,9.55-10.43,16.19-12.6,2.31-.73,5.14-1.1,8.48-1.1ZM25.99,97.61v.47c0,.11.04.31.12.59h.2c.28-.24.85-1.44,1.7-3.59,2.73-5.89,6.99-10.18,12.79-12.86,3.39-1.23,5.59-1.84,6.59-1.84,2.09-.32,3.39-.58,3.91-.77l.14-.2v-.14c-.27-.42-1.12-.66-2.55-.72-.1-.04-.49-.06-1.18-.06-6.14,0-11.64,2.59-16.51,7.77-2.52,2.9-4.11,5.64-4.77,8.22-.3,1.32-.45,2.36-.45,3.12ZM44.26,114.32c.37.6,1.31.91,2.81.91,2.36,0,4.89-1,7.57-3,.47-.47.71-.88.71-1.24,0-.4-.3-.64-.91-.71-.44,0-2.03.69-4.77,2.08-1.16.48-2.79.99-4.89,1.51-.35.17-.53.32-.53.45Z"/>
  <path class="cls-1" d="M99.98,75.03h.84c1.85,0,3.98,1.39,6.4,4.18,2.87,4.15,4.3,6.31,4.3,6.46,7.44,11.74,11.17,23.23,11.16,34.46,0,2.03-.24,3.23-.71,3.59-1.01,1.52-3.05,2.28-6.14,2.28h-.98c-2.18,0-4.86-.35-8.03-1.04-.84-.42-1.56-1.34-2.16-2.75-.87-2.77-1.3-4.96-1.3-6.59-.07,0-.16-1-.27-3-1.21.39-2.67.59-4.38.59h-.57c0,3.8-.9,7.5-2.69,11.1-1.01,1.44-2.66,2.16-4.96,2.16h-1.04c-2.52,0-6.16-.78-10.89-2.35-1.18-.71-1.77-1.85-1.77-3.39v-.06c0-3.67.74-8.52,2.22-14.56,1.46-4.85,3.05-8.92,4.77-12.21,1.52-2.94,3.48-6.05,5.87-9.34,1.52-2.09,3.89-4.81,7.12-8.15,1.17-.92,2.23-1.37,3.2-1.37ZM81.63,113.01l.06.27h.08c.14,0,.83-2.09,2.08-6.28,1.42-4.22,3.03-8.03,4.83-11.42l2.29-3.79c1.32-2.06,2.84-4.15,4.57-6.26,1.77-2.21,3.2-3.58,4.3-4.1.74-.5,1.12-1.01,1.12-1.51-.23-.56-.67-.84-1.31-.84-1.77,0-4.92,3.33-9.46,9.99-2.82,4.3-4.99,8.84-6.53,13.64-1.35,4.29-2.02,7.72-2.02,10.31ZM98.47,104.73v.39s.08.45.08.45c2.47-.42,3.71-.99,3.71-1.69.09-.54.14-.98.14-1.31-.18-2.26-.55-3.39-1.12-3.39-.07-.04-.18-.06-.32-.06-.93.54-1.6,1.54-2.04,3-.3,1.02-.45,1.89-.45,2.61ZM101.17,107.02v.06c0,.42.5.68,1.51.78.57,0,1.29-.23,2.16-.69.76-.52,1.15-1.12,1.15-1.78,0-.79-.28-1.19-.84-1.19-.35,0-.77.31-1.25.94-.48.62-1.06,1.01-1.74,1.16-.67.15-1,.39-.98.72Z"/>
  <path class="cls-1" d="M169.27,74.57c2.07,0,3.97.48,5.69,1.45,1.04.68,1.73,1.62,2.08,2.81.35,1.83.74,6.53,1.18,14.09.17,2.69.28,6.19.33,10.5,0,8.99-.78,16.06-2.35,21.21-.71,1.18-1.85,1.77-3.39,1.77h-.39c-2.58,0-5.6-1-9.07-3-1.4-.93-2.62-2.16-3.67-3.71-1.94-3.12-3.92-8.04-5.93-14.76h-.08s0,.26,0,.26c0,5.1.42,10.45,1.25,16.05.05,0,.09.35.12,1.06,0,1.39-.76,2.32-2.28,2.81-.74.13-1.35.2-1.83.2-5.54,0-8.96-.61-10.24-1.83-1.27-.99-1.9-2.34-1.9-4.06-1.09-10.06-1.63-18.67-1.63-25.85v-1.1c0-7.84.74-13.34,2.22-16.52.46-.39,1.46-.59,3-.59,3.23,0,6.97.5,11.23,1.51,2.1.71,3.34,1.45,3.73,2.22,2,2.63,4.24,7.81,6.71,15.54h.08s0-.2,0-.2c0-2.81-.37-7.03-1.12-12.67-.04-.45-.06-1.06-.06-1.83v-.51c0-2.05.28-3.27.84-3.67,1.73-.78,3.56-1.18,5.48-1.18ZM140.3,81.91c.14,1.06.48,1.58,1.01,1.58,1.3-.7,2.88-1.82,4.74-3.35,1.25-.55,1.87-.86,1.87-.92,0-.23-1-.72-2.99-1.48l-.83-.11c-1.78,0-2.98,1-3.61,2.99-.13.54-.2.97-.2,1.28ZM165.12,79.89c0,.49.18.86.54,1.1h.27c.49,0,1.54-.69,3.15-2.07.69-.31,1.04-.65,1.04-1.01v-.29c-.35-.5-1.04-.75-2.05-.75-1.34,0-2.28.71-2.84,2.13-.08.36-.12.66-.12.89Z"/>
  <path class="cls-1" d="M205.23,77.77h1.43c9.7,0,18.46,3.87,26.3,11.62,4.66,4.81,6.99,9.55,6.99,14.23,0,6.01-3.57,11.81-10.7,17.43-4.38,3.14-9.16,4.71-14.36,4.71-4.81,0-9.88-1.31-15.21-3.92-1.44-1.58-2.7-4.28-3.79-8.09-.84-2.9-1.61-7.55-2.34-13.97-.35-3.34-.53-6.06-.53-8.15v-2.35c0-5.63,1.15-9.11,3.46-10.44,0-.17,1.83-.48,5.49-.92,1.29-.09,2.37-.14,3.26-.14ZM197,84.95c.11.88.26,1.31.45,1.31h.14c.05,0,.33-.26.84-.78,1.78-1.61,3.24-2.41,4.38-2.41.45-.12,2.63-.34,6.52-.65.26-.11.39-.2.39-.27v-.06c-1.27-.56-3.09-.84-5.48-.84h-2.41c-2.5,0-4.05.89-4.63,2.67-.13.28-.2.63-.2,1.04ZM208.17,103.29v.32c0,2.49.48,5.06,1.43,7.71.4.3.95.45,1.63.45,1.89,0,3.76-.52,5.61-1.57,1.05-.96,1.57-1.98,1.57-3.06,0-1.81-1.26-3.51-3.79-5.08-1.32-.57-2.67-.86-4.04-.86h-.14c-1.35,0-2.02.2-2.02.59-.14,0-.23.5-.26,1.51ZM211.56,115.23c0,.52.84.83,2.53.92,2.66,0,4.98-1.31,6.99-3.92.61-1.05.92-1.94.92-2.67-.12-.82-.3-1.24-.53-1.24h-.14c-.32,0-.82.52-1.49,1.57-1.43,2.09-3.71,3.59-6.85,4.5-.96.18-1.43.46-1.43.84Z"/>
  <path class="cls-1" d="M284.32,75.09c4.09.08,6.14.28,6.14.59,1,.7,1.49,2.75,1.49,6.14v.2c0,4.42-.54,10.38-1.63,17.88-.43,2.11-1.06,3.57-1.89,4.38-1.75,1.39-4.01,2.08-6.79,2.08v.06c.04.09.06.16.06.2.13,2.66.2,4.94.2,6.87v1.49c-.14,6.88-.44,10.32-.91,10.32-.69.82-1.87,1.24-3.53,1.24-2.2,0-4.71-.85-7.51-2.55-1.91-1.35-2.87-2.56-2.87-3.65-.21-.95-.32-1.95-.32-3,0-2.36.26-6.58.77-12.66-4.6-1.31-8.03-3.09-10.31-5.36-1.32-1.61-2.17-3.02-2.55-4.24-.69-1.39-1.04-3.39-1.04-6.01,0-3.54.67-6.39,2.02-8.55.37-.54,1.09-.94,2.16-1.18,1.43-.39,3.43-.59,6.01-.59h.91c1.1,0,2.27.42,3.53,1.25.56.56.84,1.15.84,1.75v.53c0,.8-.37,2.48-1.1,5.02-.09.5-.14,1.03-.14,1.57,0,2.7,1.59,4.04,4.77,4.04,1.52,0,2.28-.41,2.28-1.24-.52-4.89-.78-8.22-.78-9.99v-.78c.09-2.83.92-4.5,2.49-5.02,2.54-.52,5.11-.78,7.69-.78ZM257.31,85.49c.15,2.03.47,3.05.97,3.05v-.08c.3-.32.75-1.04,1.34-2.16,2.28-1.8,3.42-3.07,3.42-3.82v-.14c0-.54-.4-.86-1.21-.97h-.36c-1.94,0-3.28,1.09-4.03,3.27-.09.42-.14.7-.14.83ZM272.31,95.99c0,.28.2.51.6.69.45.2.85.3,1.21.3h.57c.86,0,1.69-.39,2.47-1.16.83-.86,1.25-1.77,1.25-2.7,0-.02.02-.03.05-.03l-.09-.44s.02-.05.05-.05c-.06-.57-.12-.86-.18-.86l.06-.09c-.15-.26-.23-.41-.23-.44-.22,0-.49.35-.81,1.04-.23.47-.75,1.13-1.57,1.96-.87.57-1.85,1.02-2.94,1.34-.26.12-.41.26-.44.42ZM278.33,82.83c1.1-.22,2.07-.67,2.92-1.34.85-.67,1.93-1.02,3.24-1.03,1.31-.02,2-.49,2.06-1.41v-.06c.03-.65-.53-.99-1.67-1.01-1.15-.02-2.52-.08-4.11-.17-1.59-.09-2.74.79-3.43,2.64-.43,1.81-.1,2.61,1,2.38Z"/>
  <path class="cls-1" d="M321.08,74.19h1.11c1.15,0,1.82.46,2.01,1.37,1.48,3.09,2.65,9.11,3.5,18.05.07,0,.42-.83,1.05-2.46,1.64-3.52,3.83-7.59,6.56-12.21.52-.48,1.28-.72,2.27-.72,2.25,0,5.8,1.11,10.64,3.32,1.3.71,1.95,1.32,1.95,1.82-.16.96-.75,3.08-1.76,6.37-2.71,8.03-5.7,14.82-8.96,20.39-2.16,3.69-4.52,7.18-7.07,10.45-1.85,2.53-3.39,4.01-4.61,4.43-.47.17-.91.26-1.31.26h-.51c-1.54,0-3.08-1.08-4.62-3.24-2.76-5.1-5.31-10.85-7.66-17.22-1.32-3.57-2.58-7.97-3.77-13.18-1.34-6.63-2.01-11.2-2.01-13.71,0-1.08,3.9-2.29,11.7-3.63.58-.04,1.08-.06,1.49-.06ZM311.72,80.95c.09.99.42,1.49.98,1.49v.06c.44,0,1.42-.56,2.93-1.68,2.16-.44,3.24-.85,3.24-1.23.06,0,.17-.17.33-.53v-.45c0-.51-.48-.82-1.43-.92-1.55.05-3.13.4-4.74,1.05-.87.6-1.31,1.34-1.31,2.21ZM332.08,89.87c-1.17,2.01-1.36,2.84-.56,2.5.8-.34,1.32-.68,1.55-1.02.32-.23,1.57-2.25,3.75-6.07.28-.76,1.37-1.48,3.27-2.15.37-.16.54-.46.5-.9-.24-.7-.89-1.05-1.95-1.05-1.32,0-2.55,1.06-3.69,3.18-.74,1.66-1.7,3.5-2.87,5.5Z"/>
  <path class="cls-1" d="M371.78,75.17h.45c1.76,0,3.82.65,6.17,1.94.52.39.78,1.11.78,2.15,1,11.45,1.5,21.65,1.5,30.6v2.46c0,6.89-.15,10.33-.45,10.33-.21.5-.8.98-1.76,1.43-1.3.48-3.19.72-5.66.72-3.8,0-6.14-.48-7.01-1.44-.63-.6-1.04-4.99-1.23-13.18v-1.43c0-8.42.93-18.59,2.79-30.52,1.01-2.03,2.48-3.05,4.41-3.05ZM369.33,81.62c0,.37.22,1.03.65,1.98h.2c2.65-1.71,3.98-3.08,3.98-4.11v-.5c-.2-.66-.59-.99-1.17-.99h-.65c-1.11,0-2.08.85-2.9,2.55,0,.04-.04.4-.11,1.07Z"/>
  <path class="cls-1" d="M401.45,73.21h1.04c2.23,0,5.05.72,8.45,2.15,1.64.9,2.46,1.72,2.46,2.46v.53s-1.7,10.12-1.7,10.12c-.69,4.85-1.04,8.8-1.04,11.83,0,4.3.67,7.33,2.01,9.08.74.83,1.59,1.25,2.54,1.25h.06c.2,0,1.8-.24,4.8-.72.8-.04,1.39-.06,1.76-.06h1.43c2.97,0,4.71,1.06,5.21,3.18.04.22.06.44.06.65v.65c0,2.17-2.01,4.21-6.04,6.11-.61.43-2.43,1.34-5.47,2.72-4.35,1.86-8.03,2.79-11.04,2.79-4.5,0-7.54-2.06-9.1-6.17-.62-.87-1.18-4.57-1.68-11.1-.09-2.32-.14-4.18-.14-5.59,0-8.91,1.08-18.5,3.24-28.78.84-.73,1.88-1.1,3.12-1.1ZM399.83,79.65c-.56,2.56-.43,3.4.4,2.5.83-.9,1.96-1.61,3.42-2.14,1.45-.53,2.23-1.14,2.33-1.83.09-.94-.68-1.56-2.3-1.86-1.81-.26-3.09.85-3.84,3.33ZM414.09,113.56v.23c.37.53,1.16.8,2.37.8h.81c3.78-.25,5.68-.86,5.68-1.82-.33-.3-.94-.45-1.82-.45-4.69.28-7.04.7-7.04,1.25Z"/>
  <path class="cls-1" d="M449.3,73.21h1.04c2.23,0,5.05.72,8.45,2.15,1.64.9,2.46,1.72,2.46,2.46v.53s-1.7,10.12-1.7,10.12c-.69,4.85-1.04,8.8-1.04,11.83,0,4.3.67,7.33,2.01,9.08.74.83,1.59,1.25,2.54,1.25h.06c.2,0,1.8-.24,4.8-.72.8-.04,1.39-.06,1.76-.06h1.43c2.97,0,4.71,1.06,5.21,3.18.04.22.06.44.06.65v.65c0,2.17-2.01,4.21-6.04,6.11-.61.43-2.43,1.34-5.47,2.72-4.35,1.86-8.03,2.79-11.04,2.79-4.5,0-7.54-2.06-9.1-6.17-.62-.87-1.18-4.57-1.68-11.1-.09-2.32-.14-4.18-.14-5.59,0-8.91,1.08-18.5,3.24-28.78.84-.73,1.88-1.1,3.12-1.1ZM447.68,79.65c-.56,2.56-.43,3.4.4,2.5.83-.9,1.96-1.61,3.42-2.14,1.45-.53,2.23-1.14,2.33-1.83.09-.94-.68-1.56-2.3-1.86-1.81-.26-3.09.85-3.84,3.33ZM461.95,113.56v.23c.37.53,1.16.8,2.37.8h.81c3.78-.25,5.68-.86,5.68-1.82-.33-.3-.94-.45-1.82-.45-4.69.28-7.04.7-7.04,1.25Z"/>
</svg>