<svg xmlns="http://www.w3.org/2000/svg" xmlns:xlink="http://www.w3.org/1999/xlink" preserveAspectRatio="xMidYMid meet" width="500" height="500" viewBox="0 0 500 500" style="width:100%;height:100%"><defs><animateMotion repeatCount="indefinite" dur="5s" begin="0s" xlink:href="#_R_G_L_9_G_N_1_T_0" fill="freeze" keyTimes="0;0.28;0.4933333;0.9933333;1" path="M176.48 18.05 C176.48,18.05 177.28,-12.16 177.28,-12.16 C177.28,-12.16 176.55,15.79 176.55,15.79 C176.55,15.79 176.48,18.05 176.48,18.05 C176.48,18.05 176.48,18.05 176.48,18.05 " keyPoints="0;0.5;0.96;1;1" keySplines="0.167 0.167 0.833 0.833;0.167 0.167 0.833 0.833;0.167 0.167 0.833 0.833;0 0 0 0" calcMode="spline"/><animateTransform repeatCount="indefinite" dur="5s" begin="0s" xlink:href="#_R_G_L_9_G_N_1_T_0" fill="freeze" attributeName="transform" from="-189.11 -29.807" to="-189.11 -29.807" type="translate" additive="sum" keyTimes="0;1" values="-189.11 -29.807;-189.11 -29.807" keySplines="0 0 1 1" calcMode="spline"/><animateMotion repeatCount="indefinite" dur="5s" begin="0s" xlink:href="#_R_G_L_9_G_N_1_N_8_N_7_T_0" fill="freeze" keyTimes="0;0.28;0.4933333;0.7066667;0.9933333;1" path="M250.13 274.21 C250.13,274.21 250.13,296.21 250.13,296.21 C250.13,296.21 262.13,256.64 262.13,256.64 C262.13,256.64 306.13,285.06 306.13,285.06 C306.13,285.06 250.13,274.21 250.13,274.21 C250.13,274.21 250.13,274.21 250.13,274.21 " keyPoints="0;0.13;0.37;0.67;1;1" keySplines="0.167 0.167 0.833 0.833;0.167 0.167 0.833 0.833;0.167 0.167 0.833 0.833;0.167 0.167 0.833 0.833;0 0 0 0" calcMode="spline"/><animateTransform repeatCount="indefinite" dur="5s" begin="0s" xlink:href="#_R_G_L_9_G_N_1_N_8_N_7_T_0" fill="freeze" attributeName="transform" from="0" to="0" type="rotate" additive="sum" keyTimes="0;0.28;0.7066667;0.9933333;1" values="0;8.79;-11.747;0;0" keySplines="0.167 0.167 0.833 0.833;0.167 0.167 0.833 0.833;0.167 0.167 0.833 0.833;0 0 0 0" calcMode="spline"/><animateTransform repeatCount="indefinite" dur="5s" begin="0s" xlink:href="#_R_G_L_9_G_N_1_N_8_N_7_T_0" fill="freeze" attributeName="transform" from="0.74 0.74" to="0.74 0.74" type="scale" additive="sum" keyTimes="0;1" values="0.74 0.74;0.74 0.74" keySplines="0 0 1 1" calcMode="spline"/><animateTransform repeatCount="indefinite" dur="5s" begin="0s" xlink:href="#_R_G_L_9_G_N_1_N_8_N_7_T_0" fill="freeze" attributeName="transform" from="-176.853 -266.853" to="-176.853 -266.853" type="translate" additive="sum" keyTimes="0;1" values="-176.853 -266.853;-176.853 -266.853" keySplines="0 0 1 1" calcMode="spline"/><animateMotion repeatCount="indefinite" dur="5s" begin="0s" xlink:href="#_R_G_L_8_G" fill="freeze" keyTimes="0;0.2333333;0.4933333;1" path="M178.61 23.39 C178.61,23.39 178.41,28.97 178.41,28.97 C178.41,28.97 178.61,23.39 178.61,23.39 C178.61,23.39 178.61,23.39 178.61,23.39 " keyPoints="0;0.5;1;1" keySplines="0.167 0.167 0.833 0.833;0.167 0.167 0.833 0.833;0 0 0 0" calcMode="spline"/><animateTransform repeatCount="indefinite" dur="5s" begin="0s" xlink:href="#_R_G_L_8_G" fill="freeze" attributeName="transform" from="1.3513499999999998 0.37522" to="1.3513499999999998 0.37522" type="scale" additive="sum" keyTimes="0;0.2333333;0.4933333;1" values="1.3513499999999998 0.37522;1.3513499999999998 1.33173;1.3513499999999998 0.37522;1.3513499999999998 0.37522" keySplines="0.167 0.167 0.833 0.833;0.167 0.167 0.833 0.833;0 0 0 0" calcMode="spline"/><animateTransform repeatCount="indefinite" dur="5s" begin="0s" xlink:href="#_R_G_L_8_G" fill="freeze" attributeName="transform" from="-1.434 152.005" to="-1.434 152.005" type="translate" additive="sum" keyTimes="0;1" values="-1.434 152.005;-1.434 152.005" keySplines="0 0 1 1" calcMode="spline"/><animateMotion repeatCount="indefinite" dur="5s" begin="0s" xlink:href="#_R_G_L_8_G_N_7_T_0" fill="freeze" keyTimes="0;0.28;0.4933333;0.7066667;0.9933333;1" path="M250.13 274.21 C250.13,274.21 250.13,296.21 250.13,296.21 C250.13,296.21 262.13,256.64 262.13,256.64 C262.13,256.64 306.13,285.06 306.13,285.06 C306.13,285.06 250.13,274.21 250.13,274.21 C250.13,274.21 250.13,274.21 250.13,274.21 " keyPoints="0;0.13;0.37;0.67;1;1" keySplines="0.167 0.167 0.833 0.833;0.167 0.167 0.833 0.833;0.167 0.167 0.833 0.833;0.167 0.167 0.833 0.833;0 0 0 0" calcMode="spline"/><animateTransform repeatCount="indefinite" dur="5s" begin="0s" xlink:href="#_R_G_L_8_G_N_7_T_0" fill="freeze" attributeName="transform" from="0" to="0" type="rotate" additive="sum" keyTimes="0;0.28;0.7066667;0.9933333;1" values="0;8.79;-11.747;0;0" keySplines="0.167 0.167 0.833 0.833;0.167 0.167 0.833 0.833;0.167 0.167 0.833 0.833;0 0 0 0" calcMode="spline"/><animateTransform repeatCount="indefinite" dur="5s" begin="0s" xlink:href="#_R_G_L_8_G_N_7_T_0" fill="freeze" attributeName="transform" from="0.74 0.74" to="0.74 0.74" type="scale" additive="sum" keyTimes="0;1" values="0.74 0.74;0.74 0.74" keySplines="0 0 1 1" calcMode="spline"/><animateTransform repeatCount="indefinite" dur="5s" begin="0s" xlink:href="#_R_G_L_8_G_N_7_T_0" fill="freeze" attributeName="transform" from="-176.853 -266.853" to="-176.853 -266.853" type="translate" additive="sum" keyTimes="0;1" values="-176.853 -266.853;-176.853 -266.853" keySplines="0 0 1 1" calcMode="spline"/><animate repeatCount="indefinite" dur="5s" begin="0s" xlink:href="#_R_G_L_7_G_D_0_P_0" fill="freeze" attributeName="fill" from="#d9e021" to="#d9e021" keyTimes="0;0.4933333;0.9933333;1" values="#d9e021;#ffb6f6;#d9e021;#d9e021" keySplines="0.167 0.167 0.833 0.833;0.167 0.167 0.833 0.833;0 0 0 0" calcMode="spline"/><animate repeatCount="indefinite" dur="5s" begin="0s" xlink:href="#_R_G_L_7_G_D_0_P_0" fill="freeze" attributeName="d" attributeType="XML" from="M240.05 531.21 C240.05,531.21 113.65,531.21 113.65,531.21 C69.02,531.21 32.08,496.52 29.28,451.97 C29.28,451.97 6.89,96.26 6.89,96.26 C6.89,96.26 10.91,85.78 162.91,91.66 C309.73,97.34 346.36,94.22 346.36,94.22 C346.36,94.22 324.43,451.97 324.43,451.97 C321.62,496.52 284.68,531.21 240.05,531.21z " to="M240.05 531.21 C240.05,531.21 113.65,531.21 113.65,531.21 C69.02,531.21 32.08,496.52 29.28,451.97 C29.28,451.97 6.89,96.26 6.89,96.26 C6.89,96.26 10.91,85.78 162.91,91.66 C309.73,97.34 346.36,94.22 346.36,94.22 C346.36,94.22 324.43,451.97 324.43,451.97 C321.62,496.52 284.68,531.21 240.05,531.21z " keyTimes="0;0.2333333;0.4933333;0.7466667;0.9933333;1" values="M240.05 531.21 C240.05,531.21 113.65,531.21 113.65,531.21 C69.02,531.21 32.08,496.52 29.28,451.97 C29.28,451.97 6.89,96.26 6.89,96.26 C6.89,96.26 10.91,85.78 162.91,91.66 C309.73,97.34 346.36,94.22 346.36,94.22 C346.36,94.22 324.43,451.97 324.43,451.97 C321.62,496.52 284.68,531.21 240.05,531.21z ;M240.05 531.21 C240.05,531.21 113.65,531.21 113.65,531.21 C69.02,531.21 32.08,496.52 29.28,451.97 C29.28,451.97 8.75,119.77 8.75,119.77 C8.75,119.77 15.94,130.23 162.91,91.66 C332.37,47.19 347.8,73.6 347.8,73.6 C347.8,73.6 324.43,451.97 324.43,451.97 C321.62,496.52 284.68,531.21 240.05,531.21z ;M240.05 531.21 C240.05,531.21 113.65,531.21 113.65,531.21 C69.02,531.21 32.08,496.52 29.28,451.97 C29.28,451.97 6.89,96.26 6.89,96.26 C6.89,96.26 12.12,71.66 162.91,91.66 C312.11,111.46 346.36,94.22 346.36,94.22 C346.36,94.22 324.43,451.97 324.43,451.97 C321.62,496.52 284.68,531.21 240.05,531.21z ;M240.05 531.21 C240.05,531.21 113.65,531.21 113.65,531.21 C69.02,531.21 32.08,496.52 29.28,451.97 C29.28,451.97 6.47,83.32 6.47,83.32 C6.47,83.32 10.96,91.53 162.91,91.66 C317.21,91.79 345.54,116.3 345.54,116.3 C345.54,116.3 324.43,451.97 324.43,451.97 C321.62,496.52 284.68,531.21 240.05,531.21z ;M240.05 531.21 C240.05,531.21 113.65,531.21 113.65,531.21 C69.02,531.21 32.08,496.52 29.28,451.97 C29.28,451.97 6.89,96.26 6.89,96.26 C6.89,96.26 10.91,85.78 162.91,91.66 C309.73,97.34 346.36,94.22 346.36,94.22 C346.36,94.22 324.43,451.97 324.43,451.97 C321.62,496.52 284.68,531.21 240.05,531.21z ;M240.05 531.21 C240.05,531.21 113.65,531.21 113.65,531.21 C69.02,531.21 32.08,496.52 29.28,451.97 C29.28,451.97 6.89,96.26 6.89,96.26 C6.89,96.26 10.91,85.78 162.91,91.66 C309.73,97.34 346.36,94.22 346.36,94.22 C346.36,94.22 324.43,451.97 324.43,451.97 C321.62,496.52 284.68,531.21 240.05,531.21z " keySplines="0.167 0.167 0.833 0.833;0.167 0.167 0.833 0.833;0.167 0.167 0.833 0.833;0.167 0.167 0.833 0.833;0 0 0 0" calcMode="spline"/><animateMotion repeatCount="indefinite" dur="5s" begin="0s" xlink:href="#_R_G_L_7_G_N_7_T_0" fill="freeze" keyTimes="0;0.28;0.4933333;0.7066667;0.9933333;1" path="M250.13 274.21 C250.13,274.21 250.13,296.21 250.13,296.21 C250.13,296.21 262.13,256.64 262.13,256.64 C262.13,256.64 306.13,285.06 306.13,285.06 C306.13,285.06 250.13,274.21 250.13,274.21 C250.13,274.21 250.13,274.21 250.13,274.21 " keyPoints="0;0.13;0.37;0.67;1;1" keySplines="0.167 0.167 0.833 0.833;0.167 0.167 0.833 0.833;0.167 0.167 0.833 0.833;0.167 0.167 0.833 0.833;0 0 0 0" calcMode="spline"/><animateTransform repeatCount="indefinite" dur="5s" begin="0s" xlink:href="#_R_G_L_7_G_N_7_T_0" fill="freeze" attributeName="transform" from="0" to="0" type="rotate" additive="sum" keyTimes="0;0.28;0.7066667;0.9933333;1" values="0;8.79;-11.747;0;0" keySplines="0.167 0.167 0.833 0.833;0.167 0.167 0.833 0.833;0.167 0.167 0.833 0.833;0 0 0 0" calcMode="spline"/><animateTransform repeatCount="indefinite" dur="5s" begin="0s" xlink:href="#_R_G_L_7_G_N_7_T_0" fill="freeze" attributeName="transform" from="0.74 0.74" to="0.74 0.74" type="scale" additive="sum" keyTimes="0;1" values="0.74 0.74;0.74 0.74" keySplines="0 0 1 1" calcMode="spline"/><animateTransform repeatCount="indefinite" dur="5s" begin="0s" xlink:href="#_R_G_L_7_G_N_7_T_0" fill="freeze" attributeName="transform" from="-176.853 -266.853" to="-176.853 -266.853" type="translate" additive="sum" keyTimes="0;1" values="-176.853 -266.853;-176.853 -266.853" keySplines="0 0 1 1" calcMode="spline"/><animateMotion repeatCount="indefinite" dur="5s" begin="0s" xlink:href="#_R_G_L_6_G" fill="freeze" keyTimes="0;0.28;0.4933333;0.7066667;0.9933333;1" path="M250.13 274.21 C250.13,274.21 250.13,296.21 250.13,296.21 C250.13,296.21 262.13,256.64 262.13,256.64 C262.13,256.64 306.13,285.06 306.13,285.06 C306.13,285.06 250.13,274.21 250.13,274.21 C250.13,274.21 250.13,274.21 250.13,274.21 " keyPoints="0;0.13;0.37;0.67;1;1" keySplines="0.167 0.167 0.833 0.833;0.167 0.167 0.833 0.833;0.167 0.167 0.833 0.833;0.167 0.167 0.833 0.833;0 0 0 0" calcMode="spline"/><animateTransform repeatCount="indefinite" dur="5s" begin="0s" xlink:href="#_R_G_L_6_G" fill="freeze" attributeName="transform" from="0" to="0" type="rotate" additive="sum" keyTimes="0;0.28;0.7066667;0.9933333;1" values="0;8.79;-11.747;0;0" keySplines="0.167 0.167 0.833 0.833;0.167 0.167 0.833 0.833;0.167 0.167 0.833 0.833;0 0 0 0" calcMode="spline"/><animateTransform repeatCount="indefinite" dur="5s" begin="0s" xlink:href="#_R_G_L_6_G" fill="freeze" attributeName="transform" from="0.74 0.74" to="0.74 0.74" type="scale" additive="sum" keyTimes="0;1" values="0.74 0.74;0.74 0.74" keySplines="0 0 1 1" calcMode="spline"/><animateTransform repeatCount="indefinite" dur="5s" begin="0s" xlink:href="#_R_G_L_6_G" fill="freeze" attributeName="transform" from="-176.853 -266.853" to="-176.853 -266.853" type="translate" additive="sum" keyTimes="0;1" values="-176.853 -266.853;-176.853 -266.853" keySplines="0 0 1 1" calcMode="spline"/><animateMotion repeatCount="indefinite" dur="5s" begin="0s" xlink:href="#_R_G_L_5_G_N_8_N_7_T_0" fill="freeze" keyTimes="0;0.28;0.4933333;0.7066667;0.9933333;1" path="M250.13 274.21 C250.13,274.21 250.13,296.21 250.13,296.21 C250.13,296.21 262.13,256.64 262.13,256.64 C262.13,256.64 306.13,285.06 306.13,285.06 C306.13,285.06 250.13,274.21 250.13,274.21 C250.13,274.21 250.13,274.21 250.13,274.21 " keyPoints="0;0.13;0.37;0.67;1;1" keySplines="0.167 0.167 0.833 0.833;0.167 0.167 0.833 0.833;0.167 0.167 0.833 0.833;0.167 0.167 0.833 0.833;0 0 0 0" calcMode="spline"/><animateTransform repeatCount="indefinite" dur="5s" begin="0s" xlink:href="#_R_G_L_5_G_N_8_N_7_T_0" fill="freeze" attributeName="transform" from="0" to="0" type="rotate" additive="sum" keyTimes="0;0.28;0.7066667;0.9933333;1" values="0;8.79;-11.747;0;0" keySplines="0.167 0.167 0.833 0.833;0.167 0.167 0.833 0.833;0.167 0.167 0.833 0.833;0 0 0 0" calcMode="spline"/><animateTransform repeatCount="indefinite" dur="5s" begin="0s" xlink:href="#_R_G_L_5_G_N_8_N_7_T_0" fill="freeze" attributeName="transform" from="0.74 0.74" to="0.74 0.74" type="scale" additive="sum" keyTimes="0;1" values="0.74 0.74;0.74 0.74" keySplines="0 0 1 1" calcMode="spline"/><animateTransform repeatCount="indefinite" dur="5s" begin="0s" xlink:href="#_R_G_L_5_G_N_8_N_7_T_0" fill="freeze" attributeName="transform" from="-176.853 -266.853" to="-176.853 -266.853" type="translate" additive="sum" keyTimes="0;1" values="-176.853 -266.853;-176.853 -266.853" keySplines="0 0 1 1" calcMode="spline"/><animateMotion repeatCount="indefinite" dur="5s" begin="0s" xlink:href="#_R_G_L_4_G_N_8_N_7_T_0" fill="freeze" keyTimes="0;0.28;0.4933333;0.7066667;0.9933333;1" path="M250.13 274.21 C250.13,274.21 250.13,296.21 250.13,296.21 C250.13,296.21 262.13,256.64 262.13,256.64 C262.13,256.64 306.13,285.06 306.13,285.06 C306.13,285.06 250.13,274.21 250.13,274.21 C250.13,274.21 250.13,274.21 250.13,274.21 " keyPoints="0;0.13;0.37;0.67;1;1" keySplines="0.167 0.167 0.833 0.833;0.167 0.167 0.833 0.833;0.167 0.167 0.833 0.833;0.167 0.167 0.833 0.833;0 0 0 0" calcMode="spline"/><animateTransform repeatCount="indefinite" dur="5s" begin="0s" xlink:href="#_R_G_L_4_G_N_8_N_7_T_0" fill="freeze" attributeName="transform" from="0" to="0" type="rotate" additive="sum" keyTimes="0;0.28;0.7066667;0.9933333;1" values="0;8.79;-11.747;0;0" keySplines="0.167 0.167 0.833 0.833;0.167 0.167 0.833 0.833;0.167 0.167 0.833 0.833;0 0 0 0" calcMode="spline"/><animateTransform repeatCount="indefinite" dur="5s" begin="0s" xlink:href="#_R_G_L_4_G_N_8_N_7_T_0" fill="freeze" attributeName="transform" from="0.74 0.74" to="0.74 0.74" type="scale" additive="sum" keyTimes="0;1" values="0.74 0.74;0.74 0.74" keySplines="0 0 1 1" calcMode="spline"/><animateTransform repeatCount="indefinite" dur="5s" begin="0s" xlink:href="#_R_G_L_4_G_N_8_N_7_T_0" fill="freeze" attributeName="transform" from="-176.853 -266.853" to="-176.853 -266.853" type="translate" additive="sum" keyTimes="0;1" values="-176.853 -266.853;-176.853 -266.853" keySplines="0 0 1 1" calcMode="spline"/><animateMotion repeatCount="indefinite" dur="5s" begin="0s" xlink:href="#_R_G_L_3_G_N_8_N_7_T_0" fill="freeze" keyTimes="0;0.28;0.4933333;0.7066667;0.9933333;1" path="M250.13 274.21 C250.13,274.21 250.13,296.21 250.13,296.21 C250.13,296.21 262.13,256.64 262.13,256.64 C262.13,256.64 306.13,285.06 306.13,285.06 C306.13,285.06 250.13,274.21 250.13,274.21 C250.13,274.21 250.13,274.21 250.13,274.21 " keyPoints="0;0.13;0.37;0.67;1;1" keySplines="0.167 0.167 0.833 0.833;0.167 0.167 0.833 0.833;0.167 0.167 0.833 0.833;0.167 0.167 0.833 0.833;0 0 0 0" calcMode="spline"/><animateTransform repeatCount="indefinite" dur="5s" begin="0s" xlink:href="#_R_G_L_3_G_N_8_N_7_T_0" fill="freeze" attributeName="transform" from="0" to="0" type="rotate" additive="sum" keyTimes="0;0.28;0.7066667;0.9933333;1" values="0;8.79;-11.747;0;0" keySplines="0.167 0.167 0.833 0.833;0.167 0.167 0.833 0.833;0.167 0.167 0.833 0.833;0 0 0 0" calcMode="spline"/><animateTransform repeatCount="indefinite" dur="5s" begin="0s" xlink:href="#_R_G_L_3_G_N_8_N_7_T_0" fill="freeze" attributeName="transform" from="0.74 0.74" to="0.74 0.74" type="scale" additive="sum" keyTimes="0;1" values="0.74 0.74;0.74 0.74" keySplines="0 0 1 1" calcMode="spline"/><animateTransform repeatCount="indefinite" dur="5s" begin="0s" xlink:href="#_R_G_L_3_G_N_8_N_7_T_0" fill="freeze" attributeName="transform" from="-176.853 -266.853" to="-176.853 -266.853" type="translate" additive="sum" keyTimes="0;1" values="-176.853 -266.853;-176.853 -266.853" keySplines="0 0 1 1" calcMode="spline"/><animateMotion repeatCount="indefinite" dur="5s" begin="0s" xlink:href="#_R_G_L_2_G_N_2_N_1_T_0" fill="freeze" keyTimes="0;0.28;0.4933333;0.9933333;1" path="M176.48 18.05 C176.48,18.05 177.28,-12.16 177.28,-12.16 C177.28,-12.16 176.55,15.79 176.55,15.79 C176.55,15.79 176.48,18.05 176.48,18.05 C176.48,18.05 176.48,18.05 176.48,18.05 " keyPoints="0;0.5;0.96;1;1" keySplines="0.167 0.167 0.833 0.833;0.167 0.167 0.833 0.833;0.167 0.167 0.833 0.833;0 0 0 0" calcMode="spline"/><animateTransform repeatCount="indefinite" dur="5s" begin="0s" xlink:href="#_R_G_L_2_G_N_2_N_1_T_0" fill="freeze" attributeName="transform" from="-189.11 -29.807" to="-189.11 -29.807" type="translate" additive="sum" keyTimes="0;1" values="-189.11 -29.807;-189.11 -29.807" keySplines="0 0 1 1" calcMode="spline"/><animateMotion repeatCount="indefinite" dur="5s" begin="0s" xlink:href="#_R_G_L_2_G_N_2_N_1_N_8_N_7_T_0" fill="freeze" keyTimes="0;0.28;0.4933333;0.7066667;0.9933333;1" path="M250.13 274.21 C250.13,274.21 250.13,296.21 250.13,296.21 C250.13,296.21 262.13,256.64 262.13,256.64 C262.13,256.64 306.13,285.06 306.13,285.06 C306.13,285.06 250.13,274.21 250.13,274.21 C250.13,274.21 250.13,274.21 250.13,274.21 " keyPoints="0;0.13;0.37;0.67;1;1" keySplines="0.167 0.167 0.833 0.833;0.167 0.167 0.833 0.833;0.167 0.167 0.833 0.833;0.167 0.167 0.833 0.833;0 0 0 0" calcMode="spline"/><animateTransform repeatCount="indefinite" dur="5s" begin="0s" xlink:href="#_R_G_L_2_G_N_2_N_1_N_8_N_7_T_0" fill="freeze" attributeName="transform" from="0" to="0" type="rotate" additive="sum" keyTimes="0;0.28;0.7066667;0.9933333;1" values="0;8.79;-11.747;0;0" keySplines="0.167 0.167 0.833 0.833;0.167 0.167 0.833 0.833;0.167 0.167 0.833 0.833;0 0 0 0" calcMode="spline"/><animateTransform repeatCount="indefinite" dur="5s" begin="0s" xlink:href="#_R_G_L_2_G_N_2_N_1_N_8_N_7_T_0" fill="freeze" attributeName="transform" from="0.74 0.74" to="0.74 0.74" type="scale" additive="sum" keyTimes="0;1" values="0.74 0.74;0.74 0.74" keySplines="0 0 1 1" calcMode="spline"/><animateTransform repeatCount="indefinite" dur="5s" begin="0s" xlink:href="#_R_G_L_2_G_N_2_N_1_N_8_N_7_T_0" fill="freeze" attributeName="transform" from="-176.853 -266.853" to="-176.853 -266.853" type="translate" additive="sum" keyTimes="0;1" values="-176.853 -266.853;-176.853 -266.853" keySplines="0 0 1 1" calcMode="spline"/><animateMotion repeatCount="indefinite" dur="5s" begin="0s" xlink:href="#_R_G_L_1_G_N_1_T_0" fill="freeze" keyTimes="0;0.28;0.4933333;0.9933333;1" path="M176.48 18.05 C176.48,18.05 177.28,-12.16 177.28,-12.16 C177.28,-12.16 176.55,15.79 176.55,15.79 C176.55,15.79 176.48,18.05 176.48,18.05 C176.48,18.05 176.48,18.05 176.48,18.05 " keyPoints="0;0.5;0.96;1;1" keySplines="0.167 0.167 0.833 0.833;0.167 0.167 0.833 0.833;0.167 0.167 0.833 0.833;0 0 0 0" calcMode="spline"/><animateTransform repeatCount="indefinite" dur="5s" begin="0s" xlink:href="#_R_G_L_1_G_N_1_T_0" fill="freeze" attributeName="transform" from="-189.11 -29.807" to="-189.11 -29.807" type="translate" additive="sum" keyTimes="0;1" values="-189.11 -29.807;-189.11 -29.807" keySplines="0 0 1 1" calcMode="spline"/><animateMotion repeatCount="indefinite" dur="5s" begin="0s" xlink:href="#_R_G_L_1_G_N_1_N_8_N_7_T_0" fill="freeze" keyTimes="0;0.28;0.4933333;0.7066667;0.9933333;1" path="M250.13 274.21 C250.13,274.21 250.13,296.21 250.13,296.21 C250.13,296.21 262.13,256.64 262.13,256.64 C262.13,256.64 306.13,285.06 306.13,285.06 C306.13,285.06 250.13,274.21 250.13,274.21 C250.13,274.21 250.13,274.21 250.13,274.21 " keyPoints="0;0.13;0.37;0.67;1;1" keySplines="0.167 0.167 0.833 0.833;0.167 0.167 0.833 0.833;0.167 0.167 0.833 0.833;0.167 0.167 0.833 0.833;0 0 0 0" calcMode="spline"/><animateTransform repeatCount="indefinite" dur="5s" begin="0s" xlink:href="#_R_G_L_1_G_N_1_N_8_N_7_T_0" fill="freeze" attributeName="transform" from="0" to="0" type="rotate" additive="sum" keyTimes="0;0.28;0.7066667;0.9933333;1" values="0;8.79;-11.747;0;0" keySplines="0.167 0.167 0.833 0.833;0.167 0.167 0.833 0.833;0.167 0.167 0.833 0.833;0 0 0 0" calcMode="spline"/><animateTransform repeatCount="indefinite" dur="5s" begin="0s" xlink:href="#_R_G_L_1_G_N_1_N_8_N_7_T_0" fill="freeze" attributeName="transform" from="0.74 0.74" to="0.74 0.74" type="scale" additive="sum" keyTimes="0;1" values="0.74 0.74;0.74 0.74" keySplines="0 0 1 1" calcMode="spline"/><animateTransform repeatCount="indefinite" dur="5s" begin="0s" xlink:href="#_R_G_L_1_G_N_1_N_8_N_7_T_0" fill="freeze" attributeName="transform" from="-176.853 -266.853" to="-176.853 -266.853" type="translate" additive="sum" keyTimes="0;1" values="-176.853 -266.853;-176.853 -266.853" keySplines="0 0 1 1" calcMode="spline"/><animateMotion repeatCount="indefinite" dur="5s" begin="0s" xlink:href="#_R_G_L_0_G" fill="freeze" keyTimes="0;0.28;0.4933333;0.9933333;1" path="M176.48 18.05 C176.48,18.05 177.28,-12.16 177.28,-12.16 C177.28,-12.16 176.55,15.79 176.55,15.79 C176.55,15.79 176.48,18.05 176.48,18.05 C176.48,18.05 176.48,18.05 176.48,18.05 " keyPoints="0;0.5;0.96;1;1" keySplines="0.167 0.167 0.833 0.833;0.167 0.167 0.833 0.833;0.167 0.167 0.833 0.833;0 0 0 0" calcMode="spline"/><animateTransform repeatCount="indefinite" dur="5s" begin="0s" xlink:href="#_R_G_L_0_G" fill="freeze" attributeName="transform" from="-189.11 -29.807" to="-189.11 -29.807" type="translate" additive="sum" keyTimes="0;1" values="-189.11 -29.807;-189.11 -29.807" keySplines="0 0 1 1" calcMode="spline"/><animateMotion repeatCount="indefinite" dur="5s" begin="0s" xlink:href="#_R_G_L_0_G_N_8_N_7_T_0" fill="freeze" keyTimes="0;0.28;0.4933333;0.7066667;0.9933333;1" path="M250.13 274.21 C250.13,274.21 250.13,296.21 250.13,296.21 C250.13,296.21 262.13,256.64 262.13,256.64 C262.13,256.64 306.13,285.06 306.13,285.06 C306.13,285.06 250.13,274.21 250.13,274.21 C250.13,274.21 250.13,274.21 250.13,274.21 " keyPoints="0;0.13;0.37;0.67;1;1" keySplines="0.167 0.167 0.833 0.833;0.167 0.167 0.833 0.833;0.167 0.167 0.833 0.833;0.167 0.167 0.833 0.833;0 0 0 0" calcMode="spline"/><animateTransform repeatCount="indefinite" dur="5s" begin="0s" xlink:href="#_R_G_L_0_G_N_8_N_7_T_0" fill="freeze" attributeName="transform" from="0" to="0" type="rotate" additive="sum" keyTimes="0;0.28;0.7066667;0.9933333;1" values="0;8.79;-11.747;0;0" keySplines="0.167 0.167 0.833 0.833;0.167 0.167 0.833 0.833;0.167 0.167 0.833 0.833;0 0 0 0" calcMode="spline"/><animateTransform repeatCount="indefinite" dur="5s" begin="0s" xlink:href="#_R_G_L_0_G_N_8_N_7_T_0" fill="freeze" attributeName="transform" from="0.74 0.74" to="0.74 0.74" type="scale" additive="sum" keyTimes="0;1" values="0.74 0.74;0.74 0.74" keySplines="0 0 1 1" calcMode="spline"/><animateTransform repeatCount="indefinite" dur="5s" begin="0s" xlink:href="#_R_G_L_0_G_N_8_N_7_T_0" fill="freeze" attributeName="transform" from="-176.853 -266.853" to="-176.853 -266.853" type="translate" additive="sum" keyTimes="0;1" values="-176.853 -266.853;-176.853 -266.853" keySplines="0 0 1 1" calcMode="spline"/><animate attributeType="XML" attributeName="opacity" dur="5s" from="0" to="1" xlink:href="#time_group"/></defs><g id="_R_G"><g id="_R_G_L_9_G_N_1_N_8_N_7_T_0"><g id="_R_G_L_9_G_N_1_N_8_T_0"><g id="_R_G_L_9_G_N_1_T_0"><g id="_R_G_L_9_G" transform=" translate(188.91, 38.963) translate(-188.662, -28.485)"><path id="_R_G_L_9_G_D_0_P_0" fill="#333333" fill-opacity="1" fill-rule="nonzero" d=" M0.25 48.89 C0.25,48.89 6.41,56.72 187.12,56.72 C367.82,56.72 377.07,41.68 377.07,41.68 C377.07,41.68 326.88,0.25 231.59,0.25 C136.3,0.25 8.53,36.25 8.53,36.25 C8.53,36.25 0.25,48.89 0.25,48.89z "/></g></g></g></g><g id="_R_G_L_8_G_N_7_T_0"><g id="_R_G_L_8_G"><path id="_R_G_L_8_G_D_0_P_0" stroke="#00ffff" stroke-linecap="round" stroke-linejoin="round" fill="none" stroke-width="1" stroke-opacity="1" d=" M0.45 -171.37 C71.16,-171.37 128.57,-162.69 128.57,-152.01 C128.57,-141.32 71.16,-132.65 0.45,-132.65 C-70.26,-132.65 -127.67,-141.32 -127.67,-152.01 C-127.67,-162.69 -70.26,-171.37 0.45,-171.37z "/></g></g><g id="_R_G_L_7_G_N_7_T_0"><g id="_R_G_L_7_G"><path id="_R_G_L_7_G_D_0_P_0" fill="#d9e021" fill-opacity="1" fill-rule="nonzero" d=" M240.05 531.21 C240.05,531.21 113.65,531.21 113.65,531.21 C69.02,531.21 32.08,496.52 29.28,451.97 C29.28,451.97 6.89,96.26 6.89,96.26 C6.89,96.26 10.91,85.78 162.91,91.66 C309.73,97.34 346.36,94.22 346.36,94.22 C346.36,94.22 324.43,451.97 324.43,451.97 C321.62,496.52 284.68,531.21 240.05,531.21z "/></g></g><g id="_R_G_L_6_G"><path id="_R_G_L_6_G_D_0_P_0" stroke="#00ffff" stroke-linecap="round" stroke-linejoin="round" fill="none" stroke-width="1" stroke-opacity="1" d=" M240.05 531.21 C240.05,531.21 113.65,531.21 113.65,531.21 C69.02,531.21 32.08,496.52 29.28,451.97 C29.28,451.97 2.5,26.5 2.5,26.5 C2.5,26.5 21.91,2.5 174.03,2.5 C326.15,2.5 351.21,26.5 351.21,26.5 C351.21,26.5 324.43,451.97 324.43,451.97 C321.62,496.52 284.68,531.21 240.05,531.21z "/></g><g id="_R_G_L_5_G_N_8_N_7_T_0"><g id="_R_G_L_5_G_N_8_T_0"><g id="_R_G_L_5_G" transform=" translate(37.724, 257.561) translate(-26.605, -210.783)"><path id="_R_G_L_5_G_D_0_P_0" fill="#fdfdfd" fill-opacity="0.05" fill-rule="nonzero" d=" M41.02 420.72 C41.02,420.72 41.02,420.72 41.02,420.72 C34.2,421.32 28.3,416.26 27.83,409.43 C27.83,409.43 0.77,14.14 0.77,14.14 C0.25,6.63 6.43,0.25 13.91,0.57 C13.91,0.57 15.49,0.64 15.49,0.64 C21.72,0.91 26.69,5.8 27.1,12.06 C27.1,12.06 52.52,407.3 52.52,407.3 C52.96,414.12 47.82,420.12 41.02,420.72z "/></g></g></g><g id="_R_G_L_4_G_N_8_N_7_T_0"><g id="_R_G_L_4_G_N_8_T_0"><g id="_R_G_L_4_G" transform=" translate(317.433, 248.475) translate(-25.457, -217.49)"><path id="_R_G_L_4_G_D_0_P_0" fill="#ffffff" fill-opacity="0.22" fill-rule="nonzero" d=" M12.69 434.48 C12.69,434.48 12.69,434.48 12.69,434.48 C5.65,434.23 0.25,428.32 0.64,421.27 C0.64,421.27 23.1,13.74 23.1,13.74 C23.53,5.99 30.65,0.25 38.26,1.53 C38.26,1.53 39.87,1.8 39.87,1.8 C46.2,2.86 50.66,8.5 50.28,14.95 C50.28,14.95 26.15,422.23 26.15,422.23 C25.74,429.25 19.72,434.73 12.69,434.48z "/></g></g></g><g id="_R_G_L_3_G_N_8_N_7_T_0"><g id="_R_G_L_3_G_N_8_T_0"><g id="_R_G_L_3_G" transform=" translate(190.709, 248.85) translate(-103.333, -60.262)"><path id="_R_G_L_3_G_D_0_P_0" fill="#000000" fill-opacity="1" fill-rule="nonzero" d=" M24.44 56.78 C23.3,56.81 21.6,57.04 20.22,57.1 C21.32,56.39 23.11,56.95 24.44,56.78z "/><path id="_R_G_L_3_G_D_1_P_0" fill="#000000" fill-opacity="1" fill-rule="nonzero" d=" M36.47 57.1 C35.24,57.1 33.54,57.37 32.57,56.78 C33.8,56.79 35.5,56.51 36.47,57.1z "/><path id="_R_G_L_3_G_D_2_P_0" fill="#000000" fill-opacity="1" fill-rule="nonzero" d=" M36.82 0.48 C38.17,0.42 39.63,0.52 41.2,0.79 C42.78,1.05 44.4,1.42 46.07,1.91 C47.73,2.41 49.28,3.1 50.71,4 C52.14,4.89 53.4,5.89 54.48,6.99 C55.56,8.09 56.32,9.41 56.76,10.94 C57.19,12.47 57.21,14.14 56.8,15.93 C56.45,17.43 55.85,18.65 55,19.57 C54.15,20.5 53.24,21.15 52.24,21.53 C51.25,21.9 50.05,22.08 48.65,22.05 C47.25,22.02 45.99,21.9 44.88,21.7 C43.77,21.5 42.52,21.15 41.12,20.66 C39.71,20.17 38.69,19.79 38.05,19.53 C37.41,19.27 36.68,18.97 35.86,18.62 C33.81,17.69 31.65,17.46 29.38,17.93 C27.27,18.33 27.01,19.2 28.59,20.53 C30.17,21.98 33.64,23.68 39.01,25.65 C41.93,26.69 44.45,27.81 46.55,28.99 C48.65,30.18 50.34,31.36 51.63,32.55 C52.91,33.74 53.88,35.04 54.52,36.45 C55.16,37.87 55.57,39.19 55.75,40.4 C55.92,41.62 55.86,43.01 55.57,44.57 C55.28,46.13 54.88,47.53 54.39,48.78 C53.89,50.02 53.26,51.45 52.51,53.07 C51.86,54.46 50.52,55.75 48.48,56.93 C46.43,58.12 44.05,59.03 41.34,59.67 C38.62,60.31 35.71,60.75 32.62,61.01 C29.52,61.27 26.53,61.17 23.64,60.71 C20.75,60.25 18.16,59.51 15.88,58.5 C13.61,57.49 11.87,56 10.67,54.03 C9.47,52.06 9.08,49.78 9.49,47.17 C9.9,44.57 10.66,42.59 11.77,41.23 C12.87,39.87 14.15,39.1 15.58,38.93 C17.01,38.75 18.57,38.83 20.26,39.14 C21.96,39.46 23.65,39.95 25.35,40.62 C27.04,41.29 28.6,41.86 30.03,42.35 C31.46,42.85 32.72,43.05 33.8,42.96 C34.88,42.88 35.6,42.37 35.95,41.44 C36.3,40.52 36.18,39.84 35.6,39.4 C35.01,38.97 34.06,38.65 32.75,38.45 C31.43,38.25 29.95,38.06 28.28,37.89 C26.62,37.71 24.86,37.32 23.02,36.71 C21.18,36.11 19.46,35.27 17.86,34.2 C16.25,33.13 14.85,31.46 13.65,29.21 C12.45,26.95 11.68,24.23 11.33,21.05 C10.92,17.87 11.09,15.03 11.85,12.55 C12.61,10.06 13.72,8.1 15.18,6.69 C16.64,5.27 18.31,4.07 20.18,3.08 C22.04,2.1 23.96,1.45 25.91,1.13 C27.87,0.81 29.67,0.58 31.3,0.44 C32.94,0.29 34.25,0.25 35.24,0.31 C35.24,0.31 36.82,0.48 36.82,0.48z "/><path id="_R_G_L_3_G_D_3_P_0" fill="#000000" fill-opacity="1" fill-rule="nonzero" d=" M146.35 21.81 C145.38,22.12 144.27,22.05 143.01,21.61 C141.75,21.17 140.64,20.61 139.67,19.94 C138.7,19.26 137.81,18.73 137,18.32 C136.18,17.92 135.66,17.91 135.43,18.3 C135.15,18.87 135.13,19.33 135.34,19.68 C135.55,20.02 135.85,20.27 136.24,20.43 C136.24,20.43 136.82,20.65 136.82,20.65 C139.42,21.35 141.67,22.14 143.59,23.05 C145.51,23.95 146.9,24.81 147.75,25.64 C148.6,26.46 149.28,27.23 149.78,27.94 C150.29,28.65 150.56,29.22 150.6,29.64 C150.6,29.64 150.66,30.33 150.66,30.33 C150.73,32.79 150.29,34.88 149.32,36.6 C148.35,38.33 147.1,39.58 145.57,40.35 C144.04,41.11 142.31,41.62 140.39,41.87 C138.48,42.12 136.64,42.13 134.87,41.9 C133.11,41.67 131.49,41.31 130.02,40.81 C128.43,40.19 127.24,39.25 126.44,37.99 C125.65,36.72 125.26,35.45 125.28,34.19 C125.3,32.92 125.53,31.76 125.98,30.7 C126.42,29.65 126.98,29.01 127.64,28.78 C128.22,28.54 129.02,28.64 130.05,29.06 C131.07,29.48 132.06,29.98 133.01,30.56 C133.96,31.14 134.94,31.6 135.95,31.94 C136.96,32.29 137.75,32.31 138.33,32 C139.73,31.23 139.32,30.56 137.11,29.98 C137.11,29.98 136.36,29.81 136.36,29.81 C134.61,29.66 132.99,29.16 131.5,28.31 C130.01,27.47 128.82,26.45 127.93,25.26 C127.04,24.07 126.33,22.76 125.81,21.32 C125.28,19.88 125.14,18.44 125.37,17 C125.6,15.56 126.1,14.23 126.85,13 C127.61,11.77 128.81,10.72 130.46,9.83 C132.1,8.95 134.07,8.37 136.36,8.1 C138.68,7.87 140.69,7.85 142.37,8.05 C144.06,8.24 145.45,8.59 146.56,9.11 C147.66,9.63 148.54,10.23 149.2,10.93 C149.86,11.62 150.33,12.34 150.63,13.09 C150.92,13.83 151.11,14.51 151.21,15.13 C151.3,15.74 151.33,16.24 151.29,16.63 C151.29,16.63 151.29,17.26 151.29,17.26 C151.25,17.3 151.23,17.35 151.21,17.43 C151.19,17.51 151.13,17.66 151.03,17.89 C150.93,18.12 150.82,18.35 150.68,18.58 C150.55,18.81 150.34,19.08 150.07,19.39 C149.8,19.7 149.51,19.98 149.2,20.25 C148.89,20.52 148.48,20.79 147.98,21.06 C147.48,21.33 146.93,21.58 146.35,21.81z "/><path id="_R_G_L_3_G_D_4_P_0" fill="#000000" fill-opacity="1" fill-rule="nonzero" d=" M134.35 60.36 C142.64,60.36 146.78,69.14 146.78,86.69 C146.78,91.46 146.63,95.6 146.33,99.11 C146.03,102.62 145.46,105.85 144.63,108.79 C143.79,111.74 142.6,113.96 141.07,115.45 C139.53,116.94 137.66,117.68 135.45,117.68 C130.84,117.68 127.58,115.3 125.67,110.53 C123.77,105.76 122.81,97.98 122.81,87.18 C122.81,82.15 123.22,77.78 124.02,74.07 C124.82,70.36 125.77,67.68 126.88,66.02 C127.98,64.37 129.1,63.06 130.24,62.1 C131.37,61.14 132.34,60.63 133.14,60.56 C133.14,60.56 134.35,60.36 134.35,60.36z  M142.42 56.59 C140.38,57.91 137.91,58.57 135,58.57 C132.09,58.57 129.6,57.91 127.53,56.59 C125.46,55.26 124.42,53.67 124.42,51.82 C124.42,50.63 124.89,49.52 125.82,48.49 C126.76,47.46 128.05,46.65 129.68,46.06 C131.32,45.46 133.08,45.16 134.95,45.16 C137.89,45.16 140.38,45.83 142.42,47.15 C144.46,48.48 145.48,50.05 145.48,51.87 C145.48,53.69 144.46,55.26 142.42,56.59z "/><path id="_R_G_L_3_G_D_5_P_0" fill="#000000" fill-opacity="1" fill-rule="nonzero" d=" M170.65 19.87 C170.8,19.43 171.3,18.84 172.16,18.09 C173.01,17.34 174.1,16.61 175.42,15.91 C176.74,15.2 178.17,14.6 179.71,14.09 C181.26,13.58 182.81,13.42 184.37,13.62 C185.94,13.81 187.36,14.32 188.63,15.14 C189.9,15.97 190.93,17.46 191.71,19.61 C192.49,21.77 192.88,24.5 192.88,27.79 C192.88,46.2 190.56,55.41 185.91,55.41 C184.15,55.41 182.38,54.62 180.59,53.04 C178.81,51.47 177.92,49.3 177.92,46.54 C177.92,39.71 177.28,34.96 176.01,32.3 C174.98,30.21 173.69,30.26 172.12,32.44 C171.09,33.89 170.22,36.01 169.52,38.8 C168.81,41.59 168.31,44.15 168.01,46.5 C167.72,48.85 167.18,50.94 166.4,52.75 C165.61,54.57 164.61,55.48 163.39,55.48 C157.18,55.48 154.07,46.44 154.07,28.37 C154.07,23.82 154.36,19.9 154.95,16.63 C155.54,13.36 156.25,11 157.08,9.55 C157.91,8.09 158.74,6.96 159.57,6.13 C160.41,5.31 161.11,4.87 161.7,4.82 C161.7,4.82 162.58,4.75 162.58,4.75 C164.54,4.75 166.15,5.27 167.42,6.31 C168.7,7.36 169.55,8.61 169.99,10.09 C170.43,11.57 170.71,13.05 170.84,14.52 C170.96,16 170.97,17.28 170.87,18.34 C170.87,18.34 170.65,19.87 170.65,19.87z "/><path id="_R_G_L_3_G_D_6_P_0" fill="#000000" fill-opacity="1" fill-rule="nonzero" d=" M82.56 25.87 C83.96,26.57 86.75,26.99 90.95,27.14 C92.51,27.23 93.91,27.02 95.13,26.48 C96.35,25.95 97.28,25.36 97.91,24.71 C98.55,24.05 99.15,23.47 99.71,22.96 C100.27,22.46 100.84,22.26 101.43,22.38 C102.01,22.5 102.72,23.05 103.55,24.02 C103.55,24.02 103.7,24.16 103.7,24.16 C105.65,26.53 105.78,27.82 104.07,28.01 C104.07,28.01 102.38,27.86 102.38,27.86 C100.72,27.86 98.81,28.08 96.67,28.52 C94.52,28.95 92.32,29.58 90.07,30.4 C87.83,31.22 85.81,32.39 84.03,33.88 C82.24,35.39 81.11,37.05 80.62,38.89 C79.55,42.86 81.23,46.13 85.68,48.69 C89.86,51.1 95.6,52.38 102.9,52.52 C103.68,51.59 104.48,50.78 105.31,50.1 C106.36,49.22 107.41,48.53 108.46,48.03 C109.51,47.53 110.6,47.27 111.72,47.27 C112.84,47.27 113.94,47.58 115.02,48.18 C115.35,48.35 115.67,48.53 115.97,48.73 C116.4,48.32 116.81,47.87 117.18,47.38 C117.96,46.37 118.52,45.45 118.87,44.63 C119.21,43.8 119.46,42.95 119.63,42.05 C119.8,41.15 119.89,40.55 119.89,40.23 C119.89,40.23 119.89,39.47 119.89,39.47 C119.89,39.47 120.04,37.88 120.04,37.88 C120.18,36.81 120.21,35.42 120.11,33.7 C120.01,31.99 119.84,30.09 119.6,28.01 C119.35,25.93 118.79,23.85 117.91,21.77 C117.03,19.69 115.95,17.79 114.65,16.07 C113.36,14.35 111.53,12.96 109.16,11.9 C106.79,10.83 104.07,10.3 100.99,10.3 C98.6,10.3 96.39,10.44 94.36,10.7 C92.33,10.97 90.63,11.32 89.27,11.75 C87.9,12.19 86.68,12.71 85.6,13.31 C84.53,13.92 83.67,14.52 83.04,15.13 C82.41,15.73 81.88,16.38 81.47,17.09 C81.05,17.79 80.76,18.4 80.58,18.94 C80.41,19.47 80.3,20 80.26,20.53 C80.21,21.07 80.18,21.42 80.18,21.59 C80.18,21.59 80.18,21.98 80.18,21.98 C80.38,23.87 81.17,25.17 82.56,25.87z  M106.41 37.15 C106.41,37.93 106.17,38.8 105.68,39.76 C105.19,40.73 104.6,41.53 103.92,42.16 C103.33,42.64 102.6,42.99 101.72,43.21 C100.84,43.43 99.99,43.39 99.16,43.1 C98.33,42.81 97.81,42.26 97.62,41.43 C97.28,40.17 98.06,38.97 99.96,37.8 C101.28,37.03 102.72,36.57 104.29,36.42 C105.75,36.28 106.46,36.52 106.41,37.15z "/><path id="_R_G_L_3_G_D_7_P_0" fill="#000000" fill-opacity="1" fill-rule="nonzero" d=" M72.24 108.3 C71.84,107.63 71.31,106.69 70.67,105.48 C70.02,104.27 68.83,101.88 67.1,98.32 C65.37,94.76 63.81,91.31 62.42,87.99 C61.03,84.66 59.66,80.88 58.3,76.65 C56.94,72.42 56.06,68.64 55.66,65.31 C55.25,61.99 55.44,58.91 56.22,56.09 C57,53.27 58.51,51.29 60.74,50.14 C61.9,49.54 63.03,49.23 64.15,49.23 C65.27,49.23 66.36,49.49 67.41,49.99 C68.46,50.49 69.5,51.18 70.51,52.06 C71.53,52.93 72.55,54.01 73.57,55.28 C74.58,56.56 75.55,57.9 76.47,59.31 C77.38,60.72 78.28,62.3 79.16,64.05 C80.04,65.8 80.89,67.55 81.71,69.29 C82.52,71.04 83.3,72.87 84.04,74.79 C84.79,76.7 85.49,78.5 86.13,80.18 C86.78,81.86 87.4,83.6 88.01,85.42 C88.62,83.6 89.23,81.86 89.84,80.18 C90.46,78.5 91.15,76.7 91.93,74.79 C92.71,72.87 93.49,71.04 94.27,69.29 C95.05,67.55 95.88,65.8 96.76,64.05 C97.64,62.3 98.56,60.72 99.51,59.31 C100.46,57.9 101.43,56.56 102.41,55.28 C103.39,54.01 104.41,52.93 105.46,52.06 C106.51,51.18 107.56,50.49 108.62,49.99 C109.67,49.49 110.75,49.23 111.87,49.23 C112.99,49.23 114.1,49.54 115.18,50.14 C117.49,51.29 119.05,53.23 119.86,55.99 C120.68,58.74 120.81,61.88 120.27,65.41 C119.72,68.94 118.88,72.67 117.72,76.6 C116.57,80.53 115.18,84.36 113.55,88.09 C111.92,91.82 110.38,95.2 108.92,98.22 C107.46,101.24 106.23,103.7 105.21,105.58 C105.21,105.58 103.68,108.3 103.68,108.3 C103.41,108.9 102.99,109.64 102.41,110.51 C101.84,111.39 100.71,112.78 99.05,114.7 C97.39,116.61 95.78,118.01 94.22,118.88 C92.93,119.75 91.71,120.19 90.56,120.19 C90.56,120.19 89.95,120.19 89.95,120.19 C89.47,120.19 88.76,120.21 87.81,120.24 C86.86,120.27 86.23,120.27 85.93,120.24 C85.62,120.21 85.13,120.16 84.45,120.09 C83.77,120.02 83.23,119.87 82.82,119.64 C82.42,119.4 81.89,119.08 81.25,118.68 C80.6,118.28 79.94,117.77 79.26,117.17 C78.38,116.36 77.47,115.42 76.52,114.35 C76.45,114.21 76.38,114.14 76.31,114.14 C75.63,113.27 74.94,112.35 74.23,111.37 C73.51,110.4 73.02,109.64 72.75,109.1 C72.75,109.1 72.24,108.3 72.24,108.3z "/><path id="_R_G_L_3_G_D_8_P_0" fill="#000000" fill-opacity="1" fill-rule="nonzero" d=" M52.54 86.86 C51.47,86.36 51,85.09 51.51,84.03 C52.64,81.66 51.6,78.82 49.21,77.71 C46.82,76.59 43.95,77.61 42.83,79.99 C42.32,81.05 41.04,81.5 39.97,81 C38.9,80.5 38.44,79.24 38.94,78.18 C41.08,73.68 46.5,71.75 51.04,73.86 C55.57,75.97 57.53,81.35 55.39,85.84 C54.89,86.9 53.61,87.36 52.54,86.86z "/><path id="_R_G_L_3_G_D_9_P_0" fill="#000000" fill-opacity="1" fill-rule="nonzero" d=" M32.66 77.32 C31.59,76.82 31.13,75.55 31.63,74.49 C32.76,72.12 31.73,69.28 29.33,68.17 C26.94,67.05 24.08,68.07 22.95,70.44 C22.45,71.51 21.17,71.96 20.1,71.46 C19.02,70.96 18.56,69.7 19.07,68.63 C21.2,64.14 26.63,62.21 31.16,64.32 C35.7,66.43 37.65,71.81 35.52,76.3 C35.01,77.36 33.73,77.82 32.66,77.32z "/><path id="_R_G_L_3_G_D_10_P_0" fill="#000000" fill-opacity="1" fill-rule="nonzero" d=" M55.02 93.34 C48.21,92.36 42.08,93.68 31.05,88.54 C20.01,83.4 17.13,77.88 12.03,73.31 C6.23,68.12 0.25,83.76 8.74,96.82 C11.46,101.03 15.69,104.96 21.88,107.84 C28.08,110.73 33.82,111.44 38.83,110.84 C54.4,108.99 62.75,94.45 55.02,93.34z  M31.18 98.7 C31.75,99.11 32.3,99.53 32.81,99.98 C32.3,99.53 31.75,99.11 31.18,98.7z "/><path id="_R_G_L_3_G_D_11_P_0" fill="#000000" fill-opacity="1" fill-rule="nonzero" d=" M172.57 64.71 C172.57,64.71 172.47,63.91 172.47,63.91 C172.33,63.38 172.13,62.68 171.86,61.81 C171.59,60.94 171.26,60.01 170.85,59 C170.45,58 169.94,56.98 169.33,55.95 C168.73,54.91 168.07,53.96 167.36,53.1 C167.35,53.07 167.33,53.06 167.31,53.04 C167.07,53.87 166.78,54.67 166.45,55.42 C165.66,57.22 164.65,58.12 163.41,58.12 C160.44,58.12 158.18,56.12 156.61,52.12 C155.6,53.08 154.8,54.14 154.22,55.3 C153.51,56.7 152.89,58.32 152.35,60.16 C151.81,61.99 151.47,63.28 151.34,64.01 C151.2,64.75 151.1,65.35 151.03,65.81 C151.03,65.81 150.73,68.72 150.73,68.72 C150.46,70.65 150.24,73.21 150.07,76.38 C149.9,79.55 149.79,83.04 149.72,86.85 C149.65,90.65 149.82,94.46 150.22,98.26 C150.63,102.07 151.27,105.57 152.15,108.78 C153.02,111.98 154.35,114.6 156.14,116.64 C157.92,118.68 160.07,119.76 162.56,119.9 C164.65,119.96 166.47,119.33 168.02,117.99 C173.82,113.12 175.8,99.53 173.98,77.23 C173.98,77.23 172.57,64.71 172.57,64.71z "/><path id="_R_G_L_3_G_D_12_P_0" fill="#000000" fill-opacity="1" fill-rule="nonzero" d=" M204.59 77.98 C204.59,77.98 203.16,65.69 203.16,65.69 C203.16,65.69 203.06,64.9 203.06,64.9 C202.92,64.38 202.72,63.69 202.45,62.83 C202.18,61.98 201.84,61.06 201.43,60.08 C201.02,59.1 200.52,58.1 199.9,57.08 C199.29,56.06 198.63,55.13 197.92,54.27 C197.21,53.42 196.33,52.72 195.28,52.16 C194.26,51.62 193.22,51.31 192.17,51.23 C191.02,55.04 189.38,56.95 187.24,56.95 C186.4,56.95 185.55,56.77 184.71,56.42 C184.7,56.42 184.7,56.43 184.69,56.44 C183.98,57.82 183.35,59.41 182.81,61.21 C182.27,63.02 181.93,64.28 181.79,65 C181.66,65.72 181.55,66.31 181.49,66.77 C181.49,66.77 181.18,69.62 181.18,69.62 C180.91,71.52 180.69,74.03 180.52,77.15 C180.35,80.26 180.23,83.69 180.17,87.43 C180.1,91.17 180.27,94.91 180.67,98.64 C181.08,102.38 181.73,105.83 182.61,108.98 C183.49,112.12 184.83,114.7 186.63,116.7 C188.42,118.7 190.58,119.77 193.09,119.9 C195.19,119.96 197.02,119.34 198.58,118.03 C204.42,113.24 206.42,99.89 204.59,77.98z "/><path id="_R_G_L_3_G_D_13_P_0" fill="#000000" fill-opacity="1" fill-rule="nonzero" d=" M61.71 43.99 C62.2,45.45 62.81,46.73 63.55,47.83 C63.7,47.81 63.86,47.79 64.02,47.78 C65.14,47.72 66.24,47.91 67.32,48.36 C68.39,48.8 69.47,49.44 70.53,50.25 C70.92,50.55 71.31,50.88 71.7,51.24 C72.38,50.97 73.01,50.57 73.57,50.03 C77.56,46.28 78.45,36.37 76.23,20.31 C76.23,20.31 74.7,11.3 74.7,11.3 C74.7,11.3 74.6,10.73 74.6,10.73 C74.48,10.35 74.3,9.85 74.07,9.23 C73.84,8.61 73.56,7.95 73.23,7.24 C72.9,6.53 72.49,5.82 72.01,5.09 C71.53,4.37 71.01,3.7 70.47,3.1 C69.92,2.5 69.26,2.02 68.48,1.65 C67.7,1.28 66.92,1.09 66.14,1.09 C65.01,1.1 64,1.53 63.09,2.38 C62.18,3.23 61.5,4.18 61.05,5.22 C60.59,6.26 60.21,7.46 59.89,8.81 C59.57,10.16 59.38,11.1 59.31,11.64 C59.25,12.18 59.2,12.61 59.17,12.95 C59.17,12.95 59.07,15.07 59.07,15.07 C58.95,16.48 58.89,18.34 58.9,20.64 C58.91,22.94 58.96,25.47 59.07,28.22 C59.17,30.98 59.45,33.73 59.89,36.46 C60.34,39.2 60.95,41.71 61.71,43.99z "/></g></g></g><g id="_R_G_L_2_G_N_2_N_1_N_8_N_7_T_0"><g id="_R_G_L_2_G_N_2_N_1_N_8_T_0"><g id="_R_G_L_2_G_N_2_N_1_T_0"><g id="_R_G_L_2_G_N_2_T_0" transform=" translate(188.91, -5.907) translate(-168.639, -36.689)"><g id="_R_G_L_2_G" transform=" translate(186.507, 3.206) translate(-28.132, -19.309)"><path id="_R_G_L_2_G_D_0_P_0" fill="#d9333a" fill-opacity="1" fill-rule="nonzero" d=" M36.96 19.31 C36.96,29.84 28.74,38.37 18.6,38.37 C8.47,38.37 0.25,29.84 0.25,19.31 C0.25,8.78 8.47,0.25 18.6,0.25 C28.74,0.25 36.96,8.78 36.96,19.31z "/><path id="_R_G_L_2_G_D_1_P_0" fill="#d9333a" fill-opacity="1" fill-rule="nonzero" d=" M56.02 19.31 C56.02,29.84 47.8,38.37 37.66,38.37 C27.53,38.37 19.31,29.84 19.31,19.31 C19.31,8.78 27.53,0.25 37.66,0.25 C47.8,0.25 56.02,8.78 56.02,19.31z "/></g></g></g></g></g><g id="_R_G_L_1_G_N_1_N_8_N_7_T_0"><g id="_R_G_L_1_G_N_1_N_8_T_0"><g id="_R_G_L_1_G_N_1_T_0"><g id="_R_G_L_1_G" transform=" translate(188.91, -5.907) translate(-168.639, -36.689)"><path id="_R_G_L_1_G_D_0_P_0" fill="#000000" fill-opacity="1" fill-rule="nonzero" d=" M0.25 69.92 C0.25,69.92 3.45,27.88 3.45,27.88 C3.45,27.88 52.53,2.5 176.27,2.5 C300.01,2.5 326.22,19.47 326.22,19.47 C326.22,19.47 337.03,73.13 337.03,73.13 C337.03,73.13 318.21,48.7 173.24,48.7 C28.28,48.7 0.25,69.92 0.25,69.92z "/><path id="_R_G_L_1_G_D_1_P_0" fill="#141414" fill-opacity="1" fill-rule="nonzero" d=" M221.79 3.37 C223.79,18.84 224.97,34.37 225.7,49.94 C235.74,50.45 244.87,51.11 253.21,51.87 C252.51,36.27 251.99,20.68 250.98,5.08 C242.24,4.39 232.54,3.81 221.79,3.37z "/><path id="_R_G_L_1_G_D_2_P_0" fill="#333333" fill-opacity="1" fill-rule="nonzero" d=" M250.98 5.08 C251.99,20.68 252.51,36.27 253.21,51.86 C263.91,52.84 273.27,53.99 281.46,55.24 C280.39,39.48 279.38,23.69 278.15,7.88 C270.32,6.85 261.32,5.89 250.98,5.08z "/><path id="_R_G_L_1_G_D_3_P_0" fill="#141414" fill-opacity="1" fill-rule="nonzero" d=" M278.15 7.88 C279.38,23.69 280.39,39.48 281.46,55.24 C293.98,57.16 303.77,59.31 311.39,61.44 C307.83,45.02 304.58,28.56 301.96,11.86 C295.62,10.52 287.78,9.14 278.15,7.88z "/><path id="_R_G_L_1_G_D_4_P_0" fill="#141414" fill-opacity="1" fill-rule="nonzero" d=" M50.38 13.68 C33.81,17.14 21.97,20.74 14.32,23.46 C11.3,37.82 8.76,52.23 6.71,66.69 C12.41,64.35 22.48,61.07 39.26,57.95 C42.31,43.02 46.02,28.24 50.38,13.68z "/><path id="_R_G_L_1_G_D_5_P_0" stroke="#ffffff" stroke-linecap="round" stroke-linejoin="round" fill="none" stroke-width="1" stroke-opacity="1" d=" M3.45 27.88 C3.45,27.88 52.53,2.5 176.27,2.5 C300.01,2.5 326.22,19.47 326.22,19.47 "/></g></g></g></g><g id="_R_G_L_0_G_N_8_N_7_T_0"><g id="_R_G_L_0_G_N_8_T_0"><g id="_R_G_L_0_G"><path id="_R_G_L_0_G_D_0_P_0" fill="#000000" fill-opacity="1" fill-rule="nonzero" d=" M0.5 59.36 C0.5,59.36 49.75,28.53 193.11,28.53 C336.48,28.53 377.32,52.16 377.32,52.16 C377.32,52.16 375.72,24.12 375.72,24.12 C375.72,24.12 356.1,2.5 191.11,2.5 C26.13,2.5 2.5,30.93 2.5,30.93 C2.5,30.93 0.5,59.36 0.5,59.36z "/><path id="_R_G_L_0_G_D_1_P_0" fill="#141414" fill-opacity="1" fill-rule="nonzero" d=" M10.04 25.81 C7.87,35.81 6.98,45.98 6.65,56.21 C13.01,53.28 24.59,48.68 42.57,44.07 C44.16,33.87 45.91,23.73 47.63,13.69 C27.94,17.88 16.48,22.43 10.04,25.81z "/><path id="_R_G_L_0_G_D_2_P_0" fill="#141414" fill-opacity="1" fill-rule="nonzero" d=" M232.7 3.01 C232.21,11.69 231.67,20.4 231.14,29.13 C247.66,29.66 262.45,30.54 275.71,31.64 C274.33,22.63 272.84,13.62 271.2,4.61 C259.66,3.92 246.88,3.37 232.7,3.01z "/><path id="_R_G_L_0_G_D_3_P_0" fill="#333333" fill-opacity="1" fill-rule="nonzero" d=" M316.53 8.62 C304.12,7.06 289.17,5.67 271.2,4.61 C272.84,13.62 274.33,22.63 275.71,31.64 C293.64,33.13 308.75,35.03 321.34,37.08 C319.49,27.67 317.8,18.2 316.53,8.62z "/><path id="_R_G_L_0_G_D_4_P_0" fill="#141414" fill-opacity="1" fill-rule="nonzero" d=" M349.28 14.2 C341.06,12.3 330.36,10.36 316.53,8.62 C317.8,18.2 319.49,27.67 321.34,37.08 C336.61,39.57 348.22,42.26 356.79,44.67 C354.86,34.38 352.4,24.2 349.28,14.2z "/><path id="_R_G_L_0_G_D_5_P_0" stroke="#ffffff" stroke-linecap="round" stroke-linejoin="round" fill="none" stroke-width="1" stroke-opacity="1" d=" M375.72 24.12 C375.72,24.12 356.1,2.5 191.11,2.5 C26.13,2.5 2.5,30.93 2.5,30.93 "/></g></g></g></g><g id="time_group"/></svg>