<?xml version="1.0" encoding="UTF-8"?>
<svg xmlns="http://www.w3.org/2000/svg" xmlns:xlink="http://www.w3.org/1999/xlink" viewBox="0 0 500 500">
  <defs>
    <style>
      .cls-1, .cls-2, .cls-3, .cls-4, .cls-5, .cls-6, .cls-7, .cls-8, .cls-9, .cls-10 {
        stroke: #000;
      }

      .cls-1, .cls-3, .cls-4, .cls-8, .cls-9, .cls-10 {
        stroke-linecap: round;
        stroke-linejoin: round;
        stroke-width: 1.5px;
      }

      .cls-1, .cls-11, .cls-5, .cls-7 {
        fill: #fff;
      }

      .cls-2, .cls-5, .cls-6, .cls-7 {
        stroke-miterlimit: 10;
      }

      .cls-2, .cls-12, .cls-10 {
        fill: none;
      }

      .cls-13, .cls-3 {
        fill: #00b2e3;
      }

      .cls-13, .cls-14 {
        mix-blend-mode: multiply;
        opacity: .45;
      }

      .cls-4, .cls-14 {
        fill: #fe6f37;
      }

      .cls-6 {
        fill: #d7282f;
      }

      .cls-15 {
        clip-path: url(#clippath-1);
      }

      .cls-16 {
        isolation: isolate;
      }

      .cls-7 {
        stroke-width: .95px;
      }

      .cls-8 {
        fill: #006c8a;
      }

      .cls-17 {
        fill: #ff510f;
      }

      .cls-18 {
        clip-path: url(#clippath-2);
      }

      .cls-19 {
        clip-path: url(#clippath);
      }
    </style>
    <clipPath id="clippath">
      <path class="cls-12" d="M222.25,181.54s-4.74,5.88-1.9,18.03,13.1,27.71,33.59,27.71,33.59-12.91,36.44-27.33-.19-23.72-.19-23.72c0,0-1.52-7.02-7.21-3.42s-17.46,11.2-36.44,12.34c-17.05,1.02-24.29-3.61-24.29-3.61Z"/>
    </clipPath>
    <clipPath id="clippath-1">
      <path class="cls-9" d="M222.25,181.54s-4.74,5.88-1.9,18.03,13.1,27.71,33.59,27.71,33.59-12.91,36.44-27.33-.19-23.72-.19-23.72c0,0-1.52-7.02-7.21-3.42s-17.46,11.2-36.44,12.34c-17.05,1.02-24.29-3.61-24.29-3.61Z"/>
    </clipPath>
    <clipPath id="clippath-2">
      <path class="cls-12" d="M222.25,181.54s-4.74,5.88-1.9,18.03,13.1,27.71,33.59,27.71,33.59-12.91,36.44-27.33-.19-23.72-.19-23.72c0,0-1.52-7.02-7.21-3.42s-17.46,11.2-36.44,12.34c-17.05,1.02-24.29-3.61-24.29-3.61Z"/>
    </clipPath>
  </defs>
  <g class="cls-16">
    <g id="Layer_2" data-name="Layer 2">
      <path class="cls-4" d="M93.35,98.29l11.76,118.12s29.65-11.76,62.59-15.06,32.94,3.76,32.94,3.76c0,0,1.88,53.18-16.47,107.29s-32,79.06-32,79.06c0,0,30.12,24,76.71,38.59s84.71-1.88,84.71-1.88c0,0,24-74.35,24-131.29s-2.82-113.88-2.82-113.88c0,0,26.35-14.59,60.71-15.53s49.88.47,49.88.47l-10.35-92.24s-18.82-24-45.65-21.18-34.35,13.18-78.59,1.41-73.41-17.41-115.29,10.35-102.12,32-102.12,32Z"/>
      <path class="cls-14" d="M151,189c-17.18-7.43-33.92-15.72-50.94-23.37l5.06,50.78s29.65-11.76,62.59-15.06c5.33-.53,9.78-.79,13.52-.86-1.75-1.23-3.53-2.36-5.23-3.5-8-5-17-4-25-8Z"/>
      <path class="cls-14" d="M159.58,376.08c-4.67,10.37-7.41,15.39-7.41,15.39,0,0,30.12,24,76.71,38.59,46.59,14.59,84.71-1.88,84.71-1.88,0,0,24-74.35,24-131.29,0-5.82-.03-11.63-.08-17.39-5.46,16.04-14.84,47.78-20.75,63.93-22.1,59.59-101.84,56.63-157.17,32.66Z"/>
      <ellipse class="cls-5" cx="282.51" cy="126.5" rx="22.3" ry="28.28" transform="translate(-19.31 57.8) rotate(-11.3)"/>
      <ellipse cx="280.04" cy="137.89" rx="12.81" ry="15.37"/>
      <path class="cls-3" d="M136.18,198.06s-12.71,3.53-19.53,5.88-8.94,3.29-9.18-5.41-.24-65.18-.24-65.18l-16.94,2.82s6.82,53.88,8,68.24,1.65,19.53,1.65,19.53c0,0,32.71-13.65,48.24-16.71s-12-9.18-12-9.18Z"/>
      <path class="cls-3" d="M97.35,105.12s19.06,4.94,66.59-16.47,57.88-39.06,96.94-37.18,62.59,15.29,92,12.94,34.35-8.24,52-2.59,28.94,46.12,28.94,46.12l5.41,52.24s-32.47-2.12-55.29.47-56,16.24-56,16.24c0,0,9.65,60.94,2.35,128.71s-23.53,118.82-23.53,118.82c0,0-7.29,1.18-29.41,4.71s-57.41-6.59-73.41-12.71-42.59-22.82-42.59-22.82c0,0-2.35-1.18.24-7.06s11.53-23.29,11.53-23.29l-7.06-9.18-20.71,34.82,2.82,14.82s16.24,5.41,35.29,15.76,41.88,17.65,61.41,22.82,50.12-1.41,70.35-8.71c16.24-46.35,31.29-101.18,29.88-155.76s-5.18-82.12-4.71-88.71,14.35-9.65,27.06-11.29,81.88-5.18,81.88-5.18l-6.59-85.18s-9.41-21.88-20-29.41-35.29-11.29-52.24-6.82-35.76,11.53-55.53,1.41-45.88-16.94-72.71-11.76-49.41,17.41-74.12,34.12-69.41,12.24-69.41,12.24l-1.41,17.88Z"/>
      <path class="cls-13" d="M315,418c5.3-11.18,4.36-23.05,2.49-35.01-5.71,25.64-10.72,41.42-10.72,41.42,0,0-7.29,1.18-29.41,4.71s-57.41-6.59-73.41-12.71c-16-6.12-42.59-22.82-42.59-22.82,0,0-2.35-1.18.24-7.06,2.59-5.88,11.53-23.29,11.53-23.29l-7.06-9.18-20.71,34.82,2.82,14.82s16.24,5.41,35.29,15.76c19.06,10.35,41.88,17.65,61.41,22.82,18.7,4.96,47.53-.87,67.71-7.78-.2-.17-.4-.34-.59-.51-5-5,1-11,3-16Z"/>
      <path class="cls-4" d="M196.41,263.47s-18.59-16.24-36.71-33.41-49.18-51.06-61.88-68.71-18.12-23.76-18.12-23.76l15.29-24.47s6.35,4,9.18,10.35,14.59,24.94,33.88,46.59,48.71,50.59,54.35,53.88,8.71-6.82,8.71-6.82l-4.71,46.35Z"/>
      <path class="cls-14" d="M184,240c-17-11-28-29-46-36-2.04-.74-4.04-1.55-6.02-2.39,9.98,10.81,20.03,21.14,27.73,28.45,18.12,17.18,36.71,33.41,36.71,33.41l1.53-15.03c-4.76-2.45-9.42-5.21-13.94-8.44Z"/>
      <path class="cls-3" d="M203.94,194.29l-43.34-.22c4.47,4.56,8.85,8.95,12.9,12.9,8.58-.57,22.41-1.27,23.38.02,1.41,1.88-.24,14.82-3.29,46.59-3.06,31.76-21.88,88-21.88,88l7.06,6.82s7.53-19.29,18.35-68.71,6.82-85.41,6.82-85.41Z"/>
      <path class="cls-4" d="M319.24,230.76s27.53-34.35,41.65-58.59,36.24-62.82,36.24-62.82l27.53-12.24,1.18,25.65s-28.71,46.35-47.06,71.76-46.35,62.59-46.35,62.59"/>
      <path class="cls-3" d="M401.86,89.85l-7.73,11.36s-4.09,7.27.61,12.27,11.51,11.06,21.67,14.09,13.48-4.55,15.61-7.88,9.09-15.45,9.09-15.45"/>
      <path class="cls-3" d="M419.28,113.64c-.15-.15,3.48-.3,6.51.15s9.7,4.7,21.21-4.24,14.39-13.03,15.3-21.36-1.52-15.76-1.52-15.76l-12.58-7.58-20.76-11.97-18.18,6.51-7.42,21.36"/>
      <path class="cls-3" d="M415.52,40.88c-8.76,8.3-15.66,14.95-14.84,22.67s13.67,17.99,24.89,7.71,15.3-19.63,12.73-26.4c-1.03-2.7-3.42-5.74-6.54-7.24-4.7-2.26-10.97-1.71-16.24,3.27Z"/>
      <path class="cls-3" d="M416.87,87.09s.75-12.82-5.65-22.24-28.65-2.26-25.26,12.06,8.29,18.47,12.82,21.11,5.65,5.65,5.65,5.65"/>
      <path class="cls-4" d="M274.37,314.03s2.64,38.83,2.26,52.4-1.13,38.83-1.13,38.83l-27.9,1.13-6.03-14.7s2.64-16.59-.75-41.47-6.03-35.43-3.02-52.77,26.69-26.01,37.32-8.29,18.09,48.25,19.98,83.31"/>
      <path class="cls-3" d="M278.52,423.72s9.42-24.5,3.77-33.17-24.13-15.46-35.81-9.42,32.04,42.6,32.04,42.6Z"/>
      <path class="cls-4" d="M192.95,353.23c-33.93-39.58-64.08-56.92-79.54-46.74s-17.72,24.13-8.67,52.02,21.11,52.77,21.11,52.77l31.66,3.77s-7.16-24.5-14.7-45.99-5.65-38.45-5.65-39.96c0,0,.38,16.96,1.51,25.63,2.26-4.9,10.55-1.13,15.46,1.88s22.62,26.39,22.62,26.39"/>
      <path class="cls-14" d="M154,341c-5.44-2.72-11-3.93-16.59-4.16.18,4.47.47,10.08.9,14.63.16.97.34,1.96.54,2.98,2.47-4.41,10.49-.77,15.28,2.18,2.86,1.76,10.1,10.47,15.62,17.41,2.2-12.78-4.54-27-15.75-33.03Z"/>
      <path class="cls-3" d="M274,467.07s13.19-10.55,10.18-36.94-16.96-45.24-29.4-52.77-33.93-5.65-43.73,4.52-13.19,28.65,5.65,41.84,57.3,43.35,57.3,43.35Z"/>
      <path class="cls-3" d="M164.3,473.1s16.2-4.66,11.49-18.92-13-22.17-12.25-32.35,6.41-15.46-3.77-19.98-39.2-11.69-47.12-1.88-19.98,46.74-19.98,46.74l71.62,26.39Z"/>
      <path class="cls-3" d="M141.31,416.94s-13.19-18.09-34.3-21.86-38.45,13.19-38.45,29.03-4.26,24.54,26.52,32.81"/>
      <path class="cls-8" d="M98.33,428.62s-10.93.75-19.98,5.28-10.55,13.19-1.13,17.72,56.92,19.98,67.1,26.01,23.37-2.26,27.9-6.41,6.41-8.81-4.52-17.03-54.28-25.94-69.36-25.57Z"/>
      <path class="cls-8" d="M218.96,394.7c-16.96,3.77-16.21,12.44-10.55,25.63s14.7,13.95,18.09,24.13,9.8,33.17,31.66,34.68,27.14-19.98,19.98-41.09c-4.04-11.91-14.36-29.27-27.9-38.07-10.46-6.8-23.89-6.92-31.29-5.28Z"/>
      <path class="cls-3" d="M402.92,70.88s4.15,7.16,13.95,4.52,9.05-17.72,1.88-21.11-20.06-5.06-23.75-3.02c-6.94,3.85-12.15,12.48-8.81,26.4"/>
      <path class="cls-3" d="M439.35,48.24c-.58.47-12.5,14.25-15.89,20.33s-3.04,9.11,2.8,14.6,10.16,2.1,17.52-2.45,15.07-16.59,13.32-24.07-11.33-13.67-17.76-8.41Z"/>
      <path class="cls-3" d="M453.13,62.61s-9.81,9.46-14.49,15.77-3.62,15.07,3.86,17.99,11.57-.23,20.21-10.63,6.54-16.82,3.27-20.33-8.18-5.84-12.85-2.8Z"/>
      <g>
        <path class="cls-3" d="M133.62,164.97c-1.61-1.88-3.16-3.72-4.65-5.54-1.61,2.58-4.44,6.51-9.03,11.09-2.54,2.54-5.71,5.13-8.88,7.49,1.6,1.89,3.26,3.83,4.97,5.81,3.13-2.45,6.54-5.27,9.55-8.12,4.41-4.17,6.77-8,8.03-10.73Z"/>
        <path class="cls-3" d="M116.61,143.38c-1.63-2.28-3.12-4.42-4.45-6.42-1.42,2.45-4.07,6.2-8.69,10.27-3.01,2.66-7.06,4.99-10.94,6.85,1.55,2.1,3.25,4.43,5.11,7.01,3.52-2.07,7.21-4.4,10.07-6.57,5.24-3.97,7.79-8.57,8.9-11.15Z"/>
        <path class="cls-3" d="M175.64,209.06c-1.88-1.82-3.85-3.75-5.88-5.76-1.41,3.24-3.64,8.16-6.53,13.82-1.98,3.87-4.43,7.21-6.72,9.87,1.1,1.07,2.17,2.1,3.19,3.07.75.71,1.51,1.43,2.26,2.14,2.35-2.49,4.93-5.55,7.39-9.19,3.69-5.48,5.45-10.4,6.29-13.94Z"/>
        <path class="cls-13" d="M156.52,226.99c1.1,1.07,2.17,2.1,3.19,3.07.75.71,1.51,1.43,2.26,2.14,1.66-1.76,3.44-3.82,5.2-6.15-1.96-1.87-3.89-3.75-5.83-5.59-1.54,2.47-3.22,4.67-4.81,6.53Z"/>
        <path class="cls-3" d="M147,201.59c3.92-4.18,6.54-9.31,8.12-13.16-2.33-2.42-4.64-4.86-6.9-7.27-.84,3.83-3.13,9.4-9.22,15.49-1.45,1.45-4.13,3.34-6.88,5.12,2.08,2.26,4.17,4.49,6.24,6.68,3.03-1.9,6.17-4.22,8.65-6.86Z"/>
        <path class="cls-13" d="M132.2,201.71s-.06.04-.09.06c2.08,2.26,4.17,4.49,6.24,6.68,1.26-.79,2.54-1.66,3.78-2.59-1.34-.68-2.71-1.31-4.14-1.86-1.96-.71-3.88-1.49-5.8-2.29Z"/>
      </g>
      <path class="cls-3" d="M62.29,124.88s1.41,6.82,11.06,13.65,21.23,2.22,28-4c11.53-10.59,4.71-23.53-1.41-28.47"/>
      <path class="cls-3" d="M97.12,107.71c.24-.71,3.06-13.41,1.65-20.47s-5.88-11.06-21.41-9.88-40.47,14.12-40.24,22.82,5.18,15.76,9.65,21.41,15.53,21.18,34.12,6.35"/>
      <path class="cls-3" d="M40.18,82.53s-5.88,3.29-8.71,5.65-6.59,7.53-.71,18.12,12.94,13.18,16.94,12.94,4.94-3.29,5.18-7.53.24-12,.24-12"/>
      <path class="cls-3" d="M58.76,66.06l-2.12,1.65s-5.65-.24-10.82-.24-8.24,5.18-9.41,9.65,1.18,11.06,3.53,15.76,10.59,16.47,15.06,16,10.35-6.35,10.59-11.29"/>
      <path class="cls-3" d="M93.12,77.12s-3.53-8.94-8.71-14.82-15.06-7.29-21.88-4.94-11.29,6.12-9.41,17.18,8.71,27.53,13.41,30.35,10.59.47,12.71-5.18-2.12-12.94-2.12-12.94"/>
      <path class="cls-3" d="M90.29,114.76s4.94,2.82,11.06-4.47,9.41-17.18,7.06-25.88-6.59-15.29-11.06-14.35-26.12-.47-26.12-.47c0,0-4.94-1.41-5.88,7.53s.71,12.24,9.18,14.12,13.18-.94,13.18-.94"/>
      <ellipse class="cls-11" cx="274.54" cy="135.42" rx="2.37" ry="2.85"/>
      <ellipse class="cls-7" cx="226.7" cy="133.39" rx="20.53" ry="27.88" transform="translate(-9.71 18.09) rotate(-4.47)"/>
      <path d="M220.69,147.13c2.3,8,9.21,12.83,15.43,10.77s9.4-10.21,7.1-18.21c-2.3-8-9.21-12.83-15.43-10.77s-9.4,10.21-7.1,18.21Z"/>
      <ellipse class="cls-11" cx="236.12" cy="139.49" rx="2.19" ry="2.8" transform="translate(-24.48 54.05) rotate(-12.42)"/>
      <path d="M277.29,87.4c.57,0,5.88-1.71,12.91.95s7.02,4.93,9.87,5.12,2.66-5.12-4.18-9.11-13.67-2.28-17.65-.95-4.18,2.28-4.18,3.23,3.23.76,3.23.76Z"/>
      <path d="M211.62,95.75c6.94-2.51,10.82-1.9,12.91-2.47s1.95-3.2-6.26-3.42c-7.21-.19-11.01,1.52-14.42,5.31-5.18,5.76-6.83,8.73-5.12,10.63s1.9-6.07,12.91-10.06Z"/>
      <path class="cls-4" d="M258.12,149.65s-11.01.76-12.34,11.01,8.54,16.13,16.7,11.39"/>
      <path class="cls-4" d="M215.04,180.21s-2.66,1.9-2.47,6.64"/>
      <g>
        <g class="cls-19">
          <path class="cls-11" d="M216.37,185.9s7.21,13.48,34.92,10.06,38.91-14.42,44.22-18.6,4.37-21.26,4.37-21.26l-21.64-4.37-44.22,11.39-23.72,5.12,6.07,17.65Z"/>
          <ellipse class="cls-11" cx="272.64" cy="244.84" rx="31.22" ry="45.46"/>
        </g>
        <g>
          <path d="M222.25,181.54s-4.74,5.88-1.9,18.03,13.1,27.71,33.59,27.71,33.59-12.91,36.44-27.33-.19-23.72-.19-23.72c0,0-1.52-7.02-7.21-3.42s-17.46,11.2-36.44,12.34c-17.05,1.02-24.29-3.61-24.29-3.61Z"/>
          <g class="cls-15">
            <path class="cls-1" d="M216.37,185.9s7.21,13.48,34.92,10.06,38.91-14.42,44.22-18.6,4.37-21.26,4.37-21.26l-21.64-4.37-44.22,11.39-23.72,5.12,6.07,17.65Z"/>
            <ellipse class="cls-6" cx="272.64" cy="244.84" rx="31.22" ry="45.46"/>
          </g>
          <path class="cls-10" d="M222.25,181.54s-4.74,5.88-1.9,18.03,13.1,27.71,33.59,27.71,33.59-12.91,36.44-27.33-.19-23.72-.19-23.72c0,0-1.52-7.02-7.21-3.42s-17.46,11.2-36.44,12.34c-17.05,1.02-24.29-3.61-24.29-3.61Z"/>
        </g>
        <g class="cls-18">
          <path class="cls-2" d="M216.37,185.9s7.21,13.48,34.92,10.06,38.91-14.42,44.22-18.6,4.37-21.26,4.37-21.26l-21.64-4.37-44.22,11.39-23.72,5.12,6.07,17.65Z"/>
          <ellipse class="cls-2" cx="272.64" cy="244.84" rx="31.22" ry="45.46"/>
        </g>
      </g>
      <path class="cls-17" d="M242.65,231.68s11.77,9.76,27.37,7.3c23.11-3.65,25.54-38.31,25.54-38.31,0,0-4.87,15.2-20.68,26.15s-32.23,4.87-32.23,4.87Z"/>
    </g>
  </g>
</svg>