<?xml version="1.0" encoding="UTF-8"?>
<svg id="Layer_5" data-name="Layer 5" xmlns="http://www.w3.org/2000/svg" viewBox="0 0 500 500">
  <defs>
    <style>
      .cls-1 {
        fill: #4f4f4f;
      }

      .cls-2 {
        fill: #fff;
      }

      .cls-3, .cls-4, .cls-5, .cls-6, .cls-7, .cls-8, .cls-9, .cls-10, .cls-11 {
        stroke: #000;
        stroke-linecap: round;
        stroke-linejoin: round;
      }

      .cls-3, .cls-6 {
        stroke-width: 2.91px;
      }

      .cls-3, .cls-12, .cls-11 {
        fill: #666;
      }

      .cls-4 {
        stroke-width: 1.51px;
      }

      .cls-4, .cls-5, .cls-8, .cls-13 {
        fill: #ccc;
      }

      .cls-14 {
        fill: #e46b6f;
      }

      .cls-5, .cls-7, .cls-9, .cls-10, .cls-11 {
        stroke-width: 2.73px;
      }

      .cls-7 {
        fill: #e44146;
      }

      .cls-8 {
        stroke-width: 2.9px;
      }

      .cls-15 {
        fill: #b03236;
      }

      .cls-16, .cls-9 {
        fill: #efefef;
      }

      .cls-10 {
        fill: #454444;
      }
    </style>
  </defs>
  <g>
    <path class="cls-4" d="M236.34,174.7s-29.74-6.78-59.77,3.99c-30.03,10.77-34.26,20.92-26.16,35.37,8.1,14.45,26.36,16.41,46.28,7.44,19.92-8.97,40.62-19.74,40.62-19.74,0,0,59.18-11.36-.96-27.06Z"/>
    <path class="cls-12" d="M213.19,187.1c-6.02,11.04-9.53,23.08-18.07,32.12-1.11,1.21-2.25,2.39-3.42,3.54,1.74-.62,3.5-1.33,5.27-2.13,19.92-8.97,40.62-19.74,40.62-19.74,0,0,23.41-4.5,25.82-11.74-3.66-2.74-8.11-4.64-12.09-6.06-12.55-4.01-29.61-9.53-38.14,4.01Z"/>
    <path class="cls-16" d="M179.18,221.65c20.58-3.39,20.12-21.9,24.36-34.84,1.66-5.22,5.62-9.62,10.81-13.03-9.54-.06-21.31.93-33.28,4.6-1.36.42-2.73.87-4.09,1.36-15.36,5.51-24.02,10.86-27.26,16.84-2.51,4.63-1.88,10.01,1.98,16.91.5.89,1.05,1.74,1.63,2.54,6.71,4.66,15.9,7.01,25.85,5.64Z"/>
    <path class="cls-12" d="M171.25,188.16s-16.42,1.9-18.07,12.83,8.64,19.5,24.92,16.07c16.28-3.43,20.95-18.66,15.77-23.59-5.18-4.93-22.63-5.31-22.63-5.31Z"/>
    <polygon class="cls-9" points="191.89 283.1 82.12 300.77 106.7 349.48 205.74 302.96 191.89 283.1"/>
    <path class="cls-5" d="M100.68,314.41s-17.25-29.81-32.58-22.18c-15.33,7.63-19.88,21.2-14.26,51.32,5.62,30.11,33.65,38.97,46.11,35.92,12.46-3.06,113.1-55.62,117.82-63.86l-9.03-21.67"/>
    <g>
      <path class="cls-16" d="M114.9,333.27l-13.4-17.77s-.09.07-.13.1c-.66.38-1.49.15-1.87-.5-.13-.22-9.8-16.7-20.6-21.47-3.38-1.49-6.86-1.84-10.19-.18-15.23,7.58-18.9,21.09-13.53,49.84,2.93,15.69,11.84,24.33,18.79,28.82,1.83,1.18,3.68,2.18,5.53,3.02,11.08.06,21.99-3.8,23.64-16.41,1.51-9.61.33-18.74-2.52-27.44,4.52,2.08,9.47,3.17,14.28,1.99Z"/>
      <path class="cls-13" d="M91.36,304.17c13.24,22.87,10.54,45.17,9.03,54.78-1.65,12.61-9.81,16.24-20.89,16.18,7.78,3.54,15.37,4.17,20.12,3.01,12.7-3.13,27.64-14.31,31.96-21.85.09-.17.22-.3.36-.41l-6.88-34.25c-4.8,1.18-11.44,11.44-33.71-17.46Z"/>
    </g>
    <path class="cls-12" d="M71.48,298.81s-13.25-.37-16.6,17.64c-3.34,18.02,7.92,43.62,17.68,49.19,9.76,5.57,24.19-6.55,21.21-27.49-2.98-20.94-9.22-37.05-22.29-39.34Z"/>
    <path class="cls-5" d="M262.1,175.41s-33.28-2.14-56.8,37.56-35.92,81-23.04,100.23c14.25,21.28,80.92,64.33,113.17,42.14,42.1-28.98,15.05-39.13,41.54-72.84,13.32-16.95,34.76-46.63,30.18-68.61-4.58-21.99-105.05-38.48-105.05-38.48Z"/>
    <path class="cls-12" d="M344.68,270.75s-15.27-4.72-18.09-1.75c-5.54,5.83-8.17,15.17-9.34,23.34-1.17,8.17-.29,12.16-4.67,23.92-8.46,22.76-29.17,42.88-29.17,42.88,0,0,24.8-4.96,35.3-31.22,7.23-18.08,7-48.72,25.96-57.18Z"/>
    <path class="cls-5" d="M333.96,269.25s-11.98,31.66-5.1,65.09c6.88,33.43,32.96,32.96,44.58,28.45,11.62-4.51,21.81-21.1,20.39-45.52s-14.78-90.12-29.01-96.99"/>
    <path class="cls-16" d="M385.23,347.48c6.83-20.49-23.22-33.06-30.7-54.14-6.15-17.33-5.54-45.27-10.84-43.94-5.15,8.16-15.99,62.07-11.59,83.47,1.43,6.95,3.77,12.72,6.97,17.28.36.25.72.5,1.09.75,14.34,10.24,38.92,12.97,45.07-3.41Z"/>
    <path class="cls-5" d="M281.64,358.75s-15.71,50.16-42.2,90.5c-26.49,40.33-45.15,40.93-45.15,40.93,0,0-25.28-6.62-33.71-31.9-8.43-25.28-3.01-39.13,17.46-57.79,20.47-18.66,54.71-70.96,54.71-70.96"/>
    <path class="cls-13" d="M197.36,263.16s-12.54,19.55-20.42,23.34c-10.36,4.99-41.72,26.26-41.72,26.26l43.49,23.89,42.05-18.82-23.4-54.66Z"/>
    <path class="cls-16" d="M112.15,308.8s15.41-1.59,45.7-4.25c30.29-2.66,32.41-15.41,51.01-6.91,18.6,8.5,28.16,17.53,29.76,24.44,1.59,6.91-21.25,41.45-28.16,50.48-6.91,9.03-23.91,29.76-23.91,29.76l24.97,27.1s27.1-47.82,40.38-69.08c13.28-21.25,26.04-15.94,41.45-40.91,15.41-24.97,17.53-32.41,23.38-53.67,5.84-21.25,24.44-10.63,22.85-.53-1.59,10.1.53,28.16,2.13,35.6s22.32,22.85,28.69,24.44-2.66-21.79-5.84-39.85-5.31-45.7-11.69-52.6c-6.38-6.91-15.94-5.84-27.63-5.84s-26.57-9.03-41.98-17c-15.41-7.97-38.79-27.1-38.79-27.1,0,0-18.6,6.38-30.29,25.5-11.69,19.13-18.6,28.69-26.57,51.01-6.14,17.2-5.82,24.17-10.08,26.83-4.25,2.66-69.63,13.02-69.63,13.02l4.25,9.56Z"/>
    <path class="cls-2" d="M257.75,197.23s-11.38-13.71-16.63-11.09c-5.25,2.63-17.8,8.75-27.13,26.26s-21,38.8-24.8,51.64c-3.79,12.84-7.29,21.59,1.17,20.42,8.46-1.17,14.59-3.21,23.92,1.75s18.67,14.88,26.55,16.63c7.88,1.75,4.38,18.38-.58,30.34-4.96,11.96-38.8,53.68-37.63,57.18,1.17,3.5,4.08,14,14.29-4.38,10.21-18.38,24.21-26.84,27.42-36.76,3.21-9.92-3.79-10.79,6.42-15.75,10.21-4.96,26.54-24.84,35.88-41.13,12.54-21.88,20.13-35.01,23.05-45.22,2.92-10.21-23.05-33.55-32.67-37.63-9.63-4.08-19.25-12.25-19.25-12.25Z"/>
    <path class="cls-2" d="M99.04,306.63s79.94-11.67,82.27-14.59-1.46-5.25-10.5-2.92c-9.04,2.33-75.85,12.54-75.85,12.54l4.08,4.96Z"/>
    <path class="cls-13" d="M304.46,230.77c-1.71-6.91-4.59-14.24-8.72-16.83.92-2.69.82-5.46-.91-7.96-5.5-7.94-20.15-9.47-20.15-9.47,0,0-2.91,2-5.87,5.13-3.83-1.73-10.22-.96-18.59,1.94-7,2.42-26.19,11.37-31.75,22.49-2.99,5.98,4.38,6.46,13.24,14.09,17.39-21.23,23.53-20.86,30.7-20.97.36,3.84,2.12,5.8,5.86,6.63.74.16,1.38.34,1.96.51,3.52,1.06,4.72,2.12,10.33.71,1.94,3.83,5.31,15.79-3.43,46,14.66,1.22,21.52,9.53,23.35,1.28,1.83-8.24,7.38-30.15,3.99-43.57Z"/>
    <path class="cls-7" d="M251.38,197.74c-7,2.42-26.19,11.37-31.75,22.49-2.99,5.98,4.38,6.46,13.24,14.09,19.36-23.63,24.77-20.5,33.2-21.06,8.24-5.8,11.89-6.65,6.81-14.96-2.77-4.52-10.39-4.41-21.5-.57Z"/>
    <path class="cls-15" d="M271.71,199.02c-1.24-2.02-3.72-2.78-6.74-2.78-.73,0-1.5.05-2.29.13,1.25,4.31-1.67,9.67-5.63,12.19-10.77,6.35-22.89,11.18-33.05,17.92.41.27.86.54,1.35.85,2.08,1.29,4.62,2.87,7.34,5.07,16.78-20.21,23.41-20.3,30.41-20.4.81-.01,1.65-.02,2.5-.07.88-.62,1.71-1.18,2.48-1.7,2.85-1.93,4.9-3.32,5.53-4.78.42-.96.51-2.48-1.91-6.43Z"/>
    <path class="cls-7" d="M296,200.14c-5.5-7.94-20.15-9.47-20.15-9.47,0,0-10.69,7.33-11.91,15.88-1.22,8.55,0,12.21,5.5,13.44.74.16,1.38.34,1.96.51,0-5.4,1.41-10.8,4.76-15.7-3.36,4.91-4.76,10.3-4.76,15.7,3.75,1.13,4.87,2.25,11.48.4,7.63-2.14,18.63-12.83,13.13-20.76Z"/>
    <g>
      <path class="cls-15" d="M269.73,218.66c.12.03.23.05.35.08.05-.9.14-1.79.27-2.67-1.63-.05-3.27-.27-4.9-.49.75,1.86,2.2,2.62,4.28,3.08Z"/>
      <path class="cls-15" d="M294.87,200.92c-4.53-6.54-16.11-8.47-18.67-8.82-1.26.93-5.13,3.95-7.93,7.88,2.31,1.35,4.46,3.08,6.08,5.09.22-.35.44-.69.67-1.03.43-.62,1.28-.78,1.9-.36.39.26.59.69.59,1.13,0,.27-.08.53-.24.77-.45.66-.87,1.34-1.25,2.03,1.11,2.15,1.59,4.5,1.1,6.97-.36,1.43-2.25,1.59-4.03,1.56-.17,1.1-.28,2.23-.32,3.38.22.07.43.14.64.21,2.52.85,3.91,1.32,9.09-.13,4.73-1.33,11.11-6.36,13.05-11.75.94-2.6.71-4.93-.67-6.92Z"/>
    </g>
    <path class="cls-7" d="M280.73,219.68s8.81,8.66-2.44,47.53c14.66,1.22,21.52,9.53,23.35,1.28,1.83-8.24,7.38-30.15,3.99-43.57-3.42-13.81-11.53-29.33-24.89-5.25Z"/>
    <g>
      <path class="cls-14" d="M292.83,254.95c5.72-7.28,7.15-20.85,2.86-30.89-2.5-5.94-6.93-4.31-10.63-1.6,1.29,4,3.55,14.82-1.6,32.64,2.97,1.59,6.82,2.86,9.37-.15Z"/>
      <path class="cls-15" d="M304.3,225.27c-2.47-9.98-6.23-16.24-10.06-16.74-3.4-.45-7.5,3.37-11.89,11.06.27.42.59,1,.93,1.78,5.19-3.05,11.42-4.99,14.93,1.25,6.02,10.54,4.01,25.09-4.01,33.12-3.59,3.33-7.57,2.47-11.75.9-.66,2.92-1.45,6.04-2.39,9.4,5.26.64,9.51,2.13,12.69,3.25,2.96,1.04,5.3,1.86,6.36,1.27.52-.29.93-1.08,1.21-2.34.14-.65.31-1.38.5-2.19,2.12-9.32,6.54-28.7,3.5-40.74Z"/>
    </g>
    <circle class="cls-9" cx="420.59" cy="102.42" r="33.9"/>
    <path class="cls-13" d="M425.95,101.44c-12.35.32-25.08,3.7-36.79,9.53,3.51,14.11,16.25,24.57,31.45,24.57,17.3,0,31.42-13.55,32.36-30.61-8.91-2.63-18.31-3.74-27.02-3.48Z"/>
    <path class="cls-2" d="M390.66,102.91s9.14-18.73,24.98-21.62c15.84-2.89,26.13,3.24,31.69,11.1-4.74-12.49-16.65-23.94-36.89-17.23-20.24,6.71-19.77,27.75-19.77,27.75Z"/>
    <circle class="cls-3" cx="419.06" cy="104.56" r="16.8"/>
    <circle class="cls-9" cx="281.64" cy="41.35" r="33.9"/>
    <path class="cls-13" d="M262.07,44.45c-3.55,3.65-6.65,7.62-9.32,11.82,5.42,10.45,16.33,17.6,28.89,17.6,17.94,0,32.53-14.59,32.53-32.53,0-2.43-.28-4.79-.78-7.07-17.36-6.61-38.3-3.66-51.32,10.17Z"/>
    <circle class="cls-3" cx="280.12" cy="43.49" r="16.8"/>
    <path class="cls-5" d="M352.18,42.27s-41.53-20.15-89.47,17.41c-47.94,37.56-32.37,95.58-14.96,116.96,17.41,21.38,58.94,47.64,114.51,39.7,55.58-7.94,63.21-75.73,51.3-108.4-11.91-32.67-35.42-58.63-61.38-65.65Z"/>
    <path class="cls-16" d="M293.66,197.75c27.87,7.64,58.54,9.04,82.84-10.47,18.19-15.3,23.26-37.47,26.94-59.53,1.91-12.08,1.68-23.59.16-35.19-13.27-24.89-32.88-42.75-53.61-48.16-.08-.02-.16-.05-.24-.09-.1-.05-10.26-4.77-25.86-4.91-.49,0-.99,0-1.49,0-14.36.14-35.7,4.33-58.55,22.68-17.6,14.13-27.72,32.1-30.06,53.46-.47,4.3-.58,8.58-.41,12.79,7.11,31.95,26.71,60.24,60.29,69.42Z"/>
    <ellipse class="cls-6" cx="346.91" cy="128.68" rx="10.2" ry="10.55"/>
    <ellipse class="cls-3" cx="293.91" cy="158.25" rx="37.89" ry="48.84" transform="translate(6.47 327.97) rotate(-58.86)"/>
    <path class="cls-13" d="M319.36,134.77s-22.53-18.8-43.52-14.16c-20.99,4.64-24.34,19.83-24.72,27.94-.39,8.11,3.73,9.66,7.21-1.16,3.48-10.82,6.05-16.09,20.09-18.15,14.03-2.06,40.94,5.54,40.94,5.54Z"/>
    <path class="cls-1" d="M335.97,153.71c-1.77-4.59-4.32-8.96-7.52-12.98,2.72,9.78,1.01,20.81-.13,30.69-1,7.03-7.03,15.05-15.05,17.56-19.41,4.77-35.81-3.63-52.66-11.72,3.99,4.66,8.88,8.8,14.46,12.17,9.43,5.7,19.63,8.46,29.04,8.46,12.91,0,24.35-5.19,30.36-15.14,5-8.27,5.53-18.59,1.5-29.05Z"/>
    <path class="cls-11" d="M268.67,156.54s-1.42,10.91,9.96,12.09c5.93-7.59,10.43-12.8,10.43-12.8"/>
    <path class="cls-11" d="M278.62,168.63s15.41,25.61,31.77,2.37"/>
    <path class="cls-10" d="M298.78,126.9c-6.4-2.13-13.04-3.79-16.36,4.03-3.32,7.82,5.69,17.07,14.94,16.12s13.04-4.98,13.52-9.72-5.69-8.3-12.09-10.43Z"/>
    <path class="cls-12" d="M286.4,135.15c.68,1.37,3.41,2.73,5.46,2.05,2.73-2.05,4.1-5.46,2.73-8.19-.11-.14-.23-.27-.35-.4-2.8.25-5.54.36-7.99,2.1-.34,1.41-.18,3.16.14,4.45Z"/>
    <ellipse class="cls-2" cx="350.23" cy="125.84" rx="3.56" ry="3.68"/>
    <ellipse class="cls-6" cx="280.28" cy="99.52" rx="10.2" ry="10.55"/>
    <ellipse class="cls-2" cx="283.6" cy="96.67" rx="3.56" ry="3.68"/>
    <path class="cls-2" d="M325.33,44.86s-.24,11.14,24.42,25.84,41.73,8.06,42.92,5.93-32.96-39.83-67.34-31.77Z"/>
    <path class="cls-2" d="M238.32,110.07s2.37-23.71,23.95-41.49c21.58-17.78,44.81-24.66,55.72-25.37-23.95.71-44.1,6.64-66.15,31.06-22.05,24.42-13.52,35.8-13.52,35.8Z"/>
    <path class="cls-12" d="M359.2,312.29s-10.91-8.06-20.39,0c-9.48,8.06-7.59,24.66,1.9,34.85,9.48,10.2,23.24,14.94,34.62,5.22,11.38-9.72,5.93-25.37-16.12-40.07Z"/>
    <path class="cls-12" d="M228.87,332.31c-.88.29-22.17-6.13-28.01-11.09-5.83-4.96-11.67-16.92-14-16.92s2.92,5.83,3.21,14.29c.29,8.46-25.38,21.59-38.51,25.09s-37.12,24.36-45.8,27.42c-23.2,8.19-30.92,1.75-30.92,1.75,0,0,16.61,10.29,28.01,5.25,22.46-9.92,49.01-23.63,56.89-28.59,7.88-4.96,38.8-20.71,38.8-20.71,0,0,13.71,11.67,23.05,15.17,4.08-4.96,7.29-11.67,7.29-11.67Z"/>
  </g>
  <path class="cls-8" d="M226.67,434.76s-10.73-40.4-39.14-42.3c-28.41-1.89-54.92,13.26-56.82,43.56-1.89,30.3,5.66,56.51,40.4,59.97,30.93,1.89,47.35-17.68,56.82-30.3,0,0,12.72-17.05,20.54-31.5"/>
  <path class="cls-16" d="M165.43,485.71c17.42,2.9,33.38-5.81,42.82-18.87,10.85-15.09,13.11-33.56,8.78-50.81-6.04-10.34-15.64-21.19-29.6-22.12-15.98-1.06-30.97,3.44-41.13,12.37-8.5,7.47-13.39,17.78-14.14,29.84-.74,11.87.05,21.72,2.41,29.82,7.21,10.11,17.16,17.66,30.85,19.77Z"/>
  <ellipse class="cls-12" cx="171.1" cy="446.48" rx="36.14" ry="32.1" transform="translate(-306.74 429.53) rotate(-67)"/>
  <path class="cls-14" d="M222.63,221.99c0,2.3,3.22,1.15,6.89-4.13,3.67-5.28,10.11-11.25,17.92-13.55s14.24-5.28,14.24-5.28c0,0-11.71-.46-24.12,7.58s-14.93,13.55-14.93,15.39Z"/>
  <path class="cls-2" d="M250.95,40.16s9.14-18.73,24.98-21.62c15.84-2.89,26.13,3.24,31.69,11.1-4.74-12.49-16.65-23.94-36.89-17.23-20.24,6.71-19.77,27.75-19.77,27.75Z"/>
  <path class="cls-12" d="M189.6,492.96s28.34-6.61,37.15-44.71c4.04-17.45,2.83-11.33,9.45-15.43,6.61-4.09,15.74-15.74,23.3-29.91,7.56-14.17,20.78-44.71,20.78-44.71,0,0-9.76,34.63-32.74,75.25-22.98,40.62-37.15,55.1-57.93,59.51Z"/>
</svg>