<?xml version="1.0" encoding="UTF-8"?>
<svg xmlns="http://www.w3.org/2000/svg" xmlns:xlink="http://www.w3.org/1999/xlink" viewBox="0 0 595.28 546.44">
  <defs>
    <style>
      .cls-1 {
        fill: url(#radial-gradient);
      }

      .cls-1, .cls-2, .cls-3, .cls-4, .cls-5, .cls-6 {
        mix-blend-mode: multiply;
      }

      .cls-1, .cls-3 {
        opacity: .4;
      }

      .cls-7, .cls-8, .cls-9, .cls-10 {
        stroke: #000;
        stroke-miterlimit: 10;
      }

      .cls-7, .cls-11 {
        fill: #fff;
      }

      .cls-8 {
        fill: #6ad2ef;
      }

      .cls-2 {
        opacity: .65;
      }

      .cls-3 {
        fill: url(#radial-gradient-2);
      }

      .cls-12 {
        isolation: isolate;
      }

      .cls-4 {
        fill: #999;
      }

      .cls-4, .cls-5, .cls-6 {
        opacity: .45;
      }

      .cls-9 {
        stroke-width: .66px;
      }

      .cls-9, .cls-13, .cls-10, .cls-6 {
        fill: #06dfff;
      }

      .cls-10 {
        stroke-width: 1px;
      }

      .cls-11 {
        mix-blend-mode: screen;
        opacity: .4;
      }

      .cls-14 {
        fill: #e6e6e6;
      }
    </style>
    <radialGradient id="radial-gradient" cx="469.08" cy="-14.62" fx="469.08" fy="-14.62" r="63.29" gradientTransform="translate(186.8 68.96) scale(.66)" gradientUnits="userSpaceOnUse">
      <stop offset=".74" stop-color="#fff" stop-opacity="0"/>
      <stop offset="1" stop-color="#000"/>
    </radialGradient>
    <radialGradient id="radial-gradient-2" cx="359.35" cy="209.86" fx="359.35" fy="209.86" r="290.37" gradientTransform="matrix(1,0,0,1,0,0)" xlink:href="#radial-gradient"/>
  </defs>
  <g class="cls-12">
    <g id="Layer_3" data-name="Layer 3">
      <g>
        <circle class="cls-9" cx="485.85" cy="71.5" r="41.56"/>
        <path class="cls-6" d="M520.31,74.48c-8.54,5.25-19.04,6.57-28.24,2.63-14.45-5.91-26.27-19.7-23.64-36.12.36-2.51,1.21-5.41,2.49-8.27-15.57,6-26.63,21.1-26.63,38.79,0,22.95,18.61,41.56,41.56,41.56s41.56-18.61,41.56-41.56c0-.94-.04-1.87-.1-2.79-2.11,2.16-4.44,4.11-7,5.77Z"/>
        <path class="cls-6" d="M500.61,95.49c-18.39,1.31-32.18-13.79-42.03-28.24-4.12-6.42-6.33-13.79-5.72-21.01-5.37,7-8.56,15.75-8.56,25.26,0,22.95,18.61,41.56,41.56,41.56,16.52,0,30.78-9.64,37.48-23.59-1,.29-2.01.55-3.03.77-7.22,1.97-13.13,5.25-19.7,5.25Z"/>
        <circle class="cls-1" cx="485.85" cy="71.5" r="41.56"/>
      </g>
      <circle class="cls-13" cx="519.99" cy="367.43" r="5.45"/>
      <path class="cls-13" d="M96.25,137.79c-.73,3.11-2.25,5.77-4.1,6.17,1.85.39,3.37,3.06,4.1,6.17.73-3.11,2.25-5.77,4.1-6.17-1.85-.39-3.37-3.06-4.1-6.17Z"/>
      <path class="cls-13" d="M518.09,292.72c-.73,3.11-2.25,5.77-4.1,6.17,1.85.39,3.37,3.06,4.1,6.17.73-3.11,2.25-5.77,4.1-6.17-1.85-.39-3.37-3.06-4.1-6.17Z"/>
      <path class="cls-13" d="M133.11,428.52c-.73,3.11-2.25,5.77-4.1,6.17,1.85.39,3.37,3.06,4.1,6.17.73-3.11,2.25-5.77,4.1-6.17-1.85-.39-3.37-3.06-4.1-6.17Z"/>
      <path class="cls-13" d="M250.88,76.7c-.35,1.47-1.07,2.74-1.94,2.92.88.19,1.6,1.45,1.94,2.92.35-1.47,1.07-2.74,1.94-2.92-.88-.19-1.6-1.45-1.94-2.92Z"/>
      <path class="cls-13" d="M480.9,153.33c-.35,1.47-1.07,2.74-1.94,2.92.88.19,1.6,1.45,1.94,2.92.35-1.47,1.07-2.74,1.94-2.92-.88-.19-1.6-1.45-1.94-2.92Z"/>
      <path class="cls-13" d="M471.15,403.63c-.35,1.47-1.07,2.74-1.94,2.92.88.19,1.6,1.45,1.94,2.92.35-1.47,1.07-2.74,1.94-2.92-.88-.19-1.6-1.45-1.94-2.92Z"/>
      <circle class="cls-13" cx="544.88" cy="172.77" r="4.43"/>
      <circle class="cls-13" cx="88.4" cy="209.25" r="3.41"/>
      <circle class="cls-13" cx="350.9" cy="27.88" r="2.73"/>
      <circle class="cls-13" cx="168.17" cy="93.99" r="2.39"/>
      <circle class="cls-13" cx="418.65" cy="44.53" r="5.45"/>
      <circle class="cls-13" cx="147.04" cy="484.02" r="4.09"/>
      <circle class="cls-13" cx="292.61" cy="504.13" r="3.75"/>
      <circle class="cls-13" cx="453.51" cy="449.59" r="2.39"/>
    </g>
    <g id="Layer_2" data-name="Layer 2">
      <path class="cls-7" d="M108.41,388.6c-11.75-5.6-17.14-19.15-12.79-31.14-7.13-3.7-10.58-11.81-8.57-19.36-.91-.14-1.81-.4-2.68-.82-4.75-2.26-6.77-7.95-4.51-12.7,2.26-4.75,7.95-6.77,12.7-4.51.11.05.22.12.33.18.59-1.13,1.39-2.08,2.34-2.83-.06-.03-.13-.05-.19-.08-2.82-1.34-4.01-4.71-2.67-7.53s4.71-4.01,7.53-2.67c2.82,1.34,4.01,4.71,2.67,7.53-.16.34-.35.65-.57.94.84.13,1.68.38,2.49.76,3.88,1.85,5.79,6.16,4.75,10.17.49.18.98.38,1.46.61,5.61,2.67,9.05,8.02,9.57,13.79,3.26.14,6.55.92,9.68,2.42,12.5,5.95,17.8,20.9,11.85,33.4-5.95,12.5-20.9,17.8-33.4,11.85Z"/>
      <path class="cls-4" d="M129.96,343.35c-.34-.16-.68-.31-1.03-.46-.29.38-.58.76-.88,1.14-7,9-20,13-30,5-4-4-4-11,0-16-7.91.99-14.84-5.85-14.02-12.78-1.76.92-3.25,2.39-4.17,4.32-2.26,4.75-.25,10.44,4.51,12.7.87.41,1.77.68,2.68.82-2.01,7.55,1.44,15.66,8.57,19.36-4.35,11.99,1.04,25.55,12.79,31.14,12.5,5.95,27.45.65,33.4-11.85,5.95-12.5.65-27.45-11.85-33.4Z"/>
      <circle class="cls-7" cx="481" cy="218.33" r="17.65"/>
      <circle class="cls-4" cx="481" cy="218.33" r="17.65"/>
      <circle class="cls-7" cx="522.29" cy="245.5" r="13.76"/>
      <circle class="cls-4" cx="522.29" cy="245.5" r="13.76"/>
      <path class="cls-7" d="M551.23,247.27c-3.44,0-6.45,1.83-8.12,4.57-2.41-5.19-7.66-8.8-13.76-8.8-2.3,0-4.48.53-6.44,1.45.74-2.23,1.14-4.62,1.14-7.1,0-12.48-10.11-22.59-22.59-22.59s-22.59,10.11-22.59,22.59c0,11.53,8.64,21.03,19.79,22.41,0,.18-.03.35-.03.53,0,6.82,5.53,12.35,12.35,12.35,3.17,0,6.06-1.21,8.24-3.17,2.69,2.4,6.22,3.88,10.11,3.88,6.79,0,12.53-4.46,14.47-10.6,1.75,2.16,4.42,3.54,7.41,3.54,5.26,0,9.53-4.27,9.53-9.53s-4.27-9.53-9.53-9.53Z"/>
      <path class="cls-4" d="M544.22,258.44c-2.27,6.15-8.98,10.6-16.92,10.6-4.55,0-8.68-1.47-11.82-3.88-2.56,1.97-5.93,3.17-9.64,3.17-1.68,0-3.29-.26-4.79-.71,2.25,3.06,5.86,5.05,9.95,5.05,3.17,0,6.06-1.21,8.24-3.17,2.69,2.4,6.22,3.88,10.11,3.88,6.79,0,12.53-4.46,14.47-10.6,1.75,2.16,4.42,3.54,7.41,3.54,4.32,0,7.96-2.88,9.13-6.82-1.98,1.54-4.6,2.48-7.48,2.48-3.5,0-6.62-1.38-8.66-3.54Z"/>
      <circle class="cls-10" cx="300.93" cy="288.28" r="202.81"/>
      <path class="cls-10" d="M297.8,85.5c-.35,0-.7.02-1.04.04,40.2,1.53,67.61,91.51,67.61,202.3s-27.41,200.76-67.61,202.3c.35.01.69.04,1.04.04,40.68,0,73.66-90.59,73.66-202.33s-32.98-202.33-73.66-202.33Z"/>
      <g class="cls-2">
        <path class="cls-14" d="M297.86,85.5c-.37,0-.74.02-1.11.04,42.65,1.53,71.74,91.51,71.74,202.3s-29.09,200.76-71.74,202.3c.37.01.74.04,1.11.04,43.16,0,78.15-90.59,78.15-202.33s-34.99-202.33-78.15-202.33Z"/>
      </g>
      <circle class="cls-3" cx="300.93" cy="288.28" r="202.81"/>
      <path class="cls-6" d="M497.06,333.03c-40,90-155,143-243,79-48-35-73-88-67-145,4-47,32-85,53-127,6.92-13.21,9.48-31.18,4.7-46.67-84.68,24.36-146.63,102.4-146.63,194.92,0,112.01,90.8,202.81,202.81,202.81,99.38,0,182.05-71.48,199.43-165.82-1.08,2.6-2.17,5.19-3.31,7.77Z"/>
      <path class="cls-6" d="M287.06,469.03c-64-12-110-54-136-110-35-72,4-150,52-209,12.35-15.29,22.97-33.01,26.77-51.73-76.93,28.81-131.7,102.99-131.7,189.98,0,112.01,90.8,202.81,202.81,202.81,55.71,0,106.17-22.47,142.82-58.84-7.01,4.1-14.35,7.63-21.7,10.78-43,18-87,35-135,26Z"/>
      <path class="cls-6" d="M177.75,152.19c-.13-.13-.27-.26-.4-.39-1.66,1.71-3.37,3.33-5.14,4.84.34.25.68.49,1.02.73,1.53-1.82,3.04-3.56,4.51-5.19Z"/>
      <path class="cls-10" d="M206.7,127.18s-67.35,39.61-78.65,130.67c-11.29,91.06,37.41,161.65,106.59,196.24-98.12-62.82-103.06-127.06-105.18-168s11.17-108.87,77.23-158.91Z"/>
      <path class="cls-10" d="M326.87,97.69s-8.47,0-11.47.55-6.83,1.91-6.55,3.55,7.1.55,11.47-.27,11.74-.55,6.55-3.82Z"/>
      <path class="cls-6" d="M311.25,100.05c-.04-.23,0-.45.11-.66-1.55.65-2.68,1.48-2.53,2.4.27,1.64,7.1.55,11.47-.27,3.67-.69,9.45-.61,8.14-2.5-1.72.28-3.97.43-5.73.76-4.37.82-11.2,1.91-11.47.27Z"/>
      <path class="cls-10" d="M335.88,122s-8.19,2.18-8.47,4.37,7.1,2.18,12.84,1.09,8.47-3,5.46-4.64-9.83-.82-9.83-.82Z"/>
      <path class="cls-6" d="M329.45,124.41c-1.12.61-1.95,1.28-2.04,1.96-.27,2.18,7.1,2.18,12.84,1.09,4.34-.83,6.95-2.12,6.67-3.41-1.14.51-2.72.97-4.64,1.34-5.62,1.07-12.8,1.09-12.82-.97Z"/>
      <path class="cls-10" d="M347.07,160.78s-5.46.55-5.19,4.1,9.01,2.46,12.02,2.18,7.37-.82,7.65-4.1-8.19-3-14.47-2.18Z"/>
      <path class="cls-6" d="M344.06,163.42c-.07-.85.2-1.52.64-2.06-1.43.55-2.96,1.59-2.81,3.51.27,3.55,9.01,2.46,12.02,2.18,2.36-.21,5.55-.6,6.95-2.35-1.49.56-3.3.76-4.78.9-3,.27-11.74,1.37-12.02-2.18Z"/>
      <path class="cls-10" d="M360.18,204.2s-8.19-.27-7.37,4.37,8.47,2.46,12.29,1.64,6.28-7.37-4.92-6.01Z"/>
      <path class="cls-6" d="M355.18,207.02c-.16-.91.04-1.63.44-2.21-1.72.57-3.18,1.66-2.81,3.75.82,4.64,8.47,2.46,12.29,1.64,1-.21,1.91-.82,2.5-1.58-.04.01-.09.03-.13.04-3.82.82-11.47,3-12.29-1.64Z"/>
      <path class="cls-10" d="M129.96,230.14l9.01.82s3-.82,2.46,3.28-10.38,2.73-12.84,2.73-3.28-1.91-2.73-4.92,4.1-1.91,4.1-1.91Z"/>
      <path class="cls-6" d="M130.47,233.79c-2.11,0-3-1.41-2.87-3.71-.78.21-1.51.75-1.73,1.98-.55,3,.27,4.92,2.73,4.92s12.29,1.37,12.84-2.73c.05-.41.07-.75.06-1.07-3.09,1.39-9.16.62-11.02.62Z"/>
      <path class="cls-10" d="M126.14,284.22s-5.46-1.37-5.19,3.55,5.74,2.46,10.38,1.91,6.83-1.64,5.74-5.74-10.92.27-10.92.27Z"/>
      <path class="cls-6" d="M122.7,284.38c-1.03.44-1.87,1.39-1.76,3.38.27,4.92,5.74,2.46,10.38,1.91,4.33-.51,6.52-1.5,5.91-4.95-1.01.51-2.43.81-4.22,1.02-4.45.52-9.65,2.79-10.31-1.36Z"/>
      <path class="cls-10" d="M134.88,339.66s-4.37,0-4.1,3.28,5.19,1.91,10.1,1.09,4.92-4.1,2.73-5.19-8.74.82-8.74.82Z"/>
      <path class="cls-6" d="M133.42,339.85c-1.24.3-2.81,1.08-2.64,3.08.27,3.28,5.19,1.91,10.1,1.09,3.28-.55,4.37-2.19,4.08-3.55-.43.15-.91.27-1.46.36-4.86.81-9.71,2.15-10.09-.99Z"/>
      <path class="cls-10" d="M157.82,384.72s-6.55-.27-5.19,4.64,5.46,2.18,9.29,1.37,4.92-3.82,4.37-5.74-4.92-1.91-8.47-.27Z"/>
      <path class="cls-6" d="M155.25,385.62c-.06-.2-.08-.38-.11-.56-1.63.48-3.26,1.61-2.51,4.3,1.37,4.92,5.46,2.18,9.29,1.37,3.02-.65,4.33-2.65,4.48-4.41-.53.28-1.15.51-1.86.67-3.82.82-7.92,3.55-9.29-1.37Z"/>
      <path class="cls-10" d="M192.23,424.32s-4.92,5.46-1.91,7.92,6.83-3,9.56-5.74,3-3.28,1.09-4.92-8.74,2.73-8.74,2.73Z"/>
      <path class="cls-6" d="M201.07,421.68c-.36.41-.82.88-1.39,1.45-2.73,2.73-6.55,8.19-9.56,5.74-.17-.14-.32-.3-.44-.46-.5,1.4-.57,2.85.63,3.83,3,2.46,6.83-3,9.56-5.74,2.68-2.68,2.99-3.26,1.2-4.82Z"/>
      <path class="cls-10" d="M356.63,391.82s6.28-.82,10.1-1.37c0,0,4.64-.27,4.64-3s-1.64-3.55-6.83-2.46-12.02-1.37-13.38,1.64.55,6.01,5.46,5.19Z"/>
      <path class="cls-6" d="M359.25,389.38c-4.36.73-6.35-1.56-5.79-4.18-1.09.18-1.91.59-2.29,1.43-1.37,3,.55,6.01,5.46,5.19,0,0,6.28-.82,10.1-1.37,0,0,4.4-.27,4.62-2.81-1.04.32-2,.38-2,.38-3.82.55-10.1,1.37-10.1,1.37Z"/>
      <path class="cls-10" d="M352.08,423.57c-3.11.14-8.01-1.44-8.83,3.21s8.19,2.18,13.38,1.64,6.01-.82,4.92-4.1-6.37-.89-9.47-.75Z"/>
      <path class="cls-6" d="M346.43,424.15c.04-.23.1-.44.16-.64-1.62.24-2.95,1.03-3.34,3.26-.82,4.64,8.19,2.18,13.38,1.64,4.44-.47,5.68-.74,5.26-2.86-.6.08-1.28.16-2.07.24-5.19.55-14.2,3-13.38-1.64Z"/>
      <path class="cls-10" d="M338.06,459c-3.82-.55-9.29-3.28-10.1,0s4.92,5.19,8.19,5.74,10.1-.27,11.2-3-9.29-2.73-9.29-2.73Z"/>
      <path class="cls-6" d="M339.33,462.86c-3.16-.53-8.6-2.33-8.24-5.41-1.57-.16-2.79.13-3.14,1.54-.82,3.28,4.92,5.19,8.19,5.74,3.06.51,9.21-.17,10.9-2.49-2.52.77-5.75.94-7.72.61Z"/>
      <path class="cls-7" d="M506.41,412.21c-.61,0-1.2.06-1.78.16-.97-7.78-7.59-13.8-15.63-13.8-8.71,0-15.76,7.06-15.76,15.76,0,.49.03.98.07,1.46-2.05-4.07-6.26-6.87-11.13-6.87-1.66,0-3.24.33-4.68.92-3.07-5.86-9.19-9.86-16.26-9.86s-12.63,3.65-15.82,9.07c-1.49-.68-3.14-1.07-4.89-1.07-4.26,0-7.98,2.27-10.05,5.67-.83-.31-1.72-.49-2.66-.49-3.91,0-7.12,2.98-7.49,6.8-.39-.12-.79-.21-1.21-.21-2.21,0-4,1.79-4,4s1.79,4,4,4c1.39,0,2.61-.71,3.33-1.79,1.37,1.39,3.27,2.26,5.37,2.26,1.33,0,2.58-.35,3.66-.95,2.16,2.59,5.41,4.25,9.05,4.25,2.32,0,4.47-.68,6.29-1.84,3.36,4.27,8.56,7.01,14.41,7.01,5.16,0,9.82-2.14,13.15-5.57,2.14,1.71,4.84,2.74,7.79,2.74s5.74-1.06,7.89-2.82c1.48,1.45,3.51,2.35,5.75,2.35,3.18,0,5.93-1.8,7.3-4.44,1.82.73,3.8,1.14,5.87,1.14,2.72,0,5.28-.69,7.52-1.9,1.81,3.64,5.56,6.14,9.89,6.14,6.11,0,11.06-4.95,11.06-11.06s-4.95-11.06-11.06-11.06Z"/>
      <path class="cls-4" d="M500.16,424.63c-2.4,1.21-5.15,1.9-8.08,1.9-2.23,0-4.36-.41-6.31-1.14-1.48,2.63-4.43,4.44-7.85,4.44-2.41,0-4.59-.9-6.18-2.35-2.31,1.76-5.26,2.82-8.48,2.82s-6.08-1.03-8.37-2.74c-3.58,3.43-8.59,5.57-14.13,5.57-6.29,0-11.88-2.75-15.49-7.01-1.96,1.16-4.27,1.84-6.76,1.84-3.91,0-7.4-1.65-9.72-4.25-1.16.6-2.5.95-3.93.95-2.26,0-4.31-.87-5.78-2.26-.77,1.08-2.08,1.79-3.58,1.79-.11,0-.22-.02-.33-.03.21,2.01,1.89,3.59,3.96,3.59,1.39,0,2.61-.71,3.33-1.79,1.37,1.39,3.27,2.26,5.37,2.26,1.33,0,2.58-.35,3.66-.95,2.16,2.59,5.41,4.25,9.05,4.25,2.32,0,4.47-.68,6.29-1.84,3.36,4.27,8.56,7.01,14.41,7.01,5.16,0,9.82-2.14,13.15-5.57,2.14,1.71,4.84,2.74,7.79,2.74s5.74-1.06,7.89-2.82c1.48,1.45,3.51,2.35,5.75,2.35,3.18,0,5.93-1.8,7.3-4.44,1.82.73,3.8,1.14,5.87,1.14,2.72,0,5.28-.69,7.52-1.9,1.81,3.64,5.56,6.14,9.89,6.14,3.58,0,6.75-1.71,8.77-4.35-1.36.5-2.84.79-4.39.79-4.66,0-8.69-2.5-10.63-6.14Z"/>
      <path class="cls-7" d="M180.29,388.68c-5.47,0-9.91,4.34-10.1,9.77-1.68-2.21-4.32-3.65-7.31-3.65-.76,0-1.5.1-2.21.28-1.58-5.07-6.31-8.75-11.91-8.75-.74,0-1.47.08-2.18.2.04-.53.06-1.07.06-1.61,0-13.25-10.75-24-24-24-9.77,0-18.17,5.84-21.91,14.22-.42-.38-.88-.73-1.37-1.03.14-.53.23-1.08.23-1.65,0-3.51-2.84-6.35-6.35-6.35s-6.35,2.84-6.35,6.35c0,1.12.29,2.17.8,3.08-1.66,1.7-2.68,4.01-2.68,6.57,0,3.62,2.05,6.76,5.05,8.34-.22.79-.34,1.63-.34,2.49,0,5.2,4.21,9.41,9.41,9.41,2.01,0,3.86-.63,5.39-1.7,4.4,5.08,10.89,8.29,18.14,8.29,5.55,0,10.66-1.89,14.73-5.06,1.94,4.36,6.31,7.41,11.39,7.41,2.46,0,4.74-.72,6.67-1.95,1.67,2.32,4.38,3.83,7.45,3.83,4.85,0,8.81-3.77,9.14-8.53,1.83,2.6,4.85,4.3,8.27,4.3,5.59,0,10.12-4.53,10.12-10.12s-4.53-10.12-10.12-10.12Z"/>
      <g>
        <path class="cls-4" d="M187.41,391.61c.48,1.18.75,2.46.75,3.81,0,5.59-4.53,10.12-10.12,10.12-3.42,0-6.44-1.7-8.27-4.3-.33,4.77-4.29,8.53-9.14,8.53-3.07,0-5.78-1.51-7.45-3.83-1.93,1.23-4.21,1.95-6.67,1.95-3.6,0-6.84-1.54-9.12-3.98,1.96,4.33,6.3,7.35,11.36,7.35,2.46,0,4.74-.72,6.67-1.95,1.67,2.32,4.38,3.83,7.45,3.83,4.85,0,8.81-3.77,9.14-8.53,1.83,2.6,4.85,4.3,8.27,4.3,5.59,0,10.12-4.53,10.12-10.12,0-2.81-1.15-5.35-3-7.18Z"/>
        <path class="cls-4" d="M120.4,405.55c-7.25,0-13.74-3.22-18.14-8.29-1.53,1.07-3.38,1.7-5.39,1.7-2.53,0-4.83-1.01-6.52-2.63,1.37,3.51,4.77,6,8.77,6,2.01,0,3.86-.63,5.39-1.7,4.4,5.08,10.89,8.29,18.14,8.29,5.55,0,10.65-1.89,14.71-5.05-.91-.99-1.67-2.13-2.23-3.38-4.07,3.17-9.17,5.06-14.73,5.06Z"/>
      </g>
      <path class="cls-10" d="M379.51,250.71s-29.7-3.67-29.7,1.53,0,5.82,5.82,5.21,21.43,2.76,23.88.31,0-7.04,0-7.04Z"/>
      <path class="cls-6" d="M357.77,254.69c-5.48.58-5.8.06-5.82-4.35-1.34.43-2.14,1.04-2.14,1.9,0,5.21,0,5.82,5.82,5.21,5.82-.61,21.43,2.76,23.88.31.63-.63.93-1.39,1.04-2.19-4.36,1.25-17.54-1.42-22.78-.87Z"/>
      <path class="cls-10" d="M355.02,330.63s21.43,2.45,25.41.31,7.96-7.65,2.14-7.65-15.92,1.22-22.66.31-9.49,4.59-4.9,7.04Z"/>
      <g class="cls-5">
        <path class="cls-6" d="M382.27,327.26c-3.98,2.14-25.41-.31-25.41-.31-1.26-.67-1.95-1.57-2.17-2.51-2.51,1.54-2.74,4.54.34,6.19,0,0,21.43,2.45,25.41.31,2.66-1.43,5.32-4.37,5.05-6.16-.91.97-2.06,1.87-3.21,2.49Z"/>
      </g>
      <path class="cls-8" d="M502.88,306.94c-.18,1.93-.38,3.85-.61,5.76,37.41,17.3,58.9,31.84,56.47,40.08-5.33,18.05-123.28-.9-263.45-42.31S45.82,220.85,51.15,202.8c2.4-8.12,27.61-8.75,67.38-3.21.84-1.73,1.71-3.45,2.61-5.16-63.73-8.82-106.26-13.81-110.72,1.28-8.2,27.75,111.48,101.8,272.33,149.33,160.85,47.53,301.97,50.54,310.17,22.79,4.5-15.23-30.74-33.34-90.03-60.88Z"/>
      <path class="cls-11" d="M52.79,193.2s-33.99,1.38-4.59,25.26c29.4,23.88,121.71,63.84,180.96,83.59s191.07,53.28,191.07,53.28c0,0-154.32-34.45-234.7-62.92S41.31,223.97,32.12,212.03s-1.38-20.21,20.67-18.83Z"/>
      <path class="cls-11" d="M545.15,330.07s43.69,21.02,36.74,34.91c-3.67,7.35-63.84,25.26-188.31-1.38s-202.09-56.49-202.09-56.49c0,0,77.67,46,278.79,71.65,90.02,11.48,120.34-5.97,119.42-14.7s-16.99-21.59-44.55-33.99Z"/>
      <path class="cls-11" d="M497.85,298.37s6.89-62.46-29.85-118.96-98.75-82.21-146.06-89.1c47.77,14.7,99.21,36.74,123.55,76.7,24.34,39.96,40.42,72.11,42.26,91.86s3.22,64.3-.46,78.54c0,0,8.27-8.73,10.56-39.04Z"/>
    </g>
  </g>
</svg>