<?xml version="1.0" encoding="UTF-8"?>
<svg xmlns="http://www.w3.org/2000/svg" xmlns:xlink="http://www.w3.org/1999/xlink" viewBox="0 0 643.67 521.92">
  <defs>
    <style>
      .cls-1 {
        fill: #79d0ee;
      }

      .cls-2 {
        fill: url(#radial-gradient);
      }

      .cls-2, .cls-3, .cls-4, .cls-5, .cls-6, .cls-7 {
        mix-blend-mode: multiply;
      }

      .cls-2, .cls-5 {
        opacity: .4;
      }

      .cls-8 {
        fill: #6cccec;
      }

      .cls-9, .cls-10, .cls-4, .cls-5, .cls-11 {
        fill: #00b2e3;
      }

      .cls-12 {
        fill: none;
      }

      .cls-3 {
        opacity: .65;
      }

      .cls-13 {
        fill: #fdd756;
      }

      .cls-10 {
        stroke-width: .73px;
      }

      .cls-10, .cls-11 {
        stroke: #06f;
        stroke-miterlimit: 10;
      }

      .cls-14 {
        isolation: isolate;
      }

      .cls-4, .cls-7 {
        opacity: .45;
      }

      .cls-15 {
        fill: #fff;
        mix-blend-mode: screen;
        opacity: .4;
      }

      .cls-11 {
        stroke-width: .56px;
      }

      .cls-16 {
        fill: url(#linear-gradient);
      }

      .cls-17 {
        clip-path: url(#clippath);
      }

      .cls-18 {
        fill: #e6e6e6;
      }
    </style>
    <radialGradient id="radial-gradient" cx="383.55" cy="180.66" fx="383.55" fy="180.66" r="290.37" gradientTransform="translate(77.84 61.99) scale(.76)" gradientUnits="userSpaceOnUse">
      <stop offset=".74" stop-color="#fff" stop-opacity="0"/>
      <stop offset="1" stop-color="#000"/>
    </radialGradient>
    <clipPath id="clippath">
      <circle class="cls-12" cx="324.86" cy="258.83" r="154.08"/>
    </clipPath>
    <linearGradient id="linear-gradient" x1="592.41" y1="296.85" x2="112.18" y2="296.85" gradientTransform="translate(39.12 -37.47) rotate(7.09)" gradientUnits="userSpaceOnUse">
      <stop offset="0" stop-color="#d7282f"/>
      <stop offset=".11" stop-color="#df4e37"/>
      <stop offset=".25" stop-color="#e87740"/>
      <stop offset=".39" stop-color="#ef9a48"/>
      <stop offset=".54" stop-color="#f5b44e"/>
      <stop offset=".69" stop-color="#f9c752"/>
      <stop offset=".84" stop-color="#fcd355"/>
      <stop offset="1" stop-color="#fdd756"/>
    </linearGradient>
  </defs>
  <g class="cls-14">
    <g id="ball">
      <circle class="cls-1" cx="324.86" cy="258.83" r="154.08"/>
      <path class="cls-4" d="M473.87,292.83c-30.39,68.38-117.76,108.65-184.62,60.02-36.47-26.59-55.46-66.86-50.9-110.16,3.04-35.71,24.31-64.58,40.27-96.49,5.26-10.04,7.2-23.69,3.57-35.46-64.34,18.51-111.4,77.8-111.4,148.09,0,85.1,68.99,154.08,154.08,154.08,75.5,0,138.31-54.31,151.52-125.99-.82,1.97-1.65,3.94-2.51,5.9Z"/>
      <path class="cls-4" d="M314.32,396.16c-48.62-9.12-83.57-41.03-103.33-83.57-26.59-54.7,3.04-113.96,39.51-158.79,9.39-11.62,17.45-25.08,20.34-39.3-58.45,21.89-100.06,78.25-100.06,144.34,0,85.1,68.99,154.08,154.08,154.08,42.33,0,80.67-17.07,108.51-44.7-5.32,3.12-10.9,5.8-16.49,8.19-32.67,13.68-66.1,26.59-102.57,19.75Z"/>
      <path class="cls-15" d="M474.47,266.5s5.23-47.46-22.68-90.38c-27.92-42.92-75.03-62.46-110.97-67.7,36.29,11.17,75.37,27.92,93.87,58.28,18.49,30.36,30.71,54.79,32.1,69.79s2.44,48.85-.35,59.67c0,0,6.28-6.63,8.03-29.66Z"/>
    </g>
    <g id="shader">
      <circle class="cls-2" cx="324.86" cy="258.83" r="154.08"/>
    </g>
    <g id="stich">
      <g>
        <path class="cls-4" d="M195.74,198.94c-.08-.07-.15-.14-.23-.21-.57,1.22-1.18,2.38-1.82,3.49.18.13.37.25.56.38.5-1.28,1-2.5,1.5-3.65Z"/>
        <path class="cls-11" d="M206.28,180.73s-26.65,30.66-21.45,89.04c5.21,58.39,35.86,98.81,71.87,114.8-52.65-31.37-62.3-71.47-67.98-97.11-5.67-25.65-7.31-69.61,17.55-106.73Z"/>
        <path class="cls-11" d="M182.54,252.13l4.27-.24s1.3-.77,1.51,1.86-4.49,2.6-5.63,2.8-1.74-.93-1.83-2.87,1.68-1.55,1.68-1.55Z"/>
        <path class="cls-4" d="M183.19,254.39c-.98.18-1.55-.64-1.76-2.1-.34.2-.61.6-.57,1.39.09,1.94.69,3.08,1.83,2.87s5.85-.17,5.63-2.8c-.02-.26-.06-.48-.1-.68-1.27,1.14-4.17,1.16-5.03,1.32Z"/>
        <path class="cls-11" d="M186.96,286.56s-2.69-.4-2,2.68,2.94,1.07,5.03.33,2.97-1.61,2-4.1-5.03,1.09-5.03,1.09Z"/>
        <path class="cls-4" d="M185.39,286.96c-.43.36-.71,1.03-.43,2.28.69,3.08,2.94,1.07,5.03.33,1.95-.69,2.85-1.49,2.17-3.62-.41.41-1.03.72-1.84,1-2,.71-4.15,2.57-4.93,0Z"/>
        <path class="cls-11" d="M197.37,320.8s-2.02.37-1.52,2.41,2.62.77,4.81-.16,1.81-3,.67-3.5-3.95,1.25-3.95,1.25Z"/>
        <path class="cls-4" d="M196.72,321.04c-.54.3-1.18.92-.87,2.17.5,2.04,2.62.77,4.81-.16,1.46-.62,1.77-1.75,1.48-2.58-.18.13-.39.25-.63.35-2.16.92-4.25,2.17-4.79.22Z"/>
        <path class="cls-11" d="M213.16,347.29s-3.07.38-1.87,3.37,2.78.92,4.46.08,1.84-2.83,1.37-3.99-2.5-.79-3.95.54Z"/>
        <path class="cls-4" d="M212.07,348.07c-.05-.12-.08-.23-.11-.34-.7.44-1.33,1.29-.67,2.93,1.2,2.99,2.78.92,4.46.08,1.32-.66,1.7-2.04,1.57-3.16-.21.22-.47.42-.79.58-1.68.84-3.26,2.91-4.46-.08Z"/>
        <path class="cls-11" d="M233.64,369.37s-1.65,3.86.02,5.16,2.82-2.47,3.77-4.42,1.02-2.32-.06-3.19-3.73,2.46-3.73,2.46Z"/>
        <path class="cls-4" d="M237.43,366.96c-.12.29-.28.62-.48,1.03-.95,1.95-2.1,5.72-3.77,4.42-.1-.08-.18-.16-.26-.25-.07.92.06,1.84.73,2.36,1.67,1.3,2.82-2.47,3.77-4.42.93-1.91,1.01-2.31,0-3.14Z"/>
      </g>
      <g>
        <path class="cls-10" d="M356.55,108.7c-.25,0-.51.03-.76.04,29.29.62,50.36,65.79,51.74,146.45,1.37,80.66-17.47,146.51-46.72,148.13.25,0,.51.02.76.01,29.62-.5,52.5-66.87,51.12-148.23s-26.52-146.91-56.14-146.4Z"/>
        <g class="cls-3">
          <path class="cls-18" d="M356.6,108.7c-.27,0-.54.03-.8.04,31.07.59,53.37,65.74,54.74,146.4,1.37,80.66-18.69,146.53-49.72,148.18.27,0,.54.02.81.01,31.42-.54,55.77-66.92,54.39-148.28-1.39-81.36-27.98-146.88-59.41-146.34Z"/>
        </g>
        <path class="cls-10" d="M377.87,117.21s-6.16.11-8.34.54-4.95,1.48-4.73,2.67,5.18.31,8.35-.34,8.54-.54,4.72-2.87Z"/>
        <path class="cls-4" d="M366.53,119.12c-.03-.16,0-.32.07-.48-1.12.49-1.93,1.11-1.81,1.78.22,1.19,5.18.31,8.35-.34,2.66-.55,6.87-.56,5.9-1.92-1.25.22-2.88.36-4.16.63-3.17.65-8.13,1.53-8.35.34Z"/>
        <path class="cls-10" d="M384.73,134.8s-5.94,1.69-6.11,3.29,5.2,1.5,9.36.64,6.13-2.29,3.92-3.45-7.17-.47-7.17-.47Z"/>
        <path class="cls-4" d="M380.08,136.64c-.81.46-1.41.96-1.46,1.45-.17,1.59,5.2,1.5,9.36.64,3.15-.66,5.03-1.63,4.81-2.57-.83.39-1.97.74-3.36,1.03-4.08.85-9.31.95-9.35-.55Z"/>
        <path class="cls-10" d="M393.36,162.89s-3.97.47-3.73,3.05,6.59,1.68,8.78,1.44,5.36-.69,5.52-3.08-6-2.09-10.57-1.41Z"/>
        <path class="cls-4" d="M391.2,164.86c-.06-.62.13-1.11.44-1.51-1.04.42-2.13,1.19-2,2.59.24,2.58,6.59,1.68,8.78,1.44,1.72-.19,4.04-.51,5.03-1.79-1.08.43-2.39.6-3.47.71-2.18.24-8.53,1.14-8.78-1.44Z"/>
        <path class="cls-10" d="M403.45,194.35s-5.97-.1-5.31,3.27,6.19,1.68,8.97,1.04,4.48-5.45-3.65-4.31Z"/>
        <path class="cls-4" d="M399.84,196.47c-.13-.66,0-1.19.29-1.61-1.24.44-2.29,1.25-2,2.77.65,3.37,6.19,1.68,8.97,1.04.73-.17,1.38-.62,1.8-1.18-.03,0-.06.02-.1.03-2.77.64-8.31,2.33-8.97-1.04Z"/>
        <path class="cls-10" d="M403.19,330.99s4.56-.67,7.34-1.12c0,0,3.38-.26,3.34-2.24-.03-1.99-1.24-2.56-5-1.7-3.76.86-8.77-.85-9.72,1.36s.47,4.37,4.04,3.71Z"/>
        <path class="cls-4" d="M405.07,329.19c-3.17.58-4.65-1.06-4.27-2.97-.79.15-1.38.45-1.65,1.07-.96,2.2.47,4.37,4.04,3.71,0,0,4.56-.67,7.34-1.12,0,0,3.2-.25,3.33-2.1-.76.24-1.45.3-1.45.3-2.78.45-7.34,1.12-7.34,1.12Z"/>
        <path class="cls-10" d="M400.27,354.17c-2.26.14-5.85-.95-6.39,2.44s5.99,1.49,9.76,1.03c3.77-.46,4.36-.67,3.53-3.04s-4.65-.57-6.91-.43Z"/>
        <path class="cls-4" d="M396.16,354.66c.03-.17.07-.32.11-.47-1.18.2-2.13.79-2.39,2.41-.54,3.39,5.99,1.49,9.76,1.03,3.23-.4,4.12-.61,3.79-2.15-.43.07-.93.13-1.51.2-3.77.46-10.3,2.36-9.76-1.03Z"/>
        <path class="cls-10" d="M390.5,380.14c-2.79-.35-6.8-2.27-7.36.13s3.64,3.72,6.04,4.07,7.35-.32,8.12-2.33-6.79-1.87-6.79-1.87Z"/>
        <path class="cls-4" d="M391.47,382.93c-2.31-.34-6.29-1.59-6.06-3.83-1.15-.1-2.03.13-2.27,1.16-.56,2.4,3.64,3.72,6.04,4.07,2.23.33,6.7-.24,7.91-1.94-1.82.59-4.18.76-5.61.54Z"/>
        <path class="cls-10" d="M418.1,227.97s-21.67-2.31-21.61,1.48.07,4.24,4.3,3.72,15.64,1.74,17.39-.07-.09-5.13-.09-5.13Z"/>
        <path class="cls-4" d="M402.32,231.14c-3.98.49-4.22.12-4.29-3.09-.97.33-1.55.79-1.54,1.41.06,3.79.07,4.24,4.3,3.72,4.23-.52,15.64,1.74,17.39-.07.45-.46.66-1.03.73-1.61-3.16.96-12.79-.82-16.59-.35Z"/>
        <path class="cls-10" d="M401.25,286.46s15.64,1.52,18.51-.09c2.87-1.61,5.7-5.67,1.47-5.6-4.24.07-11.58,1.09-16.49.5-4.92-.59-6.85,3.46-3.48,5.19Z"/>
        <g class="cls-7">
          <path class="cls-4" d="M421.05,283.67c-2.87,1.61-18.51.09-18.51.09-.93-.47-1.44-1.12-1.61-1.8-1.81,1.15-1.94,3.34.32,4.5,0,0,15.64,1.52,18.51-.09,1.92-1.08,3.82-3.25,3.6-4.55-.65.72-1.48,1.39-2.31,1.85Z"/>
        </g>
      </g>
      <g>
        <path class="cls-10" d="M233.27,138.53c-.23.09-.45.18-.67.28,26.97-9.24,62.56,36.7,85.04,108.01,24.87,78.9,23.09,153.45-10.39,160.32.29-.04.58-.07.87-.11,34.31-5.71,40.6-81.9,15.1-161.76-23.02-72.1-62.87-116.98-89.93-106.74Z"/>
        <g class="cls-3">
          <path class="cls-18" d="M233.31,138.51c-.24.09-.48.19-.72.29,28.64-9.87,65.59,35.68,88.27,107.11,25.1,79.04,21.97,154-13.63,161.23.31-.04.61-.07.92-.12,36.46-6.07,44.42-82.73,18.65-162.76-23.25-72.22-64.75-116.63-93.5-105.75Z"/>
        </g>
        <path class="cls-10" d="M254.52,138.11s-5.69,2.12-7.61,3.18-4.24,2.77-3.79,3.63,4.83-1.45,7.62-3,7.85-3.26,3.78-3.81Z"/>
        <path class="cls-4" d="M244.43,143.34c-.06-.12-.07-.25-.03-.4-.93.75-1.54,1.5-1.3,1.98.45.86,4.83-1.45,7.62-3,2.36-1.31,6.28-2.71,5.08-3.46-1.12.59-2.61,1.24-3.74,1.87-2.8,1.55-7.19,3.87-7.64,3.01Z"/>
        <path class="cls-10" d="M264.8,149.77s-5.26,3.3-5.08,4.63,5.27-.49,9.06-2.55,5.38-3.88,2.99-4.07-6.97,1.99-6.97,1.99Z"/>
        <path class="cls-4" d="M260.79,152.76c-.66.63-1.12,1.23-1.07,1.64.19,1.33,5.27-.49,9.06-2.55,2.88-1.57,4.48-2.98,4.05-3.66-.71.58-1.73,1.25-3,1.94-3.72,2.03-8.67,3.82-9.04,2.63Z"/>
        <path class="cls-10" d="M279.57,169.87s-3.79,1.66-2.95,3.73,6.9-.71,9.01-1.61,5.18-2.31,4.76-4.36-6.48.21-10.82,2.25Z"/>
        <path class="cls-4" d="M277.91,172.2c-.2-.49-.13-.96.08-1.39-.92.68-1.81,1.67-1.36,2.79.84,2.07,6.9-.71,9.01-1.61,1.66-.71,3.9-1.73,4.59-3.13-.97.71-2.25,1.28-3.29,1.72-2.12.9-8.18,3.69-9.03,1.62Z"/>
        <path class="cls-10" d="M297.35,193.34s-6.1,1.78-4.6,4.49c1.51,2.73,6.76-.46,9.45-1.88,2.7-1.43,3.23-6.15-4.85-2.61Z"/>
        <path class="cls-4" d="M294.19,196.3c-.3-.54-.29-1.03-.1-1.49-1.16.76-2.02,1.79-1.35,3.01,1.51,2.73,6.76-.46,9.45-1.88.71-.37,1.26-.97,1.56-1.59-.03.02-.06.04-.09.05-2.7,1.43-7.96,4.62-9.47,1.89Z"/>
        <path class="cls-10" d="M334.47,322.06s5.03-1.77,8.09-2.89c0,0,3.83-1.08,3.18-3.11-.65-2.03-2.21-2.33-6.29-.53s-10.24,1.25-10.68,3.71,1.82,4.34,5.69,2.83Z"/>
        <path class="cls-4" d="M336.08,319.77c-3.44,1.35-5.61.02-5.74-2.02-.85.34-1.43.79-1.56,1.48-.44,2.47,1.82,4.34,5.69,2.83,0,0,5.03-1.77,8.09-2.89,0,0,3.63-1.02,3.21-2.96-.8.43-1.59.66-1.59.66-3.07,1.13-8.11,2.91-8.11,2.91Z"/>
        <path class="cls-10" d="M338.07,346.79c-2.57.64-7.03.28-6.64,3.96s7.38.28,11.64-1.03c4.28-1.31,4.91-1.67,3.19-4-1.71-2.32-5.61.43-8.19,1.07Z"/>
        <path class="cls-4" d="M333.47,348.2c-.02-.18-.02-.35-.01-.51-1.29.46-2.22,1.29-2.03,3.05.39,3.69,7.38.28,11.64-1.03,3.66-1.12,4.65-1.55,3.78-3.11-.49.17-1.05.35-1.71.55-4.27,1.31-11.27,4.73-11.66,1.05Z"/>
        <path class="cls-10" d="M334.6,376.53c-3.36.17-8.57-1.11-8.5,1.57.07,2.69,5.33,3.31,8.23,3.24s8.55-1.78,8.82-4.11-8.56-.7-8.56-.7Z"/>
        <path class="cls-4" d="M336.59,379.37c-2.81.07-7.81-.5-8.22-2.96-1.35.12-2.3.54-2.27,1.69.07,2.69,5.33,3.31,8.23,3.24,2.72-.07,7.8-1.56,8.7-3.66-1.97,1-4.69,1.64-6.44,1.69Z"/>
        <path class="cls-10" d="M321.54,218.64s-23.49,4.4-22.45,7.78,1.17,3.8,5.46,2.1c4.32-1.71,17.1-3.04,18.49-5.23s-1.51-4.65-1.51-4.65Z"/>
        <path class="cls-4" d="M305.63,226.23c-4.05,1.61-4.39,1.35-5.29-1.52-.92.58-1.41,1.16-1.24,1.72,1.04,3.4,1.17,3.8,5.46,2.1,4.32-1.71,17.1-3.04,18.49-5.23.36-.56.43-1.14.34-1.69-3.14,1.83-13.87,3.08-17.76,4.63Z"/>
        <path class="cls-10" d="M319.46,278.24s17.82-2.69,20.58-5.04,4.76-7.1,0-5.86c-4.74,1.23-12.62,4.21-18.21,4.97-5.54.75-6.54,5.15-2.37,5.93Z"/>
        <g class="cls-7">
          <path class="cls-4" d="M340.7,270.22c-2.76,2.35-20.58,5.08-20.58,5.08-1.15-.21-1.89-.7-2.27-1.31-1.65,1.58-1.19,3.73,1.6,4.25,0,0,17.82-2.69,20.58-5.04,1.85-1.58,3.36-4.22,2.72-5.43-.53.88-1.26,1.76-2.06,2.44Z"/>
        </g>
      </g>
    </g>
    <g id="decal">
      <g class="cls-6">
        <g class="cls-17">
          <path class="cls-9" d="M406.66,450.06c-1.86.07-3.73.13-5.59.2.62-11.9,4.99-23.58,12.33-32.98,3.41-4.36,7.67-8.87,7.46-14.39-.13-3.48-2.07-6.59-3.44-9.79-5.63-13.15-.86-29.93,10.83-38.17,4.87-3.43,11.14-5.98,13.12-11.59,3.37-9.53-8.15-17.67-10.35-27.53-1.68-7.54,2.41-15.23,7.57-20.98s11.54-10.42,16.02-16.71c4.48-6.29,6.73-15.14,2.63-21.69-3.22-5.14-9.35-7.49-14.09-11.27-7.15-5.7-11.11-15.17-10.14-24.26,1.32-12.41,11-23.45,9.54-35.85-.98-8.37-6.91-15.26-13.09-20.98-6.18-5.72-13.07-11.05-17.07-18.46s-4.14-17.8,2.31-23.22l70.49,24.6,45.59,149.41-38.82,86.67-14.44,19.41-70.87,47.6Z"/>
          <path class="cls-8" d="M293.57,92.86c-10.4,7.46-12.17,23.2-6.56,34.71s16.85,19.29,28.54,24.5c8.86,3.95,19.04,7.41,23.59,15.97,4.16,7.82,2.16,17.47-1.03,25.74-3.2,8.27-7.55,16.38-7.89,25.24-.37,9.42,4.24,18.9,11.87,24.44,6.49,4.7,14.75,6.58,20.99,11.6,8.51,6.85,11.79,19.47,7.71,29.6-5.32,13.19-21.41,22.25-20.42,36.44.83,11.95,14.08,20.75,13.52,32.71-.45,9.7-9.63,16.3-17.64,21.8-8.01,5.5-16.63,13.41-15.18,23.01.53,3.53,2.39,7.33.61,10.42-.9,1.55-2.53,2.5-4.1,3.37-15.27,8.54-30.54,17.08-45.81,25.61,11.48,4.12,24.1,5.99,35.94,3.05,19.08-4.73,33.47-21.46,40.09-39.97,2.83-7.93,4.51-16.34,8.63-23.68,3.57-6.36,8.81-11.63,12.71-17.79,9.75-15.41,10.24-35.27,5.41-52.86-1.26-4.59-2.87-9.19-2.75-13.95.23-9.16,6.69-16.8,10.2-25.26,5.33-12.83,3.48-28.38-4.7-39.61-7.06-9.68-19.14-18.84-16.22-30.47,1.25-4.99,5.2-8.9,6.89-13.77,2.23-6.42.09-13.84-4.37-18.97-4.46-5.13-10.94-8.18-17.57-9.68-3.67-.83-7.71-1.37-10.36-4.04-5-5.04-1.82-13.4.74-20.02,3.52-9.08,5.14-19.88,0-28.14-3.79-6.07-10.51-9.6-17.03-12.54s-13.41-5.75-18.22-11.05-6.8-13.99-2.34-19.59"/>
          <path class="cls-9" d="M278.92,416.33c1.83-.34,3.67-.68,5.5-1.01-3.18-11.49-9.96-21.95-19.16-29.54-4.27-3.52-9.4-7-10.39-12.45-.62-3.43.6-6.88,1.25-10.31,2.65-14.06-5.62-29.41-18.82-34.93-5.49-2.3-12.16-3.43-15.31-8.49-5.34-8.58,4.14-19.01,4.16-29.12.02-7.73-5.64-14.35-11.92-18.85-6.28-4.5-13.52-7.68-19.25-12.86s-9.84-13.33-7.25-20.61c2.03-5.71,7.51-9.34,11.33-14.05,5.75-7.11,7.57-17.21,4.66-25.88-3.97-11.83-15.8-20.53-17.05-32.94-.84-8.38,3.45-16.39,8.26-23.31,4.8-6.92,10.37-13.61,12.68-21.71,2.31-8.1.2-18.27-7.27-22.18l-63.52,39.23-12.27,155.73,56.61,76.25,18.29,15.83,79.47,31.18Z"/>
          <path class="cls-5" d="M194.38,134.87c-1.63,11.92,3.4,24.53,12.8,32.04,10.42,8.33,24.59,10.04,36.46,16.13,13.08,6.71,23.54,20.17,23.01,34.86-.37,10.29-5.86,19.65-11.85,28.03s-12.73,16.46-16.27,26.12c-3.54,9.67-3.15,21.62,4.04,28.99,6.94,7.11,17.87,8.03,26.98,12.02,10.84,4.75,19.4,14.44,22.79,25.78,3.38,11.34,1.53,24.14-4.93,34.05-7.05,10.81-18.64,17.59-28.44,25.99-15.9,13.63-27.46,32.24-32.64,52.53-1.67,6.52-2.74,13.36-6.19,19.14s-10.12,10.34-16.68,8.84c-3.46-.79-6.36-3.1-9.03-5.44-20.34-17.79-35.57-40.56-50.56-63.06-12.77-19.17-25.77-38.84-31.31-61.2-9.32-37.55,3.56-76.66,16.5-113.13,5.92-16.68,11.89-33.35,18.5-49.77,5.81-14.44,12.53-29.24,24.55-39.13"/>
        </g>
      </g>
      <path class="cls-9" d="M284.36,268.68c-.75,3.89-2.85,8.49-6.81,8.57-1.56.03-3.11-.71-4.65-.45-1.64.28-2.86,1.6-4.25,2.5-3.55,2.32-8.17,1.9-12.37,1.27-9.32-1.38-18.56-3.33-27.64-5.84-2.53-.7-5.11-1.47-7.19-3.07-2.44-1.88-3.95-4.72-5-7.61-2.5-6.84-2.69-14.87,1.12-21.08,2.48-4.04,6.41-6.97,10.43-9.48,4.08-2.55,8.43-4.81,13.14-5.8,7.1-1.5,14.8.1,20.72,4.31,5.92,4.2,23.75,30.11,22.48,36.66Z"/>
      <path class="cls-9" d="M374.5,145.73c-.67-1.05-6.66-4.32-8.51-3.01-1.85,1.31-2.81,3.56-3.27,5.78-.16.77-.27,1.57-.12,2.34.25,1.25,1.15,2.26,2.11,3.1,2.26,1.99,5.55,3.4,8.26,2.07,1.76-.86,2.87-2.77,3.05-4.72.19-1.95-.46-3.91-1.51-5.56Z"/>
      <path class="cls-9" d="M452.37,209.65c-.38-4.62-3.37-8.84-7.39-11.16-4.02-2.32-8.94-2.83-13.48-1.88-3.24.68-6.4,2.12-8.68,4.51-2.29,2.4-3.61,5.82-3.05,9.08s14.1,12.03,18.76,12.21c2.58.1,5.25-.14,7.58-1.26,4.17-2.02,6.64-6.87,6.26-11.5Z"/>
      <path class="cls-9" d="M398.02,277.25s-1.78-12.39-4.65-16.89-8.44-7.06-13.75-6.49c-5.31.58-10.13,4.2-12.34,9.05-1.25,2.74-1.7,5.84-1.29,8.83,1.01,7.31,7.2,13.24,14.28,15.31,3.8,1.11,8.03,1.24,11.62-.44,3.59-1.68,6.34-5.42,6.13-9.38Z"/>
      <path class="cls-9" d="M433.49,360.32c-.34-1.82-1.47-3.38-2.58-4.86-1-1.33-2.03-2.68-3.39-3.64-1.36-.97-3.1-1.52-4.71-1.07,0,0-7.37.75-11.79,3.35s-7.43,7.59-7.37,12.72c.02,1.71.37,3.44,1.27,4.89,1.55,2.49,4.51,3.77,7.41,4.24,7.6,1.23,15.77-2.63,19.65-9.27,1.12-1.92,1.92-4.17,1.51-6.36Z"/>
      <path class="cls-9" d="M298.93,328.39c-1.23-.86-2.81-1.18-3.88-2.23-1.69-1.65-1.56-4.55-3.18-6.28-1.7-1.82-4.62-1.66-7.01-.99-2.79.78-5.51,2.11-7.42,4.3-1.9,2.19-6.41,5.52-6.41,5.52-6.68,3.45-12.54,8.48-16.96,14.56-.6.83-1.2,1.73-1.25,2.75-.07,1.21.63,2.31,1.31,3.3,2.27,3.3,5.28,6.75,9.28,6.89,2.18.08,4.26-.88,6.23-1.81,7.12-3.37,14.24-6.74,21.37-10.1,3.27-1.55,6.69-3.22,8.76-6.19,2.06-2.97,2.13-7.66-.84-9.74Z"/>
      <path class="cls-9" d="M228.31,163.4c-5.35-2.57-11.27,3.73-12.69,4.83-2.08,1.6-3.97,3.73-4.33,6.33-.42,3.06,1.53,6.14,4.26,7.57,2.73,1.43,6.06,1.4,9,.47,3.02-.96,5.78-2.87,7.47-5.54,1.69-2.68,1.63-11.08-3.72-13.65Z"/>
    </g>
    <g id="glares">
      <path class="cls-15" d="M424.38,147.78c32.08,30.43,62.56,91.65,46.02,108.91-16.53,17.26-3.56-22.17-79.21-96.28-31.58-30.94-95.67-27.29-79.14-44.55,16.53-17.26,80.24,1.5,112.33,31.92Z"/>
    </g>
    <g id="stars">
      <circle class="cls-13" cx="271.03" cy="425.05" r="4.14"/>
      <path class="cls-13" d="M440.81,107.8c.56-2.36,1.71-4.39,3.12-4.69-1.4-.3-2.56-2.33-3.12-4.69-.56,2.36-1.71,4.39-3.12,4.69,1.4.3,2.56,2.33,3.12,4.69Z"/>
      <path class="cls-13" d="M513.65,453.59c1.31-5.54,4.02-10.28,7.31-10.99-3.29-.7-6-5.45-7.31-10.99-1.31,5.54-4.02,10.28-7.31,10.99,3.29.7,6,5.45,7.31,10.99Z"/>
      <path class="cls-13" d="M214.42,136.86c2.43-10.26,7.45-19.07,13.55-20.37-6.1-1.3-11.12-10.11-13.55-20.37-2.43,10.26-7.45,19.07-13.55,20.37,6.1,1.3,11.12,10.11,13.55,20.37Z"/>
      <path class="cls-13" d="M491.92,220.59c-1.12-.26-2.08-.81-2.22-1.48-.14.67-1.1,1.21-2.22,1.48,1.12.26,2.08.81,2.22,1.48.14-.67,1.1-1.21,2.22-1.48Z"/>
      <path class="cls-13" d="M433.7,395.35c-1.12-.26-2.08-.81-2.22-1.48-.14.67-1.1,1.21-2.22,1.48,1.12.26,2.08.81,2.22,1.48.14-.67,1.1-1.21,2.22-1.48Z"/>
      <path class="cls-13" d="M243.53,387.94c-1.12-.26-2.08-.81-2.22-1.48-.14.67-1.1,1.21-2.22,1.48,1.12.26,2.08.81,2.22,1.48.14-.67,1.1-1.21,2.22-1.48Z"/>
      <circle class="cls-13" cx="391.21" cy="97.15" r="2.59"/>
      <circle class="cls-13" cx="478.78" cy="157.75" r="1.81"/>
      <circle class="cls-13" cx="182.45" cy="141.7" r="3.11"/>
      <circle class="cls-13" cx="149.17" cy="254.41" r="2.85"/>
      <circle class="cls-13" cx="208.61" cy="374.55" r="1.81"/>
    </g>
    <g id="rings">
      <g>
        <path class="cls-13" d="M100.77,364.13c12.44,36.9,121.51,33.44,243.6-7.73,122.09-41.17,210.98-104.46,198.54-141.36-6.21-18.4-36.45-26.77-80.35-25.42,4.25,8.44,7.74,17.33,10.4,26.57,6.85,3.15,11.42,7.43,13.25,12.85,9.49,28.14-58.29,76.4-151.39,107.79-93.1,31.39-176.26,34.03-185.75,5.89-4.1-12.15,6.22-28.06,26.76-44.73-1.52-5.81-2.73-11.74-3.57-17.79-50.25,30.5-78.91,61.92-71.49,83.93Z"/>
        <path class="cls-16" d="M616.85,197.36c-10.86-32.21-76.9-41.37-166.89-28.48,3.1,4.3,5.98,8.77,8.63,13.38,55.32-3.61,94.03,5.36,101.47,27.41,13.72,40.7-84.32,110.51-218.98,155.92-134.67,45.41-254.96,49.23-268.68,8.53-9.13-27.07,31.18-67,98.8-104.07-.27-3.71-.41-7.45-.41-11.22,0-.41.01-.81.02-1.22C74.45,305.85,14.72,360.44,26.82,396.33c16.61,49.25,162.15,44.63,325.08-10.32,162.93-54.94,281.55-139.4,264.95-188.65Z"/>
      </g>
    </g>
  </g>
</svg>