<?xml version="1.0" encoding="UTF-8"?>
<svg version="1.1" xmlns="http://www.w3.org/2000/svg" width="500" height="250">
<path d="M0 0 C165 0 330 0 500 0 C500 82.5 500 165 500 250 C335 250 170 250 0 250 C0 167.5 0 85 0 0 Z " fill="#FEFEFE" transform="translate(0,0)"/>
<path d="M0 0 C1.60781893 0.7631861 3.21113138 1.53587058 4.8125 2.3125 C5.70582031 2.74175781 6.59914063 3.17101563 7.51953125 3.61328125 C9.78931933 4.88221789 11.29248171 6.06556898 13 8 C12.18595703 8.79664063 12.18595703 8.79664063 11.35546875 9.609375 C10.64003906 10.31578125 9.92460937 11.0221875 9.1875 11.75 C8.47980469 12.44609375 7.77210938 13.1421875 7.04296875 13.859375 C2.79320519 18.15258647 2.79320519 18.15258647 2 24 C2.53109375 24.21914062 3.0621875 24.43828125 3.609375 24.6640625 C8.64465161 26.9244239 11.44716866 28.89433732 14 34 C14.37277845 35.99302467 14.71208184 37.99295883 15 40 C30.15114076 41.91217388 30.15114076 41.91217388 45 40 C45.88689915 37.84018387 45.88689915 37.84018387 46 35 C45.00865917 33.24116949 44.01188962 31.48319301 42.92578125 29.78125 C41.56966455 27.1720128 41.71974207 24.87264383 42 22 C47.5825192 18.67424388 51.49686791 17.53549057 58 18 C58.6509259 19.24735567 59.29551669 20.49801832 59.9375 21.75 C60.47697266 22.79414062 60.47697266 22.79414062 61.02734375 23.859375 C63.07353578 28.36264099 63.19082713 32.43406569 63.25 37.375 C63.28867187 39.30472656 63.28867187 39.30472656 63.328125 41.2734375 C62.92284224 45.87629175 61.69748051 49.14107434 58.5625 52.57421875 C49.26303272 59.20008918 38.73766622 59.43739021 27.6875 59.25 C26.45193359 59.24484375 25.21636719 59.2396875 23.94335938 59.234375 C14.81688023 59.15557108 14.81688023 59.15557108 10.97973633 58.42480469 C8.03045043 57.85063065 8.03045043 57.85063065 5.22529602 58.46656799 C1.88944967 59.01828393 -1.20517252 59.11774662 -4.58447266 59.11010742 C-5.87245758 59.11068649 -7.1604425 59.11126556 -8.48745728 59.11186218 C-9.16804829 59.11043402 -9.8486393 59.10900585 -10.54985428 59.10753441 C-14.17914322 59.10398846 -17.80828208 59.12982499 -21.4375 59.15039062 C-26.04407876 59.17475053 -30.65020152 59.19036336 -35.25683594 59.17504883 C-38.9924191 59.16339655 -42.72688347 59.18074459 -46.46229172 59.21749306 C-47.88241546 59.22610678 -49.30264637 59.22403036 -50.72273636 59.210989 C-58.11136436 58.75624127 -58.11136436 58.75624127 -64.67424011 61.32905579 C-65.89346107 63.11345014 -65.89346107 63.11345014 -67 66 C-69.91015625 67.64453125 -69.91015625 67.64453125 -73.0625 68.8125 C-74.10535156 69.21082031 -75.14820313 69.60914062 -76.22265625 70.01953125 C-86.08006019 73.49943053 -86.08006019 73.49943053 -90 72 C-93.01590425 68.33185768 -95.25621426 64.41562016 -97 60 C-96.67 59.01 -96.34 58.02 -96 57 C-95.00097656 56.87882812 -94.00195312 56.75765625 -92.97265625 56.6328125 C-91.03712891 56.38144531 -91.03712891 56.38144531 -89.0625 56.125 C-87.77472656 55.96257812 -86.48695313 55.80015625 -85.16015625 55.6328125 C-84.11730469 55.42398438 -83.07445312 55.21515625 -82 55 C-81.67 54.34 -81.34 53.68 -81 53 C-81.8353125 52.96132812 -81.8353125 52.96132812 -82.6875 52.921875 C-90.17809149 52.36514185 -95.3704756 50.40573509 -100.9375 45.3125 C-103.54476921 41.12506764 -104.39343566 37.91376029 -104 33 C-101.89105974 24.70483499 -94.74964549 19.35271874 -87.8125 15 C-79.0666521 12.70600711 -71.08728859 13.10077157 -63 17 C-62.96036133 17.58491211 -62.92072266 18.16982422 -62.87988281 18.77246094 C-62.68883632 21.4333902 -62.46972794 24.0912919 -62.25 26.75 C-62.188125 27.67039062 -62.12625 28.59078125 -62.0625 29.5390625 C-61.98515625 30.42851563 -61.9078125 31.31796875 -61.828125 32.234375 C-61.7652832 33.05131836 -61.70244141 33.86826172 -61.63769531 34.70996094 C-60.72515026 37.98701782 -59.84831268 39.08426082 -57 41 C-53.67893543 41.56123762 -50.40708701 41.48846209 -47.046875 41.42578125 C-46.07268616 41.42249313 -45.09849731 41.41920502 -44.0947876 41.41581726 C-40.97940828 41.40006933 -37.86510147 41.35603926 -34.75 41.3125 C-32.66797757 41.30100695 -30.58594496 41.2912223 -28.50390625 41.28320312 C-26.49738494 41.2697674 -24.49087295 41.25484125 -22.484375 41.23828125 C-21.55389343 41.23089432 -20.62341187 41.22350739 -19.66473389 41.21589661 C-10.76699549 41.66361433 -10.76699549 41.66361433 -3 39 C-3.75023437 39.04382813 -4.50046875 39.08765625 -5.2734375 39.1328125 C-12.11895088 39.11556939 -15.7409882 38.06242697 -20.6875 33.1875 C-26.07980675 27.36518473 -26.07980675 27.36518473 -26 24 C-24.19140625 21.66796875 -24.19140625 21.66796875 -21.5625 19.1875 C-20.17611328 17.86878906 -20.17611328 17.86878906 -18.76171875 16.5234375 C-15.22178875 13.28893286 -11.64875534 10.110891 -8 7 C-6.49840284 5.68932757 -4.99837043 4.37686003 -3.5 3.0625 C-2.33333333 2.04166667 -1.16666667 1.02083333 0 0 Z " fill="#087FB5" transform="translate(372,49)"/>
<path d="M0 0 C0.93779297 0.00322266 1.87558594 0.00644531 2.84179688 0.00976562 C4.30649414 0.02233398 4.30649414 0.02233398 5.80078125 0.03515625 C6.78884766 0.03966797 7.77691406 0.04417969 8.79492188 0.04882812 C11.23443599 0.06061322 13.67382814 0.07706614 16.11328125 0.09765625 C15.79101562 0.84789063 15.46875 1.598125 15.13671875 2.37109375 C13.83570643 5.83714948 13.70515923 8.42455807 14.11328125 12.09765625 C15.45483908 14.25245492 15.45483908 14.25245492 18.11328125 15.09765625 C22.61398896 15.53533975 26.75611236 15.32558567 31.11328125 14.09765625 C32.21971889 8.26371236 32.38466117 5.33186412 29.11328125 0.09765625 C30.10328125 0.09765625 31.09328125 0.09765625 32.11328125 0.09765625 C32.77328125 1.08765625 33.43328125 2.07765625 34.11328125 3.09765625 C36.02034701 3.49852956 36.02034701 3.49852956 38.11328125 3.34765625 C39.16515625 3.32445313 39.16515625 3.32445313 40.23828125 3.30078125 C42.20264753 3.19808959 42.20264753 3.19808959 44.11328125 2.09765625 C46.21700761 8.01438663 47.06159374 13.83685851 46.11328125 20.09765625 C43.32467421 24.00170611 40.62230529 25.67606117 36.11328125 27.09765625 C33.46720916 27.23475843 30.93859112 27.28828597 28.30078125 27.22265625 C27.26147461 27.20912109 27.26147461 27.20912109 26.20117188 27.1953125 C24.5050573 27.17191782 22.80912254 27.13605266 21.11328125 27.09765625 C21.11328125 27.75765625 21.11328125 28.41765625 21.11328125 29.09765625 C22.00015625 29.03578125 22.88703125 28.97390625 23.80078125 28.91015625 C27.53909578 29.12175896 29.18044629 29.81656239 32.11328125 32.09765625 C34.29367839 35.4439602 34.38264956 38.28120442 34.36328125 42.22265625 C34.37101562 43.80433594 34.37101562 43.80433594 34.37890625 45.41796875 C34.11328125 48.09765625 34.11328125 48.09765625 32.11328125 50.09765625 C29.73046875 50.29296875 29.73046875 50.29296875 26.98828125 50.22265625 C26.07820313 50.20460937 25.168125 50.1865625 24.23046875 50.16796875 C23.53179687 50.14476562 22.833125 50.1215625 22.11328125 50.09765625 C22.11328125 51.41765625 22.11328125 52.73765625 22.11328125 54.09765625 C23.90765625 53.85015625 23.90765625 53.85015625 25.73828125 53.59765625 C29.94277837 53.15718512 34.13824444 52.87386809 38.36328125 52.72265625 C39.5234375 52.67367187 40.68359375 52.6246875 41.87890625 52.57421875 C45.11328125 53.09765625 45.11328125 53.09765625 47.99609375 55.125 C50.61706338 58.80499611 50.85979297 61.67288554 50.73828125 66.03515625 C50.75761719 66.72544922 50.77695313 67.41574219 50.796875 68.12695312 C50.75552133 72.4897653 49.88830346 75.64826958 46.82836914 78.84716797 C40.49558341 83.4644674 32.32894442 83.55860278 24.80078125 83.41015625 C23.86669434 83.40177734 22.93260742 83.39339844 21.97021484 83.38476562 C11.9657252 83.2172143 2.04759391 82.23532805 -7.88671875 81.09765625 C-8.54314531 78.34982412 -9.18687448 75.59992494 -9.82421875 72.84765625 C-10.09782227 71.71070313 -10.09782227 71.71070313 -10.37695312 70.55078125 C-12.96570364 59.25441535 -13.05577987 47.89019987 -13.01171875 36.34765625 C-13.00688477 35.03104004 -13.00205078 33.71442383 -12.99707031 32.35791016 C-12.90758073 17.85880782 -12.90758073 17.85880782 -12.63671875 11.47265625 C-12.5903125 10.30476562 -12.54390625 9.136875 -12.49609375 7.93359375 C-11.75338609 4.47714657 -10.65089024 3.2464465 -7.88671875 1.09765625 C-4.94539984 0.11721661 -3.0617021 -0.01855577 0 0 Z " fill="#8C3F94" transform="translate(43.88671875,120.90234375)"/>
<path d="M0 0 C9.40259503 0.07644386 15.81622655 2.78416314 22.5 9.3125 C23.97739101 11.25934236 25.23225005 13.21583663 26.5 15.3125 C26.51417969 14.64863281 26.52835937 13.98476562 26.54296875 13.30078125 C26.59066406 12.41777344 26.63835937 11.53476563 26.6875 10.625 C26.72230469 9.75488281 26.75710938 8.88476562 26.79296875 7.98828125 C27.81421886 4.12332919 29.27845747 2.66154143 32.5 0.3125 C35.47011839 -0.26849208 38.30098331 -0.16408096 41.3125 0 C42.10076172 0.02255859 42.88902344 0.04511719 43.70117188 0.06835938 C45.63493929 0.12695839 47.56772167 0.21663173 49.5 0.3125 C53.87369762 7.45620612 55.87761651 13.78674159 55.8125 22.25 C55.80512817 23.42079102 55.80512817 23.42079102 55.79760742 24.61523438 C55.65381953 32.46679052 55.12605699 40.30004083 54.48788452 48.12503052 C54.37119735 49.58040195 54.26197239 51.03639141 54.16030884 52.4928894 C54.01223732 54.56055283 53.83275168 56.62315147 53.64453125 58.6875 C53.49528198 60.49347656 53.49528198 60.49347656 53.34301758 62.3359375 C52.5 65.3125 52.5 65.3125 50.06225586 67.19726562 C45.37463042 69.23757749 41.04116273 69.25886405 36.234375 67.46875 C27.6111003 63.0063561 20.73694613 56.42131981 15.5 48.3125 C15.33564453 49.52486328 15.33564453 49.52486328 15.16796875 50.76171875 C14.93013672 52.36466797 14.93013672 52.36466797 14.6875 54 C14.53667969 55.05574219 14.38585937 56.11148438 14.23046875 57.19921875 C13.24574159 61.39615751 11.63836186 64.24528576 8.5 67.1875 C3.85576007 68.92908997 -0.69093108 68.30260243 -5.5 67.3125 C-8.5 65.3125 -8.5 65.3125 -9.4140625 61.8203125 C-9.66621189 60.36191674 -9.90226051 58.90067621 -10.125 57.4375 C-10.24979736 56.66519043 -10.37459473 55.89288086 -10.50317383 55.09716797 C-13.09700498 38.54966122 -16.41327802 16.42631926 -7.5 1.3125 C-5.60964451 -0.57785549 -2.52483415 0.05125198 0 0 Z " fill="#0275AF" transform="translate(267.5,129.6875)"/>
<path d="M0 0 C2.72326285 2.17861028 5.12889393 4.44170135 7.5 7 C8.180625 7.721875 8.86125 8.44375 9.5625 9.1875 C14.34029066 16.12300257 16.91517308 23.58153453 15.5 32 C12.85318589 40.95522876 9.9327625 48.37685607 1.5625 53.1875 C0.31146484 53.92033203 0.31146484 53.92033203 -0.96484375 54.66796875 C-8.52078297 58.63803851 -15.79657899 59.16920152 -24.1875 59.125 C-24.93322266 59.12886719 -25.67894531 59.13273437 -26.44726562 59.13671875 C-33.19592743 59.12467832 -33.19592743 59.12467832 -36.5 58 C-37.6953125 55.8828125 -37.6953125 55.8828125 -38.625 53.125 C-38.93695313 52.24070313 -39.24890625 51.35640625 -39.5703125 50.4453125 C-41.98594335 41.49326875 -42.8601887 32.88514826 -42.8125 23.625 C-42.80903564 22.53171387 -42.80557129 21.43842773 -42.80200195 20.31201172 C-42.55181596 1.73742941 -42.55181596 1.73742941 -38.07421875 -3.74609375 C-27.54614358 -12.13197992 -10.00265709 -6.24206734 0 0 Z " fill="#0275AF" transform="translate(366.5,137)"/>
<path d="M0 0 C3.38357138 2.31188244 4.52421157 4.5085746 5.9609375 8.33984375 C5.1823653 11.22056087 4.07326505 12.2275162 1.9609375 14.33984375 C1.61551899 16.67141867 1.28299493 19.00492736 0.9609375 21.33984375 C0.1953125 23.50390625 0.1953125 23.50390625 -1.0390625 25.33984375 C-2.9921875 26.02734375 -2.9921875 26.02734375 -5.2890625 26.33984375 C-11.11924767 27.4253999 -14.60506822 29.60395593 -18.4140625 34.21484375 C-20.23145473 37.7098288 -20.79572241 39.47247089 -20.0390625 43.33984375 C-16.72805041 46.94300397 -13.8474812 47.89254899 -9.0390625 48.33984375 C-9.02488281 49.01789063 -9.01070312 49.6959375 -8.99609375 50.39453125 C-8.46068213 60.84229321 -4.26735827 68.1540836 1.9609375 76.33984375 C-5.74154401 80.24576744 -16.92168248 79.39883069 -25.19140625 77.6875 C-36.85712896 73.393482 -44.71088206 64.60349529 -49.8515625 53.58984375 C-53.83739703 44.56044515 -54.61356437 35.09469129 -51.4765625 25.58984375 C-46.56556813 13.73453104 -37.33487897 5.2315091 -25.63671875 0.33984375 C-16.62675035 -3.12865536 -8.88015181 -4.37775905 0 0 Z " fill="#8C3F94" transform="translate(147.0390625,124.66015625)"/>
<path d="M0 0 C5.12906622 4.21723222 6.65392512 9.43649473 8.5625 15.5625 C11.12225391 23.53101804 14.1304226 31.23029735 17.39453125 38.93359375 C19.06751748 42.92018629 19.98497368 45.95374978 20.0625 50.25 C20.08828125 51.10464844 20.1140625 51.95929688 20.140625 52.83984375 C19.74319787 55.83474105 18.88788822 57.14498006 16.8125 59.3125 C13.48771742 60.42076086 10.81244522 60.55011378 7.3125 60.625 C6.1678125 60.66238281 5.023125 60.69976562 3.84375 60.73828125 C0.8125 60.3125 0.8125 60.3125 -0.99609375 58.5234375 C-2.04582321 56.57541496 -2.96538426 54.69190203 -3.75 52.625 C-4.79756978 49.23977108 -4.79756978 49.23977108 -7.1875 48.3125 C-11.18872092 47.93502633 -13.48346807 47.90572599 -17 49.9375 C-19.48600304 52.63658902 -20.13118612 54.8417544 -21.1875 58.3125 C-24.92480065 60.80403377 -27.86404816 60.72275455 -32.1875 60.3125 C-34.5995667 59.78656064 -36.83957188 59.09514271 -39.1875 58.3125 C-40.38604565 42.46506313 -35.93046815 27.54130652 -30.625 12.75 C-30.34454834 11.95891846 -30.06409668 11.16783691 -29.77514648 10.3527832 C-27.82193439 5.17311632 -25.92769093 1.76101844 -20.8671875 -0.9140625 C-14.47797069 -2.75818047 -6.01229685 -3.17995144 0 0 Z " fill="#31B9AA" transform="translate(458.1875,135.6875)"/>
<path d="M0 0 C6.73172024 2.20209482 11.42914302 6.73382563 16 12 C16.495 12.99 16.495 12.99 17 14 C18.19625 14.53625 19.3925 15.0725 20.625 15.625 C26.72059383 18.54123733 31.36817047 23.77471091 34 30 C34.125 32.75 34.125 32.75 34 35 C35.2375 35.268125 36.475 35.53625 37.75 35.8125 C41.07680389 36.65009956 43.56342027 37.46189611 46 40 C46 40.99 46 41.98 46 43 C45.21753906 43.20496094 44.43507812 43.40992188 43.62890625 43.62109375 C42.61699219 43.89050781 41.60507813 44.15992188 40.5625 44.4375 C39.55316406 44.70433594 38.54382813 44.97117188 37.50390625 45.24609375 C35.08247999 45.75978077 35.08247999 45.75978077 34 47 C34.94875 47.5775 35.8975 48.155 36.875 48.75 C39.88700827 50.91864595 40.60379265 51.77381215 42 55 C41.09378906 55.00257813 40.18757813 55.00515625 39.25390625 55.0078125 C31.77123962 55.24535747 26.76104796 55.85487169 20.8671875 60.625 C15.24506532 64.76514018 6.63171891 63.58693748 0 63 C-6.86848966 61.00303365 -12.19154944 57.07293468 -16 51 C-18.20726843 46.7139685 -18.3019775 42.66312078 -18.25 37.9375 C-18.25773438 37.23044922 -18.26546875 36.52339844 -18.2734375 35.79492188 C-18.25902038 31.95636281 -17.93528401 29.30431825 -16 26 C-15.57848115 24.42841122 -15.2031166 22.84370918 -14.875 21.25 C-14.70742187 20.45078125 -14.53984375 19.6515625 -14.3671875 18.828125 C-14.24601563 18.22484375 -14.12484375 17.6215625 -14 17 C-13.34 17 -12.68 17 -12 17 C-12.061875 16.01 -12.12375 15.02 -12.1875 14 C-12.1875 9.69221307 -11.10354092 5.76559795 -9 2 C-5.42067291 -0.38621806 -4.22677916 -0.4785033 0 0 Z " fill="#E72153" transform="translate(160,137)"/>
<path d="M0 0 C4.59571063 2.57359795 8.13659777 4.76170398 10.125 9.75 C10.38660411 11.78350002 10.56931583 13.82815083 10.6875 15.875 C10.83228961 19.96478884 10.83228961 19.96478884 12.125 23.75 C16.34252518 23.77473064 20.56001186 23.79287453 24.77758789 23.80493164 C26.21216568 23.80995842 27.64673836 23.81678079 29.08129883 23.82543945 C31.14405582 23.83757752 33.20674504 23.84324486 35.26953125 23.84765625 C37.13121948 23.85551147 37.13121948 23.85551147 39.03051758 23.86352539 C42.16208218 23.89388083 42.16208218 23.89388083 45.125 22.75 C44.795 17.47 44.465 12.19 44.125 6.75 C48.2696842 5.09212632 50.65850085 4.43432524 54.9375 4.125 C55.91332031 4.05023438 56.88914062 3.97546875 57.89453125 3.8984375 C58.99861328 3.82496094 58.99861328 3.82496094 60.125 3.75 C63.49530453 12.77760142 66.21080302 20.48732274 62.2890625 29.796875 C58.67629955 35.85855781 53.12008124 39.26375645 46.49609375 41.2421875 C40.48042206 42.53055211 34.6264225 42.94211178 28.5 42.9375 C27.71020752 42.93886963 26.92041504 42.94023926 26.10668945 42.94165039 C21.40202144 42.90300541 16.95539071 42.52446446 12.3125 41.6875 C6.93140179 40.72922224 2.23422187 40.89472437 -3.18359375 41.453125 C-7.81647579 41.82571657 -12.41661267 41.87238653 -17.0625 41.875 C-18.32054443 41.88152588 -18.32054443 41.88152588 -19.60400391 41.88818359 C-25.62585301 41.8745735 -25.62585301 41.8745735 -27.875 40.75 C-27.90185095 38.27076199 -27.92176547 35.7918116 -27.9375 33.3125 C-27.95006836 32.25192383 -27.95006836 32.25192383 -27.96289062 31.16992188 C-27.97153588 29.36306441 -27.92720011 27.55612397 -27.875 25.75 C-26.875 24.75 -26.875 24.75 -25.125 24.65234375 C-24.01125 24.66974609 -24.01125 24.66974609 -22.875 24.6875 C-22.070625 24.69523437 -21.26625 24.70296875 -20.4375 24.7109375 C-17.875 24.75 -17.875 24.75 -15.3125 24.7890625 C-14.508125 24.79679687 -13.70375 24.80453125 -12.875 24.8125 C-11.76125 24.82990234 -11.76125 24.82990234 -10.625 24.84765625 C-8.84622422 24.94342775 -8.84622422 24.94342775 -7.875 23.75 C-7.83419217 21.75041636 -7.83245644 19.74954746 -7.875 17.75 C-9.26525391 17.65912109 -9.26525391 17.65912109 -10.68359375 17.56640625 C-11.88113281 17.48261719 -13.07867187 17.39882812 -14.3125 17.3125 C-15.50746094 17.23128906 -16.70242187 17.15007812 -17.93359375 17.06640625 C-20.875 16.75 -20.875 16.75 -21.875 15.75 C-22.05313354 13.62991884 -22.14289228 11.50208388 -22.1875 9.375 C-22.24357422 7.63089844 -22.24357422 7.63089844 -22.30078125 5.8515625 C-21.875 2.75 -21.875 2.75 -20.04296875 0.8984375 C-14.09644546 -2.25161268 -6.26690287 -2.53989015 0 0 Z " fill="#EC2355" transform="translate(128.875,66.25)"/>
<path d="M0 0 C1.1653125 -0.02578125 2.330625 -0.0515625 3.53125 -0.078125 C5.00078125 0.08429687 5.00078125 0.08429687 6.5 0.25 C9.00795008 4.01192512 8.73628327 6.07887431 8.6875 10.5625 C8.68105469 11.85800781 8.67460938 13.15351562 8.66796875 14.48828125 C8.5 18.25 8.5 18.25 8.00390625 21.21875 C7.3813709 24.96361384 7.27791088 28.65208727 7.25 32.4375 C7.229375 33.14841797 7.20875 33.85933594 7.1875 34.59179688 C7.12016974 38.46182118 7.12016974 38.46182118 8.58276367 41.95117188 C11.50634568 43.93174698 14.00701821 43.6214873 17.50390625 43.61328125 C18.18299545 43.61377975 18.86208466 43.61427826 19.56175232 43.61479187 C20.9948927 43.61245453 22.42803743 43.60274586 23.86108398 43.58618164 C26.05815169 43.56254678 28.254009 43.56562767 30.45117188 43.57226562 C37.57922369 44.12234527 37.57922369 44.12234527 43.5 41.25 C43.35269661 37.64776256 42.91446076 34.11534119 42.49609375 30.53515625 C42.5 27.25 42.5 27.25 43.78515625 25.37109375 C46.78540314 23.40965672 49.50552259 23.06988955 53 23 C53.7734375 22.97421875 54.546875 22.9484375 55.34375 22.921875 C58.09271973 23.34019648 58.79438428 24.08500751 60.5 26.25 C61.13465495 29.61347952 60.96325938 33.02086998 60.9375 36.4375 C60.95748047 37.35853516 60.97746094 38.27957031 60.99804688 39.22851562 C60.99280743 46.61089404 59.44755906 52.13400899 54.3125 57.5625 C47.08594098 61.89843541 40.10819857 62.69225837 31.8125 62.5 C30.33148804 62.47812622 30.33148804 62.47812622 28.82055664 62.45581055 C26.75618955 62.41995549 24.69195063 62.3758326 22.62792969 62.32373047 C19.52513096 62.25059238 16.42380383 62.21956591 13.3203125 62.19140625 C11.35931843 62.15110199 9.39837508 62.1082289 7.4375 62.0625 C6.52846924 62.05702148 5.61943848 62.05154297 4.68286133 62.04589844 C0.41823318 61.89974227 -2.59271725 61.63038337 -6.00390625 58.9296875 C-12.3361389 52.13170378 -12.03114591 43.66853403 -11.796875 34.796875 C-11.49186538 27.90572543 -10.82528245 21.04809317 -10.125 14.1875 C-9.99915527 12.93155029 -9.87331055 11.67560059 -9.74365234 10.3815918 C-9.54956787 8.62842651 -9.54956787 8.62842651 -9.3515625 6.83984375 C-9.23635254 5.78659912 -9.12114258 4.73335449 -9.00244141 3.64819336 C-8.83663574 2.85678955 -8.67083008 2.06538574 -8.5 1.25 C-5.65504507 -0.17247747 -3.1688204 0.04206399 0 0 Z " fill="#8D4094" transform="translate(34.5,46.75)"/>
<path d="M0 0 C1.3602832 -0.03673828 1.3602832 -0.03673828 2.74804688 -0.07421875 C9.41542893 -0.10365532 9.41542893 -0.10365532 12.62890625 2.2734375 C15.12161026 5.92759215 15.16091317 8.02666136 15.08984375 12.44921875 C15.07147461 14.28709961 15.07147461 14.28709961 15.05273438 16.16210938 C15.01784139 18.74289828 14.97884216 21.32363525 14.93554688 23.90429688 C14.82205043 32.83457438 14.82205043 32.83457438 17.0625 41.375 C17.3925 41.705 17.7225 42.035 18.0625 42.375 C21.58939279 42.29931561 25.10762658 42.19814577 28.62890625 41.984375 C32.65864727 41.87301774 34.59181511 42.07425069 38.0703125 44.296875 C40.82766246 48.55725102 40.80174561 51.90150775 40.6875 56.875 C40.70683594 57.71675781 40.72617188 58.55851562 40.74609375 59.42578125 C40.71163414 63.80215214 40.51370593 65.78981824 37.7734375 69.34375 C33.41858945 72.60674854 30.70721341 73.62858332 25.22265625 73.640625 C23.50272461 73.64449219 23.50272461 73.64449219 21.74804688 73.6484375 C19.95463867 73.63683594 19.95463867 73.63683594 18.125 73.625 C16.96419922 73.63273437 15.80339844 73.64046875 14.60742188 73.6484375 C6.59241528 73.63059664 -1.0555515 72.81329383 -8.9375 71.375 C-6.63937673 67.59951178 -5.35212241 65.7649159 -1.00390625 64.56640625 C1.13070289 64.23583653 3.27197868 63.94530639 5.41796875 63.69921875 C8.03523326 63.5282369 8.03523326 63.5282369 10.0625 62.375 C9.59047514 58.12677626 7.09594482 56.17510291 4.0625 53.375 C7.3625 52.715 10.6625 52.055 14.0625 51.375 C13.61272683 46.32976244 13.61272683 46.32976244 10.3125 44.1875 C7.25956709 42.30351662 7.25956709 42.30351662 4.375 41.6875 C1.03178354 39.78999877 0.95549026 37.38754383 -0.08203125 33.81640625 C-2.2781576 27.54892237 -6.1146714 23.69830945 -11.8125 20.5 C-15.73692944 18.088524 -15.73692944 18.088524 -16.6171875 14.95703125 C-16.74678363 10.08277681 -16.1650728 6.20027146 -12.9375 2.375 C-8.68062556 -0.46291629 -5.00612918 0.00708582 0 0 Z " fill="#E82255" transform="translate(194.9375,129.625)"/>
<path d="M0 0 C5.61449112 14.54663608 8.51577087 36.00727453 2.9140625 51.05859375 C-0.113 57.48786752 -4.32080431 62.3209859 -11 65 C-15.27758895 65.3755199 -19.55160219 65.32932449 -23.84448242 65.31567383 C-25.92745363 65.31251523 -28.0090012 65.33598519 -30.09179688 65.36132812 C-31.41115234 65.36197266 -32.73050781 65.36261719 -34.08984375 65.36328125 C-35.29503662 65.36626221 -36.50022949 65.36924316 -37.74194336 65.37231445 C-41.28678514 64.96722763 -43.16760228 64.13005915 -46 62 C-47.44207941 59.11584117 -47.09394887 56.58278472 -47.0625 53.375 C-47.05347656 52.18648437 -47.04445312 50.99796875 -47.03515625 49.7734375 C-47.02355469 48.85820313 -47.01195312 47.94296875 -47 47 C-43.18075758 45.78632963 -40.62996034 46.57250962 -36.7734375 47.5078125 C-30.45834327 48.62851936 -23.05226844 49.42189008 -17.140625 46.66796875 C-14.72728772 45.10513763 -14.72728772 45.10513763 -14 42 C-13.31465749 32.93239135 -14.35920411 24.37731382 -16.02050781 15.48632812 C-17.48384064 7.37179108 -17.48384064 7.37179108 -16 4 C-13.671875 2.63671875 -13.671875 2.63671875 -10.75 1.6875 C-9.79609375 1.36136719 -8.8421875 1.03523438 -7.859375 0.69921875 C-5.11046616 0.0270129 -2.81482096 -0.13868643 0 0 Z " fill="#FBB717" transform="translate(251,45)"/>
<path d="M0 0 C2.10910642 2.175016 2.52877576 3.26551065 3.39453125 6.09375 C4.44030241 9.38144657 5.56458837 12.6043819 6.82421875 15.81640625 C7.13037109 16.60853516 7.43652344 17.40066406 7.75195312 18.21679688 C8.3785157 19.82963957 9.01403215 21.43903085 9.65820312 23.04492188 C11.6625787 28.28877864 12.61662613 32.43960231 12 38.0625 C10.85546875 40.05078125 10.85546875 40.05078125 9 41.0625 C6.30078125 41.35546875 6.30078125 41.35546875 3.3125 41.25 C2.31863281 41.22292969 1.32476562 41.19585937 0.30078125 41.16796875 C-0.45847656 41.13316406 -1.21773437 41.09835938 -2 41.0625 C-2.37125 39.928125 -2.7425 38.79375 -3.125 37.625 C-4.44307055 34.55158431 -4.65707847 34.20112785 -7.9375 32.875 C-11.07053226 32.77757946 -11.07053226 32.77757946 -13.25 34.8125 C-14.57032921 36.51006613 -15.80707212 38.27310818 -17 40.0625 C-19.6015625 40.35546875 -19.6015625 40.35546875 -22.625 40.25 C-24.12933594 40.20939453 -24.12933594 40.20939453 -25.6640625 40.16796875 C-26.43492187 40.13316406 -27.20578125 40.09835938 -28 40.0625 C-29.10494855 27.01796856 -24.48972837 12.40330032 -18 1.0625 C-13.1054579 -2.5592542 -5.52592763 -1.72685239 0 0 Z " fill="#FBB818" transform="translate(241,128.9375)"/>
<path d="M0 0 C1.73056641 -0.04253906 1.73056641 -0.04253906 3.49609375 -0.0859375 C6.5625 0.375 6.5625 0.375 8.3984375 2.171875 C12.67584788 10.26737653 11.83041222 19.70766786 11.62451172 28.58691406 C11.58010498 30.58346884 11.54651053 32.58027559 11.52001953 34.57714844 C11.47254472 37.96890534 11.39595461 41.35895299 11.3125 44.75 C11.29856201 45.83796875 11.28462402 46.9259375 11.27026367 48.046875 C11.23779541 49.07039063 11.20532715 50.09390625 11.171875 51.1484375 C11.1404541 52.51621338 11.1404541 52.51621338 11.10839844 53.91162109 C10.40117055 57.10300275 9.0422753 58.31238858 6.5625 60.375 C4.06110398 61.62569801 2.28857309 61.50802467 -0.5 61.5 C-1.84771484 61.50386719 -1.84771484 61.50386719 -3.22265625 61.5078125 C-5.4375 61.375 -5.4375 61.375 -6.4375 60.375 C-6.58609246 57.37672591 -6.6728992 54.39884142 -6.71875 51.3984375 C-6.73715942 50.48099762 -6.75556885 49.56355774 -6.77453613 48.61831665 C-6.83346859 45.66227861 -6.88605059 42.70617711 -6.9375 39.75 C-7.00616365 35.90355239 -7.07901569 32.05722254 -7.15625 28.2109375 C-7.17381348 27.27868347 -7.19137695 26.34642944 -7.20947266 25.38592529 C-7.35722983 18.58143696 -7.78441175 11.83933264 -8.43164062 5.06494141 C-8.43357422 4.17726074 -8.43550781 3.28958008 -8.4375 2.375 C-5.6645481 -0.3979519 -3.86486269 0.04308654 0 0 Z " fill="#32B9AB" transform="translate(448.4375,46.625)"/>
<path d="M0 0 C0.6509259 1.24735567 1.29551669 2.49801832 1.9375 3.75 C2.47697266 4.79414062 2.47697266 4.79414062 3.02734375 5.859375 C5.07353578 10.36264099 5.19082713 14.43406569 5.25 19.375 C5.27578125 20.66148438 5.3015625 21.94796875 5.328125 23.2734375 C4.92284224 27.87629175 3.69748051 31.14107434 0.5625 34.57421875 C-10.93520759 42.76633541 -24.54761342 41.34712391 -38 41 C-37.01 40.505 -37.01 40.505 -36 40 C-36 34.72 -36 29.44 -36 24 C-37.65 24 -39.3 24 -41 24 C-41 23.67 -41 23.34 -41 23 C-40.25838623 23.00523682 -39.51677246 23.01047363 -38.75268555 23.01586914 C-35.39763229 23.03663614 -32.04259256 23.0496593 -28.6875 23.0625 C-27.52025391 23.07087891 -26.35300781 23.07925781 -25.15039062 23.08789062 C-24.03212891 23.09111328 -22.91386719 23.09433594 -21.76171875 23.09765625 C-20.2142395 23.10551147 -20.2142395 23.10551147 -18.63549805 23.11352539 C-15.89053726 23.11635 -15.89053726 23.11635 -13 22 C-12.11310085 19.84018387 -12.11310085 19.84018387 -12 17 C-12.99134083 15.24116949 -13.98811038 13.48319301 -15.07421875 11.78125 C-16.43033545 9.1720128 -16.28025793 6.87264383 -16 4 C-10.4174808 0.67424388 -6.50313209 -0.46450943 0 0 Z " fill="#32B9AB" transform="translate(430,67)"/>
<path d="M0 0 C3.23970254 1.35615455 4.68392187 2.52284359 6.625 5.453125 C8.48910207 10.26166103 8.40773561 14.51517667 8.3125 19.625 C8.3012207 20.60178711 8.28994141 21.57857422 8.27832031 22.58496094 C7.98451323 38.0948824 7.98451323 38.0948824 6 43 C2.0843911 45.7604618 -2.39940512 45.78185423 -7 45 C-11.66587164 41.75417625 -13.83632347 37.46846595 -15 32 C-15.97849034 23.03208857 -16.17191964 14.01623008 -16 5 C-5.21195922 -0.96966683 -5.21195922 -0.96966683 0 0 Z " fill="#30B8AA" transform="translate(402,150)"/>
<path d="M0 0 C7.16330419 22.38850081 7.16330419 22.38850081 6 34 C4.60993485 34.53603819 3.21257351 35.05317473 1.8125 35.5625 C1.03519531 35.85253906 0.25789063 36.14257812 -0.54296875 36.44140625 C-3.48205354 37.10959246 -5.13946683 36.93796315 -8 36 C-9.19433594 34.08227539 -9.19433594 34.08227539 -9.984375 31.59765625 C-10.42716797 30.26250977 -10.42716797 30.26250977 -10.87890625 28.90039062 C-11.16636719 27.96388672 -11.45382813 27.02738281 -11.75 26.0625 C-12.34849439 24.21990132 -12.94743137 22.37744633 -13.546875 20.53515625 C-13.80307617 19.714104 -14.05927734 18.89305176 -14.32324219 18.04711914 C-14.95627223 15.96756653 -14.95627223 15.96756653 -16 14 C-16.07092842 11.7927077 -16.08415025 9.58332548 -16.0625 7.375 C-16.05347656 6.18648437 -16.04445312 4.99796875 -16.03515625 3.7734375 C-16.02355469 2.85820313 -16.01195312 1.94296875 -16 1 C-10.63904667 -0.12862175 -5.44693314 -0.09688221 0 0 Z " fill="#FBB81A" transform="translate(225,53)"/>
<path d="M0 0 C5.08742227 0.03644285 7.50326201 0.99162585 11.3125 4.3125 C13.18044584 8.04839168 13.00141597 12.2555504 12.3125 16.3125 C10.0063185 19.55283097 7.06371311 21.06209563 3.3125 22.3125 C-1.18031274 22.91730171 -3.97865592 22.56316359 -7.625 19.9375 C-10.49319231 17.21174613 -11.23151027 15.1873465 -11.4375 11.25 C-11.17476524 7.37320269 -10.77479613 6.42217975 -8.25 3.25 C-7.404375 2.610625 -6.55875 1.97125 -5.6875 1.3125 C-4.05640633 -0.31859367 -2.24562778 0.06377717 0 0 Z " fill="#F8B41A" transform="translate(412.6875,124.6875)"/>
<path d="M0 0 C6.63591514 2.17075485 11.63930488 6.64191185 16 12 C16 12.66 16 13.32 16 14 C14.69289062 14.00386719 14.69289062 14.00386719 13.359375 14.0078125 C4.20593179 14.30500221 -2.177985 16.31378535 -10 21 C-10.93714844 21.55945313 -11.87429687 22.11890625 -12.83984375 22.6953125 C-13.55269531 23.12585938 -14.26554688 23.55640625 -15 24 C-14.67 21.69 -14.34 19.38 -14 17 C-13.34 17 -12.68 17 -12 17 C-12.061875 16.01 -12.12375 15.02 -12.1875 14 C-12.1875 9.69221307 -11.10354092 5.76559795 -9 2 C-5.42067291 -0.38621806 -4.22677916 -0.4785033 0 0 Z " fill="#F7BA18" transform="translate(160,137)"/>
<path d="M0 0 C2.92937654 1.81310142 5.43647949 3.87295899 7 7 C7.04052587 11.1984806 6.62808916 14.8803628 4.5625 18.5625 C0.48731981 20.84857669 -3.44715571 20.71966757 -8 20 C-10.94955935 18.34536914 -11.65637756 17.1318064 -12.625 13.94140625 C-13.24607803 10.65301988 -13.60267963 8.14366764 -12.0078125 5.1171875 C-8.33919595 0.62367492 -5.72755765 -0.66087204 0 0 Z " fill="#EC2658" transform="translate(182,48)"/>
<path d="M0 0 C5.580934 0.54448137 11.94888194 1.94888194 16 6 C16 6.99 16 7.98 16 9 C15.21753906 9.20496094 14.43507812 9.40992188 13.62890625 9.62109375 C12.61699219 9.89050781 11.60507813 10.15992188 10.5625 10.4375 C9.55316406 10.70433594 8.54382813 10.97117188 7.50390625 11.24609375 C5.08247999 11.75978077 5.08247999 11.75978077 4 13 C5.423125 13.86625 5.423125 13.86625 6.875 14.75 C10 17 10 17 12 21 C7.05 21 2.1 21 -3 21 C-3.19779958 14.07701485 -2.85547491 7.70408818 -1 1 C-0.67 0.67 -0.34 0.34 0 0 Z " fill="#F6AD2B" transform="translate(190,171)"/>
<path d="M0 0 C3.00245308 1.80147185 5.40693472 3.81386943 7 7 C7.13415472 9.6723621 7.04318541 12.32250488 7 15 C6.67 15 6.34 15 6 15 C5.6596875 13.081875 5.6596875 13.081875 5.3125 11.125 C4.83899916 8.93067868 4.83899916 8.93067868 4 7 C1.51686936 5.40311361 1.51686936 5.40311361 -1 5 C-1 5.66 -1 6.32 -1 7 C-3.01822917 6.90234375 -5.03645833 6.8046875 -7.0546875 6.70703125 C-8.01761719 6.85205078 -8.01761719 6.85205078 -9 7 C-11.34549674 10.51824511 -11.57991403 11.85775694 -11 16 C-8.53511495 19.33484448 -7.13239709 20.81126715 -3 21.5 C0.28900407 20.95183265 2.29280239 19.91096302 5 18 C4.03925086 20.40187286 3.43379458 21.73578818 1.19140625 23.1015625 C-2.5558128 24.63785551 -6.03618369 24.78610139 -10 24 C-13.37604652 21.95808689 -16.22195185 19.55609629 -18 16 C-18.40226867 10.77050726 -17.9287695 7.39315425 -15 3 C-10.21554322 -1.44270987 -6.05507145 -1.90302246 0 0 Z " fill="#E7DCD7" transform="translate(177,161)"/>
<path d="M0 0 C2.375 0.3125 2.375 0.3125 5 1 C7.38546529 4.57819794 7.54107866 6.63590752 7.4453125 10.8359375 C7 13 7 13 4.375 15.5625 C0.77448493 17.09605272 -1.15170899 17.65502826 -5 17 C-7.69990662 15.20006226 -9.5418865 13.916227 -11 11 C-11.30343947 7.51044604 -11.39470082 5.62494296 -9.5 2.625 C-9.005 2.08875 -8.51 1.5525 -8 1 C-5.36 1.33 -2.72 1.66 0 2 C0 1.34 0 0.68 0 0 Z " fill="#373535" transform="translate(176,166)"/>
<path d="M0 0 C2.5625 2.0625 2.5625 2.0625 4 5 C3.93743829 8.56601739 3.34768397 11.15252032 2 14.4375 C-1.2812855 17.0010043 -4.99008292 16.30263525 -9 16 C-11.1398118 12.49070865 -12.01596048 10.47083412 -11.875 6.3125 C-11 3 -11 3 -9.9375 1.0625 C-6.72094003 -0.70141999 -3.50614591 -0.73924763 0 0 Z " fill="#F7B420" transform="translate(71,121)"/>
<path d="M0 0 C2.4375 1.0625 2.4375 1.0625 4 3 C4.5625 6.4375 4.5625 6.4375 4 10 C1.9375 12.5 1.9375 12.5 -1 14 C-4.51972785 13.93931504 -6.91947533 13.66225706 -9.9375 11.8125 C-11.56034621 9.04411529 -11.44922076 7.14454533 -11 4 C-8.04627097 -0.48966812 -5.14336369 -0.64292046 0 0 Z " fill="#F8B51E" transform="translate(396,121)"/>
<path d="M0 0 C3.71336877 0.28564375 6.34748761 0.57586695 9.5 2.625 C11 5 11 5 10.9375 8.5625 C10 12 10 12 8.8125 14 C7 15 7 15 4 14.9375 C1 14 1 14 -0.875 12.375 C-2.4273837 9.09774552 -2.32561034 6.58171371 -2 3 C-1.34 2.01 -0.68 1.02 0 0 Z " fill="#F1F7FA" transform="translate(348,156)"/>
<path d="M0 0 C1.11375 0.598125 2.2275 1.19625 3.375 1.8125 C4.00148437 2.14894531 4.62796875 2.48539063 5.2734375 2.83203125 C7 4 7 4 9 7 C8.67 8.32 8.34 9.64 8 11 C5.03 11.66 2.06 12.32 -1 13 C0.98 14.65 2.96 16.3 5 18 C4.67 19.32 4.34 20.64 4 22 C1.69 22.66 -0.62 23.32 -3 24 C-3 23.34 -3 22.68 -3 22 C-5.64 22 -8.28 22 -11 22 C-11 21.67 -11 21.34 -11 21 C-7.04 21 -3.08 21 1 21 C-1.64960955 17.36905358 -4.01824456 15.10148204 -8 13 C-5.47519307 10.47519307 -3.86176966 10.44261367 -0.375 9.875 C0.62789062 9.70742187 1.63078125 9.53984375 2.6640625 9.3671875 C3.82035156 9.18542969 3.82035156 9.18542969 5 9 C3.47427344 5.67364118 2.06655496 4.04436998 -1 2 C-0.67 1.34 -0.34 0.68 0 0 Z " fill="#FDEDE6" transform="translate(201,171)"/>
<path d="M0 0 C2.375 0.3125 2.375 0.3125 5 1 C7.13586678 4.20380017 7.23132175 5.01939967 7.125 8.6875 C7.10695312 9.49574219 7.08890625 10.30398437 7.0703125 11.13671875 C7.03550781 12.05904297 7.03550781 12.05904297 7 13 C4.16032769 13 1.76264289 12.59732819 -1 12 C-1 11.34 -1 10.68 -1 10 C-1.66 10 -2.32 10 -3 10 C-3.66 7.36 -4.32 4.72 -5 2 C-3.35 2 -1.7 2 0 2 C0 1.34 0 0.68 0 0 Z " fill="#595859" transform="translate(176,166)"/>
<path d="M0 0 C3.0625 0.3125 3.0625 0.3125 4.9375 1.5 C6.46909584 3.96757108 6.49072025 5.45769831 6.0625 8.3125 C4.9375 10.125 4.9375 10.125 3.0625 11.3125 C0 11.625 0 11.625 -2.9375 11.3125 C-4.9375 9.3125 -4.9375 9.3125 -5.1875 5.8125 C-4.87458101 1.43163414 -4.40975115 0.46912246 0 0 Z " fill="#F8B51D" transform="translate(81.9375,112.6875)"/>
<path d="M0 0 C3 1 3 1 4.75 3.25 C6.19382368 6.42641209 6.08641745 7.74074766 5 11 C4 12 4 12 1.625 12.25 C-1 12 -1 12 -2.875 10.875 C-4 9 -4 9 -3.875 6 C-3.00772029 3.02646956 -2.39189062 1.8719144 0 0 Z " fill="#ECF8F7" transform="translate(446,158)"/>
<path d="M0 0 C0.875 2.1875 0.875 2.1875 1 4 C-3.91528399 5.19884975 -7.28182696 4.85026394 -12 3 C-12.33 2.01 -12.66 1.02 -13 0 C-8.68238709 -4.31761291 -4.79300577 -3.15902653 0 0 Z " fill="#F8CF3B" transform="translate(205,176)"/>
<path d="M0 0 C0.33 0 0.66 0 1 0 C1.09796875 0.61488281 1.1959375 1.22976562 1.296875 1.86328125 C2.1563784 6.84712972 2.1563784 6.84712972 4.75 11.0625 C7.74692888 12.31122037 9.77595063 12.39478156 13 12 C15.81780534 10.61114752 15.81780534 10.61114752 18 9 C17.04126452 11.39683869 16.429248 12.73556089 14.19921875 14.109375 C10.50594684 15.60505172 6.9129675 15.5987815 3 15 C-0.0625 13 -0.0625 13 -2 11 C-1.34 7.37 -0.68 3.74 0 0 Z " fill="#E9E2DD" transform="translate(164,170)"/>
<path d="M0 0 C1.15224028 0.92961422 2.29659176 1.8690125 3.4375 2.8125 C4.39462891 3.59560547 4.39462891 3.59560547 5.37109375 4.39453125 C7 6 7 6 8 9 C-0.415 9.495 -0.415 9.495 -9 10 C-8.67 9.34 -8.34 8.68 -8 8 C-7.401875 7.938125 -6.80375 7.87625 -6.1875 7.8125 C-2.56601525 6.46737709 -1.70840554 3.3557966 0 0 Z " fill="#F5AA1D" transform="translate(168,142)"/>
<path d="M0 0 C3.94455388 2.07608099 4.91100178 2.82200357 7 7 C2.38 7 -2.24 7 -7 7 C-7 5.35 -7 3.7 -7 2 C-4.69 2 -2.38 2 0 2 C0 1.34 0 0.68 0 0 Z " fill="#F7C131" transform="translate(195,185)"/>
<path d="M0 0 C1.32 1.32 2.64 2.64 4 4 C4.33 3.01 4.66 2.02 5 1 C5.33 1.66 5.66 2.32 6 3 C7.98 2.67 9.96 2.34 12 2 C10.63016497 5.16115776 10.0109362 5.9927092 7 8 C2.92509248 8.33957563 1.46998729 8.31332486 -2 6 C-1.125 1.125 -1.125 1.125 0 0 Z " fill="#3C3939" transform="translate(170,175)"/>
<path d="M0 0 C1.32 0.33 2.64 0.66 4 1 C4 4.3 4 7.6 4 11 C2.35 10.67 0.7 10.34 -1 10 C-2.25 3.375 -2.25 3.375 0 0 Z " fill="#DFEEF5" transform="translate(289,79)"/>
<path d="M0 0 C2.375 0.25 2.375 0.25 5 1 C6.375 2.75 6.375 2.75 7 5 C6.625 7.75 6.625 7.75 6 10 C5.01 10 4.02 10 3 10 C0 5.77777778 0 5.77777778 0 3 C-1.65 3 -3.3 3 -5 3 C-5 2.67 -5 2.34 -5 2 C-3.35 2 -1.7 2 0 2 C0 1.34 0 0.68 0 0 Z " fill="#8D8E90" transform="translate(176,166)"/>
<path d="M0 0 C6.71135664 0.16405538 10.26796574 1.14966489 15 6 C16.60725635 9.21451269 16.05748185 12.43612536 16 16 C15.67 16 15.34 16 15 16 C14.6596875 14.081875 14.6596875 14.081875 14.3125 12.125 C13.83899916 9.93067868 13.83899916 9.93067868 13 8 C10.51686936 6.40311361 10.51686936 6.40311361 8 6 C8.33 5.34 8.66 4.68 9 4 C6.03 3.01 3.06 2.02 0 1 C0 0.67 0 0.34 0 0 Z " fill="#E4C7C7" transform="translate(168,160)"/>
<path d="M0 0 C2.0625 1.75 2.0625 1.75 4 4 C3.75 6.25 3.75 6.25 3 8 C1.35 7.67 -0.3 7.34 -2 7 C-2.6875 5.1875 -2.6875 5.1875 -3 3 C-1.5625 1.25 -1.5625 1.25 0 0 Z " fill="#FEF7E6" transform="translate(232,144)"/>
<path d="M0 0 C1.134375 0.020625 2.26875 0.04125 3.4375 0.0625 C3.7675 0.7225 4.0975 1.3825 4.4375 2.0625 C3.7775 2.0625 3.1175 2.0625 2.4375 2.0625 C2.4375 3.0525 2.4375 4.0425 2.4375 5.0625 C0.4575 5.0625 -1.5225 5.0625 -3.5625 5.0625 C-4.125 3.125 -4.125 3.125 -4.5625 1.0625 C-3.5625 0.0625 -3.5625 0.0625 0 0 Z " fill="#FBFBFA" transform="translate(173.5625,162.9375)"/>
<path d="M0 0 C4 4.75 4 4.75 4 7 C4.99 7 5.98 7 7 7 C7 5.35 7 3.7 7 2 C7.33 2 7.66 2 8 2 C8 4.64 8 7.28 8 10 C2.39426523 8.53763441 2.39426523 8.53763441 0.625 6.125 C0 4 0 4 0 0 Z " fill="#706D6E" transform="translate(175,169)"/>
<path d="M0 0 C3 1 3 1 4.1875 2.75 C5.16000686 5.44309592 5.4263233 7.15784465 5 10 C3 12.3125 3 12.3125 1 14 C0.34 13.67 -0.32 13.34 -1 13 C-0.484375 12.484375 0.03125 11.96875 0.5625 11.4375 C2.588679 8.00180517 1.84488238 5.80197069 1 2 C0.67 1.34 0.34 0.68 0 0 Z " fill="#EDDBDA" transform="translate(72,122)"/>
<path d="M0 0 C0.66 0.33 1.32 0.66 2 1 C1.79375 2.051875 1.5875 3.10375 1.375 4.1875 C1.00036896 7.99624887 1.28369933 9.66835752 3 13 C-0.875 11.125 -0.875 11.125 -2 10 C-2.35897436 3.53846154 -2.35897436 3.53846154 0 0 Z " fill="#F4E9E7" transform="translate(59,123)"/>
<path d="M0 0 C0 0.99 0 1.98 0 3 C-4.27869296 6.72660355 -8.65042945 6.31468062 -14 6 C-10.59348225 2.85552208 -8.50008319 3 -4 3 C-1.65738392 1.62073227 -1.65738392 1.62073227 0 0 Z " fill="#E3C5C5" transform="translate(181,179)"/>
<path d="M0 0 C2.0625 0.4375 2.0625 0.4375 4 1 C3.34 1 2.68 1 2 1 C1.87625 1.556875 1.7525 2.11375 1.625 2.6875 C0.94023145 5.22114364 0.00866237 7.57921032 -1 10 C-1.33 10 -1.66 10 -2 10 C-1.85950482 8.52031676 -1.71245174 7.04125484 -1.5625 5.5625 C-1.48128906 4.73878906 -1.40007812 3.91507813 -1.31640625 3.06640625 C-1 1 -1 1 0 0 Z " fill="#F49729" transform="translate(190,171)"/>
<path d="M0 0 C2.375 0.25 2.375 0.25 5 1 C6.4375 2.8125 6.4375 2.8125 7 5 C6.125 7.25 6.125 7.25 5 9 C2 4.375 2 4.375 2 1 C1.34 0.67 0.68 0.34 0 0 Z " fill="#A2A4A7" transform="translate(176,166)"/>
<path d="M0 0 C-3.12432397 2.52349243 -6.38060496 4.27256146 -10 6 C-7.83322503 -0.036016 -6.28508493 -0.13663228 0 0 Z " fill="#F49B1E" transform="translate(159,152)"/>
<path d="M0 0 C1.32 0.33 2.64 0.66 4 1 C4.33 2.32 4.66 3.64 5 5 C3.35 5 1.7 5 0 5 C0 3.35 0 1.7 0 0 Z " fill="#F7BE34" transform="translate(201,175)"/>
<path d="M0 0 C0.66 0.66 1.32 1.32 2 2 C5.09926819 1.67801034 5.09926819 1.67801034 8 1 C6.25 4.875 6.25 4.875 4 6 C2 4.6875 2 4.6875 0 3 C0 2.01 0 1.02 0 0 Z " fill="#484646" transform="translate(174,176)"/>
<path d="M0 0 C0 0.66 0 1.32 0 2 C-3.3 2 -6.6 2 -10 2 C-10 1.67 -10 1.34 -10 1 C-3.71428571 -1.42857143 -3.71428571 -1.42857143 0 0 Z " fill="#F49245" transform="translate(176,149)"/>
<path d="M0 0 C1.98 0 3.96 0 6 0 C6 0.66 6 1.32 6 2 C6.66 2.33 7.32 2.66 8 3 C5.36 2.67 2.72 2.34 0 2 C0 1.34 0 0.68 0 0 Z " fill="#F08E21" transform="translate(189,185)"/>
</svg>
