<?xml version="1.0" encoding="utf-8"?>
<!-- Generator: Adobe Illustrator 24.3.0, SVG Export Plug-In . SVG Version: 6.00 Build 0)  -->
<svg version="1.1"
	 id="svg1" sodipodi:docname="KZ-Logo.ai" xmlns:inkscape="http://www.inkscape.org/namespaces/inkscape" xmlns:sodipodi="http://sodipodi.sourceforge.net/DTD/sodipodi-0.dtd" xmlns:svg="http://www.w3.org/2000/svg"
	 xmlns="http://www.w3.org/2000/svg" xmlns:xlink="http://www.w3.org/1999/xlink" x="0px" y="0px" viewBox="0 0 601 260.7"
	 style="enable-background:new 0 0 601 260.7;" xml:space="preserve">
<style type="text/css">
	.st0{clip-path:url(#SVGID_68_);fill:#D8292F;}
	.st1{clip-path:url(#SVGID_70_);fill:#D8292F;}
	.st2{clip-path:url(#SVGID_72_);fill:#D8292F;}
	.st3{clip-path:url(#SVGID_74_);fill:#D8292F;}
	.st4{clip-path:url(#SVGID_76_);fill:#FFFFFF;}
	.st5{clip-path:url(#SVGID_78_);fill:#FFFFFF;}
	.st6{clip-path:url(#SVGID_80_);fill:#FFFFFF;}
	.st7{clip-path:url(#SVGID_82_);fill:#FFFFFF;}
	.st8{clip-path:url(#SVGID_84_);fill:#702277;}
	.st9{clip-path:url(#SVGID_86_);fill:#702277;}
	.st10{clip-path:url(#SVGID_88_);fill:#702277;}
	.st11{clip-path:url(#SVGID_90_);fill:#702277;}
	.st12{clip-path:url(#SVGID_92_);fill:#702277;}
	.st13{clip-path:url(#SVGID_94_);fill:#702277;}
	.st14{clip-path:url(#SVGID_96_);fill:#792C89;}
	.st15{clip-path:url(#SVGID_98_);fill:#792C89;}
	.st16{clip-path:url(#SVGID_100_);fill:#702277;}
	.st17{clip-path:url(#SVGID_102_);fill:#792C89;}
	.st18{clip-path:url(#SVGID_104_);fill:#702277;}
	.st19{clip-path:url(#SVGID_106_);fill:#792C89;}
	.st20{clip-path:url(#SVGID_108_);fill:#702277;}
	.st21{clip-path:url(#SVGID_110_);fill:#00B3E3;}
	.st22{clip-path:url(#SVGID_112_);fill:#CA2D9A;}
	.st23{clip-path:url(#SVGID_114_);fill:#D8292F;}
	.st24{clip-path:url(#SVGID_116_);fill:#00B551;}
	.st25{clip-path:url(#SVGID_118_);fill:#FFD756;}
	.st26{clip-path:url(#SVGID_120_);fill:#792C89;}
	.st27{clip-path:url(#SVGID_122_);fill:#702277;}
	.st28{clip-path:url(#SVGID_124_);fill:#792C89;}
	.st29{clip-path:url(#SVGID_126_);fill:#702277;}
	.st30{clip-path:url(#SVGID_128_);fill:#702277;}
	.st31{clip-path:url(#SVGID_130_);fill:#792C89;}
	.st32{clip-path:url(#SVGID_132_);fill:#702277;}
	.st33{clip-path:url(#SVGID_134_);fill:#702277;}
	.st34{clip-path:url(#SVGID_136_);fill:#792C89;}
	.st35{clip-path:url(#SVGID_138_);fill:#702277;}
	.st36{clip-path:url(#SVGID_140_);fill:#702277;}
	.st37{clip-path:url(#SVGID_142_);fill:#792C89;}
	.st38{clip-path:url(#SVGID_144_);fill:#702277;}
	.st39{clip-path:url(#SVGID_146_);fill:#FFFFFF;}
	.st40{clip-path:url(#SVGID_148_);fill:#FFFFFF;}
	.st41{clip-path:url(#SVGID_150_);fill:#FFFFFF;}
	.st42{clip-path:url(#SVGID_152_);fill:#FFFFFF;}
	.st43{clip-path:url(#SVGID_154_);fill:#FFFFFF;}
	.st44{clip-path:url(#SVGID_156_);fill:#D8292F;}
	.st45{clip-path:url(#SVGID_158_);fill:#EB2027;}
	.st46{clip-path:url(#SVGID_160_);fill:#EB2027;}
	.st47{clip-path:url(#SVGID_162_);fill:#EB2027;}
	.st48{clip-path:url(#SVGID_164_);fill:#EB2027;}
	.st49{clip-path:url(#SVGID_166_);fill:#EB2027;}
	.st50{clip-path:url(#SVGID_168_);fill:#EB2027;}
	.st51{clip-path:url(#SVGID_170_);fill:#EB2027;}
	.st52{clip-path:url(#SVGID_172_);fill:#EB2027;}
</style>
<sodipodi:namedview  bordercolor="#000000" borderopacity="0.25" id="namedview1" inkscape:deskcolor="#d1d1d1" inkscape:pagecheckerboard="0" inkscape:pageopacity="0.0" inkscape:showpageshadow="2" pagecolor="#ffffff">
	
		<inkscape:page  bleed="0" height="793.70135" id="page1" inkscape:label="1" margin="56.9412 24.177334 103.148 30.084934" width="1122.52" x="0" y="0">
		</inkscape:page>
</sodipodi:namedview>
<g id="layer-MC0" inkscape:groupmode="layer" inkscape:label="Layer 1">
	<g>
		<defs>
			<polyline id="SVGID_1_" points="0,758.7 0,-35 1122.5,-35 1122.5,758.7 			"/>
		</defs>
		<clipPath id="SVGID_2_">
			<use xlink:href="#SVGID_1_"  style="overflow:visible;"/>
		</clipPath>
	</g>
	<g>
		<defs>
			<polyline id="SVGID_3_" points="0,758.7 0,-35 1122.5,-35 1122.5,758.7 			"/>
		</defs>
		<clipPath id="SVGID_4_">
			<use xlink:href="#SVGID_3_"  style="overflow:visible;"/>
		</clipPath>
	</g>
	<g>
		<defs>
			<polyline id="SVGID_5_" points="0,758.7 0,-35 1122.5,-35 1122.5,758.7 			"/>
		</defs>
		<clipPath id="SVGID_6_">
			<use xlink:href="#SVGID_5_"  style="overflow:visible;"/>
		</clipPath>
	</g>
	<g>
		<defs>
			<polyline id="SVGID_7_" points="0,758.7 0,-35 1122.5,-35 1122.5,758.7 			"/>
		</defs>
		<clipPath id="SVGID_8_">
			<use xlink:href="#SVGID_7_"  style="overflow:visible;"/>
		</clipPath>
	</g>
	<g>
		<defs>
			<polyline id="SVGID_9_" points="0,758.7 0,-35 1122.5,-35 1122.5,758.7 			"/>
		</defs>
		<clipPath id="SVGID_10_">
			<use xlink:href="#SVGID_9_"  style="overflow:visible;"/>
		</clipPath>
	</g>
	<g>
		<defs>
			<polyline id="SVGID_11_" points="0,758.7 0,-35 1122.5,-35 1122.5,758.7 			"/>
		</defs>
		<clipPath id="SVGID_12_">
			<use xlink:href="#SVGID_11_"  style="overflow:visible;"/>
		</clipPath>
	</g>
	<g>
		<defs>
			<polyline id="SVGID_13_" points="0,758.7 0,-35 1122.5,-35 1122.5,758.7 			"/>
		</defs>
		<clipPath id="SVGID_14_">
			<use xlink:href="#SVGID_13_"  style="overflow:visible;"/>
		</clipPath>
	</g>
	<g>
		<defs>
			<polyline id="SVGID_15_" points="0,758.7 0,-35 1122.5,-35 1122.5,758.7 			"/>
		</defs>
		<clipPath id="SVGID_16_">
			<use xlink:href="#SVGID_15_"  style="overflow:visible;"/>
		</clipPath>
	</g>
	<g>
		<defs>
			<polyline id="SVGID_17_" points="0,758.7 0,-35 1122.5,-35 1122.5,758.7 			"/>
		</defs>
		<clipPath id="SVGID_18_">
			<use xlink:href="#SVGID_17_"  style="overflow:visible;"/>
		</clipPath>
	</g>
	<g>
		<defs>
			<polyline id="SVGID_19_" points="0,758.7 0,-35 1122.5,-35 1122.5,758.7 			"/>
		</defs>
		<clipPath id="SVGID_20_">
			<use xlink:href="#SVGID_19_"  style="overflow:visible;"/>
		</clipPath>
	</g>
	<g>
		<defs>
			<polyline id="SVGID_21_" points="0,758.7 0,-35 1122.5,-35 1122.5,758.7 			"/>
		</defs>
		<clipPath id="SVGID_22_">
			<use xlink:href="#SVGID_21_"  style="overflow:visible;"/>
		</clipPath>
	</g>
	<g>
		<defs>
			<polyline id="SVGID_23_" points="0,758.7 0,-35 1122.5,-35 1122.5,758.7 			"/>
		</defs>
		<clipPath id="SVGID_24_">
			<use xlink:href="#SVGID_23_"  style="overflow:visible;"/>
		</clipPath>
	</g>
	<g>
		<defs>
			<polyline id="SVGID_25_" points="0,758.7 0,-35 1122.5,-35 1122.5,758.7 			"/>
		</defs>
		<clipPath id="SVGID_26_">
			<use xlink:href="#SVGID_25_"  style="overflow:visible;"/>
		</clipPath>
	</g>
	<g>
		<defs>
			<polyline id="SVGID_27_" points="0,758.7 0,-35 1122.5,-35 1122.5,758.7 			"/>
		</defs>
		<clipPath id="SVGID_28_">
			<use xlink:href="#SVGID_27_"  style="overflow:visible;"/>
		</clipPath>
	</g>
	<g>
		<defs>
			<polyline id="SVGID_29_" points="0,758.7 0,-35 1122.5,-35 1122.5,758.7 			"/>
		</defs>
		<clipPath id="SVGID_30_">
			<use xlink:href="#SVGID_29_"  style="overflow:visible;"/>
		</clipPath>
	</g>
	<g>
		<defs>
			<polyline id="SVGID_31_" points="0,758.7 0,-35 1122.5,-35 1122.5,758.7 			"/>
		</defs>
		<clipPath id="SVGID_32_">
			<use xlink:href="#SVGID_31_"  style="overflow:visible;"/>
		</clipPath>
	</g>
	<g>
		<defs>
			<polyline id="SVGID_33_" points="0,758.7 0,-35 1122.5,-35 1122.5,758.7 			"/>
		</defs>
		<clipPath id="SVGID_34_">
			<use xlink:href="#SVGID_33_"  style="overflow:visible;"/>
		</clipPath>
	</g>
	<g>
		<defs>
			<polyline id="SVGID_35_" points="0,758.7 0,-35 1122.5,-35 1122.5,758.7 			"/>
		</defs>
		<clipPath id="SVGID_36_">
			<use xlink:href="#SVGID_35_"  style="overflow:visible;"/>
		</clipPath>
	</g>
	<g>
		<defs>
			<polyline id="SVGID_37_" points="0,758.7 0,-35 1122.5,-35 1122.5,758.7 			"/>
		</defs>
		<clipPath id="SVGID_38_">
			<use xlink:href="#SVGID_37_"  style="overflow:visible;"/>
		</clipPath>
	</g>
	<g>
		<defs>
			<polyline id="SVGID_39_" points="0,758.7 0,-35 1122.5,-35 1122.5,758.7 			"/>
		</defs>
		<clipPath id="SVGID_40_">
			<use xlink:href="#SVGID_39_"  style="overflow:visible;"/>
		</clipPath>
	</g>
	<g>
		<defs>
			<polyline id="SVGID_41_" points="0,758.7 0,-35 1122.5,-35 1122.5,758.7 			"/>
		</defs>
		<clipPath id="SVGID_42_">
			<use xlink:href="#SVGID_41_"  style="overflow:visible;"/>
		</clipPath>
	</g>
	<g>
		<defs>
			<polyline id="SVGID_43_" points="0,758.7 0,-35 1122.5,-35 1122.5,758.7 			"/>
		</defs>
		<clipPath id="SVGID_44_">
			<use xlink:href="#SVGID_43_"  style="overflow:visible;"/>
		</clipPath>
	</g>
	<g>
		<defs>
			<polyline id="SVGID_45_" points="0,758.7 0,-35 1122.5,-35 1122.5,758.7 			"/>
		</defs>
		<clipPath id="SVGID_46_">
			<use xlink:href="#SVGID_45_"  style="overflow:visible;"/>
		</clipPath>
	</g>
	<g>
		<defs>
			<polyline id="SVGID_47_" points="0,758.7 0,-35 1122.5,-35 1122.5,758.7 			"/>
		</defs>
		<clipPath id="SVGID_48_">
			<use xlink:href="#SVGID_47_"  style="overflow:visible;"/>
		</clipPath>
	</g>
	<g>
		<defs>
			<polyline id="SVGID_49_" points="0,758.7 0,-35 1122.5,-35 1122.5,758.7 			"/>
		</defs>
		<clipPath id="SVGID_50_">
			<use xlink:href="#SVGID_49_"  style="overflow:visible;"/>
		</clipPath>
	</g>
	<g>
		<defs>
			<polyline id="SVGID_51_" points="0,758.7 0,-35 1122.5,-35 1122.5,758.7 			"/>
		</defs>
		<clipPath id="SVGID_52_">
			<use xlink:href="#SVGID_51_"  style="overflow:visible;"/>
		</clipPath>
	</g>
	<g>
		<defs>
			<polyline id="SVGID_53_" points="0,758.7 0,-35 1122.5,-35 1122.5,758.7 			"/>
		</defs>
		<clipPath id="SVGID_54_">
			<use xlink:href="#SVGID_53_"  style="overflow:visible;"/>
		</clipPath>
	</g>
	<g>
		<defs>
			<polyline id="SVGID_55_" points="0,758.7 0,-35 1122.5,-35 1122.5,758.7 			"/>
		</defs>
		<clipPath id="SVGID_56_">
			<use xlink:href="#SVGID_55_"  style="overflow:visible;"/>
		</clipPath>
	</g>
	<g>
		<defs>
			<polyline id="SVGID_57_" points="0,758.7 0,-35 1122.5,-35 1122.5,758.7 			"/>
		</defs>
		<clipPath id="SVGID_58_">
			<use xlink:href="#SVGID_57_"  style="overflow:visible;"/>
		</clipPath>
	</g>
	<g>
		<defs>
			<polyline id="SVGID_59_" points="0,758.7 0,-35 1122.5,-35 1122.5,758.7 			"/>
		</defs>
		<clipPath id="SVGID_60_">
			<use xlink:href="#SVGID_59_"  style="overflow:visible;"/>
		</clipPath>
	</g>
	<g>
		<defs>
			<polyline id="SVGID_61_" points="0,758.7 0,-35 1122.5,-35 1122.5,758.7 			"/>
		</defs>
		<clipPath id="SVGID_62_">
			<use xlink:href="#SVGID_61_"  style="overflow:visible;"/>
		</clipPath>
	</g>
	<g>
		<defs>
			<polyline id="SVGID_63_" points="0,758.7 0,-35 1122.5,-35 1122.5,758.7 			"/>
		</defs>
		<clipPath id="SVGID_64_">
			<use xlink:href="#SVGID_63_"  style="overflow:visible;"/>
		</clipPath>
	</g>
	<g>
		<defs>
			<polyline id="SVGID_65_" points="0,758.7 0,-35 1122.5,-35 1122.5,758.7 			"/>
		</defs>
		<clipPath id="SVGID_66_">
			<use xlink:href="#SVGID_65_"  style="overflow:visible;"/>
		</clipPath>
	</g>
	<g>
		<defs>
			<polyline id="SVGID_67_" points="0,758.7 0,-35 1122.5,-35 1122.5,758.7 			"/>
		</defs>
		<clipPath id="SVGID_68_">
			<use xlink:href="#SVGID_67_"  style="overflow:visible;"/>
		</clipPath>
		<path id="path67" class="st0" d="M415.2,136.5c-1.3,2.1-3.1,3.2-5.4,3.2c-1.5,0-2.9-0.4-4.1-1.2c-0.4-0.9-0.6-1.9-0.6-3.2
			c0-2.3,0.8-4.7,2.5-7c1.8-2.5,3.7-3.7,5.7-3.7c0.9,0,1.8,0.2,2.7,0.6c0.6,1.2,1,2.8,1,4.5C417,132.4,416.4,134.6,415.2,136.5
			 M427.9,115.5l-0.7-0.8c-3.6-5.1-9.2-7.6-16.5-7.6c-3.7,0-7.4,1.5-11.1,4.4c-3.3,2.5-6.1,5.7-8.3,9.6c-2.5,4.3-3.8,8.6-3.8,12.8
			c0,7.6,2.2,13.6,6.6,18c0.3,0.3,0.6,0.5,0.9,0.8l0.6,0.6c4.4,4.8,10.2,7.3,17.4,7.3c5.9,0,10.9-2.4,15-7.2
			c4.1-4.8,6.1-10.5,6.1-17C434.1,127,432,120.1,427.9,115.5"/>
	</g>
	<g>
		<defs>
			<polyline id="SVGID_69_" points="0,758.7 0,-35 1122.5,-35 1122.5,758.7 			"/>
		</defs>
		<clipPath id="SVGID_70_">
			<use xlink:href="#SVGID_69_"  style="overflow:visible;"/>
		</clipPath>
		<path id="path69" class="st1" d="M351.2,160.6l-2.1-2.3v0.1L351.2,160.6z M346.2,142.4l15.1-17.1c-0.4,0-1,0-1.9,0
			c-4.9-0.1-8.3-0.5-10.1-1l-2-2.2c0,0-0.1,0-0.3-0.1c0.1-0.9,0.2-1.8,0.2-2.5l0.3-3.4c0.2-1.7,0.3-3,0.3-3.9l0.3-3.9
			c6.5-0.8,13.7-1.2,21.6-1.2c2.4,0,5.4,0.2,9.2,0.7l0.1,0.4l2,2.1c1.6,4.3,2.4,9.1,2.4,14.5c0,0.4-2.1,3.2-6.3,8.2l-6,7.2h0.4
			c0.1,0,0.2,0,0.4,0l7.7-0.2c1.4,0,2.4,0.5,2.9,1.6l1.6,1.8c0.6,0.6,0.8,1.8,0.8,3.4c0,4.2-0.4,7.2-1,9l0,0
			c-1.2,3.2-3.6,4.8-7.1,4.8c-1,0-1.8,0-2.3,0l-4.1-0.4c-1.7-0.2-3.1-0.2-4.1-0.2c-1.7,0-4.2,0.1-7.5,0.3c-3.4,0.2-5.9,0.3-7.5,0.3
			c-0.4,0-0.8-0.2-1.2-0.6l-1.7-1.8c-1.5-0.7-2.2-3.9-2.2-9.6V142.4z"/>
	</g>
	<g>
		<defs>
			<polyline id="SVGID_71_" points="0,758.7 0,-35 1122.5,-35 1122.5,758.7 			"/>
		</defs>
		<clipPath id="SVGID_72_">
			<use xlink:href="#SVGID_71_"  style="overflow:visible;"/>
		</clipPath>
		<path id="path71" class="st2" d="M451.6,107l0.1,0.3l2,2.2l3.9,14.2c-0.2-2.1-0.4-5-0.4-8.8v-0.8c0-0.3,0-0.7,0-1v-0.2
			c0-0.5,0-1.2,0.1-2.1c0.1-0.9,0.1-1.6,0.1-2.1l15.7,0v0.3l2.1,2.3c0,0.2,0,0.5-0.1,0.9l-0.2,2.8l-0.1,1.4c-0.3,2.9-0.4,5-0.4,6.2
			c0,4.9,0.1,10.8,0.3,17.6c0.2,6.5,0.3,11.6,0.3,15.4v3.5c-4.7,0.2-9.2,0.5-13.6,0.9l-3.5,0.3l-2.1-2.3l-0.1,0h-0.1
			c-0.8-2.1-1.6-4.2-2.3-6.4l0.1,2.9c0,1.5,0.1,2.6,0.1,3.2c0.1,1.9-4.4,2.9-13.4,2.9l-2.1-2.3h-0.2c-1.1-1.4-1.6-3-1.6-4.8
			c0-4.9,0.3-12.2,0.7-21.9l1.2-23.1L451.6,107z"/>
	</g>
	<g>
		<defs>
			<polyline id="SVGID_73_" points="0,758.7 0,-35 1122.5,-35 1122.5,758.7 			"/>
		</defs>
		<clipPath id="SVGID_74_">
			<use xlink:href="#SVGID_73_"  style="overflow:visible;"/>
		</clipPath>
		<path id="path73" class="st3" d="M506.5,108.3l2.1,2.3l-0.7,12.5c-3.7,0.7-7.1,1.1-10.2,1.1H496c-0.1,0.9-0.1,1.6-0.1,2l4.9,0.8
			v0.3l2.1,2.3c0,4.5-0.4,7.9-1.2,10.2c-0.5,0.2-1.2,0.5-2,0.7c-3.2,0.9-5.1,1.4-5.8,1.6v0.9c1.9,0.1,3.2,0.2,3.9,0.3
			c3.7,0.3,5.7,1.1,6.2,2.3l1.7,1.9c0.3,0.3,0.4,0.7,0.4,1.1v11.4l-19.6,0.5c-0.5,0-2.3-0.2-5.6-0.6l-2-2.3h-0.3l0.7-23
			c0.2-5.5,0.9-12.8,2.2-21.8l0.1-0.9c0.2-1.4,0.4-2.9,0.7-4.5h12c4.5,0,8.6,0.3,12.2,1L506.5,108.3z"/>
	</g>
	<g>
		<defs>
			<polyline id="SVGID_75_" points="0,758.7 0,-35 1122.5,-35 1122.5,758.7 			"/>
		</defs>
		<clipPath id="SVGID_76_">
			<use xlink:href="#SVGID_75_"  style="overflow:visible;"/>
		</clipPath>
		<path id="path75" class="st4" d="M347.5,143v4.9c0,6,0.5,9,1.6,9c1.7,0,4.2-0.1,7.5-0.3c3.4-0.2,5.9-0.3,7.5-0.3
			c0.5,0,1.2,0,2.3,0.1c1,0.1,2.4,0.2,4.1,0.3c1.7,0.1,3.1,0.2,4.1,0.2c3,0,5-1.3,6-4c0.6-1.7,1-4.5,1-8.5c0-1.1-0.1-1.8-0.2-2.1
			c-0.3-0.6-0.8-0.9-1.7-0.9l-7.7,0.2c-2.7,0.1-4.5,0.1-5.2,0.1c-1.4,0-2.2,0-2.4,0c4.2-5.3,7.4-9.3,9.8-12c4-4.7,6-7.1,6-7.3
			c0-1.9-0.2-4.1-0.6-6.8c-0.4-2.8-0.9-5-1.5-6.5c-3.2-0.4-6-0.6-8.3-0.6c-7.6,0-14.4,0.4-20.4,1.1c-0.3,5.5-0.6,9.3-0.8,11.3
			c1.5,0.5,3.8,0.7,6.9,0.7h2.8h2.8c2.6-0.1,4.4-0.1,5.6,0L347.5,143z"/>
	</g>
	<g>
		<defs>
			<polyline id="SVGID_77_" points="0,758.7 0,-35 1122.5,-35 1122.5,758.7 			"/>
		</defs>
		<clipPath id="SVGID_78_">
			<use xlink:href="#SVGID_77_"  style="overflow:visible;"/>
		</clipPath>
		<path id="path77" class="st5" d="M416.1,137.5c-1.6,2.4-3.7,3.6-6.3,3.6c-2.4,0-4.3-0.7-5.8-2.2c-1.5-1.5-2.2-3.5-2.2-6.1
			c0-2.7,1-5.4,2.9-8c1.9-2.6,4.1-4,6.5-4c2.3,0,4,0.9,5.3,2.6c1.2,1.6,1.8,3.7,1.8,6.3C418.3,132.7,417.6,135.3,416.1,137.5
			 M426.1,115.6c-3.4-4.8-8.6-7.2-15.5-7.2c-3.4,0-6.8,1.4-10.3,4.1c-3.2,2.5-5.9,5.6-8,9.3c-2.4,4.1-3.6,8.1-3.6,12.1
			c0,7.2,2.1,12.9,6.2,17c4,4,9.2,6,15.8,6c5.6,0,10.3-2.3,14.2-6.9c3.8-4.5,5.7-9.8,5.7-16C430.7,126,429.2,119.9,426.1,115.6"/>
	</g>
	<g>
		<defs>
			<polyline id="SVGID_79_" points="0,758.7 0,-35 1122.5,-35 1122.5,758.7 			"/>
		</defs>
		<clipPath id="SVGID_80_">
			<use xlink:href="#SVGID_79_"  style="overflow:visible;"/>
		</clipPath>
		<path id="path79" class="st6" d="M439.7,109.8l-1.1,21.8c-0.5,9.5-0.7,16.8-0.7,21.8c0,1.5,0.3,2.6,0.9,3.3
			c7.8,0,11.7-0.5,11.7-1.5c-0.3-9.8-0.2-15.3,0.2-16.7c2.7,8.2,4.8,14.2,6.2,17.9c3.5-0.4,8.5-0.8,15.1-1.1c0-3.9-0.1-9.7-0.3-17.6
			c-0.2-6.9-0.3-12.7-0.3-17.6c0-0.7,0.1-2.8,0.4-6.3c0.1-1.8,0.2-3.1,0.3-3.7l-13,0c0,0.6,0,1.4-0.1,2.4c-0.1,1-0.1,1.8-0.1,2.4
			c0,1.9,0.1,4.3,0.3,7.2c0.2,3.4,0.3,5.7,0.3,7.2c0,2.6-0.2,4.4-0.5,5.6c-1.4-3.3-2.8-7.7-4.3-13.1l-3.7-13.4L439.7,109.8z"/>
	</g>
	<g>
		<defs>
			<polyline id="SVGID_81_" points="0,758.7 0,-35 1122.5,-35 1122.5,758.7 			"/>
		</defs>
		<clipPath id="SVGID_82_">
			<use xlink:href="#SVGID_81_"  style="overflow:visible;"/>
		</clipPath>
		<path id="path81" class="st7" d="M505.2,109.3c-2.6-0.5-6.3-0.8-10.8-0.8h-10.9c-0.2,1.3-0.4,2.8-0.7,4.3
			c-1.3,7.3-2,14.5-2.2,21.6L480,156c2.5,0.3,3.9,0.4,4.4,0.4l18.4-0.4V146c0-0.6-1.7-1.1-5.1-1.4c-2.4-0.2-4.8-0.4-7.1-0.6v-5.4
			c0.4-0.2,1-0.3,1.7-0.5l2.4-0.6c2-0.5,3.3-0.9,4-1.2c0.6-1.8,0.9-4.4,0.9-8l-7-1.2c0.1-3,0.2-5.2,0.2-6.7h2.8c3,0,6-0.3,9.1-0.9
			L505.2,109.3z"/>
	</g>
	<g>
		<defs>
			<polyline id="SVGID_83_" points="0,758.7 0,-35 1122.5,-35 1122.5,758.7 			"/>
		</defs>
		<clipPath id="SVGID_84_">
			<use xlink:href="#SVGID_83_"  style="overflow:visible;"/>
		</clipPath>
		<path id="path83" class="st8" d="M96.8,114.1c0-22.4,19.5-40.6,43.4-40.6c23.9,0,43.4,18.2,43.4,40.6c0,22.4-19.5,40.6-43.4,40.6
			C116.2,154.7,96.8,136.5,96.8,114.1 M93.2,114.1c0,24.2,21.1,43.9,46.9,43.9s46.9-19.7,46.9-43.9c0-24.2-21.1-43.9-46.9-43.9
			S93.2,89.9,93.2,114.1"/>
	</g>
	<g>
		<defs>
			<polyline id="SVGID_85_" points="0,758.7 0,-35 1122.5,-35 1122.5,758.7 			"/>
		</defs>
		<clipPath id="SVGID_86_">
			<use xlink:href="#SVGID_85_"  style="overflow:visible;"/>
		</clipPath>
		<path id="path85" class="st9" d="M81.5,74.2c2.3,2.2,44.1,41.2,46.4,43.4c-2.3,2.2-44.1,41.2-46.4,43.4
			c-2.3-2.2-44.1-41.2-46.4-43.4C37.4,115.4,79.2,76.4,81.5,74.2 M80.2,70.7l-50.2,46.9l51.4,48l51.4-48l-51.4-48L80.2,70.7z"/>
	</g>
	<g>
		<defs>
			<polyline id="SVGID_87_" points="0,758.7 0,-35 1122.5,-35 1122.5,758.7 			"/>
		</defs>
		<clipPath id="SVGID_88_">
			<use xlink:href="#SVGID_87_"  style="overflow:visible;"/>
		</clipPath>
		<path id="path87" class="st10" d="M208.5,81.4c0.6,3,12.1,57.2,12.8,60.2c-3.2,0.6-61.2,11.3-64.4,11.9
			c-0.6-3-12.1-57.2-12.8-60.2C147.3,92.8,205.3,82,208.5,81.4 M209.5,77.9L140,90.8l14.2,66.6l71.3-13.2l-14.2-66.6L209.5,77.9z"/>
	</g>
	<g>
		<defs>
			<polyline id="SVGID_89_" points="0,758.7 0,-35 1122.5,-35 1122.5,758.7 			"/>
		</defs>
		<clipPath id="SVGID_90_">
			<use xlink:href="#SVGID_89_"  style="overflow:visible;"/>
		</clipPath>
		<path id="path89" class="st11" d="M274.2,73.2c2.8,1.5,54.2,28.8,57,30.3c-1.6,2.7-30.8,50.7-32.5,53.3
			c-2.8-1.5-54.2-28.8-57-30.3C243.3,123.8,272.6,75.8,274.2,73.2 M272,70.1l-35.1,57.6l63.2,33.6l35.9-59.1l-63.2-33.6L272,70.1z"
			/>
	</g>
	<g>
		<defs>
			<polyline id="SVGID_91_" points="0,758.7 0,-35 1122.5,-35 1122.5,758.7 			"/>
		</defs>
		<clipPath id="SVGID_92_">
			<use xlink:href="#SVGID_91_"  style="overflow:visible;"/>
		</clipPath>
		<path id="path91" class="st12" d="M232.8,80.5c2.9,4.4,42.8,65.1,45.7,69.5c-5.5,0.1-81.7,2.1-87.3,2.2
			C193.9,147.7,230.2,85.1,232.8,80.5 M231.2,76.4l-45.9,79.3l99.5-2.5l-52.1-79.2L231.2,76.4z"/>
	</g>
	<g>
		<defs>
			<polyline id="SVGID_93_" points="0,758.7 0,-35 1122.5,-35 1122.5,758.7 			"/>
		</defs>
		<clipPath id="SVGID_94_">
			<use xlink:href="#SVGID_93_"  style="overflow:visible;"/>
		</clipPath>
		<path id="path93" class="st13" d="M78,99.8c9-13.9,12.3-15.8,13.1-16c0.6,0.2,5.7,1.8,8.4,2.7c-7.2,10.6-12.2,19.4-14.9,26.3
			l-0.3,0.8l0.5,0.7c2.8,3.9,6.1,8.5,9.8,13.7c4.3,6.2,6.1,9.4,6.9,11.2c-2.5,0.4-8,1.2-8,1.2c-3.3,0.5-6.2,1-8.7,1.6
			c-3.8-6.8-7.2-13.4-10-19.5l-1.8-4l-1.5,4.1c-0.6,1.8-1,3.9-1,6.3c0,0.2,0,0.6,0.1,2.3l0.5,6.2l0.1,2c0,1.5-0.2,2.9-0.5,3.9
			c-1.2,0-3.5,0-7.9,0c-2.7,0-5.1-0.2-7.1-0.5c0.3-2.7,3.1-25.3,3.1-25.3c1.2-9.7,1.8-18.8,1.8-27.1v-4.9c3.4-0.3,7.9-0.8,13.6-1.7
			c0,2.1,0.1,4.6,0.3,7.5l0.4,4.5c0,0.7,0.1,1.7,0.1,3v5.9L78,99.8z M75.5,80.3c-7.5,1.1-13.2,1.8-16.9,2.1L57,82.5v7.9
			c0,8.2-0.6,17.1-1.8,26.7l-3.4,28.2l1.5,0.4c2.6,0.6,5.7,0.9,9.5,0.9c7.4,0,8.7,0,8.9,0c0.2,0,1.2,0.2,1.2,0.2l0.6-1.1
			c0.8-1.6,1.2-3.8,1.2-6.3l-0.1-2.3l-0.5-6.2c-0.1-1.2-0.1-1.7-0.1-1.9c2.4,5,5.2,10.2,8.3,15.6l0.7,1.2l1.3-0.3
			c2.7-0.7,6-1.3,9.8-1.9l11.6-1.8l-0.1-1.5c-0.1-1.5-1.1-4.5-7.9-14.2c-3.4-4.9-6.6-9.3-9.3-13c2.8-6.9,8-15.9,15.4-26.6l1.2-1.8
			l-13.3-4.3h-0.3c-2.2,0-5.5,1.7-13.3,13.1c-0.1-1.1-0.2-2.3-0.2-2.3c-0.2-2.9-0.3-5.4-0.3-7.5V80L75.5,80.3z"/>
	</g>
	<g>
		<defs>
			<polyline id="SVGID_95_" points="0,758.7 0,-35 1122.5,-35 1122.5,758.7 			"/>
		</defs>
		<clipPath id="SVGID_96_">
			<use xlink:href="#SVGID_95_"  style="overflow:visible;"/>
		</clipPath>
		<path id="path95" class="st14" d="M140.3,78.4L140.3,78.4L140.3,78.4L140.3,78.4z M123.8,94.2c-2.3-1.4-3.4-3.3-3.4-5.7
			c0-2.8,0.8-5.2,2.4-7.1c1.7-2,3.8-3,6.6-3c3.3,0,6.2,0.9,8.8,2.6l0,0c2.7,1.8,4,4.1,4,6.9c0,2.6-1,4.6-3.2,6.1
			c-2,1.4-4.5,2.1-7.5,2.1C128.6,96.2,126,95.5,123.8,94.2 M120,79.4c-2.1,2.5-3.1,5.5-3.1,9.1c0,3.6,1.7,6.4,5,8.5
			c2.7,1.7,6,2.5,9.6,2.5c3.8,0,7.1-0.9,9.7-2.8c3-2.1,4.5-5.1,4.5-8.7c0-3.9-1.8-7.1-5.5-9.6c-3.1-2.2-6.8-3.3-10.9-3.3
			C125.5,75.1,122.4,76.6,120,79.4"/>
	</g>
	<g>
		<defs>
			<polyline id="SVGID_97_" points="0,758.7 0,-35 1122.5,-35 1122.5,758.7 			"/>
		</defs>
		<clipPath id="SVGID_98_">
			<use xlink:href="#SVGID_97_"  style="overflow:visible;"/>
		</clipPath>
		<path id="path97" class="st15" d="M138.9,104.5c0,2.2,0.1,4.9,0.3,8l0.3,5.3c0,0.9,0.1,2.1,0.1,3.7c0,6.7-0.2,12.5-0.6,17.3
			c-5.4,1.5-11,2.3-16.5,2.5c-0.1-1.8-0.2-4.6-0.2-4.6v-8.5c0-8.1,0.5-15.9,1.6-23.4C125.3,104.8,129.2,104.5,138.9,104.5
			 M140.7,101.2c-17.5,0-18.7,0.5-19.4,0.9l-0.8,0.4l-0.1,0.9c-1.2,8-1.8,16.4-1.8,25v8.5l0.3,8h1.7c6.9,0,13.8-1,20.4-3l1.1-0.3
			l0.1-1.1c0.5-5.2,0.7-11.5,0.7-18.7c0-1.6,0-2.9-0.1-3.9l-0.3-5.3c-0.2-3.7-0.3-6.7-0.3-9c0-0.1,0.3-2.2,0.3-2.2H140.7z"/>
	</g>
	<g>
		<defs>
			<polyline id="SVGID_99_" points="0,758.7 0,-35 1122.5,-35 1122.5,758.7 			"/>
		</defs>
		<clipPath id="SVGID_100_">
			<use xlink:href="#SVGID_99_"  style="overflow:visible;"/>
		</clipPath>
		<path id="path99" class="st16" d="M165.1,84.9c10.9,0,19.6,2.7,26,7.9l0,0c6.7,5.4,10,13.2,10,23.2c0,7.8-3.1,14.6-9.2,20.3
			c-6.1,5.7-13.4,8.6-21.7,8.6c-1.6,0-4.8-0.3-9.4-1c0-0.6-0.1-1.5-0.1-2.9c-0.1-1.6-0.1-2.9-0.1-4c0-4.8,0.2-12.2,0.5-21.9
			c0.4-9.8,0.6-17.2,0.6-22c0-2.8-0.1-5.4-0.2-8c0.3,0,0.7-0.1,1.1-0.1l0,0C164.3,84.9,164.9,84.9,165.1,84.9 M162.3,81.8
			L162.3,81.8c-1.3,0.1-1.9,0.1-2.3,0.1l-2.1-0.3l0.1,2c0.1,3,0.2,6.2,0.2,9.6c0,4.8-0.2,12.1-0.5,21.9c-0.4,9.7-0.5,17.1-0.5,22
			c0,1.2,0,2.6,0.1,4.2c0.1,2.3,0.2,3.7,0.2,4.1v1.4l1.5,0.2c5.7,0.9,9.4,1.3,11.4,1.3c9.3,0,17.4-3.2,24.2-9.6
			c6.8-6.3,10.2-13.9,10.2-22.6c0-11-3.8-19.6-11.2-25.7c-7-5.8-16.6-8.7-28.3-8.7C164.7,81.6,163.8,81.7,162.3,81.8"/>
	</g>
	<g>
		<defs>
			<polyline id="SVGID_101_" points="0,758.7 0,-35 1122.5,-35 1122.5,758.7 			"/>
		</defs>
		<clipPath id="SVGID_102_">
			<use xlink:href="#SVGID_101_"  style="overflow:visible;"/>
		</clipPath>
		<path id="path101" class="st17" d="M175.8,102.2c2.4,0,4.9,1.3,7.3,3.8c2.5,2.6,3.7,5.1,3.7,7.5c0,1.2-0.7,3.4-4.2,7.4
			c-3.5,4-5.6,4.6-6.6,4.6h-1.6v-10.1c0-5.7,0.2-10.1,0.6-13.2H175.8z M173.5,98.9H172l-0.3,1.4c-0.6,3.3-0.9,8.2-0.9,15.1v13.4h5.2
			c2.8,0,5.9-1.9,9.3-5.8c3.4-3.8,5-6.9,5-9.5c0-3.2-1.5-6.5-4.6-9.7c-3.1-3.3-6.4-4.9-9.9-4.9H173.5z"/>
	</g>
	<g>
		<defs>
			<polyline id="SVGID_103_" points="0,758.7 0,-35 1122.5,-35 1122.5,758.7 			"/>
		</defs>
		<clipPath id="SVGID_104_">
			<use xlink:href="#SVGID_103_"  style="overflow:visible;"/>
		</clipPath>
		<path id="path103" class="st18" d="M245.1,92L245.1,92L245.1,92L245.1,92z M214.3,86.8c1.6-0.1,2.3-0.2,2.5-0.2
			c10.9,0,19.6,2.7,26,7.9c6.7,5.4,10,13.2,10,23.2c0,7.8-3.1,14.6-9.2,20.3c-6.1,5.7-13.4,8.6-21.7,8.6c-1.6,0-4.8-0.4-9.4-1
			c0-0.6-0.1-1.5-0.2-2.9c-0.1-1.6-0.1-2.9-0.1-4c0-4.8,0.2-12.2,0.5-21.9c0.4-9.7,0.6-17.1,0.6-22c0-2.8-0.1-5.4-0.2-8
			C213.6,86.9,213.9,86.9,214.3,86.8 M213.9,83.5c-1.3,0.1-1.9,0.1-2.3,0.1l-2.1-0.3l0.1,2c0.1,3,0.2,6.2,0.2,9.6
			c0,4.8-0.2,12.2-0.5,21.9c-0.4,9.7-0.6,17.1-0.6,22c0,1.1,0.1,2.6,0.1,4.2c0.1,2.3,0.2,3.7,0.2,4.1v1.4l1.5,0.2
			c5.7,0.9,9.4,1.3,11.4,1.3c9.3,0,17.4-3.2,24.2-9.5c6.8-6.3,10.2-13.9,10.2-22.6c0-11-3.8-19.6-11.2-25.7
			c-7-5.8-16.6-8.7-28.3-8.7C216.5,83.3,215.9,83.4,213.9,83.5"/>
	</g>
	<g>
		<defs>
			<polyline id="SVGID_105_" points="0,758.7 0,-35 1122.5,-35 1122.5,758.7 			"/>
		</defs>
		<clipPath id="SVGID_106_">
			<use xlink:href="#SVGID_105_"  style="overflow:visible;"/>
		</clipPath>
		<path id="path105" class="st19" d="M227.5,103.9c2.4,0,4.9,1.3,7.3,3.8c2.5,2.6,3.7,5.1,3.7,7.5c0,1.2-0.7,3.4-4.2,7.4
			c-3.5,4-5.6,4.6-6.6,4.6H226v-10.2c0-5.7,0.2-10.2,0.6-13.2H227.5z M225.1,100.6h-1.5l-0.3,1.4c-0.6,3.2-0.9,8.2-0.9,15.1v13.5
			h5.2c2.8,0,5.9-1.9,9.3-5.8c3.4-3.8,5-6.9,5-9.5c0-3.2-1.5-6.5-4.6-9.7c-3.1-3.3-6.4-4.9-9.9-4.9H225.1z"/>
	</g>
	<g>
		<defs>
			<polyline id="SVGID_107_" points="0,758.7 0,-35 1122.5,-35 1122.5,758.7 			"/>
		</defs>
		<clipPath id="SVGID_108_">
			<use xlink:href="#SVGID_107_"  style="overflow:visible;"/>
		</clipPath>
		<path id="path107" class="st20" d="M315.5,89.9c-0.8,1.8-2.1,4-3.9,6.6l-10.8,15.5c-0.2,0.3-0.7,1-4.3,7.5c0,0,2.5,1.7,2.7,1.9
			c-0.3,0.1-0.9,0.4-0.9,0.4c-0.8,0-1.3-0.5-1.4-0.8c0.3,0.7,0.9,4.6,0.9,26.5c0,0.5,0,1.2-0.1,1.9c-1.1-0.1-2.3-0.2-3.8-0.2
			c-0.4,0-1.5,0-3.2,0.1l-8.8,0.4c-0.4,0-1,0-2.3-0.2c-0.3-0.1-0.5-0.1-0.8-0.1c0-0.3,0.1-0.5,0.1-0.7v-5.6l-0.1-8.4l-0.1-14.4
			l-12.8-14.5c-3.5-4-6.9-8.1-10.2-12.1c1.6-0.2,4.1-0.5,8-0.9c5.2-0.5,7.9-0.8,9.3-0.9c2,1.9,4,4.3,6,7.1l5.8,8.6l1.7,2.5l1.4-2.6
			c1.7-3.2,4.2-8.7,7.4-16.4C302.8,90.7,309.6,90.4,315.5,89.9 M317.8,86.3c-6.6,0.7-14.6,1.1-23.9,1.3l-1.2,0l-0.4,1
			c-2.6,6.2-4.7,11-6.3,14.4c-1.7-2.5-4.1-6.1-4.1-6.1c-2.2-3.2-4.6-6-6.9-8.1c0-0.1,0.2-0.5,0.2-0.5c-0.1-0.1-0.2-0.1-0.5-0.1l0,0
			l-1.1-0.2l-0.1,0h-4.9c0,0,0.4,0.4,0.6,0.6c-1.5,0.2-3.5,0.4-6,0.6c-8.8,1-10.6,1.2-11.2,1.4l-2.6,0.6l1.6,2
			c3.8,4.8,7.8,9.7,12,14.4c0,0,9.9,11.2,12,13.6c0,1.1,0.1,13.3,0.1,13.3l0.1,8.4v5.6c0,0.1,0,0.6-0.3,1.7l-0.6,2.1h2.3
			c0.2,0,0.9,0,2.2,0.3c1.3,0.2,2.4,0.3,3.2,0.3l8.8-0.4c2-0.1,2.8-0.1,3-0.1c2.1,0,3.8,0.1,5,0.3l1.8,0.4l0.3-1.8
			c0.2-1.7,0.4-3,0.4-4c0-9.1-0.1-16-0.3-20.6c-0.1-2.3-0.2-4.1-0.4-5.3c-0.1-0.4-0.1-1-0.4-1.6c2.6-4.7,3.3-5.9,3.5-6.2l10.8-15.5
			c2.9-4.3,4.6-7.5,5.2-9.9l0.5-2.2L317.8,86.3z"/>
	</g>
	<g>
		<defs>
			<polyline id="SVGID_109_" points="0,758.7 0,-35 1122.5,-35 1122.5,758.7 			"/>
		</defs>
		<clipPath id="SVGID_110_">
			<use xlink:href="#SVGID_109_"  style="overflow:visible;"/>
		</clipPath>
		<path id="path109" class="st21" d="M185.4,114.1c0,23.3-20.2,42.2-45.2,42.2S95,137.4,95,114.1c0-23.3,20.2-42.2,45.2-42.2
			S185.4,90.8,185.4,114.1"/>
	</g>
	<g>
		<defs>
			<polyline id="SVGID_111_" points="0,758.7 0,-35 1122.5,-35 1122.5,758.7 			"/>
		</defs>
		<clipPath id="SVGID_112_">
			<use xlink:href="#SVGID_111_"  style="overflow:visible;"/>
		</clipPath>
		<path id="path111" class="st22" d="M130.4,117.6l-48.9,45.7l-48.9-45.7l48.9-45.7L130.4,117.6z"/>
	</g>
	<g>
		<defs>
			<polyline id="SVGID_113_" points="0,758.7 0,-35 1122.5,-35 1122.5,758.7 			"/>
		</defs>
		<clipPath id="SVGID_114_">
			<use xlink:href="#SVGID_113_"  style="overflow:visible;"/>
		</clipPath>
		<path id="path113" class="st23" d="M223.3,142.9l-67.8,12.6L142,92.1l67.8-12.6L223.3,142.9z"/>
	</g>
	<g>
		<defs>
			<polyline id="SVGID_115_" points="0,758.7 0,-35 1122.5,-35 1122.5,758.7 			"/>
		</defs>
		<clipPath id="SVGID_116_">
			<use xlink:href="#SVGID_115_"  style="overflow:visible;"/>
		</clipPath>
		<path id="path115" class="st24" d="M299.4,159.1l-60.1-32l34.2-56.2l60.1,32L299.4,159.1z"/>
	</g>
	<g>
		<defs>
			<polyline id="SVGID_117_" points="0,758.7 0,-35 1122.5,-35 1122.5,758.7 			"/>
		</defs>
		<clipPath id="SVGID_118_">
			<use xlink:href="#SVGID_117_"  style="overflow:visible;"/>
		</clipPath>
		<path id="path117" class="st25" d="M281.6,151.6l-93.4,2.4l44.5-76.8L281.6,151.6z"/>
	</g>
	<g>
		<defs>
			<polyline id="SVGID_119_" points="0,758.7 0,-35 1122.5,-35 1122.5,758.7 			"/>
		</defs>
		<clipPath id="SVGID_120_">
			<use xlink:href="#SVGID_119_"  style="overflow:visible;"/>
		</clipPath>
		<path id="path119" class="st26" d="M58.7,90.5c0,8.3-0.6,17.2-1.8,26.9l-3.3,26.8c2.4,0.6,5.4,0.9,9,0.9c5.9,0,8.9,0,9.1,0.1
			c0.7-1.4,1-3.3,1-5.6c0-0.8,0-1.6-0.1-2.1l-0.5-6.2c-0.1-1.2-0.1-1.9-0.1-2.2c0-2.2,0.3-4.2,0.9-5.8c3,6.5,6.5,13.5,10.7,20.8
			c2.7-0.7,6.1-1.3,10-1.9l10-1.5c-0.2-2-2.7-6.5-7.6-13.4c-3.7-5.2-6.9-9.8-9.8-13.7c2.8-7.2,8.1-16.4,15.9-27.7l-10.9-3.5
			c-2.6,0-7.5,5.6-14.8,16.8c0-1.4,0-2.4-0.1-3.2l-0.4-4.4c-0.2-3-0.3-5.5-0.3-7.6V82c-7.6,1.1-13.3,1.8-17.1,2.1V90.5z"/>
	</g>
	<g>
		<defs>
			<polyline id="SVGID_121_" points="0,758.7 0,-35 1122.5,-35 1122.5,758.7 			"/>
		</defs>
		<clipPath id="SVGID_122_">
			<use xlink:href="#SVGID_121_"  style="overflow:visible;"/>
		</clipPath>
		<path id="path121" class="st27" d="M77.5,99.5C86.6,85.3,90,83.3,91.2,83.2c0.4,0.1,7.3,2.4,9.3,3C93.1,97,87.9,106,85.2,113
			l-0.2,0.5l0.3,0.4c2.9,3.9,6.1,8.5,9.8,13.7c4.8,6.9,6.6,10.3,7.2,12c-1.8,0.3-8.8,1.3-8.8,1.3c-3.5,0.5-6.6,1.1-9.2,1.7
			c-3.9-7-7.4-13.7-10.3-20l-1.1-2.5l-0.9,2.6c-0.6,1.7-0.9,3.8-0.9,6.1c0,0.2,0,0.6,0.1,2.2l0.5,6.2l0.1,2.1c0,1.8-0.2,3.4-0.7,4.6
			c-1,0-3.3,0-8.4,0c-3,0-5.6-0.2-7.8-0.7c0.2-1.7,3.2-25.8,3.2-25.8c1.2-9.7,1.8-18.8,1.8-27V85c3.6-0.3,8.6-0.9,14.9-1.8v0.6
			c0,2.1,0.1,4.7,0.3,7.7l0.4,4.4c0,0.7,0.1,1.7,0.1,3.1v3.7L77.5,99.5z M75.6,81c-7.5,1.1-13.2,1.8-17,2.1l-1,0.1v7.4
			c0,8.2-0.6,17.2-1.8,26.8l-3.4,27.7l0.9,0.2c2.5,0.6,5.6,0.9,9.3,0.9c7.6,0,8.8,0,9,0.1l0.8,0.1l0.4-0.7c0.7-1.6,1.1-3.6,1.1-6
			l-0.1-2.2l-0.5-6.2c-0.1-1.5-0.1-1.9-0.1-2.1c0-0.9,0.1-1.7,0.2-2.5c2.7,5.7,5.8,11.7,9.4,17.9l0.4,0.7l0.8-0.2
			c2.7-0.7,6-1.3,9.8-1.9l11-1.7l-0.1-1c-0.1-1.4-1.1-4.3-7.8-13.9c-3.5-5-6.7-9.5-9.5-13.3c2.8-7,8-16.1,15.6-27l0.8-1.1l-12.4-4
			h-0.2c-2,0-5.3,1.7-13.8,14.4c-0.1-1-0.3-4.2-0.3-4.2c-0.2-2.9-0.3-5.4-0.3-7.5v-3L75.6,81z"/>
	</g>
	<g>
		<defs>
			<polyline id="SVGID_123_" points="0,758.7 0,-35 1122.5,-35 1122.5,758.7 			"/>
		</defs>
		<clipPath id="SVGID_124_">
			<use xlink:href="#SVGID_123_"  style="overflow:visible;"/>
		</clipPath>
		<path id="path123" class="st28" d="M140.7,102.9c-11.4,0-17.6,0.2-18.6,0.7c-1.2,7.9-1.8,16.2-1.8,24.7v8.5l0.3,6.3
			c6.8,0,13.4-1,19.9-2.9c0.5-5.1,0.7-11.3,0.7-18.6c0-1.6,0-2.9-0.1-3.8l-0.3-5.3c-0.2-3.8-0.3-6.9-0.3-9.2L140.7,102.9z
			 M139.2,79.8c-2.8-2-6.1-3-9.8-3c-3.3,0-6,1.2-8,3.6c-1.9,2.2-2.8,4.9-2.8,8.1c0,3,1.4,5.4,4.2,7.1c2.4,1.5,5.3,2.3,8.7,2.3
			c3.4,0,6.3-0.8,8.6-2.5c2.6-1.8,3.9-4.3,3.9-7.4C144,84.7,142.4,81.9,139.2,79.8"/>
	</g>
	<g>
		<defs>
			<polyline id="SVGID_125_" points="0,758.7 0,-35 1122.5,-35 1122.5,758.7 			"/>
		</defs>
		<clipPath id="SVGID_126_">
			<use xlink:href="#SVGID_125_"  style="overflow:visible;"/>
		</clipPath>
		<path id="path125" class="st29" d="M139.9,78.9L139.9,78.9L139.9,78.9L139.9,78.9z M123.5,94.7c-2.5-1.5-3.7-3.6-3.7-6.2
			c0-3,0.9-5.5,2.5-7.5c1.8-2.2,4.1-3.2,7.1-3.2c3.4,0,6.5,0.9,9.2,2.8l0,0c2.9,2,4.3,4.4,4.3,7.4c0,2.8-1.1,5-3.4,6.6
			c-2.1,1.5-4.8,2.3-7.9,2.3C128.4,96.8,125.7,96.1,123.5,94.7 M120.6,79.8c-2,2.4-3,5.3-3,8.7c0,3.4,1.6,6,4.7,8
			c2.6,1.6,5.7,2.4,9.3,2.4c3.7,0,6.8-0.9,9.3-2.7c2.8-2,4.3-4.8,4.3-8.2c0-3.7-1.7-6.7-5.2-9.1c-3-2.1-6.6-3.2-10.5-3.2
			C125.7,75.8,122.8,77.1,120.6,79.8"/>
	</g>
	<g>
		<defs>
			<polyline id="SVGID_127_" points="0,758.7 0,-35 1122.5,-35 1122.5,758.7 			"/>
		</defs>
		<clipPath id="SVGID_128_">
			<use xlink:href="#SVGID_127_"  style="overflow:visible;"/>
		</clipPath>
		<path id="path127" class="st30" d="M139.6,103.9c0,2.3,0.1,5.1,0.3,8.6l0.3,5.3c0,0.9,0.1,2.1,0.1,3.7c0,6.9-0.2,12.8-0.6,17.8
			c-5.8,1.7-11.8,2.6-17.8,2.6c-0.1-1.4-0.2-5.3-0.2-5.3v-8.4c0-8.2,0.6-16.3,1.7-23.9C124.4,104.2,128.2,103.9,139.6,103.9
			 M140.7,101.8c-17.3,0-18.5,0.5-19.1,0.8l-0.5,0.2l-0.1,0.5c-1.2,7.9-1.8,16.3-1.8,24.9v8.5l0.3,6.4l0,1h1.1c6.8,0,13.6-1,20.2-3
			l0.7-0.2l0.1-0.7c0.5-5.2,0.7-11.4,0.7-18.7c0-1.6,0-2.9-0.1-3.8l-0.3-5.3c-0.2-3.7-0.3-6.8-0.3-9.1l0.2-1.5L140.7,101.8z"/>
	</g>
	<g>
		<defs>
			<polyline id="SVGID_129_" points="0,758.7 0,-35 1122.5,-35 1122.5,758.7 			"/>
		</defs>
		<clipPath id="SVGID_130_">
			<use xlink:href="#SVGID_129_"  style="overflow:visible;"/>
		</clipPath>
		<path id="path129" class="st31" d="M172.6,127.2v-8.4v-1v-2.4c0-6.8,0.3-11.7,0.9-14.9h2.3c3,0,5.9,1.5,8.6,4.4
			c2.8,2.9,4.2,5.8,4.2,8.6c0,2.1-1.5,4.9-4.6,8.4c-3.1,3.5-5.7,5.2-7.9,5.2H172.6z M192.3,91.6c-6.7-5.5-15.8-8.3-27.2-8.3
			c-0.4,0-1.3,0.1-2.7,0.2c-1.1,0.1-2,0.2-2.7,0.1c0.1,3,0.2,6.2,0.2,9.6c0,4.9-0.2,12.2-0.5,21.9c-0.4,9.7-0.6,17.1-0.6,21.9
			c0,1.1,0.1,2.5,0.1,4.1c0.1,2.4,0.2,3.8,0.2,4.2c5.5,0.8,9.2,1.3,11.1,1.3c8.9,0,16.5-3,23-9.1c6.5-6,9.7-13.2,9.7-21.5
			C202.9,105.5,199.4,97.3,192.3,91.6"/>
	</g>
	<g>
		<defs>
			<polyline id="SVGID_131_" points="0,758.7 0,-35 1122.5,-35 1122.5,758.7 			"/>
		</defs>
		<clipPath id="SVGID_132_">
			<use xlink:href="#SVGID_131_"  style="overflow:visible;"/>
		</clipPath>
		<path id="path131" class="st32" d="M193,90.8L193,90.8L193,90.8L193,90.8z M162.6,84.5c1.3-0.1,2.2-0.2,2.6-0.2
			c11.1,0,19.9,2.7,26.4,8h0c6.8,5.6,10.3,13.5,10.3,23.7c0,7.9-3.1,14.9-9.4,20.7c-6.2,5.8-13.7,8.8-22.2,8.8
			c-1.7,0-5.1-0.4-10-1.1c0-0.7-0.1-1.8-0.2-3.3c-0.1-1.6-0.1-2.9-0.1-4.1c0-4.8,0.2-12.2,0.5-21.9c0.4-9.7,0.5-17.1,0.5-22
			c0-3-0.1-5.8-0.2-8.6C161.4,84.6,161.9,84.6,162.6,84.5 M162.3,82.4c-1.1,0.1-1.9,0.1-2.5,0.1l-1.3-0.2l0.1,1.2
			c0.1,3,0.2,6.2,0.2,9.6c0,4.8-0.2,12.2-0.5,21.9c-0.4,9.7-0.6,17.1-0.6,22c0,1.2,0,2.6,0.1,4.2c0.1,2.4,0.2,3.7,0.2,4.1v0.9
			l0.9,0.1c5.6,0.9,9.3,1.3,11.3,1.3c9.1,0,17.1-3.2,23.8-9.4c6.6-6.2,10-13.7,10-22.2c0-10.8-3.7-19.3-11-25.2
			c-6.9-5.7-16.3-8.6-27.9-8.6C164.7,82.2,163.8,82.3,162.3,82.4"/>
	</g>
	<g>
		<defs>
			<polyline id="SVGID_133_" points="0,758.7 0,-35 1122.5,-35 1122.5,758.7 			"/>
		</defs>
		<clipPath id="SVGID_134_">
			<use xlink:href="#SVGID_133_"  style="overflow:visible;"/>
		</clipPath>
		<path id="path133" class="st33" d="M175.8,101.6c2.6,0,5.3,1.4,7.8,4c2.6,2.7,3.9,5.4,3.9,7.9c0,1.9-1.5,4.5-4.4,7.8
			c-3.5,4-5.8,4.9-7.1,4.9h-2.3v-10.8c0-6.1,0.2-10.7,0.7-13.8H175.8z M173.5,99.5h-0.9l-0.2,0.9c-0.6,3.2-0.9,8.2-0.9,15v12.8h4.5
			c2.6,0,5.5-1.8,8.8-5.6c3.3-3.7,4.9-6.7,4.9-9.1c0-3.1-1.5-6.2-4.4-9.3c-3-3.1-6.1-4.7-9.4-4.7H173.5z"/>
	</g>
	<g>
		<defs>
			<polyline id="SVGID_135_" points="0,758.7 0,-35 1122.5,-35 1122.5,758.7 			"/>
		</defs>
		<clipPath id="SVGID_136_">
			<use xlink:href="#SVGID_135_"  style="overflow:visible;"/>
		</clipPath>
		<path id="path135" class="st34" d="M224.3,128.9v-8.4v-1v-2.4c0-6.8,0.3-11.7,0.9-14.8h2.3c3,0,5.9,1.5,8.6,4.4
			c2.8,2.9,4.1,5.8,4.1,8.6c0,2.1-1.5,4.9-4.6,8.4c-3.1,3.5-5.7,5.2-7.9,5.2H224.3z M244,93.3c-6.7-5.5-15.8-8.3-27.2-8.3
			c-0.4,0-1.3,0.1-2.7,0.2c-1.1,0.1-2,0.1-2.7,0.1c0.1,3,0.2,6.3,0.2,9.6c0,4.9-0.2,12.2-0.5,21.9c-0.4,9.7-0.6,17.1-0.6,21.9
			c0,1.1,0,2.5,0.1,4.1c0.1,2.4,0.2,3.8,0.2,4.2c5.5,0.8,9.2,1.3,11.1,1.3c8.9,0,16.5-3,23-9.1c6.5-6,9.7-13.2,9.7-21.5
			C254.6,107.2,251.1,99.1,244,93.3"/>
	</g>
	<g>
		<defs>
			<polyline id="SVGID_137_" points="0,758.7 0,-35 1122.5,-35 1122.5,758.7 			"/>
		</defs>
		<clipPath id="SVGID_138_">
			<use xlink:href="#SVGID_137_"  style="overflow:visible;"/>
		</clipPath>
		<path id="path137" class="st35" d="M244.7,92.5L244.7,92.5L244.7,92.5L244.7,92.5z M214.2,86.2c1.3-0.1,2.2-0.2,2.6-0.2
			c11.1,0,19.9,2.7,26.4,8h0c6.8,5.6,10.3,13.5,10.3,23.7c0,8-3.1,14.9-9.4,20.7c-6.2,5.8-13.7,8.8-22.2,8.8c-1.7,0-5.1-0.4-10-1.1
			c0-0.7-0.1-1.8-0.2-3.4c-0.1-1.6-0.1-3-0.1-4.1c0-4.8,0.2-12.2,0.5-21.9c0.4-9.7,0.6-17.1,0.6-22c0-3-0.1-5.8-0.2-8.6
			C213,86.3,213.6,86.3,214.2,86.2 M214,84.1c-1.1,0.1-1.9,0.1-2.5,0.1l-1.3-0.2l0.1,1.2c0.1,3,0.2,6.2,0.2,9.6
			c0,4.8-0.2,12.2-0.5,21.9c-0.4,9.7-0.5,17.1-0.5,22c0,1.1,0,2.5,0.1,4.2c0.1,2.4,0.2,3.7,0.2,4.1v0.9l0.9,0.1
			c5.6,0.9,9.3,1.3,11.3,1.3c9.1,0,17.1-3.1,23.8-9.4c6.6-6.2,10-13.7,10-22.2c0-10.8-3.7-19.3-11-25.2c-6.9-5.7-16.3-8.6-27.9-8.6
			C216.4,84,215.5,84,214,84.1"/>
	</g>
	<g>
		<defs>
			<polyline id="SVGID_139_" points="0,758.7 0,-35 1122.5,-35 1122.5,758.7 			"/>
		</defs>
		<clipPath id="SVGID_140_">
			<use xlink:href="#SVGID_139_"  style="overflow:visible;"/>
		</clipPath>
		<path id="path139" class="st36" d="M227.5,103.3c2.6,0,5.3,1.4,7.8,4c2.6,2.7,3.9,5.4,3.9,7.9c0,1.9-1.5,4.5-4.4,7.8
			c-3.5,4-5.8,4.9-7.1,4.9h-2.3v-10.8c0-6.1,0.2-10.7,0.7-13.8H227.5z M225.1,101.2h-0.9l-0.2,0.8c-0.6,3.2-0.9,8.2-0.9,15V130h4.5
			c2.6,0,5.5-1.8,8.8-5.6c3.3-3.7,4.9-6.7,4.9-9.1c0-3.1-1.5-6.2-4.4-9.3c-3-3.1-6.1-4.7-9.4-4.7H225.1z"/>
	</g>
	<g>
		<defs>
			<polyline id="SVGID_141_" points="0,758.7 0,-35 1122.5,-35 1122.5,758.7 			"/>
		</defs>
		<clipPath id="SVGID_142_">
			<use xlink:href="#SVGID_141_"  style="overflow:visible;"/>
		</clipPath>
		<path id="path141" class="st37" d="M276.7,150.8c0.5,0,1.4,0.1,2.6,0.3c1.2,0.2,2.1,0.3,2.7,0.3l8.8-0.4c1.7-0.1,2.7-0.1,3.1-0.1
			c2.2,0,4,0.1,5.3,0.4c0.2-1.6,0.3-2.9,0.3-3.8c0-18.2-0.4-27.3-1.3-27.3l-0.2,0.2c2.4-4.3,3.8-6.8,4.2-7.4l10.8-15.5
			c2.8-4.1,4.4-7.2,4.9-9.4c-6.7,0.7-14.7,1.1-24,1.3c-3.4,8.2-6,13.9-7.7,17.3c-2.5-3.8-4.5-6.6-5.8-8.6c-2.2-3.2-4.5-5.8-6.8-7.9
			c-0.4,0-0.7-0.1-0.7-0.2h0.7c0.3,0,0.6,0.1,0.8,0.1c-0.1,0-3.7,0.3-10.9,1.1c-6.5,0.7-10.2,1.2-11,1.3c3.8,4.8,7.8,9.6,12,14.4
			l12.4,14l0.1,13.9c0,4.6,0.1,7.5,0.1,8.4v5.6C277.1,149.1,277,149.8,276.7,150.8"/>
	</g>
	<g>
		<defs>
			<polyline id="SVGID_143_" points="0,758.7 0,-35 1122.5,-35 1122.5,758.7 			"/>
		</defs>
		<clipPath id="SVGID_144_">
			<use xlink:href="#SVGID_143_"  style="overflow:visible;"/>
		</clipPath>
		<path id="path143" class="st38" d="M316.5,89.1c-0.7,1.9-2.2,4.5-4.3,7.6l-10.8,15.5c-0.4,0.6-1.8,3.1-4.3,7.5c0,0,1.5,1,1.7,1.1
			c-0.2,0.1-0.5,0.2-0.5,0.2c-0.4,0-0.7-0.3-0.8-0.4c0.3,0.6,1,4.3,1,26.7c0,0.7-0.1,1.5-0.2,2.6c-1.2-0.2-2.7-0.2-4.4-0.2
			c-0.4,0-1.5,0-3.2,0.1l-8.8,0.4c-0.4,0-1.1,0-2.4-0.2c-0.5-0.1-1-0.2-1.4-0.2c0.1-0.5,0.2-0.9,0.2-1.2v-5.6l-0.1-8.4l-0.1-14.2
			l-12.6-14.3c-3.8-4.3-7.4-8.6-10.9-13c1.6-0.2,4.3-0.5,9.1-1.1c5.6-0.6,8.3-0.9,9.6-1c2.1,2,4.2,4.4,6.3,7.4l6.9,10.1l0.9-1.6
			c1.7-3.3,4.2-8.9,7.5-16.7C303,90.1,310.3,89.7,316.5,89.1 M317.9,86.9c-6.6,0.7-14.7,1.1-23.9,1.3l-0.7,0l-0.3,0.6
			c-2.8,6.9-5.1,12.1-6.8,15.5c-1.4-2.1-4.8-7-4.8-7c-2.2-3.1-4.4-5.8-6.7-7.8c-0.5-0.4-1-0.8-1-0.8l-0.1,0c0,0-4.5,0.6-2.9,0.4
			c-1.6,0.2-4,0.4-7.4,0.8c-6.6,0.7-10.2,1.2-11.1,1.3l-1.6,0.3l1,1.3c3.8,4.8,7.8,9.6,12,14.4c0,0,10.4,11.8,12.1,13.8
			c0,0.7,0.1,13.5,0.1,13.5l0.1,8.4v5.6c0,0.3-0.1,0.8-0.4,1.9l-0.4,1.3h1.4c0.3,0,1,0.1,2.4,0.3c1.3,0.2,2.3,0.3,3,0.3l8.8-0.4
			c2-0.1,2.8-0.1,3.1-0.1c2.1,0,3.9,0.1,5.1,0.4l1.2,0.2l0.2-1.1c0.2-1.7,0.3-3,0.3-3.9c0-9.1-0.1-16-0.3-20.6c-0.2-4-0.4-6-0.8-7
			c2.6-4.7,3.4-6.1,3.7-6.5L314,97.9c2.9-4.2,4.6-7.4,5.1-9.7l0.3-1.4L317.9,86.9z"/>
	</g>
	<g>
		<defs>
			<polyline id="SVGID_145_" points="0,758.7 0,-35 1122.5,-35 1122.5,758.7 			"/>
		</defs>
		<clipPath id="SVGID_146_">
			<use xlink:href="#SVGID_145_"  style="overflow:visible;"/>
		</clipPath>
		<path id="path145" class="st39" d="M58.7,90.5c0,8.3-0.6,17.2-1.8,26.9l-3.3,26.8c2.4,0.6,5.4,0.9,9,0.9c5.9,0,8.9,0,9.1,0.1
			c0.7-1.4,1-3.3,1-5.6c0-0.8,0-1.6-0.1-2.1l-0.5-6.2c-0.1-1.2-0.1-1.9-0.1-2.2c0-2.2,0.3-4.2,0.9-5.8c3,6.5,6.5,13.5,10.7,20.8
			c2.7-0.7,6.1-1.3,10-1.9l10-1.5c-0.2-2-2.7-6.5-7.6-13.4c-3.7-5.2-6.9-9.8-9.8-13.7c2.8-7.2,8.1-16.4,15.9-27.7l-10.9-3.5
			c-2.6,0-7.5,5.6-14.8,16.8c0-1.4,0-2.4-0.1-3.2l-0.4-4.4c-0.2-3-0.3-5.5-0.3-7.6V82c-7.6,1.1-13.3,1.8-17.1,2.1V90.5z"/>
	</g>
	<g>
		<defs>
			<polyline id="SVGID_147_" points="0,758.7 0,-35 1122.5,-35 1122.5,758.7 			"/>
		</defs>
		<clipPath id="SVGID_148_">
			<use xlink:href="#SVGID_147_"  style="overflow:visible;"/>
		</clipPath>
		<path id="path147" class="st40" d="M140.7,102.9c-11.4,0-17.6,0.2-18.6,0.7c-1.2,7.9-1.8,16.2-1.8,24.7v8.5l0.3,6.3
			c6.8,0,13.4-1,19.9-2.9c0.5-5.1,0.7-11.3,0.7-18.6c0-1.6,0-2.9-0.1-3.8l-0.3-5.3c-0.2-3.8-0.3-6.9-0.3-9.2L140.7,102.9z
			 M139.2,79.8c-2.8-2-6.1-3-9.8-3c-3.3,0-6,1.2-8,3.6c-1.9,2.2-2.8,4.9-2.8,8.1c0,3,1.4,5.4,4.2,7.1c2.4,1.5,5.3,2.3,8.7,2.3
			c3.4,0,6.3-0.8,8.6-2.5c2.6-1.8,3.9-4.3,3.9-7.4C144,84.7,142.4,81.9,139.2,79.8"/>
	</g>
	<g>
		<defs>
			<polyline id="SVGID_149_" points="0,758.7 0,-35 1122.5,-35 1122.5,758.7 			"/>
		</defs>
		<clipPath id="SVGID_150_">
			<use xlink:href="#SVGID_149_"  style="overflow:visible;"/>
		</clipPath>
		<path id="path149" class="st41" d="M172.6,127.2v-8.4v-1v-2.4c0-6.8,0.3-11.7,0.9-14.9h2.3c3,0,5.9,1.5,8.6,4.4
			c2.8,2.9,4.2,5.8,4.2,8.6c0,2.1-1.5,4.9-4.6,8.4c-3.1,3.5-5.7,5.2-7.9,5.2H172.6z M192.3,91.6c-6.7-5.5-15.8-8.3-27.2-8.3
			c-0.4,0-1.3,0.1-2.7,0.2c-1.1,0.1-2,0.2-2.7,0.1c0.1,3,0.2,6.2,0.2,9.6c0,4.9-0.2,12.2-0.5,21.9c-0.4,9.7-0.6,17.1-0.6,21.9
			c0,1.1,0.1,2.5,0.1,4.1c0.1,2.4,0.2,3.8,0.2,4.2c5.5,0.8,9.2,1.3,11.1,1.3c8.9,0,16.5-3,23-9.1c6.5-6,9.7-13.2,9.7-21.5
			C202.9,105.5,199.4,97.3,192.3,91.6"/>
	</g>
	<g>
		<defs>
			<polyline id="SVGID_151_" points="0,758.7 0,-35 1122.5,-35 1122.5,758.7 			"/>
		</defs>
		<clipPath id="SVGID_152_">
			<use xlink:href="#SVGID_151_"  style="overflow:visible;"/>
		</clipPath>
		<path id="path151" class="st42" d="M224.3,128.9v-8.4v-1v-2.4c0-6.8,0.3-11.7,0.9-14.8h2.3c3,0,5.9,1.5,8.6,4.4
			c2.8,2.9,4.1,5.8,4.1,8.6c0,2.1-1.5,4.9-4.6,8.4c-3.1,3.5-5.7,5.2-7.9,5.2H224.3z M244,93.3c-6.7-5.5-15.8-8.3-27.2-8.3
			c-0.4,0-1.3,0.1-2.7,0.2c-1.1,0.1-2,0.1-2.7,0.1c0.1,3,0.2,6.3,0.2,9.6c0,4.9-0.2,12.2-0.5,21.9c-0.4,9.7-0.6,17.1-0.6,21.9
			c0,1.1,0,2.5,0.1,4.1c0.1,2.4,0.2,3.8,0.2,4.2c5.5,0.8,9.2,1.3,11.1,1.3c8.9,0,16.5-3,23-9.1c6.5-6,9.7-13.2,9.7-21.5
			C254.6,107.2,251.1,99.1,244,93.3"/>
	</g>
	<g>
		<defs>
			<polyline id="SVGID_153_" points="0,758.7 0,-35 1122.5,-35 1122.5,758.7 			"/>
		</defs>
		<clipPath id="SVGID_154_">
			<use xlink:href="#SVGID_153_"  style="overflow:visible;"/>
		</clipPath>
		<path id="path153" class="st43" d="M276.7,150.8c0.5,0,1.4,0.1,2.6,0.3c1.2,0.2,2.1,0.3,2.7,0.3l8.8-0.4c1.7-0.1,2.7-0.1,3.1-0.1
			c2.2,0,4,0.1,5.3,0.4c0.2-1.6,0.3-2.9,0.3-3.8c0-18.2-0.4-27.3-1.3-27.3l-0.2,0.2c2.4-4.3,3.8-6.8,4.2-7.4l10.8-15.5
			c2.8-4.1,4.4-7.2,4.9-9.4c-6.7,0.7-14.7,1.1-24,1.3c-3.4,8.2-6,13.9-7.7,17.3c-2.5-3.8-4.5-6.6-5.8-8.6c-2.2-3.2-4.5-5.8-6.8-7.9
			c-0.4,0-3,0.3-10.2,1c-6.5,0.7-10.2,1.2-11,1.3c3.8,4.8,7.8,9.6,12,14.4l12.4,14l0.1,13.9c0,4.6,0.1,7.5,0.1,8.4v5.6
			C277.1,149.1,277,149.8,276.7,150.8"/>
	</g>
	<g>
		<defs>
			<polyline id="SVGID_155_" points="0,758.7 0,-35 1122.5,-35 1122.5,758.7 			"/>
		</defs>
		<clipPath id="SVGID_156_">
			<use xlink:href="#SVGID_155_"  style="overflow:visible;"/>
		</clipPath>
		<path id="path155" class="st44" d="M330.3,89.6l0,1.5h0.8c0.4,0,0.6,0,0.9,0c0.2,0,0.4-0.1,0.5-0.1c0.1-0.1,0.2-0.1,0.2-0.2
			c0-0.1,0.1-0.2,0.1-0.4c0-0.5-0.4-0.7-1.2-0.7L330.3,89.6z M333.7,90.3c0,0.9-0.5,1.5-1.5,1.6l1.6,2.4l-1.1,0l-1.5-2.4h-0.9l0,2.4
			h-1l0-5.5l2.4,0C333.1,88.8,333.7,89.3,333.7,90.3 M331.2,95.4c0.5,0,1-0.1,1.5-0.3c0.5-0.2,0.9-0.5,1.2-0.9
			c0.4-0.4,0.6-0.8,0.8-1.2c0.2-0.5,0.3-1,0.3-1.5c0-0.5-0.1-1-0.3-1.5c-0.2-0.5-0.5-0.9-0.8-1.2c-0.4-0.3-0.8-0.6-1.2-0.8
			c-0.5-0.2-1-0.3-1.5-0.3c-0.5,0-1,0.1-1.5,0.3c-0.5,0.2-0.9,0.5-1.2,0.8c-0.4,0.4-0.6,0.8-0.8,1.2c-0.2,0.5-0.3,1-0.3,1.5
			c0,0.5,0.1,1,0.3,1.5c0.2,0.5,0.5,0.9,0.8,1.2c0.4,0.4,0.8,0.6,1.2,0.8C330.2,95.3,330.7,95.4,331.2,95.4 M331.2,96.3
			c-0.7,0-1.3-0.1-1.9-0.4c-0.6-0.3-1.1-0.6-1.5-1c-0.4-0.4-0.8-0.9-1-1.5c-0.3-0.6-0.4-1.2-0.4-1.9c0-0.7,0.1-1.3,0.4-1.9
			c0.2-0.6,0.6-1.1,1-1.5c0.4-0.4,0.9-0.8,1.5-1c0.6-0.3,1.2-0.4,1.9-0.4c0.6,0,1.3,0.1,1.8,0.4c0.6,0.2,1.1,0.6,1.5,1
			c0.4,0.4,0.8,0.9,1.1,1.5c0.3,0.6,0.4,1.2,0.4,1.9c0,0.7-0.1,1.3-0.4,1.9c-0.2,0.6-0.6,1.1-1,1.5c-0.4,0.4-0.9,0.8-1.5,1.1
			C332.5,96.2,331.9,96.3,331.2,96.3"/>
	</g>
	<g>
		<defs>
			<polyline id="SVGID_157_" points="0,758.7 0,-35 1122.5,-35 1122.5,758.7 			"/>
		</defs>
		<clipPath id="SVGID_158_">
			<use xlink:href="#SVGID_157_"  style="overflow:visible;"/>
		</clipPath>
		<path id="path157" class="st45" d="M320.5,188.6h-7.2c-0.3-1.4-0.3-3.7,0-5.1h20.5c0.3,1.4,0.3,3.7,0,5.1h-7.2v19.1
			c-0.9,0.4-3.3,0.7-5.8,0.3C320.7,201.8,320.6,193.7,320.5,188.6"/>
	</g>
	<g>
		<defs>
			<polyline id="SVGID_159_" points="0,758.7 0,-35 1122.5,-35 1122.5,758.7 			"/>
		</defs>
		<clipPath id="SVGID_160_">
			<use xlink:href="#SVGID_159_"  style="overflow:visible;"/>
		</clipPath>
		<path id="path159" class="st46" d="M353.2,202.6c0.9-1.8,1.4-4,1.4-6.9c0-4.9-2.7-7.8-6.9-7.8c-1.6,0-2.9,0.3-4.2,0.8
			c-0.9,1.9-1.4,4-1.4,7c0,4.9,2.7,7.8,6.9,7.8C350.7,203.5,351.9,203.2,353.2,202.6 M335.9,195.7c0-8.1,4.6-12.8,12.5-12.8
			c8.7,0,12.5,5.5,12.5,12.8c0,8.1-4.6,12.8-12.5,12.8C339.7,208.5,335.9,203,335.9,195.7"/>
	</g>
	<g>
		<defs>
			<polyline id="SVGID_161_" points="0,758.7 0,-35 1122.5,-35 1122.5,758.7 			"/>
		</defs>
		<clipPath id="SVGID_162_">
			<use xlink:href="#SVGID_161_"  style="overflow:visible;"/>
		</clipPath>
		<path id="path161" class="st47" d="M383.9,184.3l-8.4,14.9v8.5c-0.9,0.4-3.3,0.7-5.8,0.3c0-2.6,0-5.6,0-8.7l-8.4-14.9
			c1.7-0.7,4.3-1.1,6.1-1l5.4,10l5.1-10C379.6,183.2,382.2,183.6,383.9,184.3"/>
	</g>
	<g>
		<defs>
			<polyline id="SVGID_163_" points="0,758.7 0,-35 1122.5,-35 1122.5,758.7 			"/>
		</defs>
		<clipPath id="SVGID_164_">
			<use xlink:href="#SVGID_163_"  style="overflow:visible;"/>
		</clipPath>
		<path id="path163" class="st48" d="M391.5,206.4c0.1-1.6,0.8-3.9,1.7-5c1.7,1.3,5.1,1.9,7.4,1.9c1.5,0,2.6-0.1,3.4-0.4
			c0.1-0.2,0.4-0.7,0.4-1.4c0-1.2-0.5-1.9-3.1-2.7l-2.4-0.8c-4.6-1.5-7-3.4-7-7.2c0-4.8,3.8-7.9,10-7.9c3,0,5.7,0.6,7.7,1.8
			c-0.3,1.7-0.9,3.6-1.9,4.9c-1.7-1-4-1.4-6.3-1.4c-1.2,0-2.2,0.1-3.1,0.4c-0.2,0.1-0.4,0.7-0.4,1.3c0,1.2,0.4,1.8,3,2.7l2.4,0.8
			c4.7,1.5,7.1,3.5,7.1,7.1c0,5.8-4.4,8.1-10.2,8.1C396.5,208.5,393.2,207.6,391.5,206.4"/>
	</g>
	<g>
		<defs>
			<polyline id="SVGID_165_" points="0,758.7 0,-35 1122.5,-35 1122.5,758.7 			"/>
		</defs>
		<clipPath id="SVGID_166_">
			<use xlink:href="#SVGID_165_"  style="overflow:visible;"/>
		</clipPath>
		<path id="path165" class="st49" d="M420,188.6h-7.2c-0.3-1.4-0.3-3.7,0-5.1h20.5c0.3,1.4,0.3,3.7,0,5.1H426v19.1
			c-0.9,0.4-3.3,0.7-5.8,0.3C420.2,201.8,420.1,193.7,420,188.6"/>
	</g>
	<g>
		<defs>
			<polyline id="SVGID_167_" points="0,758.7 0,-35 1122.5,-35 1122.5,758.7 			"/>
		</defs>
		<clipPath id="SVGID_168_">
			<use xlink:href="#SVGID_167_"  style="overflow:visible;"/>
		</clipPath>
		<path id="path167" class="st50" d="M452.7,202.6c0.9-1.8,1.4-4,1.4-6.9c0-4.9-2.7-7.8-6.9-7.8c-1.6,0-2.9,0.3-4.2,0.8
			c-0.9,1.9-1.4,4-1.4,7c0,4.9,2.7,7.8,6.9,7.8C450.1,203.5,451.4,203.2,452.7,202.6 M435.4,195.7c0-8.1,4.6-12.8,12.5-12.8
			c8.7,0,12.5,5.5,12.5,12.8c0,8.1-4.6,12.8-12.5,12.8C439.2,208.5,435.4,203,435.4,195.7"/>
	</g>
	<g>
		<defs>
			<polyline id="SVGID_169_" points="0,758.7 0,-35 1122.5,-35 1122.5,758.7 			"/>
		</defs>
		<clipPath id="SVGID_170_">
			<use xlink:href="#SVGID_169_"  style="overflow:visible;"/>
		</clipPath>
		<path id="path169" class="st51" d="M472.8,194.1c1.2,0,2.2-0.2,3-0.5c0.4-0.6,0.6-1.4,0.6-2.5c0-2.1-1.5-3-4.2-3
			c-1.4,0-2.4,0.1-2.4,0.1v5.9H472.8z M463.6,184c2.2-0.6,5.6-1,9.2-1c6,0,9.7,2.9,9.7,8c0,3.3-1.7,5.6-4.9,6.8l6.3,9.3
			c-1.8,0.7-4.9,1-6.5,0.9l-5.6-9.2h-2v8.9c-0.8,0.4-3.2,0.7-5.8,0.3C464,200.7,463.9,192.8,463.6,184"/>
	</g>
	<g>
		<defs>
			<polyline id="SVGID_171_" points="0,758.7 0,-35 1122.5,-35 1122.5,758.7 			"/>
		</defs>
		<clipPath id="SVGID_172_">
			<use xlink:href="#SVGID_171_"  style="overflow:visible;"/>
		</clipPath>
		<path id="path171" class="st52" d="M486,184.3c1.7-0.5,3.4-0.8,6.6-0.8h10.7c0.3,1.4,0.3,3.7,0,5.1h-11.1v4.6h9.8
			c0.3,1.4,0.3,3.5,0,5h-9.8v4.6h11.6c0.3,1.4,0.3,3.7,0,5.1h-17.4C486.4,200.7,486.3,192.7,486,184.3"/>
	</g>
	<g>
		<defs>
			<polyline id="SVGID_173_" points="0,758.7 0,-35 1122.5,-35 1122.5,758.7 			"/>
		</defs>
		<clipPath id="SVGID_174_">
			<use xlink:href="#SVGID_173_"  style="overflow:visible;"/>
		</clipPath>
	</g>
	<g>
		<defs>
			<polyline id="SVGID_175_" points="0,758.7 0,-35 1122.5,-35 1122.5,758.7 			"/>
		</defs>
		<clipPath id="SVGID_176_">
			<use xlink:href="#SVGID_175_"  style="overflow:visible;"/>
		</clipPath>
	</g>
	<g>
		<defs>
			<polyline id="SVGID_177_" points="0,758.7 0,-35 1122.5,-35 1122.5,758.7 			"/>
		</defs>
		<clipPath id="SVGID_178_">
			<use xlink:href="#SVGID_177_"  style="overflow:visible;"/>
		</clipPath>
	</g>
	<g>
		<defs>
			<polyline id="SVGID_179_" points="0,758.7 0,-35 1122.5,-35 1122.5,758.7 			"/>
		</defs>
		<clipPath id="SVGID_180_">
			<use xlink:href="#SVGID_179_"  style="overflow:visible;"/>
		</clipPath>
	</g>
	<g>
		<defs>
			<polyline id="SVGID_181_" points="0,758.7 0,-35 1122.5,-35 1122.5,758.7 			"/>
		</defs>
		<clipPath id="SVGID_182_">
			<use xlink:href="#SVGID_181_"  style="overflow:visible;"/>
		</clipPath>
	</g>
	<g>
		<defs>
			<polyline id="SVGID_183_" points="0,758.7 0,-35 1122.5,-35 1122.5,758.7 			"/>
		</defs>
		<clipPath id="SVGID_184_">
			<use xlink:href="#SVGID_183_"  style="overflow:visible;"/>
		</clipPath>
	</g>
	<g>
		<defs>
			<polyline id="SVGID_185_" points="0,758.7 0,-35 1122.5,-35 1122.5,758.7 			"/>
		</defs>
		<clipPath id="SVGID_186_">
			<use xlink:href="#SVGID_185_"  style="overflow:visible;"/>
		</clipPath>
	</g>
	<g>
		<defs>
			<polyline id="SVGID_187_" points="0,758.7 0,-35 1122.5,-35 1122.5,758.7 			"/>
		</defs>
		<clipPath id="SVGID_188_">
			<use xlink:href="#SVGID_187_"  style="overflow:visible;"/>
		</clipPath>
	</g>
	<g>
		<defs>
			<polyline id="SVGID_189_" points="0,758.7 0,-35 1122.5,-35 1122.5,758.7 			"/>
		</defs>
		<clipPath id="SVGID_190_">
			<use xlink:href="#SVGID_189_"  style="overflow:visible;"/>
		</clipPath>
	</g>
	<g>
		<defs>
			<polyline id="SVGID_191_" points="0,758.7 0,-35 1122.5,-35 1122.5,758.7 			"/>
		</defs>
		<clipPath id="SVGID_192_">
			<use xlink:href="#SVGID_191_"  style="overflow:visible;"/>
		</clipPath>
	</g>
	<g>
		<defs>
			<polyline id="SVGID_193_" points="0,758.7 0,-35 1122.5,-35 1122.5,758.7 			"/>
		</defs>
		<clipPath id="SVGID_194_">
			<use xlink:href="#SVGID_193_"  style="overflow:visible;"/>
		</clipPath>
	</g>
	<g>
		<defs>
			<polyline id="SVGID_195_" points="0,758.7 0,-35 1122.5,-35 1122.5,758.7 			"/>
		</defs>
		<clipPath id="SVGID_196_">
			<use xlink:href="#SVGID_195_"  style="overflow:visible;"/>
		</clipPath>
	</g>
	<g>
		<defs>
			<polyline id="SVGID_197_" points="0,758.7 0,-35 1122.5,-35 1122.5,758.7 			"/>
		</defs>
		<clipPath id="SVGID_198_">
			<use xlink:href="#SVGID_197_"  style="overflow:visible;"/>
		</clipPath>
	</g>
	<g>
		<defs>
			<polyline id="SVGID_199_" points="0,758.7 0,-35 1122.5,-35 1122.5,758.7 			"/>
		</defs>
		<clipPath id="SVGID_200_">
			<use xlink:href="#SVGID_199_"  style="overflow:visible;"/>
		</clipPath>
	</g>
	<g>
		<defs>
			<polyline id="SVGID_201_" points="0,758.7 0,-35 1122.5,-35 1122.5,758.7 			"/>
		</defs>
		<clipPath id="SVGID_202_">
			<use xlink:href="#SVGID_201_"  style="overflow:visible;"/>
		</clipPath>
	</g>
	<g>
		<defs>
			<polyline id="SVGID_203_" points="0,758.7 0,-35 1122.5,-35 1122.5,758.7 			"/>
		</defs>
		<clipPath id="SVGID_204_">
			<use xlink:href="#SVGID_203_"  style="overflow:visible;"/>
		</clipPath>
	</g>
	<g>
		<defs>
			<polyline id="SVGID_205_" points="0,758.7 0,-35 1122.5,-35 1122.5,758.7 			"/>
		</defs>
		<clipPath id="SVGID_206_">
			<use xlink:href="#SVGID_205_"  style="overflow:visible;"/>
		</clipPath>
	</g>
	<g>
		<defs>
			<polyline id="SVGID_207_" points="0,758.7 0,-35 1122.5,-35 1122.5,758.7 			"/>
		</defs>
		<clipPath id="SVGID_208_">
			<use xlink:href="#SVGID_207_"  style="overflow:visible;"/>
		</clipPath>
	</g>
	<g>
		<defs>
			<polyline id="SVGID_209_" points="0,758.7 0,-35 1122.5,-35 1122.5,758.7 			"/>
		</defs>
		<clipPath id="SVGID_210_">
			<use xlink:href="#SVGID_209_"  style="overflow:visible;"/>
		</clipPath>
	</g>
	<g>
		<defs>
			<polyline id="SVGID_211_" points="0,758.7 0,-35 1122.5,-35 1122.5,758.7 			"/>
		</defs>
		<clipPath id="SVGID_212_">
			<use xlink:href="#SVGID_211_"  style="overflow:visible;"/>
		</clipPath>
	</g>
	<g>
		<defs>
			<polyline id="SVGID_213_" points="0,758.7 0,-35 1122.5,-35 1122.5,758.7 			"/>
		</defs>
		<clipPath id="SVGID_214_">
			<use xlink:href="#SVGID_213_"  style="overflow:visible;"/>
		</clipPath>
	</g>
	<g>
		<defs>
			<polyline id="SVGID_215_" points="0,758.7 0,-35 1122.5,-35 1122.5,758.7 			"/>
		</defs>
		<clipPath id="SVGID_216_">
			<use xlink:href="#SVGID_215_"  style="overflow:visible;"/>
		</clipPath>
	</g>
	<g>
		<defs>
			<polyline id="SVGID_217_" points="0,758.7 0,-35 1122.5,-35 1122.5,758.7 			"/>
		</defs>
		<clipPath id="SVGID_218_">
			<use xlink:href="#SVGID_217_"  style="overflow:visible;"/>
		</clipPath>
	</g>
	<g>
		<defs>
			<polyline id="SVGID_219_" points="0,758.7 0,-35 1122.5,-35 1122.5,758.7 			"/>
		</defs>
		<clipPath id="SVGID_220_">
			<use xlink:href="#SVGID_219_"  style="overflow:visible;"/>
		</clipPath>
	</g>
	<g>
		<defs>
			<polyline id="SVGID_221_" points="0,758.7 0,-35 1122.5,-35 1122.5,758.7 			"/>
		</defs>
		<clipPath id="SVGID_222_">
			<use xlink:href="#SVGID_221_"  style="overflow:visible;"/>
		</clipPath>
	</g>
	<g>
		<defs>
			<polyline id="SVGID_223_" points="0,758.7 0,-35 1122.5,-35 1122.5,758.7 			"/>
		</defs>
		<clipPath id="SVGID_224_">
			<use xlink:href="#SVGID_223_"  style="overflow:visible;"/>
		</clipPath>
	</g>
	<g>
		<defs>
			<polyline id="SVGID_225_" points="0,758.7 0,-35 1122.5,-35 1122.5,758.7 			"/>
		</defs>
		<clipPath id="SVGID_226_">
			<use xlink:href="#SVGID_225_"  style="overflow:visible;"/>
		</clipPath>
	</g>
	<g>
		<defs>
			<polyline id="SVGID_227_" points="0,758.7 0,-35 1122.5,-35 1122.5,758.7 			"/>
		</defs>
		<clipPath id="SVGID_228_">
			<use xlink:href="#SVGID_227_"  style="overflow:visible;"/>
		</clipPath>
	</g>
	<g>
		<defs>
			<polyline id="SVGID_229_" points="0,758.7 0,-35 1122.5,-35 1122.5,758.7 			"/>
		</defs>
		<clipPath id="SVGID_230_">
			<use xlink:href="#SVGID_229_"  style="overflow:visible;"/>
		</clipPath>
	</g>
	<g>
		<defs>
			<polyline id="SVGID_231_" points="0,758.7 0,-35 1122.5,-35 1122.5,758.7 			"/>
		</defs>
		<clipPath id="SVGID_232_">
			<use xlink:href="#SVGID_231_"  style="overflow:visible;"/>
		</clipPath>
	</g>
	<g>
		<defs>
			<polyline id="SVGID_233_" points="0,758.7 0,-35 1122.5,-35 1122.5,758.7 			"/>
		</defs>
		<clipPath id="SVGID_234_">
			<use xlink:href="#SVGID_233_"  style="overflow:visible;"/>
		</clipPath>
	</g>
	<g>
		<defs>
			<polyline id="SVGID_235_" points="0,758.7 0,-35 1122.5,-35 1122.5,758.7 			"/>
		</defs>
		<clipPath id="SVGID_236_">
			<use xlink:href="#SVGID_235_"  style="overflow:visible;"/>
		</clipPath>
	</g>
	<g>
		<defs>
			<polyline id="SVGID_237_" points="0,758.7 0,-35 1122.5,-35 1122.5,758.7 			"/>
		</defs>
		<clipPath id="SVGID_238_">
			<use xlink:href="#SVGID_237_"  style="overflow:visible;"/>
		</clipPath>
	</g>
	<g>
		<defs>
			<polyline id="SVGID_239_" points="0,758.7 0,-35 1122.5,-35 1122.5,758.7 			"/>
		</defs>
		<clipPath id="SVGID_240_">
			<use xlink:href="#SVGID_239_"  style="overflow:visible;"/>
		</clipPath>
	</g>
	<g>
		<defs>
			<polyline id="SVGID_241_" points="0,758.7 0,-35 1122.5,-35 1122.5,758.7 			"/>
		</defs>
		<clipPath id="SVGID_242_">
			<use xlink:href="#SVGID_241_"  style="overflow:visible;"/>
		</clipPath>
	</g>
	<g>
		<defs>
			<polyline id="SVGID_243_" points="0,758.7 0,-35 1122.5,-35 1122.5,758.7 			"/>
		</defs>
		<clipPath id="SVGID_244_">
			<use xlink:href="#SVGID_243_"  style="overflow:visible;"/>
		</clipPath>
	</g>
	<g>
		<defs>
			<polyline id="SVGID_245_" points="0,758.7 0,-35 1122.5,-35 1122.5,758.7 			"/>
		</defs>
		<clipPath id="SVGID_246_">
			<use xlink:href="#SVGID_245_"  style="overflow:visible;"/>
		</clipPath>
	</g>
	<g>
		<defs>
			<polyline id="SVGID_247_" points="0,758.7 0,-35 1122.5,-35 1122.5,758.7 			"/>
		</defs>
		<clipPath id="SVGID_248_">
			<use xlink:href="#SVGID_247_"  style="overflow:visible;"/>
		</clipPath>
	</g>
	<g>
		<defs>
			<polyline id="SVGID_249_" points="0,758.7 0,-35 1122.5,-35 1122.5,758.7 			"/>
		</defs>
		<clipPath id="SVGID_250_">
			<use xlink:href="#SVGID_249_"  style="overflow:visible;"/>
		</clipPath>
	</g>
	<g>
		<defs>
			<polyline id="SVGID_251_" points="0,758.7 0,-35 1122.5,-35 1122.5,758.7 			"/>
		</defs>
		<clipPath id="SVGID_252_">
			<use xlink:href="#SVGID_251_"  style="overflow:visible;"/>
		</clipPath>
	</g>
	<g>
		<defs>
			<polyline id="SVGID_253_" points="0,758.7 0,-35 1122.5,-35 1122.5,758.7 			"/>
		</defs>
		<clipPath id="SVGID_254_">
			<use xlink:href="#SVGID_253_"  style="overflow:visible;"/>
		</clipPath>
	</g>
	<g>
		<defs>
			<polyline id="SVGID_255_" points="0,758.7 0,-35 1122.5,-35 1122.5,758.7 			"/>
		</defs>
		<clipPath id="SVGID_256_">
			<use xlink:href="#SVGID_255_"  style="overflow:visible;"/>
		</clipPath>
	</g>
	<g>
		<defs>
			<polyline id="SVGID_257_" points="0,758.7 0,-35 1122.5,-35 1122.5,758.7 			"/>
		</defs>
		<clipPath id="SVGID_258_">
			<use xlink:href="#SVGID_257_"  style="overflow:visible;"/>
		</clipPath>
	</g>
	<g>
		<defs>
			<polyline id="SVGID_259_" points="0,758.7 0,-35 1122.5,-35 1122.5,758.7 			"/>
		</defs>
		<clipPath id="SVGID_260_">
			<use xlink:href="#SVGID_259_"  style="overflow:visible;"/>
		</clipPath>
	</g>
	<g>
		<defs>
			<polyline id="SVGID_261_" points="0,758.7 0,-35 1122.5,-35 1122.5,758.7 			"/>
		</defs>
		<clipPath id="SVGID_262_">
			<use xlink:href="#SVGID_261_"  style="overflow:visible;"/>
		</clipPath>
	</g>
	<g>
		<defs>
			<polyline id="SVGID_263_" points="0,758.7 0,-35 1122.5,-35 1122.5,758.7 			"/>
		</defs>
		<clipPath id="SVGID_264_">
			<use xlink:href="#SVGID_263_"  style="overflow:visible;"/>
		</clipPath>
	</g>
	<g>
		<defs>
			<polyline id="SVGID_265_" points="0,758.7 0,-35 1122.5,-35 1122.5,758.7 			"/>
		</defs>
		<clipPath id="SVGID_266_">
			<use xlink:href="#SVGID_265_"  style="overflow:visible;"/>
		</clipPath>
	</g>
	<g>
		<defs>
			<polyline id="SVGID_267_" points="0,758.7 0,-35 1122.5,-35 1122.5,758.7 			"/>
		</defs>
		<clipPath id="SVGID_268_">
			<use xlink:href="#SVGID_267_"  style="overflow:visible;"/>
		</clipPath>
	</g>
	<g>
		<defs>
			<polyline id="SVGID_269_" points="0,758.7 0,-35 1122.5,-35 1122.5,758.7 			"/>
		</defs>
		<clipPath id="SVGID_270_">
			<use xlink:href="#SVGID_269_"  style="overflow:visible;"/>
		</clipPath>
	</g>
	<g>
		<defs>
			<polyline id="SVGID_271_" points="0,758.7 0,-35 1122.5,-35 1122.5,758.7 			"/>
		</defs>
		<clipPath id="SVGID_272_">
			<use xlink:href="#SVGID_271_"  style="overflow:visible;"/>
		</clipPath>
	</g>
	<g>
		<defs>
			<polyline id="SVGID_273_" points="0,758.7 0,-35 1122.5,-35 1122.5,758.7 			"/>
		</defs>
		<clipPath id="SVGID_274_">
			<use xlink:href="#SVGID_273_"  style="overflow:visible;"/>
		</clipPath>
	</g>
	<g>
		<defs>
			<polyline id="SVGID_275_" points="0,758.7 0,-35 1122.5,-35 1122.5,758.7 			"/>
		</defs>
		<clipPath id="SVGID_276_">
			<use xlink:href="#SVGID_275_"  style="overflow:visible;"/>
		</clipPath>
	</g>
	<g>
		<defs>
			<polyline id="SVGID_277_" points="0,758.7 0,-35 1122.5,-35 1122.5,758.7 			"/>
		</defs>
		<clipPath id="SVGID_278_">
			<use xlink:href="#SVGID_277_"  style="overflow:visible;"/>
		</clipPath>
	</g>
	<g>
		<defs>
			<polyline id="SVGID_279_" points="0,758.7 0,-35 1122.5,-35 1122.5,758.7 			"/>
		</defs>
		<clipPath id="SVGID_280_">
			<use xlink:href="#SVGID_279_"  style="overflow:visible;"/>
		</clipPath>
	</g>
	<g>
		<defs>
			<polyline id="SVGID_281_" points="0,758.7 0,-35 1122.5,-35 1122.5,758.7 			"/>
		</defs>
		<clipPath id="SVGID_282_">
			<use xlink:href="#SVGID_281_"  style="overflow:visible;"/>
		</clipPath>
	</g>
	<g>
		<defs>
			<polyline id="SVGID_283_" points="0,758.7 0,-35 1122.5,-35 1122.5,758.7 			"/>
		</defs>
		<clipPath id="SVGID_284_">
			<use xlink:href="#SVGID_283_"  style="overflow:visible;"/>
		</clipPath>
	</g>
	<g>
		<defs>
			<polyline id="SVGID_285_" points="0,758.7 0,-35 1122.5,-35 1122.5,758.7 			"/>
		</defs>
		<clipPath id="SVGID_286_">
			<use xlink:href="#SVGID_285_"  style="overflow:visible;"/>
		</clipPath>
	</g>
	<g>
		<defs>
			<polyline id="SVGID_287_" points="0,758.7 0,-35 1122.5,-35 1122.5,758.7 			"/>
		</defs>
		<clipPath id="SVGID_288_">
			<use xlink:href="#SVGID_287_"  style="overflow:visible;"/>
		</clipPath>
	</g>
	<g>
		<defs>
			<polyline id="SVGID_289_" points="0,758.7 0,-35 1122.5,-35 1122.5,758.7 			"/>
		</defs>
		<clipPath id="SVGID_290_">
			<use xlink:href="#SVGID_289_"  style="overflow:visible;"/>
		</clipPath>
	</g>
	<g>
		<defs>
			<polyline id="SVGID_291_" points="0,758.7 0,-35 1122.5,-35 1122.5,758.7 			"/>
		</defs>
		<clipPath id="SVGID_292_">
			<use xlink:href="#SVGID_291_"  style="overflow:visible;"/>
		</clipPath>
	</g>
	<g>
		<defs>
			<polyline id="SVGID_293_" points="0,758.7 0,-35 1122.5,-35 1122.5,758.7 			"/>
		</defs>
		<clipPath id="SVGID_294_">
			<use xlink:href="#SVGID_293_"  style="overflow:visible;"/>
		</clipPath>
	</g>
	<g>
		<defs>
			<polyline id="SVGID_295_" points="0,758.7 0,-35 1122.5,-35 1122.5,758.7 			"/>
		</defs>
		<clipPath id="SVGID_296_">
			<use xlink:href="#SVGID_295_"  style="overflow:visible;"/>
		</clipPath>
	</g>
	<g>
		<defs>
			<polyline id="SVGID_297_" points="0,758.7 0,-35 1122.5,-35 1122.5,758.7 			"/>
		</defs>
		<clipPath id="SVGID_298_">
			<use xlink:href="#SVGID_297_"  style="overflow:visible;"/>
		</clipPath>
	</g>
	<g>
		<defs>
			<polyline id="SVGID_299_" points="0,758.7 0,-35 1122.5,-35 1122.5,758.7 			"/>
		</defs>
		<clipPath id="SVGID_300_">
			<use xlink:href="#SVGID_299_"  style="overflow:visible;"/>
		</clipPath>
	</g>
	<g>
		<defs>
			<polyline id="SVGID_301_" points="0,758.7 0,-35 1122.5,-35 1122.5,758.7 			"/>
		</defs>
		<clipPath id="SVGID_302_">
			<use xlink:href="#SVGID_301_"  style="overflow:visible;"/>
		</clipPath>
	</g>
	<g>
		<defs>
			<polyline id="SVGID_303_" points="0,758.7 0,-35 1122.5,-35 1122.5,758.7 			"/>
		</defs>
		<clipPath id="SVGID_304_">
			<use xlink:href="#SVGID_303_"  style="overflow:visible;"/>
		</clipPath>
	</g>
	<g>
		<defs>
			<polyline id="SVGID_305_" points="0,758.7 0,-35 1122.5,-35 1122.5,758.7 			"/>
		</defs>
		<clipPath id="SVGID_306_">
			<use xlink:href="#SVGID_305_"  style="overflow:visible;"/>
		</clipPath>
	</g>
	<g>
		<defs>
			<polyline id="SVGID_307_" points="0,758.7 0,-35 1122.5,-35 1122.5,758.7 			"/>
		</defs>
		<clipPath id="SVGID_308_">
			<use xlink:href="#SVGID_307_"  style="overflow:visible;"/>
		</clipPath>
	</g>
	<g>
		<defs>
			<polyline id="SVGID_309_" points="0,758.7 0,-35 1122.5,-35 1122.5,758.7 			"/>
		</defs>
		<clipPath id="SVGID_310_">
			<use xlink:href="#SVGID_309_"  style="overflow:visible;"/>
		</clipPath>
	</g>
	<g>
		<defs>
			<polyline id="SVGID_311_" points="0,758.7 0,-35 1122.5,-35 1122.5,758.7 			"/>
		</defs>
		<clipPath id="SVGID_312_">
			<use xlink:href="#SVGID_311_"  style="overflow:visible;"/>
		</clipPath>
	</g>
	<g>
		<defs>
			<polyline id="SVGID_313_" points="0,758.7 0,-35 1122.5,-35 1122.5,758.7 			"/>
		</defs>
		<clipPath id="SVGID_314_">
			<use xlink:href="#SVGID_313_"  style="overflow:visible;"/>
		</clipPath>
	</g>
	<g>
		<defs>
			<polyline id="SVGID_315_" points="0,758.7 0,-35 1122.5,-35 1122.5,758.7 			"/>
		</defs>
		<clipPath id="SVGID_316_">
			<use xlink:href="#SVGID_315_"  style="overflow:visible;"/>
		</clipPath>
	</g>
	<g>
		<defs>
			<polyline id="SVGID_317_" points="0,758.7 0,-35 1122.5,-35 1122.5,758.7 			"/>
		</defs>
		<clipPath id="SVGID_318_">
			<use xlink:href="#SVGID_317_"  style="overflow:visible;"/>
		</clipPath>
	</g>
	<g>
		<defs>
			<polyline id="SVGID_319_" points="0,758.7 0,-35 1122.5,-35 1122.5,758.7 			"/>
		</defs>
		<clipPath id="SVGID_320_">
			<use xlink:href="#SVGID_319_"  style="overflow:visible;"/>
		</clipPath>
	</g>
	<g>
		<defs>
			<polyline id="SVGID_321_" points="0,758.7 0,-35 1122.5,-35 1122.5,758.7 			"/>
		</defs>
		<clipPath id="SVGID_322_">
			<use xlink:href="#SVGID_321_"  style="overflow:visible;"/>
		</clipPath>
	</g>
	<g>
		<defs>
			<polyline id="SVGID_323_" points="0,758.7 0,-35 1122.5,-35 1122.5,758.7 			"/>
		</defs>
		<clipPath id="SVGID_324_">
			<use xlink:href="#SVGID_323_"  style="overflow:visible;"/>
		</clipPath>
	</g>
	<g>
		<defs>
			<polyline id="SVGID_325_" points="0,758.7 0,-35 1122.5,-35 1122.5,758.7 			"/>
		</defs>
		<clipPath id="SVGID_326_">
			<use xlink:href="#SVGID_325_"  style="overflow:visible;"/>
		</clipPath>
	</g>
	<g>
		<defs>
			<polyline id="SVGID_327_" points="0,758.7 0,-35 1122.5,-35 1122.5,758.7 			"/>
		</defs>
		<clipPath id="SVGID_328_">
			<use xlink:href="#SVGID_327_"  style="overflow:visible;"/>
		</clipPath>
	</g>
	<g>
		<defs>
			<polyline id="SVGID_329_" points="0,758.7 0,-35 1122.5,-35 1122.5,758.7 			"/>
		</defs>
		<clipPath id="SVGID_330_">
			<use xlink:href="#SVGID_329_"  style="overflow:visible;"/>
		</clipPath>
	</g>
	<g>
		<defs>
			<polyline id="SVGID_331_" points="0,758.7 0,-35 1122.5,-35 1122.5,758.7 			"/>
		</defs>
		<clipPath id="SVGID_332_">
			<use xlink:href="#SVGID_331_"  style="overflow:visible;"/>
		</clipPath>
	</g>
	<g>
		<defs>
			<polyline id="SVGID_333_" points="0,758.7 0,-35 1122.5,-35 1122.5,758.7 			"/>
		</defs>
		<clipPath id="SVGID_334_">
			<use xlink:href="#SVGID_333_"  style="overflow:visible;"/>
		</clipPath>
	</g>
	<g>
		<defs>
			<polyline id="SVGID_335_" points="0,758.7 0,-35 1122.5,-35 1122.5,758.7 			"/>
		</defs>
		<clipPath id="SVGID_336_">
			<use xlink:href="#SVGID_335_"  style="overflow:visible;"/>
		</clipPath>
	</g>
</g>
</svg>
