<?xml version="1.0" encoding="UTF-8"?>
<svg version="1.1" xmlns="http://www.w3.org/2000/svg" width="500" height="250">
<path d="M0 0 C165 0 330 0 500 0 C500 82.5 500 165 500 250 C335 250 170 250 0 250 C0 167.5 0 85 0 0 Z " fill="#FEFEFE" transform="translate(0,0)"/>
<path d="M0 0 C11.55 0 23.1 0 35 0 C35 11.22 35 22.44 35 34 C47.87 34 60.74 34 74 34 C72.68 32.68 71.36 31.36 70 30 C68.90088451 26.70265354 68.8860544 24.27041255 68.90234375 20.80078125 C68.90484131 19.71192627 68.90733887 18.62307129 68.90991211 17.5012207 C68.91901611 16.11894287 68.92812012 14.73666504 68.9375 13.3125 C68.958125 8.919375 68.97875 4.52625 69 0 C80.55 0 92.1 0 104 0 C104 10.89 104 21.78 104 33 C115.22 33.33 126.44 33.66 138 34 C138 22.78 138 11.56 138 0 C149.55 0 161.1 0 173 0 C173 11.55 173 23.1 173 35 C161.78 35 150.56 35 139 35 C139.15770716 43.61599443 139.15770716 43.61599443 139.36035156 52.23095703 C139.3703418 53.31231934 139.38033203 54.39368164 139.390625 55.5078125 C139.41157227 56.60754395 139.43251953 57.70727539 139.45410156 58.84033203 C139 62 139 62 135 68 C153.81 68.495 153.81 68.495 173 69 C173 80.55 173 92.1 173 104 C161.78 104 150.56 104 139 104 C139 115.22 139 126.44 139 138 C150.22 138 161.44 138 173 138 C173 149.88 173 161.76 173 174 C161.45 174 149.9 174 138 174 C138 162.45 138 150.9 138 139 C115.23 139 92.46 139 69 139 C69 127.45 69 115.9 69 104 C57.78 104 46.56 104 35 104 C35 127.1 35 150.2 35 174 C23.45 174 11.9 174 0 174 C0 162.12 0 150.24 0 138 C11.22 138 22.44 138 34 138 C34 104.01 34 70.02 34 35 C22.78 35 11.56 35 0 35 C0 23.45 0 11.9 0 0 Z " fill="#5383B7" transform="translate(163,14)"/>
<path d="M0 0 C11.55 0 23.1 0 35 0 C35 10.89 35 21.78 35 33 C46.22 33.33 57.44 33.66 69 34 C69 22.78 69 11.56 69 0 C80.55 0 92.1 0 104 0 C104 11.55 104 23.1 104 35 C92.78 35 81.56 35 70 35 C70.15770716 43.61599443 70.15770716 43.61599443 70.36035156 52.23095703 C70.3703418 53.31231934 70.38033203 54.39368164 70.390625 55.5078125 C70.4220459 57.15740967 70.4220459 57.15740967 70.45410156 58.84033203 C70 62 70 62 66 68 C84.81 68.495 84.81 68.495 104 69 C104 80.55 104 92.1 104 104 C99.73835938 103.96519531 95.47671875 103.93039063 91.0859375 103.89453125 C87.67827111 103.87522517 84.27062027 103.85896146 80.8629303 103.84474945 C77.27097518 103.82893705 73.67923399 103.80782219 70.08740234 103.77368164 C66.62497475 103.74097871 63.16275404 103.72312414 59.70018387 103.71536827 C57.7426292 103.70716407 55.78515724 103.68376207 53.82772827 103.66011047 C52.62693634 103.65988388 51.42614441 103.65965729 50.18896484 103.65942383 C49.13639496 103.65276199 48.08382507 103.64610016 46.99935913 103.63923645 C42.28315841 104.20650207 38.89845372 106.40103085 35 109 C35 95.8 35 82.6 35 69 C23.78 69 12.56 69 1 69 C-0.48700668 66.02598664 -0.00619932 63.05181074 0.12109375 59.8046875 C0.14470474 59.09724396 0.16831573 58.38980042 0.19264221 57.66091919 C0.26928834 55.39874245 0.35330812 53.13690727 0.4375 50.875 C0.49071977 49.3424647 0.54346018 47.80991266 0.59570312 46.27734375 C0.72490467 42.51801239 0.86072037 38.75897092 1 35 C2.98 34.505 2.98 34.505 5 34 C4.360625 33.401875 3.72125 32.80375 3.0625 32.1875 C-0.31852456 28.60156486 -0.11985684 25.52950608 -0.09765625 20.80078125 C-0.09515869 19.71192627 -0.09266113 18.62307129 -0.09008789 17.5012207 C-0.08098389 16.11894287 -0.07187988 14.73666504 -0.0625 13.3125 C-0.0315625 6.7228125 -0.0315625 6.7228125 0 0 Z " fill="#F48926" transform="translate(232,14)"/>
<path d="M0 0 C11.55 0 23.1 0 35 0 C35 11.22 35 22.44 35 34 C46.22 34 57.44 34 69 34 C69 34.33 69 34.66 69 35 C57.78 35 46.56 35 35 35 C35 46.22 35 57.44 35 69 C43.52542369 68.96064745 43.52542369 68.96064745 52.05078125 68.90991211 C53.12714844 68.90741455 54.20351562 68.90491699 55.3125 68.90234375 C56.40175781 68.89710693 57.49101562 68.89187012 58.61328125 68.88647461 C62.42481909 69.01424026 66.21577106 69.52697138 70 70 C70 81.22 70 92.44 70 104 C58.45 104 46.9 104 35 104 C35 127.1 35 150.2 35 174 C23.45 174 11.9 174 0 174 C0 162.12 0 150.24 0 138 C11.22 138 22.44 138 34 138 C34 104.01 34 70.02 34 35 C22.78 35 11.56 35 0 35 C0 23.45 0 11.9 0 0 Z " fill="#4376B8" transform="translate(163,14)"/>
<path d="M0 0 C11.55 0 23.1 0 35 0 C35 11.55 35 23.1 35 35 C23.78 35 12.56 35 1 35 C1 43.91 1 52.82 1 62 C0.67 62 0.34 62 0 62 C0 53.09 0 44.18 0 35 C-11.55 35 -23.1 35 -35 35 C-35 34.67 -35 34.34 -35 34 C-23.45 34 -11.9 34 0 34 C0 22.78 0 11.56 0 0 Z " fill="#EA1C8D" transform="translate(301,14)"/>
<path d="M0 0 C11.55 0 23.1 0 35 0 C35 11.55 35 23.1 35 35 C23.45 35 11.9 35 0 35 C0 23.45 0 11.9 0 0 Z " fill="#F9D402" transform="translate(232,153)"/>
<path d="M0 0 C11.55 0 23.1 0 35 0 C35.04125 5.40375 35.0825 10.8075 35.125 16.375 C35.14320801 18.07962402 35.16141602 19.78424805 35.18017578 21.54052734 C35.18601603 22.88899419 35.1911127 24.23746455 35.1953125 25.5859375 C35.20554443 26.28823486 35.21577637 26.99053223 35.22631836 27.71411133 C35.2269548 29.47768836 35.12266864 31.24069424 35 33 C31.87262163 36.12737837 28.50070958 35.29460211 24.23046875 35.32226562 C22.50763672 35.31743164 22.50763672 35.31743164 20.75 35.3125 C19.61691406 35.32861328 18.48382813 35.34472656 17.31640625 35.36132812 C6.37292968 35.36774282 6.37292968 35.36774282 2 32 C0.01556825 28.12604039 -0.23622684 24.92193162 -0.1953125 20.60546875 C-0.19031738 19.52160889 -0.18532227 18.43774902 -0.18017578 17.32104492 C-0.16196777 15.9569751 -0.14375977 14.59290527 -0.125 13.1875 C-0.08375 8.835625 -0.0425 4.48375 0 0 Z " fill="#EE5826" transform="translate(232,14)"/>
<path d="M0 0 C11.22 0 22.44 0 34 0 C34 11.55 34 23.1 34 35 C22.78 35 11.56 35 0 35 C0 23.45 0 11.9 0 0 Z " fill="#FAD502" transform="translate(198,118)"/>
<path d="M0 0 C11.22 0 22.44 0 34 0 C34 11.55 34 23.1 34 35 C22.78 35 11.56 35 0 35 C0 23.45 0 11.9 0 0 Z " fill="#F9D402" transform="translate(163,83)"/>
<path d="M0 0 C11.55 0 23.1 0 35 0 C35.061875 4.00125 35.12375 8.0025 35.1875 12.125 C35.22846802 14.00082764 35.22846802 14.00082764 35.27026367 15.91455078 C35.34888621 26.40939193 35.34888621 26.40939193 32 31 C28.61072088 34.24824154 26.09632642 34.355859 21.484375 34.29296875 C19.79393066 34.28172974 19.79393066 34.28172974 18.06933594 34.27026367 C16.64395508 34.24295166 15.21857422 34.21563965 13.75 34.1875 C9.2125 34.125625 4.675 34.06375 0 34 C0 22.78 0 11.56 0 0 Z " fill="#3F5DA8" transform="translate(198,49)"/>
<path d="M0 0 C11.22 0 22.44 0 34 0 C34 11.22 34 22.44 34 34 C22.78 34 11.56 34 0 34 C0 22.78 0 11.56 0 0 Z " fill="#3C5CA8" transform="translate(302,153)"/>
<path d="M0 0 C11.22 0 22.44 0 34 0 C34 11.22 34 22.44 34 34 C22.78 34 11.56 34 0 34 C0 22.78 0 11.56 0 0 Z " fill="#2AAD48" transform="translate(163,153)"/>
<path d="M0 0 C11.22 0 22.44 0 34 0 C34 11.22 34 22.44 34 34 C22.78 34 11.56 34 0 34 C0 22.78 0 11.56 0 0 Z " fill="#EE5625" transform="translate(302,84)"/>
<path d="M0 0 C11.22 0 22.44 0 34 0 C34 11.22 34 22.44 34 34 C22.78 34 11.56 34 0 34 C0 22.78 0 11.56 0 0 Z " fill="#3D5CA9" transform="translate(163,14)"/>
<path d="M0 0 C11.22 0 22.44 0 34 0 C34.1546875 7.0228125 34.1546875 7.0228125 34.3125 14.1875 C34.35802002 15.65598389 34.40354004 17.12446777 34.45043945 18.63745117 C34.46917114 20.38505737 34.46917114 20.38505737 34.48828125 22.16796875 C34.51446533 23.35672607 34.54064941 24.5454834 34.56762695 25.77026367 C33.8173186 30.03943753 32.47626136 31.4634597 29 34 C25.86206055 34.56762695 25.86206055 34.56762695 22.38671875 34.48828125 C21.13955078 34.47216797 19.89238281 34.45605469 18.60742188 34.43945312 C17.31384766 34.39755859 16.02027344 34.35566406 14.6875 34.3125 C13.37458984 34.28994141 12.06167969 34.26738281 10.70898438 34.24414062 C7.4714987 34.18527725 4.23633 34.10308804 1 34 C-0.47908271 31.04183458 -0.12201325 28.04551087 -0.09765625 24.8046875 C-0.09515869 23.51030762 -0.09266113 22.21592773 -0.09008789 20.88232422 C-0.08098389 19.22990723 -0.07187988 17.57749023 -0.0625 15.875 C-0.041875 10.63625 -0.02125 5.3975 0 0 Z " fill="#EE5825" transform="translate(267,49)"/>
<path d="M0 0 C10.89 0 21.78 0 33 0 C33 11.22 33 22.44 33 34 C22.11 34 11.22 34 0 34 C0 22.78 0 11.56 0 0 Z " fill="#3D5CA9" transform="translate(233,84)"/>
<path d="M0 0 C0.67224609 -0.02900391 1.34449219 -0.05800781 2.03710938 -0.08789062 C7.09555545 -0.15192159 10.10809655 0.85656264 13.8125 4.3125 C14.58203125 7.44140625 14.58203125 7.44140625 14.625 10.875 C14.70791716 15.67912645 14.70791716 15.67912645 15.8125 20.3125 C16.30737223 24.76635008 16.37036481 26.59967274 13.5625 30.1875 C9.45290815 33.3630937 6.28234945 33.43733962 1.171875 33.41015625 C0.20733398 33.40765869 -0.75720703 33.40516113 -1.75097656 33.40258789 C-3.57580566 33.38893188 -3.57580566 33.38893188 -5.4375 33.375 C-9.315 33.354375 -13.1925 33.33375 -17.1875 33.3125 C-17.1875 22.7525 -17.1875 12.1925 -17.1875 1.3125 C-11.39402051 0.66878006 -5.80047862 0.08488505 0 0 Z " fill="#0E0E0E" transform="translate(274.1875,202.6875)"/>
<path d="M0 0 C9.81340965 -0.26733466 9.81340965 -0.26733466 14.62890625 3.15625 C17.22770204 5.75504579 15.91245404 12.97711379 15.94140625 16.46875 C15.97041016 17.62310547 15.99941406 18.77746094 16.02929688 19.96679688 C16.03767578 21.07732422 16.04605469 22.18785156 16.0546875 23.33203125 C16.06927002 24.35208252 16.08385254 25.37213379 16.09887695 26.4230957 C15.49504484 29.93473232 14.49403317 31.07807551 11.62890625 33.15625 C9.14282227 33.67382812 9.14282227 33.67382812 6.3828125 33.6875 C5.38056641 33.69265625 4.37832031 33.6978125 3.34570312 33.703125 C2.30478516 33.68765625 1.26386719 33.6721875 0.19140625 33.65625 C-0.84564453 33.67171875 -1.88269531 33.6871875 -2.95117188 33.703125 C-7.21085343 33.68123839 -10.59036625 33.46968772 -14.5625 31.875 C-17.59780776 27.31220475 -17.00962804 22.49611734 -16.87109375 17.15625 C-16.87367188 16.063125 -16.87625 14.97 -16.87890625 13.84375 C-16.76757804 4.75936847 -16.76757804 4.75936847 -13.37109375 1.15625 C-9.12465729 -0.12259959 -4.40790334 0.20430606 0 0 Z " fill="#0B0B0B" transform="translate(236.37109375,202.84375)"/>
<path d="M0 0 C1.68996094 -0.05800781 1.68996094 -0.05800781 3.4140625 -0.1171875 C4.46078125 -0.15457031 5.5075 -0.19195312 6.5859375 -0.23046875 C10.80512826 0.35315028 12.65326364 1.12669919 15.6640625 4.1953125 C16.49060998 8.02441229 16.36419879 11.73311751 16.2265625 15.6328125 C16.22462891 16.66986328 16.22269531 17.70691406 16.22070312 18.77539062 C16.12078374 24.53740863 15.94215157 28.91722343 11.6640625 33.1953125 C7.73384425 33.47637698 3.79063139 33.42714965 -0.1484375 33.4453125 C-1.25509766 33.4659375 -2.36175781 33.4865625 -3.50195312 33.5078125 C-5.10006836 33.51554687 -5.10006836 33.51554687 -6.73046875 33.5234375 C-7.70862549 33.5327832 -8.68678223 33.54212891 -9.69458008 33.55175781 C-12.8569982 33.12499652 -14.18544624 32.55822881 -16.3359375 30.1953125 C-16.83764648 27.515625 -16.83764648 27.515625 -16.83203125 24.3203125 C-16.83267578 23.17046875 -16.83332031 22.020625 -16.83398438 20.8359375 C-16.81400391 19.63453125 -16.79402344 18.433125 -16.7734375 17.1953125 C-16.78052734 15.99390625 -16.78761719 14.7925 -16.79492188 13.5546875 C-16.73048728 4.71227793 -16.73048728 4.71227793 -14.93530273 2.36010742 C-10.93433088 -0.5537434 -4.75309422 0.2782842 0 0 Z " fill="#0C0C0C" transform="translate(166.3359375,202.8046875)"/>
<path d="M0 0 C1.17949219 -0.00580078 1.17949219 -0.00580078 2.3828125 -0.01171875 C3.15882813 -0.01042969 3.93484375 -0.00914063 4.734375 -0.0078125 C5.78189941 -0.00612061 5.78189941 -0.00612061 6.85058594 -0.00439453 C10.00168148 0.16553634 13.12604193 0.67872028 16.25 1.125 C16.25 12.345 16.25 23.565 16.25 35.125 C12.29 35.125 8.33 35.125 4.25 35.125 C4.25 34.465 4.25 33.805 4.25 33.125 C1.28 33.125 -1.69 33.125 -4.75 33.125 C-4.75 32.465 -4.75 31.805 -4.75 31.125 C-5.513125 31.08375 -6.27625 31.0425 -7.0625 31 C-9.75 30.125 -9.75 30.125 -11.5625 27.75 C-13.44086714 22.01603714 -13.66961243 15.88383729 -11.75 10.125 C-12.74 11.115 -13.73 12.105 -14.75 13.125 C-15.74 12.795 -16.73 12.465 -17.75 12.125 C-17.38265306 5.75765306 -17.38265306 5.75765306 -14.375 2.75 C-9.64514429 -0.17800592 -5.39347236 -0.02601353 0 0 Z " fill="#3D5CA9" transform="translate(284.75,116.875)"/>
<path d="M0 0 C1.24265625 -0.00128906 2.4853125 -0.00257812 3.765625 -0.00390625 C5.0546875 -0.00003906 6.34375 0.00382812 7.671875 0.0078125 C8.97640625 0.00394531 10.2809375 0.00007813 11.625 -0.00390625 C13.48125 -0.00197266 13.48125 -0.00197266 15.375 0 C16.51098633 0.00112793 17.64697266 0.00225586 18.81738281 0.00341797 C21.421875 0.1328125 21.421875 0.1328125 22.421875 1.1328125 C22.65608868 4.08864841 22.79288094 6.98518048 22.859375 9.9453125 C22.90513672 10.76580078 22.95089844 11.58628906 22.99804688 12.43164062 C23.0423648 14.80746701 23.00436016 16.82692979 22.421875 19.1328125 C19.53515625 21.5078125 19.53515625 21.5078125 16.421875 23.1328125 C15.03570111 25.09655885 13.69175469 27.09193442 12.421875 29.1328125 C8.46751459 31.1099927 3.72108743 30.70273691 -0.578125 30.1328125 C-3.765625 27.7578125 -3.765625 27.7578125 -5.578125 25.1328125 C-5.578125 24.4728125 -5.578125 23.8128125 -5.578125 23.1328125 C-6.898125 22.8028125 -8.218125 22.4728125 -9.578125 22.1328125 C-9.578125 21.1428125 -9.578125 20.1528125 -9.578125 19.1328125 C-10.238125 19.1328125 -10.898125 19.1328125 -11.578125 19.1328125 C-11.578125 13.1928125 -11.578125 7.2528125 -11.578125 1.1328125 C-7.45194993 0.30757749 -4.15585542 0.00411006 0 0 Z " fill="#F28720" transform="translate(244.578125,47.8671875)"/>
<path d="M0 0 C1.78569161 1.78569161 1.21468103 4.33653738 1.25 6.75 C1.27578125 7.79671875 1.3015625 8.8434375 1.328125 9.921875 C0.9560428 13.4123604 0.09034813 15.20635717 -2 18 C-2.99 18.66 -3.98 19.32 -5 20 C-4.566875 20.55429688 -4.13375 21.10859375 -3.6875 21.6796875 C-3.130625 22.40414062 -2.57375 23.12859375 -2 23.875 C-1.443125 24.59429687 -0.88625 25.31359375 -0.3125 26.0546875 C1 28 1 28 1 30 C-3.25284602 30.88600959 -3.25284602 30.88600959 -6 30 C-7.859375 27.80859375 -7.859375 27.80859375 -9.75 25.0625 C-12.59333272 21.06040864 -12.59333272 21.06040864 -16.953125 19.11328125 C-20.32185226 18.79727705 -20.32185226 18.79727705 -25 19 C-25 22.63 -25 26.26 -25 30 C-26.98 30 -28.96 30 -31 30 C-31 19.44 -31 8.88 -31 -2 C-7.70786517 -4.58801498 -7.70786517 -4.58801498 0 0 Z " fill="#0C0C0C" transform="translate(325,206)"/>
<path d="M0 0 C7.63584366 -0.76358437 7.63584366 -0.76358437 10.86328125 1.04296875 C12.4375 2.375 12.4375 2.375 15 5 C15.66 5.66 16.32 6.32 17 7 C19 9 19 9 19 13 C19.66 13.33 20.32 13.66 21 14 C21.33 13.34 21.66 12.68 22 12 C22 17.61 22 23.22 22 29 C10.78 29 -0.44 29 -12 29 C-12 16.625 -12 16.625 -11 11 C-10.34 11 -9.68 11 -9 11 C-9 10.34 -9 9.68 -9 9 C-8.34 9 -7.68 9 -7 9 C-6.8453125 8.1028125 -6.8453125 8.1028125 -6.6875 7.1875 C-5.89496146 4.66578648 -5.08408591 3.60314301 -3 2 C-2.01 2 -1.02 2 0 2 C0 1.34 0 0.68 0 0 Z " fill="#4376B8" transform="translate(245,123)"/>
<path d="M0 0 C4.558125 -0.04125 9.11625 -0.0825 13.8125 -0.125 C15.96422729 -0.15231201 15.96422729 -0.15231201 18.15942383 -0.18017578 C19.28888428 -0.1851709 20.41834473 -0.19016602 21.58203125 -0.1953125 C22.73936768 -0.20578613 23.8967041 -0.21625977 25.08911133 -0.22705078 C28 0 28 0 31 2 C32.76210149 6.08065609 33.47097366 9.57284762 33 14 C31.72428381 16.95429011 30.81612134 18.53774377 28 20.1328125 C23.70997484 21.3728979 19.62672315 21.21106995 15.1875 21.125 C14.30384766 21.11597656 13.42019531 21.10695312 12.50976562 21.09765625 C10.33972641 21.07419637 8.16982753 21.03832865 6 21 C6 24.63 6 28.26 6 32 C4.02 32 2.04 32 0 32 C0 21.44 0 10.88 0 0 Z " fill="#0A0A0A" transform="translate(77,204)"/>
<path d="M0 0 C11.55 0 23.1 0 35 0 C35 11.55 35 23.1 35 35 C23.78 35 12.56 35 1 35 C1 43.91 1 52.82 1 62 C0.67 62 0.34 62 0 62 C0 53.09 0 44.18 0 35 C-11.55 35 -23.1 35 -35 35 C-35 34.67 -35 34.34 -35 34 C-23.45 34 -11.9 34 0 34 C0 22.78 0 11.56 0 0 Z M12 6 C11.07767578 6.89138672 11.07767578 6.89138672 10.13671875 7.80078125 C7.02747812 11.00971697 5.19457543 13.1468616 4.1875 17.5625 C5.14641035 21.61942841 6.70734743 23.50530662 9.58984375 26.421875 C11 28 11 28 12 31 C19.11113448 34.76471825 26.10761461 34.2992899 34 34 C34.11698258 30.79197767 34.18750607 27.58450975 34.25 24.375 C34.28351563 23.47136719 34.31703125 22.56773438 34.3515625 21.63671875 C34.43796895 15.71787716 33.88623342 12.53154893 30 8 C27.36557376 5.54737042 27.36557376 5.54737042 24 5 C24 4.01 24 3.02 24 2 C18.38781727 1.55982881 15.99155087 2.00844913 12 6 Z " fill="#EA238F" transform="translate(301,14)"/>
<path d="M0 0 C11.22 0 22.44 0 34 0 C34 11.55 34 23.1 34 35 C22.78 35 11.56 35 0 35 C0 23.45 0 11.9 0 0 Z M2.625 9.75 C0.48112116 14.03775768 0.47062858 16.23565719 1 21 C2.8255289 25.13146015 5.65952958 27.99357662 9 31 C11.88211302 31.96070434 13.69850044 32.10581883 16.6875 32.0625 C17.49574219 32.05347656 18.30398437 32.04445313 19.13671875 32.03515625 C19.75160156 32.02355469 20.36648437 32.01195312 21 32 C21 30.68 21 29.36 21 28 C21.763125 27.9175 22.52625 27.835 23.3125 27.75 C26.64306891 26.82053891 27.25611403 25.93312626 29 23 C29.66669846 19.27204443 29.60246642 15.73639723 29 12 C26.91439 8.74218259 26.91439 8.74218259 24 7 C23.01 7 22.02 7 21 7 C20.67 6.01 20.34 5.02 20 4 C12.88625168 0.44312584 7.25268426 4.39162876 2.625 9.75 Z " fill="#F9EA2A" transform="translate(198,118)"/>
<path d="M0 0 C11.22 0 22.44 0 34 0 C34 11.55 34 23.1 34 35 C22.78 35 11.56 35 0 35 C0 23.45 0 11.9 0 0 Z M3.5625 9.0625 C1.13744756 13.62159859 1.26587493 17.95010939 2 23 C4.13646525 27.43118719 6.37577522 30.2290203 11 32 C14.68138034 32.23398604 18.31704771 32.17415011 22 32 C22 31.01 22 30.02 22 29 C22.598125 28.731875 23.19625 28.46375 23.8125 28.1875 C26.08685949 26.95284771 27.38341055 26.0128565 29 24 C30.08196656 19.2173942 29.82410117 14.76629784 27.74609375 10.3125 C25.49058804 7.04698825 23.49729901 4.61839238 19.77734375 3.08203125 C12.8002147 1.87330049 8.79340992 4.63634545 3.5625 9.0625 Z " fill="#FAEC1B" transform="translate(163,83)"/>
<path d="M0 0 C1.98 0 3.96 0 6 0 C6 4.29 6 8.58 6 13 C12.93 13 19.86 13 27 13 C27 8.71 27 4.42 27 0 C28.98 0 30.96 0 33 0 C33 10.56 33 21.12 33 32 C31.02 32 29.04 32 27 32 C27 27.71 27 23.42 27 19 C20.07 19 13.14 19 6 19 C6 23.29 6 27.58 6 32 C4.02 32 2.04 32 0 32 C0 21.44 0 10.88 0 0 Z " fill="#090909" transform="translate(112,204)"/>
<path d="M0 0 C0.69867188 0.01546875 1.39734375 0.0309375 2.1171875 0.046875 C7.5187853 0.19636571 12.89336013 0.59141386 18.25 1.3125 C18.25 3.2925 18.25 5.2725 18.25 7.3125 C9.67 7.3125 1.09 7.3125 -7.75 7.3125 C-7.75 13.9125 -7.75 20.5125 -7.75 27.3125 C0.83 27.3125 9.41 27.3125 18.25 27.3125 C18.25 29.2925 18.25 31.2725 18.25 33.3125 C14.02119589 33.45791967 9.79303587 33.54661527 5.5625 33.625 C4.36431641 33.66689453 3.16613281 33.70878906 1.93164062 33.75195312 C-6.74375597 33.87278038 -6.74375597 33.87278038 -9.66259766 32.24755859 C-14.67834003 27.33288911 -14.0665334 22.00306665 -14.1875 15.4375 C-14.23326172 14.43074219 -14.27902344 13.42398438 -14.32617188 12.38671875 C-14.43842049 5.03687486 -14.43842049 5.03687486 -11.20703125 1.63671875 C-7.33495566 0.15351692 -4.07975932 -0.17975951 0 0 Z " fill="#0E0E0E" transform="translate(353.75,202.6875)"/>
<path d="M0 0 C1.98 0 3.96 0 6 0 C6 4.29 6 8.58 6 13 C8.64 13 11.28 13 14 13 C14.25265625 12.43796875 14.5053125 11.8759375 14.765625 11.296875 C16.18059802 8.66395052 17.8232878 6.53517028 19.75 4.25 C20.40484375 3.45078125 21.0596875 2.6515625 21.734375 1.828125 C24.63254665 -0.51039971 26.37113679 -0.35251814 30 0 C29.45230629 4.18238834 27.10111111 6.59868545 24.4375 9.75 C23.61121094 10.73484375 22.78492188 11.7196875 21.93359375 12.734375 C21.29550781 13.48203125 20.65742188 14.2296875 20 15 C22.09710919 19.86252791 25.705049 23.542534 29.1015625 27.5390625 C31 30 31 30 31 32 C27.80859375 32.37109375 27.80859375 32.37109375 24 32 C22.00779724 30.00779724 20.61741139 28.34528363 19.0625 26.0625 C15.96301224 21.78041031 15.96301224 21.78041031 11.58203125 18.98046875 C9.18283745 18.66409806 9.18283745 18.66409806 6 19 C6 23.29 6 27.58 6 32 C4.02 32 2.04 32 0 32 C0 21.44 0 10.88 0 0 Z " fill="#090909" transform="translate(377,204)"/>
<path d="M0 0 C11.22 0 22.44 0 34 0 C34 11.22 34 22.44 34 34 C22.78 34 11.56 34 0 34 C0 31.03 0 28.06 0 25 C1.32 24.67 2.64 24.34 4 24 C4 24.66 4 25.32 4 26 C4.99 26.33 5.98 26.66 7 27 C7 27.66 7 28.32 7 29 C8.5778125 28.9690625 8.5778125 28.9690625 10.1875 28.9375 C14 29 14 29 16.625 29.5625 C19.46179091 30.08506675 21.27702272 29.95672175 24 29 C25.24174796 27.0998823 25.24174796 27.0998823 26 25 C26.66 24.34 27.32 23.68 28 23 C28.35827142 20.20654922 28.35827142 20.20654922 28.3125 17.0625 C28.32925781 16.00160156 28.34601563 14.94070312 28.36328125 13.84765625 C27.95293662 10.63108383 27.33746993 10.06610139 25 8 C25 7.01 25 6.02 25 5 C16.74720228 1.61045808 8.80426458 1.31328058 0 1 C0 0.67 0 0.34 0 0 Z " fill="#405EAA" transform="translate(163,14)"/>
<path d="M0 0 C11.55 0 23.1 0 35 0 C35 11.55 35 23.1 35 35 C23.45 35 11.9 35 0 35 C0 23.45 0 11.9 0 0 Z M8 9 C7.01 9.33 6.02 9.66 5 10 C3.73004582 12.36597942 3.73004582 12.36597942 2.8125 15.3125 C2.46832031 16.27800781 2.12414062 17.24351562 1.76953125 18.23828125 C0.59916314 23.31948359 0.59916314 23.31948359 1 34 C11.89 34 22.78 34 34 34 C34.06069123 27.01232832 34.06069123 27.01232832 33.625 20.125 C33.52058594 19.04605469 33.52058594 19.04605469 33.4140625 17.9453125 C33.05876788 15.68805131 33.05876788 15.68805131 31 13 C30.34 13 29.68 13 29 13 C28.71125 12.21625 28.4225 11.4325 28.125 10.625 C27.15087746 7.90328368 27.15087746 7.90328368 25 6 C18.15160103 4.04331458 13.33004716 4.11412343 8 9 Z " fill="#FBEC21" transform="translate(232,153)"/>
<path d="M0 0 C0.75732422 0.00644531 1.51464844 0.01289063 2.29492188 0.01953125 C3.08060547 0.03628906 3.86628906 0.05304688 4.67578125 0.0703125 C5.47306641 0.07933594 6.27035156 0.08835938 7.09179688 0.09765625 C9.05742025 0.12119665 11.022889 0.15706703 12.98828125 0.1953125 C13.04619969 3.32023501 13.08184871 6.44502016 13.11328125 9.5703125 C13.13003906 10.45976562 13.14679688 11.34921875 13.1640625 12.265625 C13.17050781 13.11640625 13.17695313 13.9671875 13.18359375 14.84375 C13.19406738 15.62927246 13.20454102 16.41479492 13.21533203 17.22412109 C12.98828125 19.1953125 12.98828125 19.1953125 10.98828125 21.1953125 C9.10888672 21.42236328 9.10888672 21.42236328 6.85546875 21.390625 C6.04980469 21.38417969 5.24414062 21.37773437 4.4140625 21.37109375 C3.57230469 21.35433594 2.73054687 21.33757812 1.86328125 21.3203125 C0.58904297 21.30677734 0.58904297 21.30677734 -0.7109375 21.29296875 C-2.81131759 21.26936897 -4.91155319 21.23349733 -7.01171875 21.1953125 C-7.09859371 18.07048688 -7.15206443 14.94597004 -7.19921875 11.8203125 C-7.22435547 10.93085938 -7.24949219 10.04140625 -7.27539062 9.125 C-7.28505859 8.27421875 -7.29472656 7.4234375 -7.3046875 6.546875 C-7.32039795 5.76135254 -7.3361084 4.97583008 -7.35229492 4.16650391 C-7.23990479 3.51601074 -7.12751465 2.86551758 -7.01171875 2.1953125 C-3.96490814 0.16410543 -3.41053551 -0.05128625 0 0 Z " fill="#F7F7F7" transform="translate(233.01171875,208.8046875)"/>
<path d="M0 0 C0.74362793 0.01047363 1.48725586 0.02094727 2.25341797 0.03173828 C3.46191406 0.04140625 3.46191406 0.04140625 4.69482422 0.05126953 C5.95746094 0.07640625 5.95746094 0.07640625 7.24560547 0.10205078 C8.51984375 0.11558594 8.51984375 0.11558594 9.81982422 0.12939453 C11.9202043 0.15299431 14.02043991 0.18886595 16.12060547 0.22705078 C16.20748043 3.3518764 16.26095115 6.47639324 16.30810547 9.60205078 C16.33324219 10.49150391 16.35837891 11.38095703 16.38427734 12.29736328 C16.39394531 13.14814453 16.40361328 13.99892578 16.41357422 14.87548828 C16.42928467 15.66101074 16.44499512 16.4465332 16.46118164 17.25585938 C16.3487915 17.90635254 16.23640137 18.5568457 16.12060547 19.22705078 C13.07379486 21.25825785 12.51942223 21.47364953 9.10888672 21.42236328 C8.3515625 21.41591797 7.59423828 21.40947266 6.81396484 21.40283203 C6.02828125 21.38607422 5.24259766 21.36931641 4.43310547 21.35205078 C3.63582031 21.34302734 2.83853516 21.33400391 2.01708984 21.32470703 C0.05146647 21.30116663 -1.91400228 21.26529625 -3.87939453 21.22705078 C-3.93731297 18.10212827 -3.97296199 14.97734312 -4.00439453 11.85205078 C-4.02115234 10.96259766 -4.03791016 10.07314453 -4.05517578 9.15673828 C-4.06162109 8.30595703 -4.06806641 7.45517578 -4.07470703 6.57861328 C-4.08518066 5.79309082 -4.0956543 5.00756836 -4.10644531 4.19824219 C-3.7863793 1.41951854 -2.79886116 0.3381321 0 0 Z " fill="#F6F6F6" transform="translate(159.87939453125,208.77294921875)"/>
<path d="M0 0 C0.33 0 0.66 0 1 0 C1 11.22 1 22.44 1 34 C12.22 34 23.44 34 35 34 C35 34.33 35 34.66 35 35 C23.78 35 12.56 35 1 35 C1 46.22 1 57.44 1 69 C12.22 69 23.44 69 35 69 C35 69.33 35 69.66 35 70 C23.45 70 11.9 70 0 70 C0 58.45 0 46.9 0 35 C-11.22 35 -22.44 35 -34 35 C-34 27.08 -34 19.16 -34 11 C-32.68 11 -31.36 11 -30 11 C-27.74934898 9.08333079 -27.74934898 9.08333079 -26 7 C-26.48726563 8.06347656 -26.48726563 8.06347656 -26.984375 9.1484375 C-28.06006145 12.16863406 -28.26758833 14.43271815 -28.25 17.625 C-28.25515625 18.56601563 -28.2603125 19.50703125 -28.265625 20.4765625 C-28.17167307 23.24575221 -28.17167307 23.24575221 -26 26 C-26 26.99 -26 27.98 -26 29 C-24.35 29.33 -22.7 29.66 -21 30 C-21 30.66 -21 31.32 -21 32 C-18.03 32 -15.06 32 -12 32 C-12 32.66 -12 33.32 -12 34 C-8.04 34 -4.08 34 0 34 C0 22.78 0 11.56 0 0 Z " fill="#6E84BF" transform="translate(301,118)"/>
<path d="M0 0 C10.56 0 21.12 0 32 0 C32 1.98 32 3.96 32 6 C27.71 6 23.42 6 19 6 C19 14.58 19 23.16 19 32 C17.02 32 15.04 32 13 32 C13 23.42 13 14.84 13 6 C8.71 6 4.42 6 0 6 C0 4.02 0 2.04 0 0 Z " fill="#0A0A0A" transform="translate(185,204)"/>
<path d="M0 0 C6.17524411 0.37051465 8.71414667 1.81381768 13 6 C15.13586678 9.20380017 15.23132175 10.01939967 15.125 13.6875 C15.10695313 14.49574219 15.08890625 15.30398437 15.0703125 16.13671875 C15.04710937 16.75160156 15.02390625 17.36648437 15 18 C15.33 18 15.66 18 16 18 C16.61385129 25.24344527 16.61385129 25.24344527 13.8828125 28.609375 C10.38863608 31.50698472 8.86049182 31.59042219 4.38671875 31.48828125 C3.13955078 31.47216797 1.89238281 31.45605469 0.60742188 31.43945312 C-0.68615234 31.39755859 -1.97972656 31.35566406 -3.3125 31.3125 C-4.62541016 31.28994141 -5.93832031 31.26738281 -7.29101562 31.24414062 C-10.5285013 31.18527725 -13.76367 31.10308804 -17 31 C-18.66413655 27.6717269 -17.81867406 24.00266027 -17.5625 20.375 C-17.51029297 19.57320312 -17.45808594 18.77140625 -17.40429688 17.9453125 C-17.27451629 15.96320897 -17.13790265 13.98155501 -17 12 C-16.34 12 -15.68 12 -15 12 C-14.86722656 12.61488281 -14.73445313 13.22976562 -14.59765625 13.86328125 C-14.42105469 14.67152344 -14.24445313 15.47976562 -14.0625 16.3125 C-13.88847656 17.11300781 -13.71445312 17.91351563 -13.53515625 18.73828125 C-12.79373051 22.51658781 -12.79373051 22.51658781 -10.27734375 25.19921875 C-5.07285439 27.02927075 1.10583249 25.81178608 6.0625 23.6875 C8.69414107 21.39542552 9.80419975 19.2727016 10.3359375 15.81640625 C10.40348328 11.91901464 10.32786338 9.58006599 8.375 6.125 C5.75608395 3.78175932 3.21705298 2.38918197 0 1 C0 0.67 0 0.34 0 0 Z " fill="#ED5323" transform="translate(285,52)"/>
<path d="M0 0 C5.28 0 10.56 0 16 0 C16.33 0.66 16.66 1.32 17 2 C16.30132812 2.32613281 15.60265625 2.65226563 14.8828125 2.98828125 C13.51769531 3.64376953 13.51769531 3.64376953 12.125 4.3125 C11.22007812 4.74175781 10.31515625 5.17101562 9.3828125 5.61328125 C6.73550524 6.9199388 6.73550524 6.9199388 5 10 C4.28761575 15.27661359 4.39756781 19.72819871 6.6875 24.5625 C9.77667189 27.81865415 11.82230257 28.8973476 16.3203125 29.109375 C18.5516301 29.12336445 20.77057494 29.08742843 23 29 C23 28.34 23 27.68 23 27 C24.96147874 25.61061923 26.96166576 24.2739589 29 23 C27.60371142 27.31580106 25.7615857 31.32962049 22 34 C18.19925405 34.74459607 14.54164066 34.56586315 10.6875 34.375 C7.160625 34.25125 3.63375 34.1275 0 34 C0 22.78 0 11.56 0 0 Z " fill="#3B5AA7" transform="translate(302,153)"/>
<path d="M0 0 C1.17949219 -0.00580078 1.17949219 -0.00580078 2.3828125 -0.01171875 C3.15882813 -0.01042969 3.93484375 -0.00914063 4.734375 -0.0078125 C5.78189941 -0.00612061 5.78189941 -0.00612061 6.85058594 -0.00439453 C10.00168148 0.16553634 13.12604193 0.67872028 16.25 1.125 C16.25 12.345 16.25 23.565 16.25 35.125 C12.29 35.125 8.33 35.125 4.25 35.125 C3.92 34.135 3.59 33.145 3.25 32.125 C3.9925 31.856875 4.735 31.58875 5.5 31.3125 C9.17727296 29.72458668 11.5252693 28.42951526 13.5 24.875 C14.66270682 20.61174166 15.14985697 17.10396833 13.26953125 12.96875 C11.04898245 9.19723326 9.44659345 6.73476199 5.25 5.125 C1.06055069 4.82575362 -2.27283389 4.60705212 -5.75 7.125 C-7.97816986 9.65942406 -7.97816986 9.65942406 -9.75 12.125 C-10.41 11.795 -11.07 11.465 -11.75 11.125 C-12.41 11.785 -13.07 12.445 -13.75 13.125 C-15.875 12.75 -15.875 12.75 -17.75 12.125 C-17.38265306 5.75765306 -17.38265306 5.75765306 -14.375 2.75 C-9.64514429 -0.17800592 -5.39347236 -0.02601353 0 0 Z " fill="#475FA4" transform="translate(284.75,116.875)"/>
<path d="M0 0 C10.89 0 21.78 0 33 0 C33.061875 2.76375 33.12375 5.5275 33.1875 8.375 C33.22846802 9.67896729 33.22846802 9.67896729 33.27026367 11.00927734 C33.29211768 13.0080965 33.14920378 15.00663756 33 17 C32.01 17.66 31.02 18.32 30 19 C29.76925781 18.39671875 29.53851563 17.7934375 29.30078125 17.171875 C26.57822735 10.42822513 26.57822735 10.42822513 21 6 C15.52036048 5.39115116 11.54769436 5.58922923 7 9 C5.34751434 11.89441588 4.11762611 14.86407263 3 18 C2.01 18 1.02 18 0 18 C0 12.06 0 6.12 0 0 Z " fill="#EC5222" transform="translate(233,14)"/>
<path d="M0 0 C0.66 0 1.32 0 2 0 C2 0.99 2 1.98 2 3 C2.556875 3.04125 3.11375 3.0825 3.6875 3.125 C6 4 6 4 8.0625 7.0625 C9.8552532 9.3874768 10.69787855 9.93840679 13.625 10.53515625 C19.35606666 10.72396155 19.35606666 10.72396155 24.375 8.3125 C24.91125 7.549375 25.4475 6.78625 26 6 C30.65909091 1.11363636 30.65909091 1.11363636 34 0 C34.495 7.92 34.495 7.92 35 16 C23.45 16 11.9 16 0 16 C-1.52634923 12.94730154 -0.83794444 10.24154311 -0.5625 6.875 C-0.46066406 5.59367187 -0.35882813 4.31234375 -0.25390625 2.9921875 C-0.12822266 1.51105469 -0.12822266 1.51105469 0 0 Z " fill="#F58E2C" transform="translate(233,67)"/>
<path d="M0 0 C0.33 0 0.66 0 1 0 C1.18175781 0.60328125 1.36351562 1.2065625 1.55078125 1.828125 C3.32909351 7.9382165 3.32909351 7.9382165 7 13 C10.48812075 14.49490889 14.26914397 14.26181446 18 14 C22.55819188 11.77155063 24.9349414 9.63789241 26.625 4.875 C26.88539063 4.15054688 27.14578125 3.42609375 27.4140625 2.6796875 C27.70410156 1.84824219 27.70410156 1.84824219 28 1 C33.32884503 6.32884503 31 11.92522345 31 20 C20.11 20 9.22 20 -2 20 C-2 6.5 -2 6.5 0 0 Z " fill="#3A59A7" transform="translate(235,98)"/>
<path d="M0 0 C0.33 0 0.66 0 1 0 C1 11.22 1 22.44 1 34 C12.22 34 23.44 34 35 34 C35 34.33 35 34.66 35 35 C23.78 35 12.56 35 1 35 C1 80.87 1 126.74 1 174 C-10.55 174 -22.1 174 -34 174 C-34 173.67 -34 173.34 -34 173 C-22.78 173 -11.56 173 0 173 C0 161.78 0 150.56 0 139 C-11.22 139 -22.44 139 -34 139 C-34 138.67 -34 138.34 -34 138 C-22.78 138 -11.56 138 0 138 C0 104.01 0 70.02 0 35 C-11.22 35 -22.44 35 -34 35 C-34 34.67 -34 34.34 -34 34 C-22.78 34 -11.56 34 0 34 C0 22.78 0 11.56 0 0 Z " fill="#A0BEB2" transform="translate(197,14)"/>
<path d="M0 0 C5.94 0 11.88 0 18 0 C18 11.22 18 22.44 18 34 C14.04 34 10.08 34 6 34 C10.625 27.25 10.625 27.25 14 25 C14.65070383 21.30681611 14.50152523 17.70908221 14 14 C12.39450853 11.47688989 12.39450853 11.47688989 10 10 C9.484375 9.2575 8.96875 8.515 8.4375 7.75 C4.43011114 4.87290031 -0.22702097 5.39635853 -5 6 C-7.27025439 6.93518349 -7.27025439 6.93518349 -9 8 C-9 7.34 -9 6.68 -9 6 C-6.03 4.35 -3.06 2.7 0 1 C0 0.67 0 0.34 0 0 Z " fill="#4664AD" transform="translate(318,153)"/>
<path d="M0 0 C0.66 0 1.32 0 2 0 C2.15855469 0.68707031 2.31710938 1.37414062 2.48046875 2.08203125 C3.84454646 7.59423278 3.84454646 7.59423278 7.0625 12.125 C11.43260751 13.42673415 15.4918625 13.81696067 20 13 C22.98119541 10.77023837 22.98119541 10.77023837 25 8 C25.99 7.34 26.98 6.68 28 6 C28 7.65 28 9.3 28 11 C28.99 10.67 29.98 10.34 31 10 C31 12.97 31 15.94 31 19 C20.11 19 9.22 19 -2 19 C-2 5.5 -2 5.5 0 0 Z " fill="#F5E711" transform="translate(235,168)"/>
<path d="M0 0 C11.22 0 22.44 0 34 0 C34 19.75182482 34 19.75182482 29.39453125 24.73828125 C28.93433594 25.15464844 28.47414062 25.57101563 28 26 C28.165 25.34 28.33 24.68 28.5 24 C29.40623786 18.56257284 29.96145378 12.88639874 27 8 C25.03871245 7.1762044 25.03871245 7.1762044 23 7 C22.34 6.67 21.68 6.34 21 6 C21 5.01 21 4.02 21 3 C13.92657209 2.80328934 13.92657209 2.80328934 7 4 C5.69140351 5.69712207 5.69140351 5.69712207 5 8 C4.484375 8.9075 3.96875 9.815 3.4375 10.75 C1.71796884 14.63763567 1.36371538 17.78090164 1 22 C0.67 22 0.34 22 0 22 C0 14.74 0 7.48 0 0 Z " fill="#3AB54E" transform="translate(163,153)"/>
<path d="M0 0 C0 5.94 0 11.88 0 18 C-1.98 18.99 -1.98 18.99 -4 20 C-4.17015625 19.31292969 -4.3403125 18.62585938 -4.515625 17.91796875 C-4.75796875 17.01691406 -5.0003125 16.11585937 -5.25 15.1875 C-5.48203125 14.29417969 -5.7140625 13.40085937 -5.953125 12.48046875 C-7.18087356 9.57143765 -8.31453836 8.60017169 -11 7 C-15.07745996 5.64084668 -18.74097425 5.33826707 -23 6 C-25.70664317 7.41001812 -27.65290701 9.00247405 -30 11 C-29.19038973 6.35955089 -26.69487313 4.80810358 -23 2 C-20.01038479 0.00692319 -19.22129912 -0.2731443 -15.83984375 -0.44921875 C-14.6497168 -0.51399414 -14.6497168 -0.51399414 -13.43554688 -0.58007812 C-12.61119141 -0.61552734 -11.78683594 -0.65097656 -10.9375 -0.6875 C-10.10927734 -0.73455078 -9.28105469 -0.78160156 -8.42773438 -0.83007812 C-2.2712921 -1.13564605 -2.2712921 -1.13564605 0 0 Z " fill="#EF8320" transform="translate(267,49)"/>
<path d="M0 0 C12 0 12 0 17 1 C16.2265625 1.37125 16.2265625 1.37125 15.4375 1.75 C12.42705232 3.29270938 12.42705232 3.29270938 9.4375 4.875 C8.85871094 5.18179688 8.27992188 5.48859375 7.68359375 5.8046875 C5.53747186 7.32838425 4.34542228 8.73085497 3 11 C2.26761925 15.81791647 2.39018809 20.45942255 4.1875 25 C8.23785615 29.46935851 12.0851537 30.42011311 18 31 C17.01 31.99 16.02 32.98 15 34 C10.05 34 5.1 34 0 34 C0 22.78 0 11.56 0 0 Z " fill="#F7E810" transform="translate(163,84)"/>
<path d="M0 0 C2.5575 -0.061875 5.115 -0.12375 7.75 -0.1875 C8.94834473 -0.22846802 8.94834473 -0.22846802 10.17089844 -0.27026367 C13.49093022 -0.30915069 15.64143518 -0.21547296 18.515625 1.51171875 C19.00546875 2.00285156 19.4953125 2.49398438 20 3 C19.24074219 3.24234375 18.48148438 3.4846875 17.69921875 3.734375 C16.70535156 4.06953125 15.71148437 4.4046875 14.6875 4.75 C13.70136719 5.07484375 12.71523437 5.3996875 11.69921875 5.734375 C8.71105575 7.13548182 7.57793931 8.12815045 6 11 C5.05374598 15.68864606 5.55921522 19.2065874 7.875 23.375 C8.926875 24.674375 8.926875 24.674375 10 26 C10.66 26.99 11.32 27.98 12 29 C9.21788056 28.62403791 7.4120716 28.32681541 5.1875 26.5625 C4 25 4 25 4 23 C2.68 23.33 1.36 23.66 0 24 C0 16.08 0 8.16 0 0 Z " fill="#3959A7" transform="translate(163,15)"/>
<path d="M0 0 C14.625 0 14.625 0 22 2 C22.33 3.32 22.66 4.64 23 6 C22.34 6 21.68 6 21 6 C20.67 5.34 20.34 4.68 20 4 C15.42239754 2.63153779 11.93955707 2.54762067 7.625 4.625 C4.47374122 7.4761389 2.35107567 9.60098295 1.71875 13.921875 C1.51182522 18.50870768 2.26185096 21.20871672 5 25 C5.37125 26.0209375 5.37125 26.0209375 5.75 27.0625 C6.88050023 29.26579791 6.88050023 29.26579791 9.6015625 29.828125 C10.59929687 29.96734375 11.59703125 30.1065625 12.625 30.25 C13.62789062 30.39953125 14.63078125 30.5490625 15.6640625 30.703125 C16.43492187 30.80109375 17.20578125 30.8990625 18 31 C17.67 31.66 17.34 32.32 17 33 C11.39 33 5.78 33 0 33 C0 22.11 0 11.22 0 0 Z " fill="#F7E810" transform="translate(198,119)"/>
<path d="M0 0 C4.92289989 0.43437352 7.48750825 2.643619 11 6 C12.87341767 9.01099021 13.24045408 11.24458192 13.1953125 14.765625 C13.18886719 15.65507813 13.18242187 16.54453125 13.17578125 17.4609375 C13.15902344 18.38132812 13.14226562 19.30171875 13.125 20.25 C13.11597656 21.18585937 13.10695313 22.12171875 13.09765625 23.0859375 C13.07413636 25.39088657 13.04126853 27.6953116 13 30 C10.79194476 30.0544452 8.58349446 30.09299283 6.375 30.125 C5.14523437 30.14820312 3.91546875 30.17140625 2.6484375 30.1953125 C-0.94316041 30.0030428 -3.66661175 29.30258556 -7 28 C-7 27.34 -7 26.68 -7 26 C-5.80375 25.938125 -4.6075 25.87625 -3.375 25.8125 C1.44811241 25.22139031 3.63609595 23.44595049 7 20 C8.35203567 15.94389298 8.67875065 12.23659747 8 8 C5.81197419 5.06145926 5.81197419 5.06145926 3 3 C2 2 1 1 0 0 Z " fill="#E81E8C" transform="translate(322,18)"/>
<path d="M0 0 C0.66 0 1.32 0 2 0 C2.37125 1.216875 2.7425 2.43375 3.125 3.6875 C4.9081438 8.35684866 6.69890802 10.40311428 11 13 C15.41888762 13.99667525 18.27307584 13.3914207 22.25 11.25 C24.66270874 9.27596558 26.88000362 7.28307302 29 5 C28.28802558 9.93578023 26.5844984 12.72355765 23.24169922 16.359375 C19.03876617 19.43536172 14.56222124 18.83830254 9.5625 18.5 C8.54478516 18.46390625 7.52707031 18.4278125 6.47851562 18.390625 C3.98171728 18.29684854 1.49287512 18.16583025 -1 18 C-1.01358664 16.25392804 -1.02323706 14.50782519 -1.03125 12.76171875 C-1.03705078 11.78936279 -1.04285156 10.81700684 -1.04882812 9.81518555 C-0.99044911 6.44934349 -0.58843628 3.30995408 0 0 Z " fill="#3F73B7" transform="translate(234,134)"/>
<path d="M0 0 C6.6 0 13.2 0 20 0 C20 2.97 20 5.94 20 9 C13.4 9 6.8 9 0 9 C0 6.03 0 3.06 0 0 Z " fill="#F7F7F7" transform="translate(300,210)"/>
<path d="M0 0 C6.6 0 13.2 0 20 0 C20 2.97 20 5.94 20 9 C13.4 9 6.8 9 0 9 C0 6.03 0 3.06 0 0 Z " fill="#F8F8F8" transform="translate(83,210)"/>
<path d="M0 0 C6.6 0 13.2 0 20 0 C20 2.64 20 5.28 20 8 C13.4 8 6.8 8 0 8 C0 5.36 0 2.72 0 0 Z " fill="#EAEAEA" transform="translate(263,222)"/>
<path d="M0 0 C1.65 0 3.3 0 5 0 C5 10.23 5 20.46 5 31 C3.35 31 1.7 31 0 31 C0 20.77 0 10.54 0 0 Z " fill="#000000" transform="translate(331,204)"/>
<path d="M0 0 C0.33 0 0.66 0 1 0 C1.02578125 0.77085938 1.0515625 1.54171875 1.078125 2.3359375 C1.13484375 3.33882813 1.1915625 4.34171875 1.25 5.375 C1.29640625 6.37273437 1.3428125 7.37046875 1.390625 8.3984375 C1.71293384 11.11624612 1.71293384 11.11624612 3.859375 12.2265625 C4.56578125 12.48179688 5.2721875 12.73703125 6 13 C6.99 13.66 7.98 14.32 9 15 C11.73872955 15.45772063 11.73872955 15.45772063 14.6875 15.625 C15.68136719 15.69976562 16.67523438 15.77453125 17.69921875 15.8515625 C18.45847656 15.90054688 19.21773438 15.94953125 20 16 C18.1890941 18.29630336 17.19806066 18.95684393 14.29296875 19.58984375 C12.23065927 19.82071865 10.16815932 20.04989878 8.10546875 20.27734375 C4.41377608 21.13641689 2.02615206 22.76091888 -1 25 C-1.18451025 8.29157175 -1.18451025 8.29157175 0 0 Z " fill="#EF8622" transform="translate(268,98)"/>
<path d="M0 0 C-2.01732673 2.49199184 -3.51789742 3.21806207 -6.5625 4.5 C-10.20403585 5.72023305 -10.20403585 5.72023305 -12 9 C-12.27939399 11.3789529 -12.27939399 11.3789529 -12.1875 13.9375 C-12.18105469 14.79214844 -12.17460937 15.64679688 -12.16796875 16.52734375 C-12.01275689 18.81220668 -11.63624477 20.80622805 -11 23 C-9.68 23.33 -8.36 23.66 -7 24 C-7 24.66 -7 25.32 -7 26 C-6.195625 26.12375 -5.39125 26.2475 -4.5625 26.375 C-3.2940625 26.684375 -3.2940625 26.684375 -2 27 C-1.67 27.66 -1.34 28.32 -1 29 C-8.2081448 28.63348416 -8.2081448 28.63348416 -11.8125 25.75 C-15.39687647 21.24392672 -17.70597708 18.16710115 -17.48828125 12.12890625 C-16.55078181 8.04140868 -13.95718686 4.88936147 -11 2 C-7.30970036 -0.2844712 -4.30430852 -0.16555033 0 0 Z " fill="#A9992B" transform="translate(216,121)"/>
<path d="M0 0 C0.33 0 0.66 0 1 0 C1 11.22 1 22.44 1 34 C12.22 34 23.44 34 35 34 C35 34.33 35 34.66 35 35 C23.78 35 12.56 35 1 35 C1 43.91 1 52.82 1 62 C0.67 62 0.34 62 0 62 C0 53.09 0 44.18 0 35 C-11.55 35 -23.1 35 -35 35 C-35 34.67 -35 34.34 -35 34 C-23.45 34 -11.9 34 0 34 C0 22.78 0 11.56 0 0 Z " fill="#F389A2" transform="translate(301,14)"/>
<path d="M0 0 C0 0.66 0 1.32 0 2 C-0.54269531 2.25394531 -1.08539063 2.50789063 -1.64453125 2.76953125 C-2.71767578 3.28580078 -2.71767578 3.28580078 -3.8125 3.8125 C-4.52019531 4.14894531 -5.22789062 4.48539063 -5.95703125 4.83203125 C-8.12032243 6.06878854 -9.51459937 6.99332523 -11 9 C-11.43857932 11.56908134 -11.43857932 11.56908134 -11.3125 14.375 C-11.30863281 15.31085938 -11.30476562 16.24671875 -11.30078125 17.2109375 C-10.97484181 20.23328506 -10.49050796 22.34460275 -9 25 C-6.85401498 26.23634658 -6.85401498 26.23634658 -4.375 26.8125 C-3.55773437 27.04582031 -2.74046875 27.27914062 -1.8984375 27.51953125 C-0.95871094 27.75736328 -0.95871094 27.75736328 0 28 C0 28.33 0 28.66 0 29 C-3.91155321 29.30678849 -6.28082201 29.43485181 -9.6875 27.375 C-13.40442052 23.55762217 -16.21080823 20.40901494 -16.4375 14.9375 C-15.73141989 8.58277898 -12.79870961 5.11317967 -8 1 C-5.1466912 0.11683299 -2.98851494 0 0 0 Z " fill="#25397A" transform="translate(215,51)"/>
<path d="M0 0 C6.27 0 12.54 0 19 0 C19 1.98 19 3.96 19 6 C12.73 6 6.46 6 0 6 C0 4.02 0 2.04 0 0 Z " fill="#FDFDFD" transform="translate(263,210)"/>
<path d="M0 0 C-1.33779805 2.6755961 -2.62606617 2.79855665 -5.375 3.875 C-10.19453121 5.84297437 -10.19453121 5.84297437 -13 10 C-13.7153121 14.79625932 -13.50433536 18.06089278 -11.1875 22.375 C-9.52697382 24.36763142 -7.92596844 26.2666284 -6 28 C-10.40147657 27.49697411 -12.75395419 25.97554199 -16 23 C-18.11888851 18.76222299 -17.62137789 13.58998947 -17 9 C-14.98572314 5.05931742 -12.29649562 2.74548498 -8.5 0.5625 C-5.6005762 -0.08987035 -2.96242527 -0.13778722 0 0 Z " fill="#A85E23" transform="translate(286,86)"/>
<path d="M0 0 C3.75141566 1.25473971 7.02319907 2.48954744 9.22265625 5.890625 C10 8 10 8 10 12 C9.34 12 8.68 12 8 12 C7.319375 10.8553125 7.319375 10.8553125 6.625 9.6875 C4.89812768 6.83151885 3.95735833 5.51864347 1 4 C-4.48078943 3.46960102 -8.45006613 3.5875496 -13 7 C-14.65248566 9.89441588 -15.88237389 12.86407263 -17 16 C-17.33 16 -17.66 16 -18 16 C-18.50657287 10.68098483 -17.32610043 8.13515188 -14 4 C-9.81084809 -0.54822207 -5.87683092 -0.97621776 0 0 Z " fill="#AD3B20" transform="translate(253,16)"/>
<path d="M0 0 C2.12751496 1.91476346 3.40500366 3.65323171 4.9375 6.125 C6.66446255 9.01618149 6.66446255 9.01618149 8.8125 9.875 C9.534375 9.91625 10.25625 9.9575 11 10 C12.134375 10.0825 13.26875 10.165 14.4375 10.25 C20.72561755 9.80872859 23.79483229 6.445463 28 2 C28.4375 4.125 28.4375 4.125 28 7 C24.0226821 11.36356662 20.26450398 14.1367096 14.3125 14.4375 C9.29063694 14.40842988 6.91697673 13.05378744 3.375 9.60546875 C0.49835805 6.24666238 -0.23495229 4.34661745 0 0 Z " fill="#26428B" transform="translate(235,102)"/>
<path d="M0 0 C3.46628726 0.96285757 4.93417008 1.92349495 7.3125 4.6875 C9.28982459 8.56891494 9.53797603 10.69619174 9 15 C7.26918726 19.64586577 5.29631838 22.47824791 1 25 C-1.99494977 25.59898995 -4.95114711 25.86715238 -8 26 C-7 24 -7 24 -5.2578125 23.32421875 C-4.20207031 23.00904297 -4.20207031 23.00904297 -3.125 22.6875 C-0.30863956 21.66291009 0.90192139 21.10420852 3 18.875 C4.40023167 14.84933394 4.58933912 11.21721888 4 7 C2.70208018 4.10960374 2.70208018 4.10960374 1 2 C0.67 1.34 0.34 0.68 0 0 Z " fill="#273F87" transform="translate(291,124)"/>
<path d="M0 0 C2 4 2 4 2 6 C13.22 6 24.44 6 36 6 C36 17.55 36 29.1 36 41 C35.67 41 35.34 41 35 41 C35 29.78 35 18.56 35 7 C21.47 7 7.94 7 -6 7 C-4.02 4.69 -2.04 2.38 0 0 Z " fill="#6B6F9A" transform="translate(231,77)"/>
<path d="M0 0 C6.17524411 0.37051465 8.71414667 1.81381768 13 6 C15.0670653 9.10059796 15.5951699 11.024175 15.51953125 14.73046875 C14.48197402 19.2629556 11.35378099 22.88480099 8 26 C5.765625 26.75390625 5.765625 26.75390625 4 27 C5.26953125 25.53515625 6.5390625 24.0703125 7.80859375 22.60546875 C10.75335555 18.63728154 10.58907915 13.71263316 10 9 C7.5349081 4.63868355 4.53794337 2.95956645 0 1 C0 0.67 0 0.34 0 0 Z " fill="#B73F22" transform="translate(285,52)"/>
<path d="M0 0 C1 3 1 3 0.21484375 4.75390625 C-2.73286157 8.92756852 -4.75565199 11.05601736 -10 12 C-13.51879821 12.51182519 -15.85430473 12.68103954 -18.96484375 10.83203125 C-21.9632613 8.44678702 -23.73421187 6.81508359 -24.9375 3.125 C-24.958125 2.42375 -24.97875 1.7225 -25 1 C-24.34 1 -23.68 1 -23 1 C-22.525625 1.804375 -22.05125 2.60875 -21.5625 3.4375 C-20.20016328 6.2918076 -20.20016328 6.2918076 -17 7 C-13.61062784 7.4021289 -10.3819698 7.49703071 -7 7 C-3.95524698 4.79086457 -3.95524698 4.79086457 -2 2 C-1.34 1.34 -0.68 0.68 0 0 Z " fill="#A7962B" transform="translate(262,174)"/>
<path d="M0 0 C1.32 0.33 2.64 0.66 4 1 C3.34 1.94875 2.68 2.8975 2 3.875 C-0.67400332 8.46035076 -0.37403169 12.83628477 0 18 C0.60585937 18.2990625 1.21171875 18.598125 1.8359375 18.90625 C5.23176385 20.62255213 8.29956574 22.29956574 11 25 C5.0851537 24.42011311 1.23785615 23.46935851 -2.8125 19 C-4.642468 14.37692294 -4.69820454 9.90213086 -4 5 C-2 1.8125 -2 1.8125 0 0 Z " fill="#1F7639" transform="translate(169,159)"/>
<path d="M0 0 C0.33 0 0.66 0 1 0 C1 6.27 1 12.54 1 19 C-2.96 19 -6.92 19 -11 19 C-11.33 18.01 -11.66 17.02 -12 16 C-11.2575 15.731875 -10.515 15.46375 -9.75 15.1875 C-6.05219487 13.59072051 -3.6856853 12.3352819 -1.8125 8.6875 C-0.94093623 5.80463521 -0.4159154 2.98072703 0 0 Z " fill="#3B5AA7" transform="translate(300,133)"/>
<path d="M0 0 C3.72509387 -0.56440816 5.69583431 0.22208924 8.6875 2.3125 C11.1476516 4.12897557 12.24450856 5.36676284 14 8 C14.71590616 13.30270029 14.58011473 17.75382761 12.3125 22.625 C9.79728886 25.20818982 8.55127795 25.80270678 5 26 C5 24 5 24 6.9375 22 C7.618125 21.34 8.29875 20.68 9 20 C10.73383086 16.53233829 10.4665538 12.79157105 10 9 C7.5349081 4.63868355 4.53794337 2.95956645 0 1 C0 0.67 0 0.34 0 0 Z " fill="#A4391F" transform="translate(320,87)"/>
<path d="M0 0 C-1.52994792 1.23697917 -3.05989583 2.47395833 -4.58984375 3.7109375 C-7.02942818 5.94102853 -7.2309262 7.94429391 -7.375 11.125 C-7.35767909 16.46850206 -5.16964026 19.84550724 -2 24 C-5.55127795 23.80270678 -6.79728886 23.20818982 -9.3125 20.625 C-11.62015055 15.66782475 -11.95006972 11.38106718 -11 6 C-8.41662687 1.10017052 -5.46943213 -1.64082964 0 0 Z " fill="#A9992B" transform="translate(176,89)"/>
<path d="M0 0 C5.05510556 0.44603873 7.40166738 2.64700824 11 6 C13.21067859 10.42135718 12.39783093 15.75970356 10.9375 20.3125 C8.30518401 23.96377701 6.12869343 25.18916955 2 27 C-0.4375 26.75 -0.4375 26.75 -2 26 C-0.906875 25.443125 0.18625 24.88625 1.3125 24.3125 C4.72887828 22.32076529 6.56115263 20.80871362 8 17 C8.50467774 13.88687548 8.61482121 11.10230884 8 8 C5.81197419 5.06145926 5.81197419 5.06145926 3 3 C2 2 1 1 0 0 Z " fill="#8F1958" transform="translate(322,18)"/>
<path d="M0 0 C-0.49371094 0.33773438 -0.98742187 0.67546875 -1.49609375 1.0234375 C-2.13675781 1.46945313 -2.77742187 1.91546875 -3.4375 2.375 C-4.07558594 2.81585937 -4.71367187 3.25671875 -5.37109375 3.7109375 C-7.40208684 5.31819822 -7.92583804 6.39211512 -8.23828125 8.953125 C-8.41955228 14.56298626 -7.64477792 17.49762727 -4 22 C-3.34 22.99 -2.68 23.98 -2 25 C-5.57849992 24.70179167 -6.76226484 24.25754642 -9.25 21.5625 C-12.49687377 16.80814913 -12.92550025 12.68885476 -12 7 C-9.07765796 1.98256351 -5.93571475 -1.78071442 0 0 Z " fill="#253A7D" transform="translate(177,19)"/>
<path d="M0 0 C2.26443852 2.10827035 3.94308363 3.89606576 5.4375 6.625 C7.42419456 9.64477574 8.49382703 10.16156733 12 11 C15.00862905 11.14663906 17.99087894 11.11800475 21 11 C21 10.34 21 9.68 21 9 C22.96147874 7.61061923 24.96166576 6.2739589 27 5 C25.87548273 7.9719385 24.77706209 10.33440687 23 13 C18.04467504 14.65177499 11.91292348 15.35430511 7.05078125 13.09375 C3.56877629 10.35726248 1.59294329 7.07085507 0 3 C0 2.01 0 1.02 0 0 Z " fill="#243676" transform="translate(304,171)"/>
<path d="M0 0 C0.391875 0.53625 0.78375 1.0725 1.1875 1.625 C4.9717455 7.0322677 4.9717455 7.0322677 10 11 C16.14465701 11.51205475 19.06949956 11.03404582 24 7 C25.36886951 5.70317626 26.7169291 4.38176866 28 3 C27.89152244 6.68823699 26.69810836 8.74704826 24.1875 11.3125 C19.98351022 14.67221026 15.99125964 14.79846492 10.74609375 14.5234375 C6.80938351 13.77305461 5.2475254 12.26253686 3 9 C2.401875 8.154375 1.80375 7.30875 1.1875 6.4375 C0 4 0 4 0 0 Z " fill="#1C5398" transform="translate(235,136)"/>
<path d="M0 0 C3.93136089 1.31045363 6.31206827 2.83208046 9 6 C10.24300889 9.72902668 10.52712352 13.12710637 10 17 C8.14884184 20.70231632 6.96464284 22.51767858 3.25 24.375 C2.5075 24.58125 1.765 24.7875 1 25 C1 23 1 23 2.9375 21 C3.618125 20.34 4.29875 19.68 5 19 C6.16297973 16.67404054 6.16600691 15.21276769 6.1875 12.625 C6.20167969 11.85414062 6.21585938 11.08328125 6.23046875 10.2890625 C5.97363926 7.73817979 5.35665696 6.1649787 4 4 C1.9664052 2.73195434 1.9664052 2.73195434 0 2 C0 1.34 0 0.68 0 0 Z " fill="#1E569D" transform="translate(220,88)"/>
<path d="M0 0 C0 0.66 0 1.32 0 2 C0.598125 2.103125 1.19625 2.20625 1.8125 2.3125 C4.28243264 3.08876455 5.32251235 4.07088921 7 6 C6.67 6.66 6.34 7.32 6 8 C5.1028125 7.2884375 5.1028125 7.2884375 4.1875 6.5625 C-0.13355268 3.4760338 -4.86680926 3.2024464 -10 4 C-12.70664317 5.41001812 -14.65290701 7.00247405 -17 9 C-16.29656483 5.30103751 -14.95996131 3.36728569 -11.96484375 0.97265625 C-8.19179286 -0.89511646 -4.0969871 -0.36435656 0 0 Z " fill="#A95F23" transform="translate(254,51)"/>
<path d="M0 0 C3.5505643 1.18352143 4.53231459 2.65052975 6.26171875 5.90234375 C7.61106403 9.73619779 7.22078054 13.1711883 6 17 C4.53780431 19.47760936 3.12092982 20.98253017 1 23 C0.34 23 -0.32 23 -1 23 C0.15173355 20.53199953 1.04783565 18.95216435 3 17 C3.35827142 14.20654922 3.35827142 14.20654922 3.3125 11.0625 C3.32925781 10.00160156 3.34601563 8.94070312 3.36328125 7.84765625 C2.9572152 4.66462241 2.37522606 3.99920082 0 2 C0 1.34 0 0.68 0 0 Z " fill="#748BC4" transform="translate(188,20)"/>
<path d="M0 0 C0 0.66 0 1.32 0 2 C-0.51949219 2.25394531 -1.03898438 2.50789063 -1.57421875 2.76953125 C-3.02066016 3.4833942 -4.46054604 4.21065292 -5.89453125 4.94921875 C-8 6 -8 6 -10.875 7.125 C-14.37779261 10.21569937 -14.43667194 14.51859915 -15 19 C-15.33 19 -15.66 19 -16 19 C-16.36547084 11.81240674 -15.40023307 8.77921724 -10.625 3.25 C-7.03762428 0.17510653 -4.59585202 0 0 0 Z " fill="#27448E" transform="translate(215,51)"/>
<path d="M0 0 C0.33 0 0.66 0 1 0 C1.3125 2.1875 1.3125 2.1875 1 5 C-1.24796067 7.82600769 -2.92750144 9.6330926 -6.375 10.8125 C-9.62092197 11.04435157 -12.74746949 11.1841055 -16 11 C-16.66 10.34 -17.32 9.68 -18 9 C-17.20335937 8.93683594 -16.40671875 8.87367187 -15.5859375 8.80859375 C-8.01664364 8.00983713 -8.01664364 8.00983713 -2.3125 3.375 C-1.53659803 2.25348978 -0.76412087 1.12956998 0 0 Z " fill="#263A7B" transform="translate(262,104)"/>
<path d="M0 0 C0.66 0.33 1.32 0.66 2 1 C1.51917969 1.53109375 1.03835937 2.0621875 0.54296875 2.609375 C-1.38380447 5.59465402 -1.4958424 7.72350016 -1.6875 11.25 C-1.78611328 12.86648437 -1.78611328 12.86648437 -1.88671875 14.515625 C-1.92410156 15.33546875 -1.96148437 16.1553125 -2 17 C-1.34 17 -0.68 17 0 17 C0 17.66 0 18.32 0 19 C0.99 19.33 1.98 19.66 3 20 C2.67 20.99 2.34 21.98 2 23 C-2.42304365 18.69036773 -4.15391801 16.85550465 -4.3125 10.6875 C-4.2967401 6.68448605 -4.18296468 5.29159996 -2 1.8125 C-1.34 1.214375 -0.68 0.61625 0 0 Z " fill="#6DA0D4" transform="translate(205,90)"/>
<path d="M0 0 C3.16115776 1.36983503 3.9927092 1.9890638 6 5 C6.68453217 10.07031383 6.96578693 15.25672039 4.125 19.6875 C3.42375 20.450625 2.7225 21.21375 2 22 C1.34 22 0.68 22 0 22 C1.875 18.125 1.875 18.125 3 17 C3.15181257 15.23371914 3.22182672 13.46006915 3.25 11.6875 C3.27578125 10.72199219 3.3015625 9.75648437 3.328125 8.76171875 C2.95316816 5.60583204 2.00651531 4.39197747 0 2 C0 1.34 0 0.68 0 0 Z " fill="#FCE245" transform="translate(188,90)"/>
<path d="M0 0 C2.17983486 0.97716735 3.74906808 1.69993984 5.296875 3.55078125 C7.68021288 5.578805 9.3480418 5.40015163 12.4375 5.375 C13.38496094 5.38273437 14.33242187 5.39046875 15.30859375 5.3984375 C18.35191571 4.94790217 19.73261099 4.02617742 22 2 C22.66 2.33 23.32 2.66 24 3 C19.08758701 7.0074948 16.60971906 8.3560073 10.32421875 8.28515625 C6.74920647 7.8465413 4.6668747 6.34164608 2 4 C0.625 1.75 0.625 1.75 0 0 Z " fill="#F8B160" transform="translate(237,72)"/>
<path d="M0 0 C4.17630054 1.39210018 4.99070521 3.11998247 7 7 C7.70004952 11.32965408 7.50251023 14.84422647 5.75 18.875 C4.00092422 20.99887774 2.29627678 22.4955428 0 24 C1.20381448 21.50638429 2.45428722 19.31856917 4 17 C4.717131 12.08014781 4.79273274 8.18909912 2 4 C1.34 3.34 0.68 2.68 0 2 C0 1.34 0 0.68 0 0 Z " fill="#798FC7" transform="translate(222,54)"/>
<path d="M0 0 C2.35716006 1.10192442 3.96696094 2.33186538 6 4 C5.67 4.66 5.34 5.32 5 6 C4.34 5.34 3.68 4.68 3 4 C-1.00536855 2.85560899 -4.8587071 2.63024171 -9 3 C-11.90809543 4.85716187 -11.90809543 4.85716187 -14 7 C-14.66 6.67 -15.32 6.34 -16 6 C-10.84586002 0.66813106 -7.36856762 -1.07771567 0 0 Z " fill="#FCE763" transform="translate(254,156)"/>
<path d="M0 0 C2.08218362 -0.10832169 4.16599129 -0.18573541 6.25 -0.25 C7.99023438 -0.31960937 7.99023438 -0.31960937 9.765625 -0.390625 C13 0 13 0 15.375 1.8125 C17.38406309 4.51700801 17.69823496 6.68058454 18 10 C17.34 10 16.68 10 16 10 C15.54625 9.236875 15.0925 8.47375 14.625 7.6875 C12.87892662 4.79976325 11.97215095 3.56428997 9 2 C6.00925664 1.46704746 3.03051553 1.18778836 0 1 C0 0.67 0 0.34 0 0 Z " fill="#96351C" transform="translate(245,18)"/>
<path d="M0 0 C1 3 1 3 0.1796875 4.7890625 C-3.37546468 9.79182156 -3.37546468 9.79182156 -6.8125 10.9375 C-7.8953125 10.9684375 -7.8953125 10.9684375 -9 11 C-9 10.67 -9 10.34 -9 10 C-11.31 9.67 -13.62 9.34 -16 9 C-16 8.67 -16 8.34 -16 8 C-15.40832031 7.98582031 -14.81664062 7.97164062 -14.20703125 7.95703125 C-9.76035282 7.68863467 -7.58917861 7.48889289 -4.0625 4.5625 C-3.381875 3.716875 -2.70125 2.87125 -2 2 C-1.34 1.34 -0.68 0.68 0 0 Z " fill="#B39E2A" transform="translate(262,174)"/>
<path d="M0 0 C0 3 0 3 -1.5 5.25 C-3.40170179 8.73645328 -3.36291252 11.08054474 -3 15 C-2.01 16.485 -2.01 16.485 -1 18 C-1.33 18.99 -1.66 19.98 -2 21 C-5.16899021 17.83100979 -5.77003072 14.63594068 -6.140625 10.32421875 C-5.90224037 6.38425051 -4.305961 4.1624608 -2 1 C-1.34 0.67 -0.68 0.34 0 0 Z " fill="#E968A9" transform="translate(310,20)"/>
<path d="M0 0 C0 3 0 3 -2.3125 5.6875 C-6.10121661 8.67145342 -9.81322476 8.63891501 -14.49609375 8.44140625 C-17 8 -17 8 -19.6875 6 C-20.120625 5.34 -20.55375 4.68 -21 4 C-19.989375 4.350625 -18.97875 4.70125 -17.9375 5.0625 C-12.93759994 6.47661315 -8.83037187 5.9355234 -4.1875 3.5625 C-1.93321291 2.04281224 -1.93321291 2.04281224 0 0 Z " fill="#F59165" transform="translate(261,37)"/>
<path d="M0 0 C5.05510556 0.44603873 7.40166738 2.64700824 11 6 C12.17673198 8.35346396 12.16623866 9.8806033 12.1875 12.5 C12.20167969 13.2940625 12.21585937 14.088125 12.23046875 14.90625 C12 17 12 17 10 19 C10.01160156 18.38511719 10.02320313 17.77023438 10.03515625 17.13671875 C10.04417969 16.32847656 10.05320312 15.52023438 10.0625 14.6875 C10.07410156 13.88699219 10.08570313 13.08648437 10.09765625 12.26171875 C10.09657855 9.83138666 10.09657855 9.83138666 9 7 C6.91053663 5.3618362 6.91053663 5.3618362 4.4375 3.875 C2.94436098 2.9385852 1.46100052 1.98580641 0 1 C0 0.67 0 0.34 0 0 Z " fill="#B31B6E" transform="translate(322,18)"/>
<path d="M0 0 C2 4 2 4 2 6 C4.97 6 7.94 6 11 6 C11 6.33 11 6.66 11 7 C5.39 7 -0.22 7 -6 7 C-4.02 4.69 -2.04 2.38 0 0 Z " fill="#828BAD" transform="translate(231,77)"/>
<path d="M0 0 C0.33 0 0.66 0 1 0 C1.86019208 9.67238208 1.86019208 9.67238208 -1.25 13.5625 C-4.86632124 16.76787565 -4.86632124 16.76787565 -8 17 C-7.236875 16.236875 -6.47375 15.47375 -5.6875 14.6875 C-2.0811009 10.43563743 -1.16792261 5.33636183 0 0 Z " fill="#95341C" transform="translate(297,62)"/>
<path d="M0 0 C0.66 0.33 1.32 0.66 2 1 C-3.02317881 5.90066225 -3.02317881 5.90066225 -7.6875 6.375 C-11 6 -11 6 -14 5 C-14 4.34 -14 3.68 -14 3 C-13.11248047 3.05220703 -13.11248047 3.05220703 -12.20703125 3.10546875 C-7.12480481 3.27957439 -4.28759652 2.98832485 0 0 Z " fill="#DF1386" transform="translate(329,41)"/>
<path d="M0 0 C2.91517292 1.07401108 4.77810176 1.77810176 7 4 C7.4140625 6.3828125 7.4140625 6.3828125 7.625 9.125 C7.69976562 10.03507813 7.77453125 10.94515625 7.8515625 11.8828125 C7.90054687 12.58148438 7.94953125 13.28015625 8 14 C7.01 14.495 7.01 14.495 6 15 C5.9175 13.96875 5.835 12.9375 5.75 11.875 C4.93560277 7.667281 3.53296919 5.40367735 1 2 C0.67 1.34 0.34 0.68 0 0 Z " fill="#253778" transform="translate(291,124)"/>
<path d="M0 0 C0.33 0 0.66 0 1 0 C1.62222222 7.93333333 1.62222222 7.93333333 -0.75 12 C-2.95308249 13.95829554 -4.10905762 14.69025617 -7 15 C-7 14.34 -7 13.68 -7 13 C-6.401875 12.484375 -5.80375 11.96875 -5.1875 11.4375 C-2.14132296 8.04318844 -1.22180974 4.33187089 0 0 Z " fill="#1C5094" transform="translate(228,98)"/>
<path d="M0 0 C1.98 0.99 1.98 0.99 4 2 C4.33 1.34 4.66 0.68 5 0 C5.66 0 6.32 0 7 0 C7 2.31 7 4.62 7 7 C6.34 6.01 5.68 5.02 5 4 C4.01 4.33 3.02 4.66 2 5 C2 5.99 2 6.98 2 8 C1.34 8 0.68 8 0 8 C0 5.36 0 2.72 0 0 Z " fill="#484848" transform="translate(415,204)"/>
<path d="M0 0 C-1.4163067 2.8326134 -3.14497293 3.01707833 -6.0625 4.125 C-6.98160156 4.47820312 -7.90070313 4.83140625 -8.84765625 5.1953125 C-9.55792969 5.46085937 -10.26820313 5.72640625 -11 6 C-11.66 5.34 -12.32 4.68 -13 4 C-8.61350163 0.52105302 -5.57581513 -0.123907 0 0 Z " fill="#CB7125" transform="translate(286,86)"/>
<path d="M0 0 C-1.0625 1.4375 -1.0625 1.4375 -3 3 C-5.33247761 3.33926947 -7.66585471 3.67240066 -10 4 C-12.38028291 5.42675173 -12.38028291 5.42675173 -14 7 C-12.98929671 4.3354186 -12.0600516 3.04804128 -9.8125 1.25 C-6.37585024 -0.27739989 -3.72102151 -0.21888362 0 0 Z " fill="#CEBA25" transform="translate(216,121)"/>
<path d="M0 0 C0.66 0.33 1.32 0.66 2 1 C2.05399736 2.45792884 2.09279177 3.91642712 2.125 5.375 C2.14820313 6.18710938 2.17140625 6.99921875 2.1953125 7.8359375 C2 10 2 10 0 12 C-0.144375 11.21625 -0.28875 10.4325 -0.4375 9.625 C-0.87798925 7.03578982 -0.87798925 7.03578982 -2 5 C-1.0625 2.375 -1.0625 2.375 0 0 Z " fill="#E6D215" transform="translate(263,168)"/>
<path d="M0 0 C6.47058824 8.41176471 6.47058824 8.41176471 8 13 C4.18059812 11.72686604 3.18616191 10.35211493 1 7 C0.25 3.1875 0.25 3.1875 0 0 Z " fill="#215CA4" transform="translate(235,136)"/>
<path d="M0 0 C0.33 0.66 0.66 1.32 1 2 C-2.47325181 3.1577506 -5.36067448 3.06866652 -9 3 C-9.33 2.34 -9.66 1.68 -10 1 C-8.71073008 0.63720544 -7.41846728 0.28503302 -6.125 -0.0625 C-5.40570313 -0.25972656 -4.68640625 -0.45695312 -3.9453125 -0.66015625 C-2 -1 -2 -1 0 0 Z " fill="#D54A24" transform="translate(290,78)"/>
<path d="M0 0 C0 0.66 0 1.32 0 2 C-6.625 4.125 -6.625 4.125 -10 3 C-10 2.34 -10 1.68 -10 1 C-6.78548731 -0.60725635 -3.56387464 -0.05748185 0 0 Z " fill="#219545" transform="translate(180,156)"/>
<path d="M0 0 C2.97 1.98 2.97 1.98 6 4 C4.3545622 5.68762851 2.68711423 7.3540349 1 9 C0.67 9 0.34 9 0 9 C0 6.03 0 3.06 0 0 Z " fill="#F1EEEF" transform="translate(267,114)"/>
<path d="M0 0 C0.33 0 0.66 0 1 0 C1.02578125 0.66386719 1.0515625 1.32773438 1.078125 2.01171875 C1.43351002 7.54441741 1.83118278 10.96566075 6 15 C5.67 15.66 5.34 16.32 5 17 C2.63344822 15.34341375 1.42958407 14.4528653 0 12 C-0.44572896 7.96746391 -0.29001875 4.04092798 0 0 Z " fill="#F37742" transform="translate(306,96)"/>
<path d="M0 0 C4.97333608 -0.29254918 8.0436971 -0.16504232 12 3 C12.70718101 4.31229465 13.38081791 5.64396321 14 7 C9.33333333 4.66666667 4.66666667 2.33333333 0 0 Z " fill="#945320" transform="translate(247,52)"/>
<path d="M0 0 C0.721875 0.61875 1.44375 1.2375 2.1875 1.875 C4.78381938 3.83666353 6.94671666 4.95316 10 6 C6.59068103 7.13643966 5.99664544 6.86747764 2.8125 5.5625 C2.09707031 5.27503906 1.38164062 4.98757812 0.64453125 4.69140625 C-0.16951172 4.34916016 -0.16951172 4.34916016 -1 4 C-1 1 -1 1 0 0 Z " fill="#1F8A41" transform="translate(170,177)"/>
<path d="M0 0 C0.99 0.33 1.98 0.66 3 1 C3 1.66 3 2.32 3 3 C3.804375 3.12375 4.60875 3.2475 5.4375 3.375 C6.7059375 3.684375 6.7059375 3.684375 8 4 C8.33 4.66 8.66 5.32 9 6 C1.25 5.25 1.25 5.25 -1 3 C-0.34 2.67 0.32 2.34 1 2 C0.67 1.34 0.34 0.68 0 0 Z " fill="#D4BC22" transform="translate(206,144)"/>
<path d="M0 0 C1.32 0.33 2.64 0.66 4 1 C0.37 3.31 -3.26 5.62 -7 8 C-4.98417794 3.96835588 -3.71998812 2.39142094 0 0 Z " fill="#264088" transform="translate(173,18)"/>
<path d="M0 0 C0.66 0.33 1.32 0.66 2 1 C-1.96 4.465 -1.96 4.465 -6 8 C-6.33 7.01 -6.66 6.02 -7 5 C-4.88437775 2.67281553 -2.94982021 1.14186589 0 0 Z " fill="#4F6AB1" transform="translate(313,158)"/>
<path d="M0 0 C0.33 0 0.66 0 1 0 C1.68837568 9.67550265 1.68837568 9.67550265 -0.875 13.625 C-1.57625 14.40875 -2.2775 15.1925 -3 16 C-3.66 16 -4.32 16 -5 16 C-3.79618552 13.50638429 -2.54571278 11.31856917 -1 9 C-0.54605448 6.72087062 -0.54605448 6.72087062 -0.375 4.3125 C-0.30023438 3.50425781 -0.22546875 2.69601563 -0.1484375 1.86328125 C-0.09945312 1.24839844 -0.05046875 0.63351563 0 0 Z " fill="#FCE865" transform="translate(193,96)"/>
<path d="M0 0 C0.33 0.99 0.66 1.98 1 3 C-2.88309282 6.64775386 -5.71201818 7.58525633 -11 8 C-8.84997903 6.32776147 -6.71854683 4.83246835 -4.375 3.4375 C-1.92388629 2.08307837 -1.92388629 2.08307837 0 0 Z " fill="#AC1B6A" transform="translate(331,37)"/>
<path d="M0 0 C0.33 0 0.66 0 1 0 C1.08086147 1.79093191 1.13912702 3.58289628 1.1875 5.375 C1.22230469 6.37273437 1.25710938 7.37046875 1.29296875 8.3984375 C1.19628906 9.25695312 1.09960938 10.11546875 1 11 C0.01 11.66 -0.98 12.32 -2 13 C-1.85769192 11.58297487 -1.71099254 10.1663904 -1.5625 8.75 C-1.48128906 7.96109375 -1.40007812 7.1721875 -1.31640625 6.359375 C-1.02365007 4.17635361 -0.57935581 2.1226818 0 0 Z " fill="#2F4E9D" transform="translate(332,167)"/>
<path d="M0 0 C5.02254631 -0.2954439 7.89542386 0.01485372 12 3 C8.69564916 4.12377697 6.9493138 3.89554742 3.75 2.5625 C3.04359375 2.27503906 2.3371875 1.98757812 1.609375 1.69140625 C1.07828125 1.46324219 0.5471875 1.23507813 0 1 C0 0.67 0 0.34 0 0 Z " fill="#2C4C9C" transform="translate(283,121)"/>
<path d="M0 0 C0.99 1.485 0.99 1.485 2 3 C3.32381517 4.67423683 4.65576661 6.34211215 6 8 C4.02 8 2.04 8 0 8 C0 5.36 0 2.72 0 0 Z " fill="#FAD7C3" transform="translate(232,41)"/>
<path d="M0 0 C0.95465783 2.16967689 1.14401212 3.56328793 0.3984375 5.82421875 C-0.35870385 7.5684743 -1.17609198 9.28627131 -2 11 C-2.33 11 -2.66 11 -3 11 C-3.32613618 6.32538149 -2.70582788 3.83325617 0 0 Z " fill="#BF4123" transform="translate(238,21)"/>
<path d="M0 0 C0.66 0 1.32 0 2 0 C3.25 6.625 3.25 6.625 1 10 C-0.1577506 6.52674819 -0.06866652 3.63932552 0 0 Z " fill="#DBC61F" transform="translate(235,168)"/>
<path d="M0 0 C-0.33 0.66 -0.66 1.32 -1 2 C-3.06640625 2.4140625 -3.06640625 2.4140625 -5.5625 2.625 C-6.38878906 2.69976562 -7.21507812 2.77453125 -8.06640625 2.8515625 C-9.02353516 2.92503906 -9.02353516 2.92503906 -10 3 C-9 1 -9 1 -6.125 -0.1875 C-3 -1 -3 -1 0 0 Z " fill="#294592" transform="translate(293,147)"/>
<path d="M0 0 C2.35171131 0.59861742 4.6859378 1.26924352 7 2 C7.33 2.66 7.66 3.32 8 4 C4.625 4.125 4.625 4.125 1 4 C0.34 3.34 -0.32 2.68 -1 2 C-0.67 1.34 -0.34 0.68 0 0 Z " fill="#D3BA24" transform="translate(173,111)"/>
<path d="M0 0 C2.66735273 2.48952921 4.55746343 4.63408134 6 8 C5.01 8.33 4.02 8.66 3 9 C0 3.375 0 3.375 0 0 Z " fill="#294793" transform="translate(304,171)"/>
<path d="M0 0 C0.9075 0.53625 1.815 1.0725 2.75 1.625 C2.75 2.615 2.75 3.605 2.75 4.625 C2.09 3.965 1.43 3.305 0.75 2.625 C-1.21690374 1.95207499 -1.21690374 1.95207499 -3.375 1.5 C-4.65375 1.21125 -5.9325 0.9225 -7.25 0.625 C-4.22502149 -1.58556122 -3.57040661 -1.51055664 0 0 Z " fill="#FCE450" transform="translate(256.25,157.375)"/>
<path d="M0 0 C0.66 0.33 1.32 0.66 2 1 C-0.31 3.31 -2.62 5.62 -5 8 C-5.33 7.34 -5.66 6.68 -6 6 C-2.25 1.125 -2.25 1.125 0 0 Z " fill="#ECCB11" transform="translate(209,124)"/>
<path d="M0 0 C-0.33 0.66 -0.66 1.32 -1 2 C-3.06640625 2.4140625 -3.06640625 2.4140625 -5.5625 2.625 C-6.38878906 2.69976562 -7.21507812 2.77453125 -8.06640625 2.8515625 C-9.02353516 2.92503906 -9.02353516 2.92503906 -10 3 C-10 2.34 -10 1.68 -10 1 C-6.61981469 -0.04005702 -3.5219721 -0.08004482 0 0 Z " fill="#3069B1" transform="translate(225,112)"/>
<path d="M0 0 C0.71929687 0.29003906 1.43859375 0.58007812 2.1796875 0.87890625 C2.90414062 1.16636719 3.62859375 1.45382813 4.375 1.75 C4.92929688 1.97816406 5.48359375 2.20632812 6.0546875 2.44140625 C6.0546875 2.77140625 6.0546875 3.10140625 6.0546875 3.44140625 C-0.46838942 3.81063702 -0.46838942 3.81063702 -2.8828125 1.94140625 C-3.40875 1.19890625 -3.40875 1.19890625 -3.9453125 0.44140625 C-1.9453125 -0.55859375 -1.9453125 -0.55859375 0 0 Z " fill="#2A4897" transform="translate(208.9453125,76.55859375)"/>
<path d="M0 0 C0.66 0 1.32 0 2 0 C3.76462683 3.08809695 4 4.23312136 4 8 C3.34 8 2.68 8 2 8 C0.93224776 6.03533587 -0.06553465 4.03144641 -1 2 C-0.67 1.34 -0.34 0.68 0 0 Z " fill="#B94023" transform="translate(259,20)"/>
<path d="M0 0 C0.33 0.66 0.66 1.32 1 2 C-0.98 4.97 -0.98 4.97 -3 8 C-3.99 7.67 -4.98 7.34 -6 7 C-5.34 6.67 -4.68 6.34 -4 6 C-4.33 5.34 -4.66 4.68 -5 4 C-3.35 2.68 -1.7 1.36 0 0 Z " fill="#274087" transform="translate(330,176)"/>
<path d="M0 0 C0 0.66 0 1.32 0 2 C-2.8125 2.625 -2.8125 2.625 -6 3 C-6.99 2.34 -7.98 1.68 -9 1 C-5.8035914 -0.06546953 -3.34252724 -0.07427838 0 0 Z " fill="#DCC61F" transform="translate(182,86)"/>
<path d="M0 0 C2 3.75 2 3.75 2 6 C0.02 6 -1.96 6 -4 6 C-2.68 4.02 -1.36 2.04 0 0 Z " fill="#F4F1F0" transform="translate(231,77)"/>
<path d="M0 0 C1.5 1.0625 1.5 1.0625 3 3 C3.1875 6.6875 3.1875 6.6875 3 10 C0.70366176 6.55549263 0.45983515 4.06187717 0 0 Z " fill="#C97025" transform="translate(261,57)"/>
<path d="M0 0 C0.99 0.33 1.98 0.66 3 1 C1.35 2.65 -0.3 4.3 -2 6 C-2.33 4.68 -2.66 3.36 -3 2 C-2.01 1.34 -1.02 0.68 0 0 Z " fill="#F16E36" transform="translate(277,53)"/>
<path d="M0 0 C0 0.66 0 1.32 0 2 C-2.8125 3.125 -2.8125 3.125 -6 4 C-6.99 3.34 -7.98 2.68 -9 2 C-3.375 0 -3.375 0 0 0 Z " fill="#2D4D9E" transform="translate(215,51)"/>
<path d="M0 0 C3.3 0.33 6.6 0.66 10 1 C10 1.66 10 2.32 10 3 C8.5199159 2.88637738 7.04089926 2.75877092 5.5625 2.625 C4.73878906 2.55539063 3.91507813 2.48578125 3.06640625 2.4140625 C2.38449219 2.27742188 1.70257813 2.14078125 1 2 C0.67 1.34 0.34 0.68 0 0 Z " fill="#2D4D9E" transform="translate(171,43)"/>
<path d="M0 0 C0.8971875 0.5259375 0.8971875 0.5259375 1.8125 1.0625 C-1.40201269 2.66975635 -4.62362536 2.11998185 -8.1875 2.0625 C-3.10054348 -1.32880435 -3.10054348 -1.32880435 0 0 Z " fill="#C24324" transform="translate(325.1875,112.9375)"/>
<path d="M0 0 C2.72869407 0.03287583 5.2966618 0.56397771 8 1 C7.34 1.66 6.68 2.32 6 3 C3.27130593 2.96712417 0.7033382 2.43602229 -2 2 C-1.34 1.34 -0.68 0.68 0 0 Z " fill="#DD7B24" transform="translate(280,113)"/>
<path d="M0 0 C1.65 1.65 3.3 3.3 5 5 C4.01 5.33 3.02 5.66 2 6 C1.01 5.34 0.02 4.68 -1 4 C-0.67 2.68 -0.34 1.36 0 0 Z " fill="#B09D2A" transform="translate(169,107)"/>
<path d="M0 0 C2.25 -0.25 2.25 -0.25 5 0 C7.3125 2 7.3125 2 9 4 C5.30581799 4 3.22163822 2.71820705 0 1 C0 0.67 0 0.34 0 0 Z " fill="#BC4124" transform="translate(320,87)"/>
<path d="M0 0 C1.670625 0.061875 1.670625 0.061875 3.375 0.125 C3.375 0.785 3.375 1.445 3.375 2.125 C0.04965243 3.23344919 -2.24682575 2.96954356 -5.625 2.125 C-3.625 0.125 -3.625 0.125 0 0 Z " fill="#E31488" transform="translate(321.625,15.875)"/>
</svg>
